<svg width="5334" height="5334" viewBox="0 0 5334 5334" fill="none" xmlns="http://www.w3.org/2000/svg">
<path d="M4247.04 2745.53C4247.04 3613.84 3543.15 4317.73 2674.84 4317.73C1806.53 4317.73 1102.63 3613.84 1102.63 2745.53C1102.63 1877.23 1806.53 1173.33 2674.84 1173.33C3543.15 1173.33 4247.04 1877.23 4247.04 2745.53Z" fill="#00EDF9"/>
<path d="M4413.68 1341.73C4413.53 1371.13 4409.39 1401.79 4400.57 1433.6C4325.37 1706.45 4097.8 1663.59 4097.8 1663.59C4097.8 1663.59 4097.65 1663.95 4097.28 1664.6C4096.56 1665.91 4095.17 1668.6 4093.13 1672.53C4084.19 1689.64 4062.77 1730.63 4032.71 1789.01C3914.92 2017.68 3663.91 2513.97 3501.56 2896.83C3483.87 2938.55 3465.08 2983.6 3445.36 3031.15C3384.13 3178.56 3313.88 3350.23 3238.39 3523.35C3159.76 3703.32 3075.6 3884.88 2990.05 4042.49C2935.16 4143.55 2879.76 4234.76 2824.95 4309.45C2761.17 4396.24 2698.2 4460.59 2637.85 4491.97C2626.49 4497.93 2615.35 4502.67 2604.21 4506.16C2602.61 4506.75 2600.93 4507.25 2599.33 4507.69C2599.33 4507.69 2648.77 4723.84 2520.27 4739.35C2462.61 4746.33 2442.88 4695.59 2435.83 4629.12C2427.01 4547.52 2437.2 4442.17 2419.44 4390.48C2387.27 4296.72 2215.01 4304.87 2176.87 3997.93C2176.87 3997.93 2066.36 3856.35 2034.4 3684.68C2043.79 3740.59 2080.12 3989.79 1977.91 3989.79C1862.73 3989.79 1928.04 3748.6 1887.92 3556.4C1847.88 3364.21 1670.47 2886.2 1670.47 2886.2C1670.47 2886.2 1697.84 3169.76 1558.35 3165.24C1418.87 3160.65 1451.55 2946.19 1489.19 2778.81C1526.91 2611.52 1483.59 2313.61 1439.17 2094.41C1405.69 1928.93 1384.28 1691.32 1395.05 1549.07C1398.19 1507.2 1404.23 1473.57 1413.48 1452.53C1414.43 1450.35 1415.44 1448.31 1416.47 1446.41C1416.47 1446.41 1395.57 1438.19 1365.72 1421.81C1362.37 1419.99 1358.88 1418.03 1355.24 1415.99C1349.05 1412.41 1342.57 1408.63 1335.95 1404.48C1333.11 1402.65 1330.12 1400.84 1327.21 1398.95C1325.53 1397.85 1323.86 1396.84 1322.26 1395.75C1312.36 1389.27 1302.17 1382.13 1291.97 1374.35C1290.22 1373.03 1288.55 1371.72 1286.81 1370.41C1281.71 1366.48 1276.61 1362.4 1271.52 1358.04C1269.77 1356.57 1268.09 1355.12 1266.42 1353.67C1263.07 1350.83 1259.72 1347.84 1256.37 1344.71C1251.35 1340.12 1246.4 1335.32 1241.59 1330.44C1238.39 1327.16 1235.19 1323.81 1232.06 1320.47C1222.23 1309.76 1212.91 1298.33 1204.39 1286.32C1202.06 1283.05 1199.81 1279.71 1197.62 1276.35C1196.53 1274.68 1195.44 1273 1194.42 1271.33C1191.73 1266.96 1189.11 1262.52 1186.63 1258.01C1185.25 1255.45 1183.94 1252.91 1182.63 1250.36C1181.68 1248.47 1180.66 1246.51 1179.79 1244.53C1178.91 1242.72 1178.04 1240.89 1177.24 1239C1176.22 1236.83 1175.35 1234.64 1174.4 1232.45C1116.16 1091.21 1157 924.947 1284.18 849.587C1411.36 774.24 1790.08 755.827 1931.67 714.48C2073.27 673.054 2451.61 566.254 2860.76 694.747C3163.33 789.84 3327.35 785.68 3472.21 781.52C3523.2 780.053 3571.83 778.587 3623.28 781.453C3711.44 786.4 3899.12 832.2 4069.47 919.187C4161.28 966.08 4248.05 1024.89 4311.53 1095.81L4311.68 1095.88C4374.44 1165.99 4414.41 1247.96 4413.68 1341.73" fill="#FFA05C"/>
<path d="M2905.15 4247.51C2924.96 4216.97 2945.24 4183.95 2965.93 4148.55C2951.48 4184.79 2930.76 4218.85 2905.15 4247.51Z" fill="#14BEC7"/>
<path d="M2619.97 4466.32C2601.13 4370.81 2597.28 4261.56 2625.68 4218.29C2633.69 4206.09 2641.96 4203.36 2647.51 4202.36C2649.01 4202.09 2650.53 4201.96 2652.09 4201.96C2662.44 4201.96 2674.13 4207.81 2691.07 4216.77C2711.16 4227.4 2735.92 4240.49 2765.57 4240.49C2782.89 4240.49 2801.87 4236.03 2822.55 4223.99C2933.99 4159.13 2928.28 3980.49 2905.49 3797.12C2895.61 3717.52 2898.68 3643.04 2904.97 3585.52C2912.89 3595.08 2921.76 3603.03 2931.39 3608.96C2944.93 3617.32 2959.65 3621.52 2974.67 3621.52C2986.77 3621.52 2999.08 3618.77 3011.09 3613.28C3070.96 3585.91 3072.79 3520.07 3074.72 3450.36C3075.39 3426.28 3076.08 3401.39 3078.77 3375.23C3081.95 3344.17 3088.91 3308.76 3096.89 3274.93C3106.04 3295.88 3118.83 3315.09 3136.65 3329.37C3151.83 3341.52 3175.08 3353.43 3207.99 3353.43C3222.53 3353.43 3238.99 3351.09 3257.45 3345.43C3267.8 3342.25 3277.25 3338.31 3285.89 3333.67C3261.28 3392.04 3235.88 3451.56 3209.97 3510.95C3209.36 3512.37 3208.72 3513.81 3208.11 3515.24C3175.79 3503.32 3147.89 3481.67 3131.73 3450.92C3152.48 3567.61 3071.16 3693.27 2942.81 3720.72C2965.05 3803.76 2987.33 3889.15 2991.23 3974.33C2981.65 3992.63 2972.19 4010.39 2962.81 4027.64C2962.59 4028.05 2962.37 4028.48 2962.17 4028.89C2905.23 4133.61 2851.03 4221.33 2801.04 4289.64C2800.64 4290.12 2800.25 4290.61 2799.89 4291.12C2790.6 4303.77 2781.4 4315.83 2772.32 4327.25C2761.63 4329.36 2750.68 4330.61 2739.48 4330.93C2736.29 4331.03 2733.11 4331.05 2729.89 4331.05C2728.23 4331.05 2726.56 4331.04 2724.89 4331.04C2723.21 4331.03 2721.53 4331.03 2719.85 4331.03C2707.03 4331.03 2694.25 4331.43 2682.12 4335.23C2633.76 4350.36 2619.51 4409.71 2629.05 4461.49C2627.07 4462.61 2625.08 4463.68 2623.11 4464.71C2622.05 4465.27 2621 4465.81 2619.97 4466.32ZM3371.43 3128.57C3371.89 3079.29 3367.4 3026.09 3362.96 2973.48C3356.91 2901.72 3350.64 2827.52 3355.91 2762.93C3364.99 2652.23 3400.64 2572.87 3445.81 2492.31C3458.03 2476.99 3468.33 2459.91 3476.29 2441.39C3477.28 2439.09 3478.27 2436.79 3479.27 2434.45C3479.59 2433.91 3479.91 2433.35 3480.24 2432.8C3510.2 2381.77 3541.19 2329.01 3571.25 2264.91C3601.24 2201.04 3621.33 2139.16 3634.8 2084.17C3666.73 2097.13 3718.27 2118.84 3767.88 2143.23C3719.8 2179.75 3664.12 2209.4 3638.05 2263.03C3606.32 2328.17 3628.96 2409.28 3600.13 2475.81C3574.36 2535.29 3513.35 2570.75 3473.39 2621.79C3424.03 2684.68 3409.25 2768.92 3413.76 2848.71C3416.25 2892.68 3424.05 2935.96 3433.45 2979.03C3427.68 2992.91 3422.07 3006.41 3416.73 3019.25C3405.76 3045.68 3394.49 3072.87 3382.97 3100.72C3379.16 3109.92 3375.32 3119.2 3371.43 3128.57M3876.44 2000.04C3849.41 1983.12 3819.8 1965.76 3787.88 1948.29C3852.57 1911.11 3857.64 1826.36 3850.01 1744.31C3871.99 1752.44 3894.44 1759.76 3917.12 1766.09C3916.12 1815.29 3912.64 1864.33 3902.84 1912.48C3896.8 1942.27 3888.12 1971.85 3876.44 2000.04" fill="#E0804A"/>
<path d="M3807.03 1654.33C3822.09 1759.6 3847.15 1897.27 3755.77 1928.93C3664.41 1960.61 3630.85 1874.48 3630.85 1874.48C3630.85 1874.48 3635.88 2054.31 3543.2 2251.73C3450.6 2449.17 3342.41 2548.19 3325.01 2760.4C3307.69 2972.61 3408.67 3266.59 3248.36 3315.8C3088.05 3365.01 3106.55 3127.47 3106.55 3127.47C3106.55 3127.47 3058.35 3270.37 3047.93 3372.07C3037.45 3473.84 3056.01 3558.65 2998.21 3585.09C2940.48 3611.51 2897.45 3537.4 2894.76 3463.8C2894.76 3463.8 2852.03 3618.07 2874.75 3800.95C2897.45 3983.81 2899.35 4143.55 2806.96 4197.2C2766.45 4220.79 2736.04 4205.48 2707.04 4190.17C2685.75 4178.93 2665.2 4167.71 2642 4171.87C2550.63 4188.39 2569.41 4388.81 2595.84 4501.36C2598.75 4513.59 2602.61 4529.89 2605.88 4548.39C2618.92 4621.33 2622.77 4726.97 2520.27 4739.35C2516.71 4739.79 2513.28 4740 2510.01 4740C2508.19 4740 2506.44 4739.93 2504.76 4739.79C2503.39 4739.71 2502.07 4739.56 2500.84 4739.35C2499.96 4739.27 2499.16 4739.2 2498.36 4738.97C2497.27 4738.84 2496.25 4738.61 2495.23 4738.4C2495.01 4738.32 2494.79 4738.32 2494.65 4738.25C2493.56 4738.04 2492.39 4737.67 2491.37 4737.31C2484.09 4735.12 2477.68 4731.56 2472.08 4726.83C2471.2 4726.09 2470.4 4725.37 2469.6 4724.56C2465.67 4720.85 2462.11 4716.48 2458.97 4711.6C2458.11 4710.23 2457.23 4708.84 2456.43 4707.39C2455.55 4705.93 2454.75 4704.4 2454.03 4702.87C2448.93 4692.75 2445 4680.81 2442.01 4667.71C2441.57 4665.96 2441.21 4664.21 2440.85 4662.47C2440.48 4660.79 2440.19 4658.97 2439.83 4657.23C2438.44 4650.09 2437.35 4642.67 2436.48 4634.95C2436.27 4632.99 2436.04 4631.09 2435.83 4629.12C2427.01 4547.52 2437.21 4442.17 2419.44 4390.48C2387.27 4296.72 2215.01 4304.87 2176.87 3997.93C2176.87 3997.93 2071.39 3862.75 2036.73 3696.47C2035.93 3692.53 2035.13 3688.61 2034.4 3684.68C2035.05 3688.76 2035.93 3693.92 2036.8 3699.89C2042.63 3737.97 2051.65 3810.84 2047.13 3874.03C2042.77 3936.72 2025.08 3989.79 1977.91 3989.79C1945.51 3989.79 1927.39 3970.71 1917.19 3939.04C1891.12 3858.01 1916.75 3694.57 1887.92 3556.4C1854.44 3395.59 1724.71 3034.56 1683.28 2921.07C1675.2 2898.93 1670.47 2886.2 1670.47 2886.2C1670.47 2886.2 1697.84 3169.76 1558.35 3165.24C1499.01 3163.28 1470.85 3123.39 1460.95 3065.21C1447.55 2986.73 1467.57 2874.99 1489.19 2778.81C1526.91 2611.52 1483.59 2313.61 1439.17 2094.41C1395.87 1880.16 1372.64 1544.92 1413.48 1452.53C1414.43 1450.35 1415.44 1448.31 1416.47 1446.41C1416.47 1446.41 1395.64 1438.19 1365.72 1421.81C1557.27 1229.03 2272.03 678.8 3706.41 1349.81C3745.59 1368.15 3785.25 1387.37 3825.52 1407.53C3825.52 1407.53 3791.96 1548.99 3807.03 1654.33" fill="#FEDC4C"/>
<path d="M4000.12 1784.52C3972.41 1780.01 3944.6 1773.77 3917.12 1766.09C3917.76 1734.21 3917.36 1702.25 3916.96 1670.43C3928.35 1650.65 3943.89 1634.28 3962.47 1620.27C3987.76 1634.31 4011.52 1643.79 4031.84 1650.19C4033 1650.63 4034.24 1650.99 4035.48 1651.28C4038.68 1652.23 4041.88 1653.17 4045.24 1654.12C4045.37 1654.12 4045.45 1654.12 4045.6 1654.19C4052.76 1656.21 4059.35 1657.76 4065.25 1658.97C4056.36 1675.93 4033.15 1720.36 4000.12 1784.52Z" fill="#E0804A"/>
<path d="M3917.12 1766.09C3894.44 1759.76 3871.99 1752.44 3850.01 1744.31C3847.49 1717.2 3843.59 1690.4 3840 1665.71L3837.71 1649.95C3833.13 1617.96 3833.47 1581.79 3835.97 1547.56C3882.33 1569.2 3906.99 1583.07 3906.99 1583.07C3920.96 1594.2 3934.87 1603.88 3948.48 1612.11C3953.19 1614.99 3957.85 1617.69 3962.47 1620.27C3943.89 1634.28 3928.35 1650.65 3916.96 1670.43C3917.36 1702.25 3917.76 1734.21 3917.12 1766.09" fill="#C7663B"/>
<path d="M2510 4708.99C2509.43 4708.99 2508.87 4708.99 2508.32 4708.96C2508 4708.95 2507.71 4708.93 2507.4 4708.91C2507.07 4708.87 2506.47 4708.83 2506.12 4708.8C2505.65 4708.73 2504.95 4708.63 2504.29 4708.56C2503.77 4708.45 2503.25 4708.37 2502.71 4708.29L2502.21 4708.2C2502.15 4708.17 2502.08 4708.16 2502.01 4708.15C2501.88 4708.11 2501.75 4708.08 2501.61 4708.05C2501.6 4708.05 2501.59 4708.04 2501.57 4708.04C2501.15 4707.89 2500.72 4707.76 2500.29 4707.63C2497.25 4706.72 2494.57 4705.24 2492.08 4703.15L2491.52 4702.65C2491.32 4702.44 2491.11 4702.24 2490.89 4702.05C2488.83 4700.08 2486.85 4697.67 2485.15 4695C2484.61 4694.15 2484.05 4693.31 2483.56 4692.41C2483.39 4692.08 2483.19 4691.76 2483 4691.43C2482.63 4690.81 2482.31 4690.17 2482 4689.53C2481.91 4689.33 2481.8 4689.12 2481.71 4688.92C2477.99 4681.55 2474.8 4672.09 2472.08 4660.19C2471.75 4658.84 2471.47 4657.49 2471.19 4656.12C2470.91 4654.81 2470.63 4653.49 2470.41 4652.16C2470.36 4651.89 2470.31 4651.61 2470.25 4651.33C2469.07 4645.2 2468.09 4638.71 2467.28 4631.47C2467.23 4631.04 2467.17 4630.61 2467.11 4630.2C2466.95 4629.09 2466.81 4627.96 2466.73 4626.83C2466.71 4626.56 2466.69 4626.29 2466.67 4626.03C2466.32 4622.61 2465.99 4619.17 2465.67 4615.65C2484.39 4604.73 2500.11 4590.17 2510.81 4572.85C2542.4 4521.81 2540.73 4457.03 2530.91 4397.76C2521.15 4338.51 2504.25 4279.39 2509.07 4219.48C2513.93 4159.63 2547.28 4096.73 2604.93 4079.92C2654.96 4065.28 2719.96 4084.36 2752.8 4043.88C2766.63 4026.92 2769.76 4003.84 2772.39 3982.15C2780.23 3916.91 2787.19 3846.64 2794.83 3774.19C2811.28 3755.4 2825.59 3734.19 2837.27 3711.07C2837.91 3740.96 2839.96 3772.4 2843.99 3804.76C2863.17 3959.27 2871.93 4123.52 2791.37 4170.41C2781.79 4175.99 2773.57 4178.43 2765.4 4178.43C2752.07 4178.43 2738.87 4171.93 2720.04 4161.97C2700.29 4151.53 2678.35 4139.93 2652.28 4139.93C2647.19 4139.93 2641.93 4140.37 2636.51 4141.36C2610.93 4145.96 2589.27 4160.8 2573.85 4184.28C2513.43 4276.35 2560.15 4484.97 2565.67 4508.44L2565.89 4509.43C2568.56 4520.8 2572.29 4536.65 2575.44 4554.49C2579.87 4596.25 2579.76 4653.35 2557.35 4685.15C2547.75 4698.76 2535 4706.2 2517.21 4708.49C2517 4708.52 2516.77 4708.55 2516.56 4708.57C2514.16 4708.87 2511.99 4708.99 2510 4708.99M2974.73 3559.55C2971.04 3559.55 2967.55 3558.43 2963.91 3556.2C2943.64 3543.69 2927.23 3503.49 2925.73 3462.67C2925.17 3447.39 2913.56 3434.8 2898.37 3433.01C2897.15 3432.87 2895.93 3432.8 2894.73 3432.8C2880.95 3432.8 2868.64 3441.97 2864.89 3455.52C2864.57 3456.71 2862.93 3462.71 2860.6 3472.85C2855.89 3455.55 2849.85 3438.89 2842.61 3423.04C2844.09 3415.28 2845.6 3407.52 2847.15 3399.81C2851.12 3380.12 2868.28 3367.83 2886.31 3367.83C2894.08 3367.83 2902 3370.11 2909.11 3375.05C2929.47 3389.24 2945.91 3395.35 2959.23 3395.35C3013.97 3395.35 3016.52 3292.48 3025.95 3224.21C3033.84 3167.04 3053.33 3112.43 3071.03 3057.29C3082.05 3047.51 3089.71 3033.85 3091.71 3018.15C3093.75 3002.31 3094.73 2987.13 3094.69 2972.68C3101.16 2942.57 3105.15 2911.72 3104.72 2881.32C3118.69 2949.68 3132.68 3018.04 3146.57 3086.4C3149.85 3102.41 3154 3119.81 3167.19 3129.51C3173.39 3134.05 3179.81 3136.07 3186.21 3136.07C3213.63 3136.07 3240.72 3099.27 3249.16 3067.4C3291.13 2908.4 3262.24 2738.23 3282.79 2575.93C3302.63 2574.95 3321.95 2571.35 3340.32 2565.39C3317.09 2621.4 3300.29 2682.65 3294.12 2757.88C3288.43 2827.6 3294.92 2904.41 3301.2 2978.69C3315.55 3148.53 3318.99 3261.69 3239.27 3286.16C3226.57 3290.07 3216.19 3291.51 3207.73 3291.51C3188.57 3291.51 3179.29 3284.09 3175.45 3281.03C3137.41 3250.63 3135.21 3159.4 3137.44 3129.87C3138.65 3114.28 3128.07 3100.23 3112.75 3097.09C3110.67 3096.67 3108.59 3096.47 3106.53 3096.47C3093.48 3096.47 3081.49 3104.75 3077.17 3117.56C3075.16 3123.52 3027.75 3264.95 3017.11 3368.89C3014.17 3397.35 3013.41 3424.6 3012.76 3448.64C3011.04 3510.56 3008.92 3546.11 2985.31 3556.91C2981.47 3558.65 2978.03 3559.55 2974.73 3559.55M3717.87 1904.75C3679.07 1904.75 3662.93 1871.05 3659.73 1863.23C3655.04 1851.19 3643.52 1843.56 3631 1843.51C3633.63 1832.99 3635.93 1822.35 3637.91 1811.59C3643.31 1819.48 3652.31 1823.01 3661.84 1823.01C3672.87 1823.01 3684.6 1818.27 3692.23 1810.05C3706.35 1794.69 3709.69 1772.56 3711.37 1751.75C3711.37 1751.37 3711.44 1751.01 3711.44 1750.57C3714.57 1710.68 3692.95 1673.04 3657.79 1653.83C3593.93 1619.03 3531.25 1581.83 3467.27 1547.39C3339.07 1478.45 3203 1419.77 3058.85 1399.6C3014.72 1393.44 2970.44 1390.95 2926.12 1390.95C2786.79 1390.95 2646.76 1415.59 2507.24 1428.29C2460.91 1432.52 2413.68 1435.21 2366.53 1435.21C2226.56 1435.21 2087.12 1411.56 1972.37 1334.67C1890.99 1440.52 1780.68 1510.77 1659.99 1541.85C1611.77 1554.31 1561.99 1560.48 1512.2 1560.48C1483.29 1560.48 1454.37 1558.4 1425.77 1554.25L1425.97 1551.19C1426.25 1547.2 1426.6 1543.35 1426.93 1539.6C1427.93 1528.84 1429.08 1519.32 1430.48 1510.51C1430.49 1510.36 1430.56 1509.97 1430.57 1509.83C1430.8 1508.29 1431 1506.77 1431.28 1505.29C1431.33 1505.03 1431.37 1504.75 1431.41 1504.48C1432.07 1500.39 1432.85 1496.35 1433.63 1492.61C1434.57 1488.05 1435.69 1483.48 1437 1478.92C1437.27 1477.95 1437.49 1476.99 1437.84 1476.07C1438.08 1475.41 1438.31 1474.76 1438.51 1474.09C1438.69 1473.48 1438.85 1472.88 1439.07 1472.32C1439.27 1471.83 1439.45 1471.32 1439.61 1470.81C1439.92 1469.89 1440.23 1469.01 1440.57 1468.13C1440.68 1467.85 1440.8 1467.57 1440.89 1467.29C1440.93 1467.2 1440.96 1467.12 1440.99 1467.03C1441.31 1466.28 1441.61 1465.55 1441.93 1464.83C1442.49 1463.51 1443.12 1462.29 1443.73 1461.15C1445.07 1458.67 1446.05 1456.04 1446.67 1453.35C1456.21 1454.57 1467.93 1455.48 1481.72 1455.48C1532.56 1455.48 1611.44 1443.15 1712.33 1389.77C1839.59 1322.44 1944.35 1207.19 1944.35 1207.19C2034.48 1265.39 2201.69 1281.35 2375.87 1281.35C2512.84 1281.35 2654.15 1271.48 2765.61 1264.48C2798.56 1262.41 2829.56 1261.51 2858.57 1261.51C3052.47 1261.51 3157.13 1301.83 3157.13 1301.83C3157.13 1301.83 3359.96 1373.47 3572.25 1443.8C3654.19 1470.97 3722.75 1497.93 3776.05 1520.77C3771.72 1564.79 3770.03 1614.57 3776.35 1658.72L3778.65 1674.64C3794.85 1785.87 3803.55 1879.59 3745.63 1899.65C3735.29 1903.24 3726.08 1904.75 3717.87 1904.75" fill="#DFB03D"/>
<path d="M4212.37 1045.69C4212.6 1045.84 4212.84 1046.01 4213.08 1046.17C4212.84 1046.01 4212.61 1045.85 4212.37 1045.69ZM4213.09 1046.17L4213.15 1046.21L4213.09 1046.17ZM4238.57 1067.41L4238.67 1067.51L4238.57 1067.41ZM4070.2 1649.55L4070.15 1649.63L4070.2 1649.55ZM2500.81 4707.88C2500.97 4707.92 2501.15 4707.95 2501.32 4707.99C2501.16 4707.96 2500.99 4707.92 2500.81 4707.88ZM2506.19 4709H2506.21H2506.19ZM2504.29 4708.56C2504.95 4708.63 2505.65 4708.73 2506.12 4708.8C2506.47 4708.83 2507.07 4708.87 2507.4 4708.91C2510.09 4709.11 2513.2 4708.99 2516.52 4708.59C2534.67 4706.39 2547.63 4698.95 2557.35 4685.15C2588.64 4640.73 2576.45 4546.96 2569.12 4514.57C2565.44 4498.39 2575.17 4482.15 2591.19 4477.79C2592 4477.56 2592.85 4477.32 2593.67 4477.03C2594.04 4476.88 2594.41 4476.76 2594.79 4476.64C2602.04 4474.33 2609.33 4471.44 2616.48 4468.04C2618.51 4467.05 2620.8 4465.95 2623.11 4464.71C2676.23 4437.08 2735.55 4378.76 2799.89 4291.12C2800.25 4290.61 2800.64 4290.12 2801.04 4289.64C2851.03 4221.33 2905.23 4133.61 2962.17 4028.89C2962.37 4028.48 2962.59 4028.05 2962.81 4027.64C3037.16 3890.65 3118 3721.65 3209.97 3510.95C3271.83 3369.12 3330.87 3226.52 3382.97 3100.72C3394.49 3072.87 3405.76 3045.68 3416.73 3019.25C3433.91 2977.88 3454.03 2929.53 3473.03 2884.72C3679.95 2396.67 4026.81 1732.29 4065.68 1658.15L4066.88 1655.84C4067.88 1653.91 4068.69 1652.35 4069.32 1651.16C4074.28 1636.75 4088.39 1630.25 4103.53 1633.12C4111.57 1634.56 4304.31 1666.23 4370.69 1425.37C4378.52 1397.11 4382.55 1368.92 4382.68 1341.57L4382.69 1341.28C4382.88 1328.01 4382.01 1314.41 4380.13 1300.87C4375.55 1266.76 4364.67 1233.08 4347.75 1200.63C4345.8 1197 4343.72 1193.15 4341.49 1189.31C4331.16 1171.03 4318.75 1152.93 4304.45 1135.23C4301.03 1130.97 4297.55 1126.81 4294.01 1122.73C4292.59 1121.09 4291.17 1119.47 4289.75 1117.85C4289.25 1117.37 4288.79 1116.88 4288.33 1116.36C4285.75 1113.44 4283.08 1110.59 4280.36 1107.73C4280.16 1107.52 4279.96 1107.29 4279.76 1107.08C4278.15 1105.28 4276.4 1103.49 4274.68 1101.76C4274.44 1101.53 4274.21 1101.29 4274 1101.05C4271.17 1098.04 4268.21 1095.09 4265.2 1092.21C4265.04 1092.05 4264.88 1091.89 4264.72 1091.73C4261.37 1088.39 4257.88 1085.04 4254.4 1081.83C4254.09 1081.55 4253.8 1081.25 4253.51 1080.96L4252.61 1080.15C4252.4 1079.96 4252.2 1079.77 4251.99 1079.57C4248.17 1075.96 4244.21 1072.41 4240.2 1068.92C4239.84 1068.61 4239.48 1068.29 4239.13 1067.96C4238.96 1067.81 4238.72 1067.6 4238.71 1067.59C4230.48 1060.4 4221.83 1053.21 4213 1046.27C4212.59 1045.95 4212.19 1045.61 4211.8 1045.27C4211.59 1045.11 4211.37 1044.95 4211.17 1044.79C4206.81 1041.37 4202.8 1038.23 4198.72 1035.21C4193.13 1030.97 4187.85 1027.08 4182.49 1023.25L4178.65 1020.55C4175.45 1018.28 4172.23 1015.99 4168.92 1013.75C4163.56 1010.07 4158.16 1006.49 4152.76 1002.99C4147.57 999.587 4142.45 996.254 4137.27 993.08C4131.75 989.574 4126.56 986.387 4121.31 983.28C4105.97 974.027 4089.49 964.734 4072.13 955.534C4066.53 952.547 4061.04 949.667 4055.48 946.853C4050.28 944.213 4045.12 941.6 4039.89 939.053C4034.52 936.413 4029.39 933.907 4024.17 931.414C4012.4 925.8 4002.05 921.054 3992.64 916.947L3989.63 915.627C3985.33 913.733 3981.09 911.854 3976.84 910.067C3976.61 909.987 3976.4 909.88 3976.19 909.787C3971.12 907.533 3965.99 905.413 3960.92 903.36C3955.64 901.147 3950.71 899.147 3945.77 897.147L3944.75 896.734C3918.09 886.014 3890.59 875.96 3863.11 866.867C3859.39 865.56 3856.25 864.56 3853.16 863.574L3851.65 863.093C3847.2 861.613 3843.16 860.32 3839.12 859.08C3821.69 853.547 3804.32 848.427 3787.15 843.747L3785.04 843.174C3782.21 842.387 3779.41 841.627 3776.57 840.893C3769.08 838.893 3762.05 837.12 3755.17 835.427L3753.35 834.974C3750.59 834.294 3747.87 833.614 3745.13 833C3735.21 830.587 3725.6 828.414 3715.36 826.28L3711.81 825.547C3709.99 825.174 3708.19 824.787 3706.4 824.467C3692.15 821.587 3679.07 819.254 3666.87 817.414C3663.28 816.854 3660.05 816.387 3656.89 815.987C3643.04 814.107 3631.29 812.92 3621.63 812.4C3572.19 809.654 3525.2 811 3475.44 812.44C3327.88 816.68 3160.64 821.493 2851.47 724.32C2444.91 596.64 2065.16 707.707 1940.37 744.227C1884.56 760.52 1794.65 773.214 1699.48 786.64C1546.75 808.187 1373.64 832.627 1299.98 876.267C1190.51 941.12 1148.83 1089.17 1203.05 1220.64L1203.89 1222.61C1204.35 1223.72 1204.81 1224.81 1205.32 1225.91C1205.48 1226.24 1205.63 1226.59 1205.77 1226.92C1206.35 1228.29 1207 1229.61 1207.63 1230.93C1207.75 1231.17 1207.98 1231.67 1208.09 1231.92C1208.58 1233.03 1209.15 1234.12 1209.69 1235.21L1210.36 1236.55C1211.39 1238.53 1212.59 1240.88 1213.87 1243.23C1216.03 1247.16 1218.39 1251.15 1220.8 1255.07C1221.68 1256.51 1222.53 1257.81 1223.38 1259.11C1225.54 1262.43 1227.57 1265.44 1229.66 1268.39C1237.22 1279.04 1245.7 1289.51 1254.88 1299.51C1257.67 1302.48 1260.71 1305.67 1263.75 1308.77C1268.32 1313.41 1272.89 1317.83 1277.27 1321.83C1280.51 1324.85 1283.49 1327.51 1286.47 1330.03C1288.39 1331.69 1289.83 1332.96 1291.34 1334.21C1295.87 1338.09 1300.34 1341.71 1305.74 1345.88L1310.57 1349.55C1319.75 1356.56 1329.31 1363.32 1339.23 1369.81C1340.41 1370.61 1341.15 1371.08 1341.89 1371.55L1344.16 1373C1345.55 1373.91 1347.04 1374.84 1348.51 1375.76L1352.69 1378.4C1358.68 1382.15 1364.84 1385.75 1370.72 1389.13L1371.87 1389.77C1374.85 1391.44 1377.73 1393.07 1380.51 1394.57C1408.12 1409.72 1427.65 1417.51 1427.84 1417.59C1436.08 1420.85 1442.53 1427.48 1445.56 1435.79C1448.6 1444.11 1447.95 1453.32 1443.75 1461.12C1443.12 1462.28 1442.49 1463.52 1441.91 1464.87C1441.49 1465.81 1441.17 1466.55 1440.89 1467.29C1440.8 1467.57 1440.68 1467.85 1440.57 1468.13C1440.23 1469.01 1439.92 1469.89 1439.61 1470.81C1439.45 1471.32 1439.27 1471.83 1439.07 1472.32C1438.85 1472.88 1438.69 1473.48 1438.51 1474.09C1438.31 1474.76 1438.08 1475.41 1437.84 1476.07C1437.49 1476.99 1437.27 1477.95 1437 1478.92C1435.69 1483.48 1434.57 1488.05 1433.63 1492.61C1432.85 1496.35 1432.07 1500.39 1431.41 1504.48C1431.37 1504.75 1431.33 1505.03 1431.28 1505.29C1431 1506.77 1430.8 1508.29 1430.57 1509.83C1430.56 1509.97 1430.49 1510.36 1430.48 1510.51C1429.08 1519.32 1427.93 1528.84 1426.93 1539.6C1426.6 1543.35 1426.25 1547.2 1425.97 1551.19L1425.32 1560.73C1424.84 1568.03 1424.41 1575.49 1424.13 1583.17L1423.71 1595.64C1419.81 1732.68 1438.67 1935.35 1469.56 2088.28C1506.16 2268.95 1561.31 2599.81 1519.43 2785.63C1504.89 2850.2 1460.71 3046.73 1511.32 3112.19C1522.43 3126.53 1537.69 3133.55 1559.36 3134.27C1576.01 3134.76 1588.99 3129.51 1600.15 3117.63C1645.77 3069.05 1644.11 2936.24 1639.6 2889.16C1638.13 2873.67 1648.36 2859.47 1663.53 2856C1678.72 2852.51 1694.11 2860.83 1699.52 2875.41C1706.8 2895.01 1878.21 3357.81 1918.25 3550.08C1933.63 3623.72 1934.15 3703.28 1934.61 3773.49C1934.99 3830.19 1935.33 3883.75 1943.88 3919.36C1953.32 3958.79 1968.12 3958.79 1977.91 3958.79C1985.08 3958.79 1989.99 3956.45 1994.83 3950.73C2025.28 3914.76 2021.29 3793.76 2003.83 3689.81C2001.01 3673.04 2012.24 3657.12 2028.99 3654.16C2045.75 3651.2 2061.75 3662.28 2064.87 3679C2094.99 3840.83 2200.25 3977.53 2201.31 3978.89C2204.75 3983.29 2206.93 3988.57 2207.63 3994.12C2231.45 4185.84 2308.01 4243.93 2369.52 4290.6C2403.19 4316.15 2434.97 4340.27 2448.76 4380.43C2451.72 4389.07 2454.08 4398.87 2455.97 4410.36C2456.37 4412.35 2456.68 4414.36 2456.91 4416.44L2457.72 4422.24C2458 4424.41 2458.25 4426.57 2458.44 4428.65C2459.43 4437.61 2460.04 4446.87 2460.51 4454.76L2460.85 4461.07C2460.88 4461.43 2460.89 4461.79 2460.91 4462.16L2461.63 4481.59C2461.64 4481.95 2461.64 4482.29 2461.64 4482.64V4483.04C2461.79 4487.68 2461.87 4492.39 2461.95 4497.16L2462.24 4517.55C2462.39 4529.99 2462.53 4542.61 2462.8 4555.16L2463.03 4563.93C2463.03 4564.19 2463.03 4564.44 2463.03 4564.69C2463.03 4566.13 2463.09 4567.53 2463.15 4568.96L2432.2 4570.97L2463.17 4569.73C2463.32 4573.41 2463.47 4577.04 2463.53 4580.59C2463.89 4591.21 2464.48 4601.57 2465.25 4610.99C2465.68 4616.13 2466.17 4621.12 2466.67 4626.03C2466.69 4626.29 2466.71 4626.56 2466.73 4626.83C2466.81 4627.96 2466.95 4629.09 2467.11 4630.2C2467.17 4630.61 2467.23 4631.04 2467.28 4631.47C2468.09 4638.71 2469.07 4645.2 2470.25 4651.33C2470.31 4651.61 2470.36 4651.89 2470.41 4652.16C2470.63 4653.49 2470.91 4654.81 2471.19 4656.12C2471.47 4657.49 2471.75 4658.84 2472.08 4660.19C2474.8 4672.09 2477.99 4681.55 2481.71 4688.92C2481.8 4689.12 2481.91 4689.33 2482 4689.53C2482.31 4690.17 2482.63 4690.81 2483 4691.43C2483.19 4691.76 2483.39 4692.08 2483.56 4692.41C2484.05 4693.31 2484.61 4694.15 2485.15 4695C2486.85 4697.67 2488.83 4700.08 2490.89 4702.05C2491.11 4702.24 2491.32 4702.44 2491.52 4702.65L2492.08 4703.15C2494.57 4705.24 2497.25 4706.72 2500.29 4707.63C2500.72 4707.76 2501.15 4707.89 2501.57 4708.04C2501.76 4708.08 2501.93 4708.13 2502.12 4708.17L2502.71 4708.29C2503.25 4708.37 2503.77 4708.45 2504.29 4708.56M2506.23 4709L2506.39 4709.05L2506.23 4709ZM2510.01 4771C2507.45 4771 2504.99 4770.89 2502.61 4770.71C2500.71 4770.59 2498.79 4770.39 2496.92 4770.11C2495.79 4769.99 2494.31 4769.8 2492.6 4769.45C2491.25 4769.23 2489.95 4768.96 2488.65 4768.68C2488.33 4768.61 2488.01 4768.53 2487.71 4768.47C2485.8 4768.04 2483.85 4767.49 2481.77 4766.79C2470.87 4763.41 2460.89 4757.93 2452.08 4750.51C2450.8 4749.45 2449.41 4748.19 2448.01 4746.81C2442.41 4741.47 2437.32 4735.25 2432.89 4728.35C2431.69 4726.47 2430.6 4724.69 2429.57 4722.87C2428.35 4720.8 2427.23 4718.67 2426.19 4716.51C2420.28 4704.71 2415.44 4690.61 2411.79 4674.59C2411.4 4673.08 2410.95 4670.93 2410.51 4668.79C2410.08 4666.79 2409.67 4664.76 2409.32 4662.72C2407.89 4655.28 2406.72 4647.51 2405.75 4639.03C2405.41 4636.69 2405.13 4634.28 2404.95 4631.87C2404.43 4626.71 2403.92 4621.47 2403.48 4616.08C2402.61 4605.68 2401.97 4594.29 2401.57 4582.25C2401.49 4578.71 2401.36 4575.49 2401.24 4572.23L2401.2 4571.23C2401.12 4569.17 2401.05 4567.19 2401.04 4565.12L2400.84 4556.56C2400.56 4543.73 2400.41 4530.91 2400.27 4518.28L2399.97 4498.21C2399.89 4493.57 2399.81 4489 2399.68 4484.49C2399.67 4484.17 2399.67 4483.85 2399.67 4483.52V4483.17L2399.12 4468.09C2399.05 4466.88 2399 4465.68 2398.96 4464.45L2398.64 4458.67C2398.2 4451.19 2397.64 4442.79 2396.79 4435.12C2396.76 4434.84 2396.73 4434.56 2396.71 4434.28C2396.6 4433 2396.44 4431.68 2396.28 4430.45L2395.45 4424.59C2395.39 4424.13 2395.33 4423.68 2395.29 4423.23C2395.27 4422.93 2395.21 4422.65 2395.16 4422.39C2395.05 4421.89 2394.96 4421.4 2394.89 4420.91C2393.57 4412.76 2391.96 4405.91 2390.12 4400.55C2382.47 4378.23 2361.32 4362.19 2332.05 4339.99C2265.85 4289.76 2175.51 4221.21 2147.17 4010.04C2135.43 3994.08 2106.19 3952.43 2076.44 3894.68C2071.75 3933.6 2061.39 3968.04 2042.15 3990.77C2025.55 4010.4 2003.33 4020.77 1977.91 4020.77C1944.39 4020.77 1900.83 4005.69 1883.6 3933.8C1873.4 3891.27 1873.04 3836.87 1872.63 3773.89C1872.19 3706.6 1871.68 3630.31 1857.57 3562.73C1832.37 3441.76 1750.61 3202.21 1695.19 3045.88C1687.15 3089 1672.24 3131.39 1645.39 3160.01C1622.12 3184.81 1591.67 3197.33 1557.35 3196.21C1517.47 3194.91 1484.61 3178.96 1462.28 3150.11C1401.96 3072.11 1426.75 2915.21 1458.95 2772.01C1498.31 2597.44 1444.41 2276.4 1408.8 2100.57C1377.08 1943.52 1357.73 1735.09 1361.75 1593.68L1362.19 1580.96C1362.49 1572.57 1362.95 1564.47 1363.48 1556.59L1364.13 1546.91C1364.44 1542.48 1364.83 1538.17 1365.21 1533.95C1366.32 1521.81 1367.64 1510.99 1369.24 1500.85C1369.53 1498.77 1369.87 1496.56 1370.25 1494.4C1371.04 1489.45 1371.99 1484.6 1372.93 1480.04C1374.15 1474.17 1375.57 1468.33 1377.17 1462.65C1369.53 1458.92 1360.61 1454.36 1350.8 1448.97C1347.92 1447.41 1344.8 1445.67 1341.56 1443.85L1340.09 1443.03C1333.25 1439.09 1326.45 1435.11 1319.5 1430.75L1315.58 1428.28C1313.83 1427.19 1312.07 1426.08 1310.33 1424.95L1308.61 1423.84C1307.32 1423.03 1306.05 1422.21 1304.81 1421.36C1294.11 1414.36 1283.3 1406.72 1273.15 1398.97L1268.2 1395.2C1261.6 1390.11 1256.35 1385.85 1251.34 1381.56C1249.84 1380.32 1248.07 1378.79 1246.31 1377.25C1242.65 1374.15 1238.93 1370.84 1235.21 1367.36C1230.29 1362.87 1224.91 1357.68 1219.5 1352.19C1216.07 1348.68 1212.71 1345.16 1209.41 1341.64C1198.29 1329.53 1188.16 1317.03 1179.11 1304.25C1176.56 1300.67 1174.07 1296.97 1171.66 1293.29C1170.23 1291.09 1169.05 1289.28 1167.94 1287.45C1165.06 1282.77 1162.17 1277.88 1159.45 1272.91C1157.89 1270.04 1156.48 1267.29 1155.06 1264.55L1154.31 1263.05C1153.41 1261.25 1152.5 1259.43 1151.67 1257.6C1150.67 1255.51 1149.76 1253.57 1148.91 1251.6C1148.16 1249.97 1147.47 1248.35 1146.78 1246.72L1145.96 1244.79C1079.86 1084.52 1132.59 903.387 1268.38 822.934C1352.71 772.974 1532.33 747.627 1690.81 725.267C1783.72 712.147 1871.47 699.76 1922.99 684.72C2052.21 646.92 2445.55 531.854 2870.04 665.174C3169.28 759.227 3330.99 754.56 3473.65 750.467C3524.76 749 3573.01 747.614 3625 750.507C3636.41 751.107 3649.51 752.427 3664.93 754.52C3668.47 754.973 3672.37 755.52 3676.36 756.16C3689.31 758.107 3703.45 760.627 3718.11 763.6C3719.77 763.894 3722.09 764.373 3724.43 764.853L3727.76 765.547C3738.95 767.88 3749.2 770.187 3759.37 772.667C3762.03 773.267 3765.08 774.013 3768.17 774.787L3770 775.227C3777.29 777.04 3784.69 778.907 3792.23 780.92C3795.12 781.653 3798.29 782.52 3801.49 783.414L3803.51 783.96C3821.44 788.84 3839.64 794.213 3857.52 799.893C3861.73 801.16 3866.28 802.627 3870.91 804.174L3872.04 804.534C3875.71 805.707 3879.43 806.894 3883.15 808.214C3911.28 817.507 3940.01 828.013 3967.97 839.253L3969.09 839.707C3974.25 841.8 3979.4 843.893 3984.56 846.053C3989.83 848.2 3995.52 850.547 4001.13 853.04C4005.63 854.92 4010.12 856.907 4014.65 858.907L4017.52 860.174C4027.48 864.52 4038.44 869.547 4050.91 875.48C4056.4 878.12 4061.75 880.72 4067.17 883.387C4072.55 886.013 4078.03 888.787 4083.49 891.547C4089.4 894.547 4095.27 897.627 4101.2 900.787C4119.53 910.493 4137.01 920.36 4153.12 930.08C4158.71 933.387 4164.44 936.907 4170.09 940.493C4175.43 943.76 4181.08 947.427 4186.67 951.093C4192.33 954.773 4198.15 958.627 4203.89 962.56C4207.44 964.973 4210.97 967.467 4214.47 969.947L4218.35 972.693C4224.37 977 4230.16 981.254 4235.87 985.6C4239.97 988.627 4244.37 992.054 4248.77 995.507C4250.12 996.48 4251.21 997.387 4252.01 998.08C4261.45 1005.53 4270.71 1013.21 4279.52 1020.93C4280.16 1021.48 4280.77 1022.01 4281.37 1022.57C4285.79 1026.41 4290.12 1030.32 4294.32 1034.29C4295.17 1035.05 4296.01 1035.84 4296.81 1036.6C4300.69 1040.2 4304.57 1043.93 4308.32 1047.68C4311.93 1051.15 4315.48 1054.69 4318.89 1058.31C4321.15 1060.59 4323.4 1062.92 4325.52 1065.27C4328.23 1068.11 4330.89 1070.96 4333.49 1073.87C4333.69 1074.05 4333.88 1074.25 4334.08 1074.45C4334.29 1074.68 4334.51 1074.91 4334.72 1075.15C4336.8 1077.47 4338.8 1079.77 4340.81 1082.08C4344.88 1086.79 4348.83 1091.51 4352.69 1096.31C4369.11 1116.61 4383.45 1137.56 4395.29 1158.52C4397.72 1162.71 4400.15 1167.16 4402.57 1171.69C4422.96 1210.83 4436.03 1251.37 4441.55 1292.47C4443.84 1308.95 4444.91 1325.69 4444.67 1342.08C4444.49 1374.85 4439.71 1408.43 4430.44 1441.88C4363.44 1685 4180.96 1699.33 4115.67 1696.32C4058.6 1805.44 3729.08 2439.56 3530.09 2908.93C3511.17 2953.53 3491.11 3001.75 3473.99 3043.03C3463.01 3069.44 3451.76 3096.61 3440.24 3124.43C3388.04 3250.49 3328.88 3393.37 3266.8 3535.73C3174.37 3747.47 3092.96 3917.67 3017.95 4056C3017.75 4056.44 3017.52 4056.87 3017.29 4057.29C2958.37 4165.75 2902.07 4256.76 2849.93 4327.8C2849.55 4328.32 2849.16 4328.81 2848.75 4329.31C2778.19 4425.17 2713.87 4487.37 2652.15 4519.47C2649.49 4520.89 2646.41 4522.41 2643.33 4523.92C2640.41 4525.31 2637.49 4526.61 2634.57 4527.87C2641.52 4573.41 2648.41 4663.41 2608.09 4720.75C2588.37 4748.79 2559.29 4765.85 2523.99 4770.12C2519.25 4770.69 2514.53 4771 2510.01 4771" fill="#650000"/>
<path d="M3915.51 2457.77C3838.41 2413.28 3930.28 2299.35 3904.15 2237.84C3897.75 2222.84 3876.71 2205.29 3848.39 2187.39C3760.44 2131.55 3603.12 2071.63 3603.12 2071.63C3586.73 2172.03 3523.55 2331.31 3476.29 2441.39C3442.52 2519.93 3366.73 2572.36 3281.33 2576C3167.91 2580.87 3066.07 2573.52 2977.03 2559.55C2935.45 2553.07 2896.65 2545.05 2860.69 2536.24C2822.04 2526.79 2786.73 2516.29 2754.91 2505.6C2722.01 2494.53 2692.75 2483.11 2667.4 2472.25C2643.01 2461.84 2621.03 2447.51 2602.03 2430.11C2560.47 2392.17 2533.16 2339.91 2526.39 2282.39C2508.19 2126.88 2510.45 1974.23 2512.64 1908.99V1908.77C2513.07 1895.89 2513.51 1886.43 2513.8 1881.04C2514.01 1877.76 2514.09 1876.01 2514.09 1876.01C2387.27 1812.45 2306.47 1840.2 2283.89 1850.68C2279.6 1852.64 2277.41 1854.03 2277.41 1854.03C2261.03 2049.28 2211.53 2205.51 2173.67 2300.81C2172.44 2303.87 2171.2 2306.92 2170.03 2309.84C2145.87 2369.32 2091.12 2410.52 2027.41 2418.39C1934.75 2429.81 1849.85 2434.47 1773.92 2434.84C1729.29 2435.12 1687.8 2433.81 1649.65 2431.63C1601.16 2428.72 1558.21 2424.28 1521.16 2419.33C1488.4 2414.89 1460.37 2410.08 1437.29 2405.57C1405.04 2399.24 1377.31 2380.75 1358.81 2354.83C1350.15 2342.75 1343.52 2329.05 1339.44 2314.2C1269.77 2061.15 1267.81 1841.95 1275.31 1717.75C1279.09 1654.84 1328.6 1604.17 1391.43 1599.01C1494.59 1590.56 1587.77 1587.72 1671.41 1588.75C1739.35 1589.55 1800.93 1592.96 1856.33 1598.07C1902.99 1602.28 1945.29 1607.75 1983.36 1613.85C2027.85 1620.99 2066.51 1628.93 2099.56 1636.93C2181.97 1656.88 2229.21 1676.91 2243.92 1683.68C2247.27 1685.13 2248.95 1686 2248.95 1686C2384.07 1641.67 2507.09 1694.16 2535.85 1708.07C2540 1710.03 2542.19 1711.27 2542.19 1711.27C2663.4 1688.48 2785.27 1682.51 2904.44 1688.92C2963.99 1692.12 3022.81 1698.45 3080.55 1707.33C3117.83 1712.95 3154.59 1719.71 3190.77 1727.36C3229.64 1735.59 3267.87 1744.91 3305.28 1755.03C3427.88 1788.21 3541.67 1830.67 3641.92 1875.8C3776.96 1936.65 3887.32 2002.47 3960.79 2057.44C4011.37 2095.29 4044.43 2127.91 4056.08 2150.25C4063.65 2164.75 4068.6 2180.69 4071.37 2197.36C4092.05 2324.32 3983.72 2497.08 3915.51 2457.77" fill="#650000"/>
<path d="M4073.89 2225.45C4073.68 2215.92 4072.87 2206.52 4071.37 2197.36C4069.83 2188.04 4067.59 2178.95 4064.6 2170.2C4067.6 2178.95 4069.84 2188.04 4071.39 2197.35C4072.88 2206.49 4073.69 2215.91 4073.89 2225.45M3962.55 2058.76C3961.96 2058.32 3961.37 2057.88 3960.79 2057.44C3959.23 2056.27 3957.65 2055.09 3956.05 2053.92C3957.64 2055.09 3959.2 2056.25 3960.75 2057.4C3961.35 2057.85 3961.95 2058.31 3962.55 2058.76" fill="#99F8FD"/>
<path d="M3603.95 1859.12C3593.63 1854.69 3583.19 1850.31 3572.61 1845.96C3583.19 1850.31 3593.63 1854.69 3603.95 1859.12Z" fill="#FFF1B7"/>
<path d="M1272.53 1844.4C1272.51 1842.76 1272.49 1841.13 1272.47 1839.52C1272.49 1841.12 1272.51 1842.75 1272.53 1844.36C1272.53 1844.37 1272.53 1844.39 1272.53 1844.4Z" fill="white"/>
<path d="M2542.19 1711.27C2542.19 1711.27 2542.11 1711.21 2541.93 1711.13C2542.07 1711.2 2542.16 1711.24 2542.19 1711.27ZM3097.83 1710.03C3092.08 1709.11 3086.32 1708.2 3080.55 1707.33C3073.83 1706.29 3067.08 1705.29 3060.32 1704.33C3067.09 1705.29 3073.84 1706.29 3080.59 1707.32C3086.35 1708.2 3092.09 1709.09 3097.83 1710.03ZM2950.05 1691.99C2934.89 1690.76 2919.69 1689.73 2904.44 1688.92C2874.91 1687.33 2845.21 1686.51 2815.39 1686.51C2809.77 1686.51 2804.15 1686.53 2798.52 1686.59C2804.29 1686.53 2810.04 1686.49 2815.8 1686.49C2845.48 1686.49 2875.05 1687.32 2904.45 1688.88C2919.71 1689.72 2934.91 1690.75 2950.05 1691.99ZM2233.81 1679.24C2220.91 1673.79 2199.64 1665.55 2169.69 1656.21C2199.65 1665.53 2220.92 1673.77 2233.81 1679.24ZM1938.24 1607.21C1915.89 1604.23 1892.31 1601.48 1867.44 1599.09C1892.32 1601.47 1915.91 1604.21 1938.24 1607.21Z" fill="#FFF1B7"/>
<path d="M1359.08 1605.99C1359.87 1605.71 1360.65 1605.44 1361.44 1605.17C1360.65 1605.44 1359.87 1605.71 1359.08 1605.99Z" fill="white"/>
<path d="M1423.72 1596.52V1596.51C1494.83 1591.39 1560.99 1588.93 1622.4 1588.59C1560.99 1588.96 1494.8 1591.4 1423.72 1596.52Z" fill="#FFF1B7"/>
<path d="M4072.64 2255.37C4072.32 2252.36 4071.85 2249.33 4071.39 2246.32C4068.6 2229.65 4063.64 2213.69 4056.05 2199.2C4044.43 2176.89 4011.35 2144.27 3960.75 2106.37C3903.83 2063.81 3824.79 2014.75 3729.25 1966.47C3740.72 1965.36 3752.93 1962.72 3765.93 1958.23C3773.91 1955.45 3781.2 1952.13 3787.87 1948.31C3854.97 1985.01 3911.88 2021.29 3956.05 2053.92C3957.65 2055.09 3959.23 2056.27 3960.79 2057.44C3961.37 2057.88 3961.96 2058.32 3962.55 2058.76C4012.12 2096.07 4044.56 2128.19 4056.05 2150.23C4059.4 2156.63 4062.24 2163.31 4064.6 2170.2C4067.59 2178.95 4069.83 2188.04 4071.37 2197.36C4072.87 2206.52 4073.68 2215.92 4073.89 2225.45C4074.11 2235.32 4073.65 2245.35 4072.64 2255.37M3599.07 1906C3509.69 1867.96 3410.73 1832.55 3305.29 1804.03C3299.29 1802.4 3293.28 1800.8 3287.25 1799.21L3305.28 1755.05C3305.28 1755.05 3305.28 1755.05 3305.29 1755.05C3400.43 1780.79 3490.31 1812.13 3572.61 1845.96C3583.19 1850.31 3593.63 1854.69 3603.95 1859.12C3601.21 1863.91 3599.72 1869.47 3599.87 1875.32C3599.88 1875.75 3600.09 1886.77 3599.07 1906M1272.53 1844.36C1272.51 1842.75 1272.49 1841.12 1272.47 1839.52C1271.93 1792.67 1273.3 1751.64 1275.32 1717.79C1278.44 1666.16 1312.33 1622.77 1359.08 1605.99C1359.87 1605.71 1360.65 1605.44 1361.44 1605.17C1361.12 1620.96 1361.08 1637.35 1361.29 1654.19C1313.41 1670.37 1278.49 1714.32 1275.32 1766.76C1274 1789.52 1272.92 1815.47 1272.53 1844.36M3172.33 1772.55C3142.12 1766.44 3111.53 1761 3080.59 1756.29C3074.31 1755.33 3068.01 1754.41 3061.72 1753.51L3080.55 1707.33C3086.32 1708.2 3092.08 1709.11 3097.83 1710.03C3129.2 1715.08 3160.17 1720.91 3190.76 1727.39L3172.33 1772.55ZM2542.21 1760.24C2542.21 1760.24 2539.96 1759.01 2535.85 1757.07C2515.35 1747.12 2446.77 1717.55 2360.08 1717.55C2325.31 1717.55 2287.63 1722.29 2248.93 1734.99C2248.93 1734.99 2247.31 1734.13 2243.89 1732.67C2229.25 1725.92 2181.99 1705.85 2099.53 1685.93C2093.64 1684.49 2087.57 1683.07 2081.31 1681.64L2099.55 1636.97C2126.72 1643.53 2150.07 1650.11 2169.69 1656.21C2199.64 1665.55 2220.91 1673.79 2233.81 1679.24C2238.09 1681.04 2241.44 1682.55 2243.89 1683.69C2247.31 1685.16 2248.93 1686.01 2248.93 1686.01C2287.6 1673.33 2325.31 1668.57 2360.08 1668.57C2446.79 1668.57 2515.33 1698.15 2535.85 1708.09C2539.13 1709.64 2541.21 1710.75 2541.93 1711.13C2542.11 1711.21 2542.19 1711.27 2542.19 1711.27C2542.2 1711.27 2542.21 1711.28 2542.21 1711.28C2627.69 1695.21 2713.55 1687.51 2798.52 1686.59C2804.15 1686.53 2809.77 1686.51 2815.39 1686.51C2845.21 1686.51 2874.91 1687.33 2904.44 1688.92L2884.83 1736.99C2861.71 1736 2838.49 1735.51 2815.2 1735.51C2724.77 1735.51 2633.31 1743.12 2542.21 1760.24M1964.57 1659.93C1931.48 1654.99 1895.48 1650.55 1856.31 1647.04C1849.96 1646.45 1843.53 1645.89 1837.03 1645.35L1856.33 1598.05C1860.07 1598.4 1863.76 1598.75 1867.44 1599.09C1892.31 1601.48 1915.89 1604.23 1938.24 1607.21C1953.88 1609.32 1968.92 1611.55 1983.36 1613.87L1964.57 1659.93M1423.4 1645.51C1423.23 1628.45 1423.33 1612.07 1423.72 1596.52C1494.8 1591.4 1560.99 1588.96 1622.4 1588.59C1627.43 1588.56 1632.41 1588.55 1637.37 1588.55C1648.89 1588.55 1660.23 1588.63 1671.4 1588.77L1651.49 1637.57C1647.24 1637.56 1642.97 1637.55 1638.68 1637.55C1572.61 1637.55 1500.96 1639.92 1423.4 1645.51Z" fill="#C19999"/>
<path d="M2034.44 3653.68C2049.08 3653.68 2062.09 3664.11 2064.87 3679C2095.09 3841.36 2200.25 3977.52 2201.31 3978.87C2204.75 3983.29 2206.93 3988.56 2207.63 3994.12C2231.45 4185.84 2308.01 4243.93 2369.53 4290.6C2403.19 4316.15 2434.97 4340.27 2448.76 4380.41C2460.97 4416 2461.63 4468.33 2462.32 4523.73C2463.19 4592.83 2464.25 4678.8 2491.76 4702.88C2495.83 4706.44 2502.32 4710.28 2516.56 4708.57C2539.29 4705.83 2555.32 4697.39 2565.55 4682.76C2596.27 4638.8 2574.99 4548.13 2565.89 4509.43L2565.67 4508.44C2560.15 4484.97 2513.43 4276.35 2573.85 4184.28C2589.27 4160.8 2610.93 4145.96 2636.51 4141.36C2669.68 4135.35 2696.44 4149.49 2720.04 4161.97C2750.41 4178.03 2766.13 4185.09 2791.37 4170.41C2871.93 4123.52 2863.17 3959.27 2843.99 3804.76C2820.77 3617.89 2863.08 3462.07 2864.89 3455.52C2868.97 3440.79 2883.16 3431.24 2898.37 3433.01C2913.56 3434.8 2925.17 3447.39 2925.73 3462.67C2927.23 3503.49 2943.64 3543.69 2963.91 3556.2C2970.77 3560.43 2977.17 3560.63 2985.31 3556.91C3008.92 3546.11 3011.04 3510.56 3012.76 3448.64C3013.41 3424.6 3014.17 3397.35 3017.11 3368.89C3027.75 3264.95 3075.16 3123.52 3077.17 3117.56C3082.17 3102.73 3097.43 3093.97 3112.75 3097.09C3128.07 3100.23 3138.65 3114.28 3137.44 3129.87C3135.21 3159.4 3137.41 3250.63 3175.45 3281.03C3180.99 3285.45 3197.81 3298.89 3239.27 3286.16C3318.99 3261.69 3315.55 3148.53 3301.2 2978.69C3294.92 2904.41 3288.43 2827.6 3294.12 2757.88C3306.57 2606.11 3362.28 2511.25 3426.79 2401.41C3456.04 2351.6 3486.28 2300.09 3515.15 2238.57C3603.32 2050.73 3599.92 1877.05 3599.87 1875.32C3599.48 1860.25 3609.97 1847.08 3624.73 1844.12C3639.52 1841.16 3654.27 1849.2 3659.73 1863.23C3663.61 1872.71 3686.47 1920.16 3745.63 1899.65C3803.55 1879.59 3794.85 1785.87 3778.65 1674.64L3776.35 1658.72C3764.37 1574.99 3781.19 1470.99 3790.25 1424.6C2379.81 725.96 1649.35 1201.85 1418.87 1413.72C1424.55 1416.27 1427.81 1417.57 1427.89 1417.6C1436.11 1420.87 1442.56 1427.51 1445.59 1435.83C1448.6 1444.15 1447.93 1453.36 1443.73 1461.15C1443.12 1462.29 1442.49 1463.51 1441.93 1464.83C1405.52 1547.2 1426.72 1876.4 1469.56 2088.27C1506.16 2268.95 1561.32 2599.81 1519.43 2785.63C1504.91 2850.2 1460.71 3046.75 1511.32 3112.19C1522.43 3126.53 1537.69 3133.56 1559.37 3134.27C1576.01 3134.76 1588.99 3129.52 1600.16 3117.63C1645.77 3069.05 1644.11 2936.24 1639.61 2889.16C1638.13 2873.67 1648.37 2859.48 1663.55 2856C1678.72 2852.51 1694.11 2860.83 1699.52 2875.41C1706.8 2895.03 1878.21 3357.83 1918.27 3550.08C1933.63 3623.72 1934.16 3703.28 1934.61 3773.49C1935 3830.19 1935.35 3883.75 1943.88 3919.36C1953.33 3958.79 1968.12 3958.79 1977.91 3958.79C1985.09 3958.79 1990 3956.45 1994.84 3950.73C2025.29 3914.75 2021.29 3793.75 2003.83 3689.81C2001.01 3673.04 2012.24 3657.12 2029 3654.16C2030.81 3653.84 2032.64 3653.68 2034.44 3653.68M2510.2 4770.97C2481.87 4770.97 2462.6 4759.73 2450.93 4749.52C2402.61 4707.23 2401.45 4614.33 2400.33 4524.51C2399.73 4476.44 2399.11 4426.72 2390.13 4400.55C2382.47 4378.24 2361.33 4362.19 2332.07 4339.99C2265.85 4289.76 2175.51 4221.21 2147.19 4010.04C2135.43 3994.08 2106.2 3952.44 2076.44 3894.68C2071.76 3933.61 2061.4 3968.03 2042.16 3990.77C2025.56 4010.4 2003.33 4020.77 1977.91 4020.77C1944.39 4020.77 1900.83 4005.69 1883.6 3933.8C1873.4 3891.27 1873.05 3836.87 1872.64 3773.89C1872.19 3706.6 1871.69 3630.32 1857.59 3562.73C1832.37 3441.76 1750.63 3202.21 1695.19 3045.88C1687.16 3089 1672.24 3131.4 1645.39 3160.01C1622.13 3184.81 1591.8 3197.24 1557.35 3196.23C1517.48 3194.91 1484.61 3178.96 1462.29 3150.11C1401.96 3072.11 1426.75 2915.21 1458.96 2772.01C1498.31 2597.44 1444.43 2276.4 1408.8 2100.57C1370.03 1908.77 1342.11 1589.01 1377.23 1462.65C1369.59 1458.93 1360.67 1454.37 1350.84 1449C1342.29 1444.32 1336.44 1435.89 1335.05 1426.25C1333.65 1416.61 1336.87 1406.87 1343.73 1399.96C1451.09 1291.93 1691.57 1099.61 2096.01 1025.29C2599.15 932.84 3185.72 1052.13 3839.41 1379.83C3843.45 1381.85 3847 1384.75 3849.81 1388.29C3855.69 1395.71 3857.85 1405.44 3855.68 1414.65C3855.36 1416.03 3823.76 1552.45 3837.71 1649.95L3840 1665.71C3855.6 1772.91 3876.99 1919.73 3765.93 1958.23C3720.71 1973.89 3684.76 1967.01 3657.88 1951.27C3650.43 2024.41 3629.47 2140.89 3571.25 2264.91C3541.19 2329.01 3510.2 2381.77 3480.24 2432.8C3419.57 2536.09 3367.19 2625.29 3355.91 2762.93C3350.64 2827.52 3356.91 2901.72 3362.96 2973.48C3376.71 3136.2 3390.92 3304.45 3257.45 3345.43C3197.24 3363.91 3158.53 3346.89 3136.65 3329.37C3118.83 3315.09 3106.04 3295.88 3096.89 3274.93C3088.91 3308.76 3081.95 3344.17 3078.77 3375.23C3076.08 3401.39 3075.39 3426.28 3074.72 3450.36C3072.79 3520.07 3070.96 3585.91 3011.09 3613.28C2984.19 3625.6 2955.88 3624.05 2931.39 3608.96C2921.76 3603.03 2912.89 3595.08 2904.97 3585.52C2898.68 3643.04 2895.61 3717.52 2905.49 3797.12C2928.28 3980.49 2933.99 4159.13 2822.55 4223.99C2766.47 4256.63 2722.88 4233.6 2691.07 4216.77C2671.59 4206.48 2659.04 4200.27 2647.51 4202.36C2641.96 4203.36 2633.69 4206.09 2625.68 4218.29C2594.47 4265.85 2602.21 4393.12 2626.01 4494.25L2626.24 4495.25C2638.16 4546 2662.95 4651.61 2616.35 4718.27C2595.73 4747.76 2564.65 4765.21 2523.99 4770.12C2519.17 4770.69 2514.59 4770.97 2510.2 4770.97" fill="#650000"/>
<path d="M4400.57 1433.6C4325.37 1706.45 4097.8 1663.59 4097.8 1663.59C4097.8 1663.59 4088.63 1663.29 4073.04 1660.45C4071.73 1660.23 4070.35 1660.01 4069.04 1659.72C4062.2 1658.41 4054.33 1656.67 4045.6 1654.19C4045.45 1654.12 4045.37 1654.12 4045.24 1654.12C4041.88 1653.17 4038.68 1652.23 4035.48 1651.28C4034.24 1650.99 4033 1650.63 4031.84 1650.19C4007.81 1642.61 3978.99 1630.75 3948.48 1612.11C3934.87 1603.88 3920.96 1594.2 3906.99 1583.07C3906.99 1583.07 3784.47 1514.2 3572.25 1443.8C3359.96 1373.47 3157.13 1301.83 3157.13 1301.83C3157.13 1301.83 3018.81 1248.55 2765.61 1264.48C2512.41 1280.36 2105.39 1311.15 1944.35 1207.19C1944.35 1207.19 1839.59 1322.44 1712.33 1389.77C1526.97 1487.84 1415.96 1447.36 1416.47 1446.41C1416.47 1446.41 1395.57 1438.19 1365.72 1421.81C1362.37 1419.99 1358.88 1418.03 1355.24 1415.99C1349.05 1412.41 1342.57 1408.63 1335.95 1404.48C1333.11 1402.67 1330.12 1400.84 1327.21 1398.95C1325.54 1397.85 1323.87 1396.84 1322.26 1395.75C1312.36 1389.2 1302.17 1382.05 1291.98 1374.35C1290.23 1373.03 1288.55 1371.72 1286.81 1370.41C1281.71 1366.4 1276.62 1362.25 1271.52 1358.04C1269.77 1356.57 1268.1 1355.12 1266.42 1353.67C1263.08 1350.76 1259.65 1347.77 1256.38 1344.71C1251.35 1340.13 1246.4 1335.32 1241.6 1330.44C1238.4 1327.17 1235.19 1323.81 1232.06 1320.47C1222.23 1309.77 1212.92 1298.35 1204.4 1286.33C1202.07 1283.05 1199.81 1279.71 1197.63 1276.35C1196.53 1274.68 1195.44 1273 1194.42 1271.33C1191.73 1266.96 1189.11 1262.52 1186.63 1258.01C1185.25 1255.47 1183.94 1252.91 1182.63 1250.36C1181.68 1248.47 1180.66 1246.51 1179.79 1244.55C1178.92 1242.72 1178.04 1240.89 1177.24 1239.01C1176.22 1236.83 1175.35 1234.64 1174.4 1232.45C1148.78 1170.43 1142.3 1103.6 1154.02 1041.72C1157.29 1024.03 1162.03 1006.77 1168.29 990.173C1189.84 932.44 1228.79 882.427 1284.19 849.6C1411.37 774.253 1790.08 755.827 1931.68 714.48C2073.28 673.054 2451.61 566.254 2860.76 694.747C3163.35 789.84 3327.35 785.68 3472.23 781.52C3523.21 780.053 3571.83 778.587 3623.28 781.453C3758.97 789.027 4130.41 893.427 4311.53 1095.81L4311.68 1095.88C4331.27 1117.72 4348.6 1140.72 4363.16 1164.89C4364.32 1166.87 4365.48 1168.83 4366.65 1170.79C4376.63 1188.05 4385.28 1205.81 4392.28 1224.23C4399.33 1242.72 4404.8 1261.8 4408.44 1281.52C4417.25 1328.84 4415.49 1379.51 4400.57 1433.6" fill="#D86635"/>
<path d="M4375.81 1187.52C4372.91 1181.89 4369.84 1176.32 4366.65 1170.79C4365.48 1168.83 4364.32 1166.87 4363.16 1164.89C4348.6 1140.72 4331.27 1117.72 4311.68 1095.88L4311.53 1095.81C4130.41 893.427 3758.97 789.026 3623.28 781.453C3601.76 780.253 3580.75 779.814 3559.85 779.814C3530.76 779.814 3501.89 780.666 3472.23 781.52C3442.56 782.373 3412.09 783.227 3379.8 783.227C3254.37 783.227 3101.39 770.374 2860.76 694.747C2854.41 692.76 2848.07 690.813 2841.73 688.933C2848.07 690.813 2854.41 692.747 2860.76 694.747C3101.39 770.374 3254.37 783.227 3379.79 783.227C3412.08 783.227 3442.56 782.373 3472.23 781.52C3501.89 780.666 3530.75 779.814 3559.84 779.814C3580.73 779.814 3601.76 780.253 3623.28 781.453C3758.99 789.026 4130.41 893.413 4311.53 1095.81L4311.68 1095.88C4331.27 1117.72 4348.6 1140.72 4363.16 1164.89C4364.32 1166.87 4365.48 1168.83 4366.65 1170.79C4369.84 1176.32 4372.91 1181.89 4375.81 1187.52M1246.01 877.053C1257.71 866.946 1270.45 857.733 1284.19 849.6C1411.37 774.24 1790.08 755.827 1931.68 714.48C1933.04 714.08 1934.43 713.68 1935.84 713.267C1934.43 713.68 1933.04 714.08 1931.68 714.48C1790.08 755.827 1411.37 774.253 1284.19 849.6C1270.44 857.747 1257.71 866.946 1246.01 877.053Z" fill="#C19999"/>
<path d="M4392.2 1224.16C4388.24 1217.48 4383.88 1210.8 4379.17 1204.16C4375.76 1195.68 4372.31 1187.23 4368.84 1178.8C4369.95 1183.56 4370.71 1188.41 4371.15 1193.31C4244.76 1029.36 3901.29 880.427 3634.12 868.307C3621.19 867.72 3608.27 867.453 3595.33 867.453C3544.91 867.453 3494.47 871.426 3444.04 875.4C3393.61 879.36 3343.2 883.333 3292.8 883.333C3275.51 883.333 3258.21 882.867 3240.93 881.773C3012.33 867.213 2803.17 744.4 2577.35 709.453C2573.93 748.253 2506.88 779.2 2424.4 779.2C2345.19 779.2 2279.96 750.653 2271.95 714.04C2120.08 736.827 1968.95 781.306 1816.95 806.933C1667.77 832.053 1513.8 839.546 1372.13 892.76C1298.71 920.306 1227.77 963.827 1173.37 1020.24C1171.29 1010.29 1169.59 1000.25 1168.29 990.173C1168.29 990.173 1168.29 990.173 1168.29 990.173C1184.49 946.76 1210.53 907.72 1246.01 877.053C1257.71 866.946 1270.44 857.746 1284.19 849.6C1411.37 774.253 1790.08 755.827 1931.68 714.48C1933.04 714.08 1934.43 713.68 1935.84 713.266C2023.61 687.666 2196.08 639.613 2408.52 634.026C2409.91 633.96 2411.36 633.96 2412.75 633.88C2424.64 633.613 2436.64 633.466 2448.77 633.466C2570.65 633.466 2704.24 648.093 2841.73 688.933C2848.07 690.813 2854.41 692.76 2860.76 694.747C3101.39 770.373 3254.37 783.226 3379.8 783.226C3412.09 783.226 3442.56 782.373 3472.23 781.52C3501.89 780.666 3530.76 779.813 3559.85 779.813C3580.75 779.813 3601.76 780.253 3623.28 781.453C3758.97 789.026 4130.41 893.426 4311.53 1095.81L4311.68 1095.88C4331.27 1117.72 4348.6 1140.72 4363.16 1164.89C4364.32 1166.87 4365.48 1168.83 4366.65 1170.79C4369.84 1176.32 4372.91 1181.89 4375.81 1187.52C4381.99 1199.48 4387.51 1211.68 4392.2 1224.16M1162.15 1008.24C1163.93 1002.4 1165.87 996.626 1168.01 990.933C1165.88 996.626 1163.93 1002.4 1162.15 1008.24Z" fill="#EFC2AE"/>
<path d="M4131.64 1666.03C4110.8 1666.03 4097.8 1663.59 4097.8 1663.59C4097.8 1663.59 4088.63 1663.29 4073.04 1660.45C4071.73 1660.23 4070.35 1660.01 4069.04 1659.72C4067.81 1659.48 4066.55 1659.24 4065.25 1658.97C4066.55 1659.24 4067.81 1659.48 4069.04 1659.72C4070.35 1660.01 4071.73 1660.23 4073.04 1660.45C4088.63 1663.29 4097.8 1663.59 4097.8 1663.59C4097.8 1663.59 4110.8 1666.03 4131.64 1666.03C4197.93 1666.03 4343.36 1641.2 4400.57 1433.6C4409.55 1401.07 4413.76 1369.77 4413.77 1339.69C4413.76 1369.76 4409.56 1401.05 4400.57 1433.6C4343.36 1641.2 4197.93 1666.03 4131.64 1666.03" fill="#650000"/>
<path d="M1148.5 1110.95C1147.57 1076.12 1152.07 1041.71 1161.83 1009.28C1158.65 1019.88 1156.05 1030.72 1154.02 1041.72C1149.74 1064.29 1147.89 1087.53 1148.5 1110.95" fill="#650000"/>
<path d="M4131.64 1666.03C4110.8 1666.03 4097.8 1663.59 4097.8 1663.59C4097.8 1663.59 4088.63 1663.29 4073.04 1660.45C4071.73 1660.23 4070.35 1660.01 4069.04 1659.72C4067.81 1659.48 4066.55 1659.24 4065.25 1658.97C4059.35 1657.76 4052.76 1656.21 4045.6 1654.19C4045.45 1654.12 4045.37 1654.12 4045.24 1654.12C4041.88 1653.17 4038.68 1652.23 4035.48 1651.28C4034.24 1650.99 4033 1650.63 4031.84 1650.19C4007.81 1642.61 3978.99 1630.75 3948.48 1612.11C3934.87 1603.88 3920.96 1594.2 3906.99 1583.07C3906.99 1583.07 3882.33 1569.2 3835.97 1547.56C3818.91 1539.59 3798.88 1530.56 3776.05 1520.77C3722.75 1497.93 3654.19 1470.97 3572.25 1443.8C3359.96 1373.47 3157.13 1301.83 3157.13 1301.83C3157.13 1301.83 3052.47 1261.51 2858.57 1261.51C2829.56 1261.51 2798.56 1262.41 2765.61 1264.48C2654.15 1271.48 2512.84 1281.35 2375.87 1281.35C2201.69 1281.35 2034.48 1265.39 1944.35 1207.19C1944.35 1207.19 1839.59 1322.44 1712.33 1389.77C1611.44 1443.15 1532.56 1455.48 1481.72 1455.48C1467.93 1455.48 1456.21 1454.57 1446.67 1453.35C1426.91 1450.77 1416.49 1446.77 1416.47 1446.43V1446.41C1416.47 1446.41 1395.57 1438.19 1365.72 1421.81C1362.37 1419.99 1358.88 1418.03 1355.24 1415.99C1349.05 1412.41 1342.57 1408.63 1335.95 1404.48C1333.11 1402.67 1330.12 1400.84 1327.21 1398.95C1325.54 1397.85 1323.87 1396.84 1322.26 1395.75C1312.36 1389.2 1302.17 1382.05 1291.98 1374.35C1290.23 1373.03 1288.55 1371.72 1286.81 1370.41C1281.71 1366.4 1276.62 1362.25 1271.52 1358.04C1269.77 1356.57 1268.1 1355.12 1266.42 1353.67C1263.08 1350.76 1259.65 1347.77 1256.38 1344.71C1251.35 1340.13 1246.4 1335.32 1241.6 1330.44C1238.4 1327.17 1235.19 1323.81 1232.06 1320.47C1222.23 1309.77 1212.92 1298.35 1204.4 1286.33C1202.07 1283.05 1199.81 1279.71 1197.63 1276.35C1196.53 1274.68 1195.44 1273 1194.42 1271.33C1191.73 1266.96 1189.11 1262.52 1186.63 1258.01C1185.25 1255.47 1183.94 1252.91 1182.63 1250.36C1181.68 1248.47 1180.66 1246.51 1179.79 1244.55C1178.92 1242.72 1178.04 1240.89 1177.24 1239.01C1176.22 1236.83 1175.35 1234.64 1174.4 1232.45C1158.14 1193.07 1149.6 1151.72 1148.5 1110.95C1147.89 1087.53 1149.74 1064.29 1154.02 1041.72C1156.05 1030.72 1158.65 1019.88 1161.83 1009.28C1161.94 1008.93 1162.05 1008.59 1162.15 1008.24C1158.83 1019.17 1156.12 1030.36 1154.02 1041.72C1160.2 1034.36 1166.66 1027.21 1173.37 1020.24C1192.23 1110.16 1242.91 1193.64 1318.55 1246.15C1378.05 1287.45 1450.13 1307.55 1522.4 1307.55C1618.49 1307.55 1714.95 1272.05 1782.8 1203.69C1718.08 1145.89 1683.64 1056.05 1693.11 969.867C1798.31 1102.36 1981.4 1142.55 2150.29 1152.23C2187.93 1154.4 2225.65 1155.48 2263.35 1155.48C2450.51 1155.48 2637.55 1128.83 2817.23 1076.59C2879.19 1058.61 2912.52 991.333 2889.52 930.987C2883.25 914.533 2877 898.08 2870.73 881.627C3078.21 1117.65 3376.63 1270.96 3685.09 1309.84C3690.48 1310.52 3695.88 1310.85 3701.21 1310.85C3744.29 1310.85 3784.73 1289.15 3809.87 1253.13C3863.96 1175.45 3942.51 1114.73 4031.84 1083.36C3982.25 1145.31 3936.03 1213.45 3921.32 1291.49C3906.61 1369.47 3930.35 1459.31 3996.53 1503.13C4021.79 1519.84 4051.95 1527.99 4082.19 1527.99C4122.43 1527.99 4162.79 1513.55 4191.93 1485.65C4243.04 1436.88 4254.47 1351.85 4220.03 1291.49C4235.08 1300.17 4252.35 1304.36 4269.65 1304.36C4297.24 1304.36 4324.95 1293.75 4344.08 1273.8C4364.33 1252.68 4373.71 1222.37 4371.15 1193.31C4373.93 1196.92 4376.6 1200.52 4379.17 1204.16C4389.48 1229.76 4399.41 1255.56 4408.44 1281.6C4411.95 1300.41 4413.79 1319.79 4413.77 1339.69C4413.76 1369.77 4409.55 1401.07 4400.57 1433.6C4343.36 1641.2 4197.93 1666.03 4131.64 1666.03M1168.01 990.934C1168.1 990.68 1168.19 990.427 1168.29 990.174C1168.19 990.427 1168.1 990.68 1168.01 990.934Z" fill="#C1522A"/>
<path d="M4379.17 1204.16C4376.6 1200.52 4373.93 1196.92 4371.15 1193.31C4370.71 1188.41 4369.95 1183.56 4368.84 1178.8C4372.31 1187.23 4375.76 1195.68 4379.17 1204.16ZM1154.02 1041.72C1156.12 1030.36 1158.83 1019.17 1162.15 1008.24C1163.93 1002.4 1165.88 996.626 1168.01 990.933C1168.1 990.68 1168.19 990.427 1168.29 990.173C1169.59 1000.25 1171.29 1010.29 1173.37 1020.24C1166.66 1027.21 1160.2 1034.36 1154.02 1041.72Z" fill="#D39B8B"/>
<path d="M1443.67 1431.59C1444.35 1432.84 1444.95 1434.15 1445.47 1435.51C1444.95 1434.11 1444.33 1432.8 1443.67 1431.59ZM4054.05 1624.37C4060.84 1626.29 4067.64 1627.89 4074.87 1629.28C4075.17 1629.33 4075.49 1629.4 4075.81 1629.48C4076.39 1629.6 4077 1629.69 4077.6 1629.79C4077.76 1629.81 4078.44 1629.92 4078.6 1629.96C4091.29 1632.27 4098.85 1632.6 4098.93 1632.61C4100.43 1632.67 4102.07 1632.84 4103.53 1633.12C4111.57 1634.56 4304.31 1666.23 4370.69 1425.37V1425.36C4400.93 1315.75 4373.68 1212.28 4289.71 1117.8C4289.27 1117.37 4288.85 1116.93 4288.44 1116.48C4109.39 916.413 3743.83 819.227 3621.56 812.4C3572.2 809.653 3525.2 811 3475.44 812.44C3327.88 816.68 3160.64 821.493 2851.47 724.32C2444.91 596.64 2065.17 707.72 1940.37 744.227C1884.56 760.52 1794.67 773.214 1699.48 786.64C1546.75 808.2 1373.64 832.627 1299.98 876.267C1190.51 941.12 1148.84 1089.16 1203.05 1220.64L1203.88 1222.57C1204.35 1223.68 1204.81 1224.8 1205.33 1225.91C1205.49 1226.24 1205.64 1226.59 1205.79 1226.92C1206.39 1228.35 1207.05 1229.71 1207.71 1231.08C1207.83 1231.33 1207.98 1231.67 1208.1 1231.92C1208.6 1233.04 1209.18 1234.16 1209.73 1235.27L1210.35 1236.51C1211.4 1238.55 1212.6 1240.88 1213.87 1243.23C1216.03 1247.16 1218.39 1251.15 1220.8 1255.05C1221.74 1256.6 1222.62 1257.93 1223.5 1259.28C1225.54 1262.41 1227.57 1265.43 1229.66 1268.37C1237.23 1279.04 1245.71 1289.51 1254.89 1299.51C1257.67 1302.48 1260.72 1305.67 1263.76 1308.77C1268.32 1313.41 1272.9 1317.83 1277.28 1321.83C1280.54 1324.87 1283.69 1327.61 1286.77 1330.29C1288.4 1331.69 1289.84 1332.96 1291.35 1334.21C1296.13 1338.17 1300.97 1342.12 1305.8 1345.92L1310.58 1349.56C1319.65 1356.41 1329.3 1363.24 1339.36 1369.89C1340.43 1370.61 1341.17 1371.08 1341.92 1371.56L1344.15 1372.99C1345.57 1373.92 1347.08 1374.85 1348.56 1375.79L1352.69 1378.4C1358.68 1382.15 1364.84 1385.75 1370.72 1389.13L1371.71 1389.68C1374.76 1391.39 1377.69 1393.04 1380.53 1394.57C1408.13 1409.72 1427.67 1417.52 1427.85 1417.59C1428.45 1417.83 1429.04 1418.08 1429.61 1418.36C1439.03 1421.21 1537.23 1447.36 1697.83 1362.39C1818.57 1298.48 1920.4 1187.45 1921.41 1186.33C1931.61 1175.12 1948.43 1172.93 1961.16 1181.15C2106.93 1275.27 2482.72 1251.39 2731.39 1235.6L2763.67 1233.55C3015.81 1217.68 3156.95 1268.64 3167.8 1272.73C3177.32 1276.08 3376.49 1346.29 3581.99 1414.37C3794.6 1484.91 3917.07 1553.17 3922.17 1556.04C3923.61 1556.85 3925 1557.79 3926.29 1558.83C3938.96 1568.91 3951.81 1577.91 3964.51 1585.59C3988.99 1600.53 4014.72 1612.29 4041.16 1620.63C4041.68 1620.79 4042.21 1620.97 4042.73 1621.17C4043.31 1621.31 4043.69 1621.39 4044.27 1621.56C4047.12 1622.4 4049.99 1623.24 4052.95 1624.09C4053.32 1624.17 4053.68 1624.28 4054.04 1624.37H4054.05ZM4129.36 1696.64C4112.23 1696.64 4099.89 1695.2 4094.73 1694.45C4090.67 1694.21 4081.09 1693.41 4067.49 1690.95C4065.95 1690.69 4064.36 1690.41 4062.83 1690.09C4054.29 1688.45 4046.19 1686.55 4038.08 1684.28C4037.67 1684.17 4037.24 1684.07 4036.83 1683.95C4033.6 1683.04 4030.49 1682.12 4027.4 1681.21C4025.51 1680.73 4023.65 1680.17 4021.88 1679.55C3990.88 1669.72 3960.75 1655.93 3932.32 1638.56C3918.19 1630.01 3903.85 1620.05 3889.77 1608.97C3873.07 1599.88 3754.39 1536.87 3562.49 1473.21C3352.36 1403.6 3148.84 1331.77 3146.81 1331.05C3146.55 1330.96 3146.27 1330.85 3146 1330.76C3144.72 1330.27 3009.65 1280.15 2767.56 1295.41L2735.31 1297.45C2489.64 1313.07 2123.81 1336.31 1949.93 1246.17C1914.32 1282.23 1828.12 1363.57 1726.83 1417.17C1560.99 1504.91 1442.87 1491.2 1405.27 1474.85L1405.11 1475.25C1404.17 1474.89 1382.03 1466.11 1350.81 1448.97C1347.87 1447.37 1344.69 1445.6 1341.41 1443.76L1340.09 1443.03C1333.26 1439.09 1326.46 1435.11 1319.5 1430.75L1315.62 1428.31C1313.86 1427.2 1312.08 1426.08 1310.33 1424.93L1308.66 1423.87C1307.36 1423.04 1306.07 1422.23 1304.82 1421.36C1294.01 1414.21 1283.28 1406.63 1273.27 1399.05L1268.2 1395.2C1268.02 1395.07 1267.84 1394.92 1267.65 1394.77C1262.35 1390.61 1257.04 1386.29 1251.74 1381.89C1249.85 1380.32 1248.08 1378.79 1246.31 1377.25C1242.46 1373.91 1238.76 1370.67 1235.23 1367.37C1230.29 1362.87 1224.92 1357.68 1219.51 1352.19C1216.07 1348.68 1212.71 1345.16 1209.42 1341.64C1198.29 1329.52 1188.16 1317.01 1179.11 1304.25C1176.57 1300.68 1174.08 1296.99 1171.67 1293.29C1170.33 1291.24 1169.09 1289.32 1167.93 1287.41C1165.07 1282.79 1162.19 1277.88 1159.45 1272.91C1157.9 1270.03 1156.47 1267.28 1155.06 1264.52L1154.37 1263.16C1153.45 1261.33 1152.52 1259.45 1151.67 1257.59C1150.71 1255.57 1149.79 1253.61 1148.92 1251.6C1148.17 1249.97 1147.47 1248.35 1146.78 1246.71L1145.97 1244.79C1079.87 1084.52 1132.59 903.387 1268.39 822.933C1352.71 772.973 1532.33 747.627 1690.83 725.267C1783.73 712.147 1871.48 699.76 1922.99 684.72C2052.23 646.92 2445.55 531.854 2870.05 665.174C3169.28 759.227 3330.97 754.56 3473.67 750.467C3524.76 749.013 3573.03 747.614 3625 750.507C3754.55 757.734 4141.79 861.027 4333.45 1073.83C4333.67 1074.03 4333.88 1074.24 4334.08 1074.45C4334.32 1074.71 4334.55 1074.96 4334.77 1075.21C4434.61 1186.75 4466.8 1310.11 4430.45 1441.84C4367.67 1669.64 4203.53 1696.64 4129.36 1696.64" fill="#650000"/>
<path d="M4096.6 1632.47C4098.87 1632.47 4101.19 1632.68 4103.53 1633.12C4111.57 1634.56 4304.31 1666.23 4370.69 1425.37V1425.36C4400.88 1315.95 4373.79 1212.65 4290.17 1118.32C4253.24 1087.36 4204.48 1075.28 4152.65 1084.29C4077.37 1097.37 4009.12 1151.53 3960.48 1236.76C3856.83 1418.32 3920.35 1540.92 3929.23 1556.37C3932.25 1559.8 3943.85 1572.17 3965.33 1586.09C3987.36 1600.39 4012.76 1611.97 4040.88 1620.55C4041.49 1620.72 4042.11 1620.93 4042.71 1621.16C4043.28 1621.29 4043.69 1621.39 4044.25 1621.56C4047.23 1622.43 4050.03 1623.25 4052.91 1624.08C4053.12 1624.13 4053.32 1624.19 4053.52 1624.24L4053.53 1624.23C4060.99 1626.2 4068.29 1627.93 4075.28 1629.36C4076.33 1629.6 4076.97 1629.68 4077.6 1629.79C4078 1629.85 4078.89 1630.01 4079.28 1630.09C4083.77 1631.01 4088.41 1631.87 4093.16 1632.64C4094.29 1632.52 4095.44 1632.47 4096.6 1632.47V1632.47ZM4129.36 1696.64C4117.6 1696.64 4108.09 1695.96 4101.63 1695.29C4098.81 1695.68 4095.92 1695.71 4093.01 1695.31C4084.24 1694.08 4075.63 1692.61 4067.39 1690.93C4065.48 1690.61 4063.89 1690.33 4062.36 1689.99C4054.93 1688.47 4046.79 1686.55 4038.51 1684.37C4037.93 1684.24 4037.36 1684.11 4036.79 1683.93C4033.57 1683.03 4030.48 1682.12 4027.4 1681.21C4025.56 1680.75 4023.77 1680.21 4022.04 1679.6C3988.69 1669.36 3958.27 1655.4 3931.61 1638.11C3897.15 1615.79 3881.01 1595.47 3879.29 1593.23C3878.73 1592.51 3878.2 1591.75 3877.71 1590.97C3873.6 1584.52 3778.57 1430.37 3906.64 1206.03C3964.61 1104.45 4048.21 1039.53 4142.03 1023.23C4211.44 1011.16 4280.08 1028.68 4330.59 1071.32C4331.64 1072.13 4332.65 1073.01 4333.6 1073.96C4334 1074.37 4334.4 1074.79 4334.77 1075.21C4434.61 1186.75 4466.8 1310.11 4430.45 1441.84C4367.67 1669.64 4203.53 1696.64 4129.36 1696.64" fill="#650000"/>
<path d="M3923.95 1553.29C3937.2 1566.25 3951.47 1577.83 3967.12 1587.07C3982.84 1596.09 3999.73 1602.43 4017.35 1606C4052.52 1613.05 4090.59 1607.75 4124.44 1591.15C4158.29 1574.84 4188.15 1548.63 4209.61 1516.67C4231.17 1484.71 4243.69 1446.64 4244.64 1407.83C4245.29 1388.4 4242.52 1368.88 4237.07 1350.03C4232.4 1331.17 4222.95 1314.43 4210.41 1299.8C4197.75 1285.45 4181.59 1274.03 4163.53 1268.13C4145.41 1262.31 4125.68 1262.52 4107.63 1269.59C4089.72 1276.72 4073.56 1289.45 4063.15 1306.13C4052.88 1322.65 4048.44 1343.48 4054.19 1362.48C4060.08 1381.33 4074.28 1397.79 4092.27 1407.47C4110.09 1417.08 4132.67 1419.77 4151.67 1410.53C4133.25 1420.93 4109.81 1419.77 4090.59 1410.75C4071.29 1401.72 4055.07 1385.41 4047.2 1364.81C4039.48 1343.84 4043.12 1320.04 4053.6 1300.67C4064.31 1281.23 4081.56 1265.72 4101.87 1256.27C4122.25 1246.8 4146.49 1244.91 4168.48 1250.73C4190.55 1256.55 4210.35 1269 4226.29 1285.01C4241.93 1301.03 4254.53 1321.05 4261.23 1342.45C4268.65 1363.28 4273.03 1385.33 4273.68 1407.68C4275.21 1452.31 4263.27 1497.45 4240.41 1536.11C4217.55 1574.76 4184.57 1607.75 4144.45 1630.09C4104.64 1652.67 4056.29 1663.07 4009.05 1656.45C3985.53 1653.17 3962.45 1645.96 3941.35 1635.41C3920.31 1624.64 3901.16 1610.88 3883.68 1595.59C3871.6 1584.96 3870.36 1566.53 3880.99 1554.45C3891.61 1542.37 3910.04 1541.13 3922.12 1551.76C3922.49 1552.12 3922.85 1552.41 3923.21 1552.77L3923.95 1553.29Z" fill="#650000"/>
<path d="M2557.88 1729.87L2557.85 1729.89L2557.88 1729.87ZM1639.08 1619.53C1560.32 1619.53 1478.03 1623.01 1393.95 1629.89C1346.8 1633.77 1309.09 1672.35 1306.24 1719.61C1298.17 1853.28 1302.57 2063.51 1369.33 2305.97C1372.37 2317.09 1377.31 2327.44 1384 2336.76C1398.32 2356.84 1419.36 2370.45 1443.27 2375.16C1469.07 2380.2 1496.68 2384.73 1525.32 2388.61C1565.88 2394.04 1608.36 2398.09 1651.51 2400.69C1693.15 2403.07 1733.13 2404.11 1773.72 2403.84C1855.47 2403.44 1939.53 2397.99 2023.61 2387.61C2076.44 2381.11 2121.55 2346.83 2141.32 2298.16L2144.93 2289.19C2182.41 2194.85 2230.53 2042.15 2246.53 1851.44C2247.33 1841.77 2252.63 1833.05 2260.81 1827.85C2262 1827.09 2265.39 1825.07 2271 1822.49C2293.4 1812.08 2370.71 1784.65 2487.71 1830.35C2491.81 1791.29 2497.37 1750.85 2500.85 1726.69C2456.81 1709.53 2360.77 1681.92 2258.6 1715.45C2250.68 1718.05 2242.04 1717.36 2234.64 1713.49C2234.47 1713.41 2233.37 1712.89 2231.56 1712.11C2218.92 1706.29 2173.36 1686.69 2092.27 1667.07C2057.08 1658.53 2018.8 1650.93 1978.45 1644.47C1938.45 1638.04 1896.43 1632.81 1853.53 1628.93C1795.25 1623.56 1733.88 1620.47 1671.05 1619.73C1660.47 1619.6 1649.8 1619.53 1639.08 1619.53V1619.53ZM1761.23 2465.87C1723.75 2465.87 1686.53 2464.79 1647.88 2462.57C1603.15 2459.89 1559.16 2455.68 1517.05 2450.05C1487.16 2446 1458.35 2441.27 1431.33 2435.99C1391.81 2428.23 1357.09 2405.79 1333.57 2372.83C1322.64 2357.57 1314.54 2340.59 1309.55 2322.4C1240.55 2071.76 1236.01 1854.23 1244.37 1715.88C1249.05 1638.04 1311.18 1574.51 1388.88 1568.12C1486.33 1560.13 1581.49 1556.67 1671.79 1557.75C1736.25 1558.51 1799.29 1561.69 1859.17 1567.2C1903.43 1571.2 1946.88 1576.6 1988.28 1583.25C2030.21 1589.99 2070.11 1597.91 2106.85 1606.81C2182.89 1625.21 2230.05 1643.71 2251.04 1652.91C2390.67 1612.04 2514.11 1663.12 2549.35 1680.16C2558.36 1684.52 2564.72 1692.96 2566.4 1702.84C2567.4 1708.64 2566.71 1714.52 2564.53 1719.83C2561.2 1742.07 2549.23 1824.29 2545.52 1880.25C2544.87 1890.11 2544.21 1900.19 2543.56 1910.71C2542.51 1927.61 2528.15 1940.63 2511.13 1939.73C2494.21 1938.92 2481.08 1924.65 2481.65 1907.72C2481.81 1903.08 2481.97 1898.89 2482.12 1895.16C2392.27 1855.07 2332.61 1865.92 2306.67 1874.89C2288.57 2064.67 2240.36 2216.88 2202.48 2312.25L2198.8 2321.35C2170.52 2390.96 2106.32 2439.87 2031.21 2449.15C1944.71 2459.81 1858.2 2465.43 1774.07 2465.83C1769.79 2465.85 1765.51 2465.87 1761.23 2465.87" fill="#650000"/>
<path d="M2277.41 1854.03H2277.48H2277.41ZM1639.08 1619.53C1560.32 1619.53 1478.03 1623.01 1393.95 1629.89C1346.8 1633.77 1309.09 1672.35 1306.24 1719.61C1298.17 1853.28 1302.57 2063.51 1369.33 2305.97C1372.37 2317.09 1377.31 2327.44 1384 2336.76C1398.33 2356.85 1419.36 2370.45 1443.25 2375.16C1469.07 2380.2 1496.68 2384.73 1525.32 2388.61C1565.88 2394.04 1608.36 2398.09 1651.51 2400.69C1692.51 2403.04 1733.64 2404.12 1773.72 2403.84C1855.45 2403.45 1939.51 2397.99 2023.61 2387.61C2076.44 2381.09 2121.55 2346.83 2141.32 2298.16L2144.93 2289.19C2183.89 2192.25 2236.83 2041.43 2246.45 1852.45C2250.21 1778.2 2228.16 1723.93 2220.32 1707.19C2200.15 1698.77 2157.81 1682.93 2092.27 1667.07C2057.04 1658.53 2018.76 1650.92 1978.45 1644.47C1938.45 1638.04 1896.43 1632.81 1853.53 1628.93C1795.25 1623.56 1733.88 1620.47 1671.05 1619.73C1660.47 1619.6 1649.8 1619.53 1639.08 1619.53ZM1761.83 2465.87C1724.37 2465.87 1686.09 2464.76 1647.88 2462.57C1603.15 2459.89 1559.16 2455.68 1517.05 2450.05C1487.16 2446 1458.35 2441.27 1431.33 2435.99C1391.81 2428.23 1357.09 2405.8 1333.57 2372.83C1322.64 2357.57 1314.55 2340.59 1309.55 2322.4C1240.55 2071.76 1236.01 1854.23 1244.37 1715.88C1249.05 1638.04 1311.18 1574.51 1388.88 1568.12C1486.33 1560.13 1581.51 1556.67 1671.79 1557.75C1736.25 1558.51 1799.29 1561.69 1859.17 1567.2C1903.43 1571.2 1946.88 1576.6 1988.28 1583.25C2030.17 1589.97 2070.07 1597.91 2106.85 1606.81C2191.03 1627.19 2239.81 1647.67 2256.88 1655.52C2265.17 1659.33 2271.36 1666.61 2273.79 1675.41C2282.48 1692.49 2313.19 1760.23 2308.36 1855.59V1855.6C2298.27 2053.85 2243.07 2211.24 2202.43 2312.36L2198.8 2321.35C2170.52 2390.96 2106.32 2439.87 2031.21 2449.15C1944.69 2459.81 1858.17 2465.43 1774.07 2465.83C1770 2465.85 1765.91 2465.87 1761.83 2465.87" fill="#650000"/>
<path d="M1972.52 2534.57C2050.12 2422.83 2172.51 2542.95 2367.53 2542.95C2474.48 2542.95 2609.24 2465.71 2711.23 2551.32C2812.79 2636.49 2752.72 3000.79 2341.91 2977.28C1931.09 2953.76 1889.45 2654.11 1972.52 2534.57Z" fill="white"/>
<path d="M2543.61 1910V1910.03C2541.63 1969.15 2538.99 2123.41 2557.17 2278.79C2563 2328.21 2586.35 2373.83 2622.92 2407.2C2639.72 2422.59 2658.76 2434.87 2679.57 2443.75C2707.12 2455.55 2735.79 2466.47 2764.79 2476.21C2798.4 2487.53 2833.15 2497.59 2868.07 2506.13C2905.71 2515.36 2943.97 2523.03 2981.8 2528.92C3077.81 2543.99 3178.13 2549.41 3280 2545.03C3353.03 2541.92 3418.89 2496.43 3447.83 2429.15C3496.07 2316.75 3556.87 2162.61 3572.52 2066.64C3574.03 2057.45 3579.57 2049.43 3587.65 2044.77C3595.72 2040.13 3605.45 2039.36 3614.15 2042.67C3620.69 2045.16 3775.43 2104.35 3865 2161.21C3902.49 2184.93 3924.01 2205.43 3932.65 2225.67C3947.52 2260.67 3936.88 2300.6 3926.59 2339.21C3911.13 2397.2 3909.61 2418.59 3931 2430.92C3940.33 2436.28 3956.77 2425.64 3969.04 2413.88C4019.93 2365.08 4067.37 2238.91 4028.6 2164.59C4025.05 2157.77 4008.33 2131.72 3942.23 2082.25C3817.99 1989.33 3583.29 1862.41 3297.19 1784.93C3259.07 1774.63 3221.11 1765.45 3184.35 1757.68C3147.4 1749.87 3110.92 1743.24 3075.95 1737.99C3017.51 1729 2959.28 1722.91 2902.79 1719.87C2784.69 1713.52 2670.03 1720.03 2561.69 1739.21C2556.83 1773.35 2548.51 1835.28 2545.53 1880.24C2544.89 1889.89 2544.25 1899.73 2543.61 1910V1910ZM3211.84 2608.49C3130.21 2608.49 3049.89 2602.36 2972.23 2590.16C2932.68 2584 2892.67 2575.99 2853.32 2566.35C2816.72 2557.39 2780.28 2546.84 2745.03 2534.97C2714.45 2524.69 2684.24 2513.17 2655.2 2500.75C2627.97 2489.12 2603.03 2473.04 2581.11 2452.96C2533.55 2409.57 2503.17 2350.27 2495.61 2286.01C2476.96 2126.71 2479.63 1969 2481.65 1908.25C2481.65 1907.77 2481.67 1907.27 2481.69 1906.85C2482.36 1896.25 2483.01 1886.09 2483.68 1876.15C2488.15 1808.53 2503.48 1708.85 2504.13 1704.64C2505 1699.07 2507.37 1693.83 2510.99 1689.49C2511.64 1688.64 2512.67 1687.41 2513.93 1686.15C2522.52 1677.56 2535.27 1674.84 2546.51 1678.96C2660.8 1658.35 2781.72 1651.29 2906.11 1657.96C2964.64 1661.12 3024.92 1667.41 3085.27 1676.69C3121.35 1682.12 3159.03 1688.97 3197.17 1697.03C3235.05 1705.04 3274.15 1714.49 3313.39 1725.11C3607.93 1804.87 3850.53 1936.25 3979.35 2032.61C4034.15 2073.61 4069.2 2108.36 4083.57 2135.93C4138.29 2240.84 4078.73 2394.59 4011.95 2458.63C3974.48 2494.55 3933.69 2504.03 3900.03 2484.61H3900.01C3833.85 2446.44 3852.84 2375.24 3866.69 2323.25C3873.93 2296.09 3882.13 2265.29 3875.63 2249.96C3875.44 2249.52 3870.11 2237.8 3831.81 2213.57C3771.81 2175.48 3676.68 2134.72 3626.19 2114.15C3602.75 2214.99 3548.67 2351.37 3504.79 2453.61C3466.49 2542.65 3379.31 2602.84 3282.65 2606.96C3258.97 2607.97 3235.35 2608.49 3211.84 2608.49Z" fill="#650000"/>
<path d="M1972.52 2534.57H1972.59H1972.52ZM2061.19 2518.03C2034.32 2518.03 2015.12 2527.57 1997.97 2552.25C1967.21 2596.53 1952.56 2682.07 1993.07 2765.28C2045.08 2872.07 2169.6 2936.36 2343.68 2946.33C2356.13 2947.04 2368.23 2947.39 2379.88 2947.39C2605.92 2947.4 2682.37 2818.51 2705.23 2760.87C2737.24 2680.16 2722.93 2601.57 2691.31 2575.07C2632.88 2526.01 2559.11 2541.48 2481 2557.87C2443.31 2565.76 2404.33 2573.93 2367.53 2573.93C2287.07 2573.93 2217.8 2554.44 2162.16 2538.76C2118.6 2526.51 2086.49 2518.03 2061.19 2518.03V2518.03ZM2377.41 3009.29C2365.17 3009.29 2352.75 3008.95 2340.15 3008.21C2073.68 2992.96 1973.4 2866.47 1937.35 2792.41C1885.61 2686.19 1904.96 2577.49 1947.07 2516.88C2006.95 2430.67 2090.51 2454.2 2178.96 2479.09C2233.64 2494.49 2295.63 2511.95 2367.53 2511.95C2397.91 2511.95 2432.09 2504.79 2468.28 2497.19C2553.29 2479.36 2649.65 2459.16 2731.16 2527.57C2789.11 2576.17 2802.44 2683.91 2762.85 2783.72C2706.2 2926.59 2563.57 3009.29 2377.41 3009.29Z" fill="#650000"/>
<path d="M2377.52 2797.05C2363.77 2797.05 2350.04 2796.65 2336.32 2795.85C2180.12 2786.77 2036.72 2732.12 1921.64 2637.83C1908.4 2626.97 1906.47 2607.45 1917.32 2594.2C1928.17 2580.96 1947.69 2579.04 1960.93 2589.88C2065.83 2675.83 2196.88 2725.65 2339.92 2733.97C2478.65 2742.04 2619.51 2705.19 2736.51 2630.2C2750.93 2620.96 2770.09 2625.16 2779.33 2639.57C2788.57 2653.99 2784.37 2673.15 2769.96 2682.39C2653.6 2756.97 2515.67 2797.05 2377.52 2797.05" fill="#650000"/>
<path d="M2053.84 2574.76C2055.08 2591.36 2054.28 2605.19 2053.33 2618.65C2052.24 2631.97 2050.77 2644.64 2048.89 2657.32C2047 2669.91 2044.73 2682.43 2041.83 2695.53C2038.77 2708.64 2035.49 2722.11 2029.37 2737.61C2017.65 2725.67 2011.25 2711.19 2007.53 2696.33C2003.97 2681.41 2003.45 2665.91 2005.79 2650.84C2008.05 2635.76 2013.15 2621.05 2020.93 2607.88C2028.8 2594.63 2039.21 2582.69 2053.84 2574.76" fill="#650000"/>
<path d="M2166.83 2621.13C2169.16 2638.75 2168.79 2654.19 2168.07 2669.17C2167.19 2684.11 2165.67 2698.52 2163.48 2712.79C2161.36 2727.05 2158.6 2741.25 2155.03 2755.81C2151.32 2770.37 2147.17 2785.23 2139.67 2801.39C2129.04 2787.04 2123.65 2771.11 2120.75 2755.01C2117.91 2738.85 2117.83 2722.4 2120.31 2706.39C2122.79 2690.29 2127.65 2674.64 2135.08 2660C2142.65 2645.37 2152.48 2631.76 2166.83 2621.13" fill="#650000"/>
<path d="M2309.37 2655.28C2314.76 2672.89 2316.57 2689.2 2317.67 2705.15C2318.61 2721.08 2318.4 2736.67 2317.37 2752.17C2316.28 2767.68 2314.32 2783.11 2311.12 2798.76C2307.77 2814.41 2303.69 2830.29 2295.83 2846.96C2285.56 2831.6 2280.17 2815.29 2276.83 2798.84C2273.63 2782.31 2272.68 2765.64 2273.84 2749.04C2275 2732.52 2278.28 2716.07 2283.81 2700.2C2289.49 2684.47 2297.07 2669.11 2309.37 2655.28" fill="#650000"/>
<path d="M2458.91 2649.6C2469.09 2665.68 2474.56 2682.43 2478.27 2699.39C2481.76 2716.36 2483.15 2733.53 2482.64 2750.57C2482.12 2767.68 2479.65 2784.72 2475.07 2801.39C2470.33 2818.05 2463.79 2834.51 2452.49 2849.87C2445.72 2832.11 2442.81 2815.21 2440.85 2798.55C2439.03 2781.88 2438.44 2765.49 2439.03 2749.19C2439.53 2732.81 2441.13 2716.51 2444.05 2700.05C2447.04 2683.6 2451.04 2666.92 2458.91 2649.6" fill="#650000"/>
<path d="M1818.76 3533.4L1798.09 3461.55L1778.07 3392.01L1673.81 3029.11L1655.99 2967.16C1655.99 2967.16 1934.59 2877.76 2070 3009.24C2092.72 3031.29 2111.35 3059.47 2124.01 3095.28C2245.89 3439.63 1818.76 3533.4 1818.76 3533.4" fill="#EE1A26"/>
<path d="M2073.85 3086.95C2064.93 3073.08 2054.81 3060.84 2043.72 3050.08C2027.68 3034.51 2009.64 3022.03 1990.29 3012.13C1983.71 3007.8 1976.79 3003.76 1969.57 3000.01C1934.51 2981.83 1895.59 2972.24 1856.85 2968.77C1939.23 2969.55 2027.37 2990.49 2074.79 3064.39C2074.75 3071.91 2074.44 3079.43 2073.85 3086.95Z" fill="#F8A3A8"/>
<path d="M2583.97 2635.19C2597.52 2648.21 2606.17 2663.65 2612.73 2679.67C2619.13 2695.83 2622.92 2712.72 2624.39 2729.89C2625.84 2747.08 2624.81 2764.4 2621.11 2781.36C2617.24 2798.25 2611.13 2814.93 2599.92 2829.92C2593.15 2812.45 2589.73 2796.29 2586.81 2780.41C2584.05 2764.55 2582.16 2749.04 2580.92 2733.47C2579.68 2717.88 2579.03 2702.23 2579.24 2686.15C2579.47 2669.99 2580.19 2653.53 2583.97 2635.19" fill="#650000"/>
<path d="M1694.48 2988.83L1840.08 3495.37C1897.75 3477.52 2029.2 3426.88 2086.73 3323.13C2121.17 3261.03 2123.88 3187.84 2094.8 3105.63C2030.71 2924.45 1780.33 2967.99 1694.48 2988.83ZM1818.75 3564.4C1805.21 3564.4 1792.87 3555.48 1788.99 3541.97L1626.2 2975.72C1621.56 2959.63 1630.56 2942.76 1646.51 2937.64C1650.57 2936.33 1747.24 2905.87 1857.07 2906.48C2009.91 2907.6 2112.33 2969.32 2153.24 3084.95C2188.55 3184.76 2184.36 3275.09 2140.79 3353.47C2052.56 3512.2 1834.64 3561.64 1825.41 3563.67C1823.19 3564.16 1820.95 3564.4 1818.75 3564.4" fill="#650000"/>
<path d="M2841.33 3561.49C2841.33 3711.25 2735.69 3832.68 2605.39 3832.68C2525.88 3832.68 2455.56 3787.48 2412.83 3718.24C2409.99 3713.65 2407.29 3709 2404.81 3704.19C2382.39 3662.84 2369.43 3613.92 2369.43 3561.49C2369.43 3449.68 2428.33 3353.65 2512.41 3312.23C2540.95 3298.11 2572.32 3290.32 2605.37 3290.32C2631.88 3290.32 2657.28 3295.35 2681.01 3304.59C2774.28 3340.84 2841.33 3442.17 2841.33 3561.49" fill="#EE1A26"/>
<path d="M2404.65 3610.17C2401.99 3595.04 2400.53 3579.39 2400.43 3563.37C2401.2 3453.83 2473.35 3364.99 2561.92 3364.99C2593.36 3364.99 2622.75 3376.2 2647.59 3395.55C2630.48 3391.81 2613.17 3389.48 2595.95 3389.48C2584.52 3389.48 2573.13 3390.49 2561.84 3392.83C2508.99 3403.67 2464.73 3442.69 2438.81 3490.01C2418.65 3526.81 2408.57 3568.21 2404.65 3610.17" fill="#F8A6AB"/>
<path d="M1711.19 3046.95L1820.12 3425.99C1859.64 3415.88 1937.61 3387.92 1984.97 3329.07C2019.01 3286.76 2031.88 3234.8 2023.23 3174.61C2015.29 3119.44 1987.64 3079.21 1941.04 3055.04C1870.41 3018.43 1771.25 3026.01 1711.19 3046.95ZM1798.09 3492.53C1784.27 3492.53 1772.12 3483.39 1768.31 3470.11L1644.03 3037.67C1639.93 3023.4 1646.52 3008.23 1659.75 3001.49C1725.25 2968.13 1864.67 2945.61 1969.57 3000.01C2034.03 3033.44 2073.79 3090.76 2084.59 3165.79C2096.28 3247.08 2077.04 3317.47 2027.4 3374.97C1946.39 3468.81 1814.17 3492.48 1798.2 3492.53H1798.09" fill="#650000"/>
<path d="M2605.37 3321.31C2492.37 3321.31 2400.43 3429.07 2400.43 3561.51C2400.43 3693.93 2492.37 3801.69 2605.37 3801.69C2718.39 3801.69 2810.33 3693.93 2810.33 3561.51C2810.33 3429.07 2718.39 3321.31 2605.37 3321.31ZM2605.37 3863.68C2458.19 3863.68 2338.44 3728.12 2338.44 3561.51C2338.44 3394.88 2458.19 3259.32 2605.37 3259.32C2752.57 3259.32 2872.32 3394.88 2872.32 3561.51C2872.32 3728.12 2752.57 3863.68 2605.37 3863.68Z" fill="#650000"/>
<path d="M2561.92 3364.99C2472.87 3364.99 2400.43 3454.79 2400.43 3565.15C2400.43 3675.51 2472.87 3765.29 2561.92 3765.29C2650.96 3765.29 2723.41 3675.51 2723.41 3565.15C2723.41 3454.79 2650.96 3364.99 2561.92 3364.99ZM2561.92 3827.28C2438.69 3827.28 2338.44 3709.68 2338.44 3565.15C2338.44 3420.6 2438.69 3303 2561.92 3303C2685.15 3303 2785.4 3420.6 2785.4 3565.15C2785.4 3709.68 2685.15 3827.28 2561.92 3827.28Z" fill="#650000"/>
<path d="M2530.47 3503.99C2530.4 3510.32 2522.09 3512.57 2518.81 3507.12C2501.05 3477.71 2470.48 3419.83 2499.39 3410.95C2528.36 3402 2531.05 3469.04 2530.47 3503.99" fill="#650000"/>
<path d="M1822.48 3171.51C1817.96 3175.88 1810.47 3171.65 1812 3165.47C1820.29 3132.12 1839.73 3069.59 1866.37 3083.79C1893.24 3098.12 1847.67 3147.27 1822.48 3171.51" fill="#650000"/>
<path d="M1854.07 3260.61C1848.55 3257.48 1850.51 3249.19 1856.84 3248.89C1891.2 3247.29 1956.57 3248.01 1950.68 3277.65C1944.71 3307.35 1884.51 3277.72 1854.07 3260.61" fill="#650000"/>
<path d="M2606.03 3599.28C2601.52 3594.84 2605.6 3587.27 2611.79 3588.65C2645.35 3596.01 2708.32 3613.77 2694.92 3640.77C2681.39 3668.01 2630.93 3623.75 2606.03 3599.28" fill="#650000"/>
<path d="M2508.41 3590.69C2513.07 3586.47 2520.43 3590.99 2518.67 3597.03C2509.28 3630.08 2487.88 3691.89 2461.67 3676.89C2435.32 3661.81 2482.49 3614.13 2508.41 3590.69Z" fill="#650000"/>
<path d="M3061.04 3014.11C3058.85 3031.21 3043.49 3043.45 3026.39 3042.07L2959.04 3024.08C2959.04 3024.08 2999.31 3152.36 2972.73 3167.07C2928.61 3191.39 2825.67 3173.17 2814.76 3138.52C2812.28 3130.59 2812.64 3119.31 2814.76 3106.57C2821.75 3064.56 2847.29 3007.41 2847.29 3007.41L2791.53 2999.48L2790.8 2999.4C2770.2 2996.49 2757.68 2975.16 2765.17 2955.65C2786.36 2900.76 2839.07 2808.01 2950.39 2823.73C2974.33 2827.08 2993.4 2834.59 3008.55 2844.85C3049.53 2872.65 3061.69 2920.85 3063.44 2962.85C3064.24 2982.08 3062.85 2999.99 3061.04 3014.11" fill="#A16F43"/>
<path d="M2804.85 2970.09L2795.13 2968.72C2794.88 2968.68 2794.44 2968.61 2794.11 2968.05C2793.79 2967.51 2793.93 2967.12 2794.03 2966.88C2814.59 2913.59 2853.92 2853.03 2926.41 2853.03C2932.68 2853.03 2939.21 2853.48 2945.99 2854.43C2988.05 2860.36 3011.16 2882.93 3022.75 2912.05C3022.8 2913.41 3022.83 2914.76 3022.85 2916.12C3005.36 2901.43 2985.35 2889.76 2963.77 2882.12C2949.57 2877.08 2934.44 2873.77 2919.48 2873.77C2910.68 2873.77 2901.92 2874.92 2893.45 2877.53C2872.77 2883.87 2855.6 2898.43 2841.48 2914.73C2826.79 2931.59 2814.89 2950.28 2804.85 2970.09" fill="#D9C5B4"/>
<path d="M2494.65 1557.59C2494.65 1557.59 2575.31 1571.92 2598.89 1557.51C2622.77 1542.88 2617.24 1462.43 2590.81 1433.97C2574.88 1416.79 2486.35 1470.8 2486.35 1470.8L2487.29 1417.08C2485.11 1403.97 2473.09 1394.8 2459.92 1396.33C2416.24 1401.43 2328.37 1422.97 2337.97 1514.63C2347 1600.91 2426.21 1623.11 2471.28 1628.71C2487.23 1630.68 2500.91 1617.36 2499.24 1601.33L2494.65 1557.59" fill="#A16F43"/>
<path d="M2844.33 3129.32H2844.4H2844.33ZM2844.11 3128.25C2855.16 3140.8 2917.81 3154.57 2950.87 3143.04C2952.19 3124.52 2943.05 3076.8 2929.47 3033.43C2926.09 3022.64 2928.85 3010.87 2936.68 3002.71C2944.49 2994.56 2956.12 2991.28 2967.05 2994.21L3029.79 3010.99C3030.03 3010.81 3030.19 3010.56 3030.23 3010.25C3038.53 2945.73 3030.67 2866.37 2945.99 2854.43C2860.88 2842.48 2816.36 2908.97 2794.03 2966.88C2793.93 2967.12 2793.79 2967.51 2794.11 2968.05C2794.44 2968.61 2794.88 2968.68 2795.13 2968.72L2851.57 2976.72C2861.21 2978.09 2869.64 2983.91 2874.35 2992.41C2879.05 3000.93 2879.49 3011.16 2875.53 3020.04C2856.29 3063.16 2841.69 3113.72 2844.11 3128.25M2918.03 3209.37C2888.88 3209.37 2859.11 3203.53 2836.47 3194.47C2808.69 3183.36 2791.44 3167.69 2785.2 3147.93C2775.95 3118.75 2789.63 3069.92 2803.49 3032.51L2786.45 3030.09C2767.21 3027.39 2750.51 3016.21 2740.67 2999.47C2730.83 2982.71 2729.19 2962.71 2736.19 2944.57C2778.59 2834.71 2858.17 2779.47 2954.63 2793.04C3056.77 2807.45 3108.01 2891.6 3091.71 3018.15C3087.43 3051.63 3057.59 3075.76 3023.83 3073.04C3021.96 3072.88 3020.12 3072.56 3018.31 3072.08L3003.33 3068.08C3027.6 3172.32 2999.28 3187.89 2987.68 3194.29C2968.37 3204.92 2943.44 3209.37 2918.03 3209.37" fill="#650000"/>
<path d="M2456.11 1428.08C2393.33 1437.16 2363.96 1465.17 2368.8 1511.4C2374.88 1569.43 2424.27 1590.08 2467.6 1596.91L2463.83 1560.81C2462.81 1551.13 2466.4 1541.55 2473.52 1534.91C2480.64 1528.27 2490.47 1525.37 2500.07 1527.07C2531.48 1532.63 2567.73 1534.53 2580.67 1531.55C2585.67 1518.56 2583.12 1482.37 2573.36 1462.96C2558.05 1467.36 2527.92 1481.77 2502.48 1497.27C2492.83 1503.15 2480.73 1503.31 2470.93 1497.69C2461.13 1492.07 2455.16 1481.56 2455.36 1470.27L2456.11 1428.08ZM2468.41 1604.56H2468.48H2468.41ZM2474.45 1659.91C2472.13 1659.91 2469.81 1659.76 2467.48 1659.47C2373.77 1647.81 2315.35 1596.2 2307.15 1517.85C2298.4 1434.41 2354.17 1377.47 2456.32 1365.55C2485.93 1362.07 2512.95 1382.51 2517.87 1411.99C2518.17 1413.84 2518.32 1415.73 2518.28 1417.63V1417.99C2587.72 1385.07 2605.27 1403.96 2613.53 1412.88C2639.84 1441.21 2648.72 1495.28 2643.72 1531.76C2639.43 1563.01 2625.79 1577.39 2615.09 1583.93C2595.35 1596 2560.67 1596.48 2529.59 1593.63L2530.07 1598.11C2531.84 1615.17 2525.85 1631.84 2513.61 1643.85C2503.03 1654.24 2489.05 1659.91 2474.45 1659.91" fill="#650000"/>
<path d="M2371.32 2150.4C2344.61 2156.88 2322.11 2176.09 2307.4 2199.32C2292.69 2222.55 2285.13 2249.71 2280.69 2276.85C2276.91 2299.87 2275.37 2323.73 2281.63 2346.16C2287.97 2368.59 2303.25 2389.4 2325.09 2397.49C2346.93 2405.57 2374.89 2397.71 2385.67 2377.03C2405.25 2339.17 2360.63 2291.77 2377.65 2252.76C2387.92 2229.17 2417.92 2217.08 2423.6 2191.97C2426.65 2178.57 2421.04 2163.65 2410.05 2155.49C2399.05 2147.35 2383.33 2147.49 2371.32 2150.4Z" fill="#DB4B46"/>
<path d="M1797.21 2490.81C1758.12 2485.07 1718.52 2508.29 1697.12 2541.48C1675.64 2574.68 1670.11 2616.04 1672.72 2655.49C1674.11 2675.73 1677.6 2696.19 1687.07 2714.17C1696.53 2732.08 1712.61 2747.29 1732.35 2752.03C1752.08 2756.68 1775.16 2748.97 1785.13 2731.28C1795.91 2712.28 1789.79 2688.47 1782.44 2667.87C1775.08 2647.27 1766.79 2624.84 1773.92 2604.17C1779.37 2588.37 1792.84 2577.01 1804.79 2565.29C1816.72 2553.57 1828.23 2539.08 1827.87 2522.41C1827.51 2505.6 1808.28 2489.72 1797.21 2490.81" fill="#DB4B46"/>
<path d="M2974.63 1472.12C2973.61 1509.47 2990.72 1545.93 3016.63 1572.87C3042.55 1599.81 3076.55 1617.79 3112.08 1629.36C3130.85 1635.48 3151.17 1639.85 3170.32 1634.83C3189.47 1629.8 3206.57 1612.63 3205.63 1592.89C3204.53 1570.61 3182.55 1555.32 3161.36 1548.33C3140.17 1541.35 3116.8 1538.65 3099.12 1525.12C3084.12 1513.61 3075.39 1495.92 3065.77 1479.55C3056.16 1463.24 3043.85 1446.79 3025.8 1440.96C3007.75 1435.13 2975.35 1444.45 2974.63 1472.12" fill="#DB4B46"/>
<path d="M2392.72 3115.67C2360.63 3127.17 2327.35 3135.32 2293.64 3139.99C2280.4 3141.8 2266.35 3143.4 2255.57 3151.41C2238.32 3164.23 2235.69 3191.09 2246.84 3209.51C2257.89 3227.92 2279.6 3238.04 2301 3239.72C2322.4 3241.4 2343.73 3235.57 2363.89 3228.15C2388.65 3219.04 2412.45 3207.32 2434.73 3193.13C2447.47 3185.05 2460.21 3175.36 2465.89 3161.39C2472.8 3144.28 2466.33 3122.8 2451.11 3112.32C2435.83 3101.91 2415.29 3107.59 2392.72 3115.67Z" fill="#DB4B46"/>
<path d="M2371.76 3964.01C2368.71 3944.72 2365.07 3925.21 2356.91 3907.45C2348.76 3889.68 2335.65 3873.45 2317.96 3865.15C2300.27 3856.85 2277.63 3857.72 2262.63 3870.25C2247.64 3882.77 2243.27 3907.6 2255.72 3922.67C2262.63 3931.04 2273.19 3935.55 2281.12 3942.97C2302.24 3962.56 2300.05 3995.91 2308.43 4023.49C2313.37 4039.73 2322.76 4055.01 2336.89 4064.33C2351.01 4073.65 2370.08 4076.28 2385.16 4068.48C2400.23 4060.69 2409.25 4041.69 2403.57 4025.75C2399.72 4015.05 2390.55 4007.33 2383.12 3998.75C2375.69 3990.08 2374.01 3978.28 2371.76 3964.01" fill="#DB4B46"/>
<path d="M2000.92 1378.35C1947.04 1375.21 1896.29 1404.63 1843.96 1417.73C1827.36 1421.88 1809.37 1426.97 1799.11 1440.73C1784.04 1461.05 1794.37 1492.57 1815.56 1506.25C1836.75 1520.01 1864.48 1519.29 1888.73 1512.31C1912.97 1505.31 1935.25 1492.79 1958.91 1483.91C1975.15 1477.87 1992.11 1473.43 2007.17 1464.76C2022.24 1456.09 2035.41 1442.12 2037.75 1425.01C2040.08 1407.91 2029.6 1380.03 2000.92 1378.35" fill="#DB4B46"/>
<path d="M3415.07 1544.55C3400.29 1549.43 3383.25 1560.13 3377.07 1574.4C3372.77 1584.37 3375.03 1596.24 3380.35 1605.77C3395.92 1633.88 3434.95 1642.69 3465.08 1631.63C3495.29 1620.48 3517.43 1594.05 3532.79 1565.81C3539.85 1552.85 3545.89 1537.41 3540.57 1523.65C3534.11 1506.69 3512.4 1499.77 3494.72 1503.93C3477.03 1508 3464.57 1528.24 3415.07 1544.55" fill="#DB4B46"/>
<path d="M3604.35 1905.87C3608.13 1887.73 3611.49 1868.52 3614.47 1849.67C3617.45 1830.65 3620.08 1811.65 3622.27 1792.51C3626.48 1754.21 3629.17 1715.71 3627.8 1676.76C3638.79 1714.17 3645.92 1753.12 3651.39 1792.15C3654 1811.65 3656.25 1831.32 3658.15 1851.04C3659.97 1870.84 3661.51 1890.28 3662.37 1910.73C3663.11 1926.91 3650.51 1940.67 3634.35 1941.32C3618.19 1942.04 3604.43 1929.45 3603.77 1913.29C3603.63 1910.75 3603.92 1908.19 3604.35 1905.87" fill="#650000"/>
<path d="M3076.33 3126.08C3078.88 3120.4 3081.64 3112.97 3084.04 3106.13C3086.52 3099.15 3088.85 3092.08 3091.11 3084.95C3095.55 3070.68 3099.4 3056.19 3102.76 3041.56C3109.45 3012.29 3113.75 2982.37 3115.2 2952.23C3116.44 2922.09 3114.63 2891.73 3108.21 2861.96C3105.01 2847.11 3100.43 2832.47 3094.83 2818.2C3089.07 2803.93 3081.79 2790.25 3073.41 2777.07C3083.68 2788.79 3093.15 2801.39 3101.31 2814.92C3109.31 2828.53 3116.37 2842.81 3122.12 2857.73C3133.63 2887.51 3140.61 2919.17 3144.33 2951.13C3147.83 2983.17 3148.25 3015.56 3146 3047.75C3144.91 3063.83 3143.16 3080 3140.83 3096.01C3139.6 3104.01 3138.36 3112.09 3136.83 3120.11C3135.23 3128.33 3133.77 3135.84 3131.37 3144.93L3131.29 3145.29C3127.21 3160.88 3111.2 3170.27 3095.63 3166.12C3080.04 3162.04 3070.65 3146.03 3074.8 3130.44C3075.16 3129.07 3075.75 3127.47 3076.33 3126.08" fill="#650000"/>
<path d="M3241.37 1363.64C3163.17 1325.35 3110.25 1252.55 3095.84 1176.32C3128.75 1246.65 3193.91 1295.43 3260.8 1308.75C3276.75 1311.88 3287.09 1327.39 3283.96 1343.33C3280.83 1359.27 3265.32 1369.61 3249.37 1366.48C3246.89 1365.97 3244.49 1365.17 3242.31 1364.15L3241.37 1363.64Z" fill="#650000"/>
<path d="M1943.61 1241.69L1866.09 1162.13L1973.25 1191.55C1989.33 1195.99 1998.8 1212.57 1994.36 1228.6C1989.92 1244.68 1973.32 1254.15 1957.31 1249.71C1951.92 1248.25 1947.25 1245.35 1943.61 1241.69Z" fill="#650000"/>
<path d="M1561.48 3134.29C1560.79 3134.29 1560.08 3134.28 1559.36 3134.27C1547 3133.85 1536.72 3131.4 1528.12 3126.71C1521.64 3123.16 1516.09 3118.35 1511.32 3112.19C1504.11 3102.84 1498.81 3090.84 1495.09 3076.93C1497.31 3077.13 1499.53 3077.24 1501.76 3077.24C1508.05 3077.24 1514.31 3076.4 1520.28 3074.61C1557.92 3063.4 1583.25 3028.37 1600.87 2993.21C1623 2949.03 1637.64 2901.05 1644.04 2851.99C1645.07 2844.25 1651.2 2840.27 1657.35 2840.27C1663.03 2840.27 1668.72 2843.65 1670.47 2850.6C1670.85 2852.13 1671.23 2853.68 1671.6 2855.23C1671.23 2855.21 1670.85 2855.2 1670.49 2855.2C1668.19 2855.2 1665.87 2855.45 1663.53 2856C1648.36 2859.47 1638.13 2873.67 1639.6 2889.16C1640.76 2901.27 1641.73 2919.05 1641.76 2939.61C1628.84 2946.27 1622.05 2961.31 1626.2 2975.72L1637.32 3014.41C1631.99 3055.6 1621.01 3095.41 1600.15 3117.63C1589.47 3129 1577.12 3134.29 1561.48 3134.29" fill="#DFB03D"/>
<path d="M1561.48 3134.29C1560.79 3134.29 1560.08 3134.29 1559.37 3134.27C1547.01 3133.87 1536.73 3131.4 1528.12 3126.71C1536.72 3131.4 1547 3133.85 1559.36 3134.27C1560.08 3134.28 1560.79 3134.29 1561.48 3134.29C1577.12 3134.29 1589.47 3129 1600.15 3117.63C1621.01 3095.41 1631.99 3055.6 1637.32 3014.41V3014.43C1631.99 3055.6 1621.01 3095.41 1600.16 3117.63C1589.47 3129.01 1577.11 3134.29 1561.48 3134.29M1641.76 2939.61C1641.73 2919.05 1640.76 2901.27 1639.6 2889.16C1638.13 2873.67 1648.36 2859.47 1663.53 2856C1665.87 2855.45 1668.19 2855.2 1670.49 2855.2C1670.85 2855.2 1671.23 2855.21 1671.6 2855.23C1671.23 2855.21 1670.87 2855.2 1670.49 2855.2C1668.2 2855.2 1665.87 2855.47 1663.55 2856C1648.37 2859.48 1638.13 2873.67 1639.61 2889.16C1640.77 2901.27 1641.73 2919.05 1641.76 2939.6C1641.76 2939.61 1641.76 2939.61 1641.76 2939.61" fill="#650000"/>
<path d="M1561.63 3165.29C1560.55 3165.29 1559.47 3165.28 1558.36 3165.24C1499.03 3163.28 1470.85 3123.39 1460.95 3065.21C1470.93 3071.64 1482.92 3075.8 1495.09 3076.93C1498.81 3090.84 1504.11 3102.84 1511.32 3112.19C1516.09 3118.35 1521.64 3123.16 1528.12 3126.71C1536.73 3131.4 1547.01 3133.87 1559.37 3134.27C1560.08 3134.29 1560.79 3134.29 1561.48 3134.29C1577.11 3134.29 1589.47 3129.01 1600.16 3117.63C1621.01 3095.41 1631.99 3055.6 1637.32 3014.43L1655.51 3077.69C1640.31 3126.43 1612.29 3165.29 1561.63 3165.29M1641.76 2939.6C1641.73 2919.05 1640.77 2901.27 1639.61 2889.16C1638.13 2873.67 1648.37 2859.48 1663.55 2856C1665.87 2855.47 1668.2 2855.2 1670.49 2855.2C1670.87 2855.2 1671.23 2855.21 1671.6 2855.23C1676.77 2876.88 1680.56 2898.85 1683.28 2921.07C1675.2 2898.93 1670.47 2886.2 1670.47 2886.2C1670.47 2886.2 1672.17 2903.88 1672.56 2930.33C1657.11 2934.29 1647.72 2937.25 1646.51 2937.64C1644.85 2938.17 1643.27 2938.84 1641.76 2939.6Z" fill="#650000"/>
<path d="M1655.51 3077.69L1637.32 3014.43V3014.41L1626.2 2975.72C1622.05 2961.31 1628.84 2946.27 1641.76 2939.61C1641.76 2939.61 1641.76 2939.61 1641.76 2939.6C1643.27 2938.84 1644.85 2938.17 1646.51 2937.64C1647.72 2937.25 1657.11 2934.29 1672.56 2930.33C1672.84 2949.04 1672.45 2972.15 1670.35 2996.48C1666.63 2998.12 1663.09 2999.79 1659.75 3001.49C1646.52 3008.23 1639.93 3023.4 1644.03 3037.67L1655.52 3077.65C1655.52 3077.67 1655.52 3077.68 1655.51 3077.69" fill="#650000"/>
<path d="M1655.52 3077.65L1644.03 3037.67C1639.93 3023.4 1646.52 3008.23 1659.75 3001.49C1663.09 2999.79 1666.63 2998.12 1670.35 2996.48C1668 3023.44 1663.55 3051.92 1655.52 3077.65" fill="#650000"/>
<path d="M1840.08 3495.37L1837.21 3485.43C1886.41 3472.91 1969.83 3441.65 2027.4 3374.97C2077.04 3317.47 2096.28 3247.08 2084.59 3165.79C2081.85 3146.77 2077.25 3128.91 2070.88 3112.27C2072.2 3103.87 2073.2 3095.41 2073.85 3086.95C2083.21 3101.47 2091.25 3117.8 2097.73 3136.12C2105.29 3157.49 2110.75 3177.89 2114.31 3197.36C2116.97 3243.12 2107.77 3285.19 2086.73 3323.13C2029.2 3426.88 1897.75 3477.52 1840.08 3495.37M1820.13 3425.99L1808.39 3385.11C1885.76 3364.51 1957.24 3322.19 2006.81 3259.67C2013.08 3251.77 2018.93 3243.56 2024.39 3235.07C2020.2 3270.2 2007.03 3301.67 1984.97 3329.07C1937.61 3387.91 1859.67 3415.88 1820.13 3425.99Z" fill="#CC1531"/>
<path d="M2114.31 3197.36C2110.75 3177.89 2105.29 3157.49 2097.73 3136.12C2091.25 3117.8 2083.21 3101.47 2073.85 3086.95C2074.44 3079.43 2074.75 3071.91 2074.79 3064.39C2082.64 3076.63 2089.39 3090.33 2094.8 3105.63C2106.12 3137.61 2112.61 3168.23 2114.31 3197.36Z" fill="#D4849A"/>
<path d="M1818.76 3533.4L1806.77 3491.71C1813.88 3490.68 1824.39 3488.69 1837.21 3485.43L1840.08 3495.37C1897.75 3477.52 2029.2 3426.88 2086.73 3323.13C2107.77 3285.19 2116.97 3243.12 2114.31 3197.36C2112.61 3168.23 2106.12 3137.61 2094.8 3105.63C2089.39 3090.33 2082.64 3076.63 2074.79 3064.39C2074.88 3045.85 2073.31 3027.37 2070 3009.23C2092.72 3031.29 2111.35 3059.47 2124.01 3095.28C2245.89 3439.63 1818.76 3533.4 1818.76 3533.4M1820.12 3425.99L1808.37 3385.12C1808.37 3385.12 1808.37 3385.12 1808.39 3385.11L1820.13 3425.99C1820.12 3425.99 1820.12 3425.99 1820.12 3425.99Z" fill="#5D0012"/>
<path d="M1806.77 3491.71L1798.09 3461.55L1778.07 3392.01C1788.24 3390.08 1798.36 3387.79 1808.37 3385.12L1820.12 3425.99C1820.12 3425.99 1820.12 3425.99 1820.13 3425.99C1859.67 3415.88 1937.61 3387.91 1984.97 3329.07C2007.03 3301.67 2020.2 3270.2 2024.39 3235.07C2048.16 3198.01 2063.99 3155.75 2070.88 3112.27C2077.25 3128.91 2081.85 3146.77 2084.59 3165.79C2096.28 3247.08 2077.04 3317.47 2027.4 3374.97C1969.83 3441.65 1886.41 3472.91 1837.21 3485.43C1824.39 3488.69 1813.88 3490.68 1806.77 3491.71Z" fill="#5D0012"/>
<path d="M2688.59 3781C2747.03 3733.67 2785.4 3654.56 2785.4 3565.15C2785.4 3482.2 2752.37 3408.12 2700.95 3360.05C2699.76 3355.59 2698.49 3351.16 2697.12 3346.75C2764.2 3386.27 2810.33 3467.68 2810.33 3561.51C2810.33 3659.24 2760.25 3743.53 2688.59 3781M2561.92 3765.29C2524 3765.29 2489.08 3749 2461.49 3721.79C2491.72 3720.84 2522.27 3714.17 2550.35 3701.79C2586.32 3685.93 2617.84 3661.49 2643.25 3631.63C2656.92 3641.68 2670.76 3649.35 2681.15 3649.35C2687.09 3649.35 2691.92 3646.81 2694.92 3640.77C2702.45 3625.59 2685.84 3613.32 2663.88 3604.19C2686.27 3570.37 2701.64 3531.75 2708.17 3491.76C2708.61 3489.04 2709.03 3486.32 2709.39 3483.59C2718.4 3508.51 2723.41 3536.12 2723.41 3565.15C2723.41 3675.51 2650.96 3765.29 2561.92 3765.29" fill="#CA1531"/>
<path d="M2605.39 3832.68C2589.2 3832.68 2573.39 3830.81 2558.11 3827.24C2559.37 3827.27 2560.64 3827.28 2561.92 3827.28C2608.91 3827.28 2652.57 3810.17 2688.59 3781C2760.25 3743.53 2810.33 3659.24 2810.33 3561.51C2810.33 3467.68 2764.2 3386.27 2697.12 3346.75C2692.68 3332.37 2687.29 3318.28 2681.01 3304.59C2774.28 3340.84 2841.33 3442.17 2841.33 3561.49C2841.33 3711.25 2735.69 3832.68 2605.39 3832.68" fill="#5C0013"/>
<path d="M2561.92 3827.28C2560.64 3827.28 2559.37 3827.27 2558.11 3827.24C2498.39 3813.28 2446.85 3773.37 2412.83 3718.24C2426.24 3720.68 2440.05 3721.91 2454 3721.91C2456.49 3721.91 2459 3721.87 2461.49 3721.79C2489.08 3749 2524 3765.29 2561.92 3765.29C2650.96 3765.29 2723.41 3675.51 2723.41 3565.15C2723.41 3536.12 2718.4 3508.51 2709.39 3483.59C2714.95 3442.37 2711.65 3400.31 2700.95 3360.05C2752.37 3408.12 2785.4 3482.2 2785.4 3565.15C2785.4 3654.56 2747.03 3733.67 2688.59 3781C2652.57 3810.17 2608.91 3827.28 2561.92 3827.28" fill="#5C0013"/>
<path d="M2681.15 3649.35C2670.76 3649.35 2656.92 3641.68 2643.25 3631.63C2650.65 3622.92 2657.55 3613.75 2663.88 3604.19C2685.84 3613.32 2702.45 3625.59 2694.92 3640.77C2691.92 3646.81 2687.09 3649.35 2681.15 3649.35Z" fill="#5C0013"/>
<path d="M2919.91 3147.37C2888.27 3147.37 2852.23 3137.48 2844.11 3128.25C2843.44 3124.27 2844.05 3117.59 2845.69 3109.09C2860.44 3108.6 2874.57 3105.2 2887.27 3097.17C2909.03 3083.41 2921.48 3058.23 2925.77 3032.81C2927.37 3023.36 2927.96 3013.75 2927.89 3004.21C2927.83 2986.52 2942.07 2972.69 2958.91 2972.69C2960.97 2972.69 2963.09 2972.91 2965.23 2973.35C2966.25 2973.56 2967.35 2973.71 2968.36 2973.92C2971.36 2974.4 2974.44 2974.64 2977.53 2974.64C2990.6 2974.64 3003.81 2970.27 3012.12 2960.31C3020.63 2950.12 3022.6 2936 3022.81 2922.67C3022.87 2920.49 3022.88 2918.31 3022.85 2916.12C3023.53 2916.69 3024.21 2917.28 3024.88 2917.85C3034.47 2946.23 3034.13 2979.89 3030.23 3010.25C3030.19 3010.56 3030.03 3010.81 3029.79 3010.99L2967.05 2994.21C2964.4 2993.51 2961.71 2993.16 2959.04 2993.16C2950.71 2993.16 2942.6 2996.53 2936.68 3002.71C2928.85 3010.87 2926.09 3022.64 2929.47 3033.43C2943.05 3076.8 2952.19 3124.52 2950.87 3143.04C2942.12 3146.09 2931.29 3147.37 2919.91 3147.37" fill="#8B5749"/>
<path d="M3024.88 2917.85C3024.21 2917.28 3023.53 2916.69 3022.85 2916.12C3022.83 2914.76 3022.8 2913.41 3022.75 2912.05C3023.51 2913.96 3024.23 2915.89 3024.88 2917.85Z" fill="#B79BA2"/>
<path d="M2917.91 3178.2C2872.64 3178.2 2822.21 3162.21 2814.76 3138.52C2812.28 3130.59 2812.64 3119.31 2814.76 3106.57C2823.83 3108.17 2832.91 3109.16 2841.8 3109.16C2843.11 3109.16 2844.4 3109.13 2845.69 3109.09C2844.05 3117.59 2843.44 3124.27 2844.11 3128.25C2852.23 3137.48 2888.27 3147.37 2919.91 3147.37C2931.29 3147.37 2942.12 3146.09 2950.87 3143.04C2952.19 3124.52 2943.05 3076.8 2929.47 3033.43C2926.09 3022.64 2928.85 3010.87 2936.68 3002.71C2942.6 2996.53 2950.71 2993.16 2959.04 2993.16C2961.71 2993.16 2964.4 2993.51 2967.05 2994.21L3029.79 3010.99C3030.03 3010.81 3030.19 3010.56 3030.23 3010.25C3034.13 2979.89 3034.47 2946.23 3024.88 2917.85C3024.23 2915.89 3023.51 2913.96 3022.75 2912.05C3021.97 2889.05 3017.07 2866.25 3008.55 2844.92C3068.17 2885.4 3066.79 2969.05 3061.04 3014.11C3058.97 3030.33 3045.04 3042.17 3029.03 3042.17C3028.15 3042.17 3027.27 3042.13 3026.39 3042.07L2959.04 3024.08C2959.04 3024.08 2999.31 3152.36 2972.73 3167.07C2958.76 3174.76 2938.88 3178.2 2917.91 3178.2M2844.33 3129.32H2844.4H2844.33Z" fill="#5C0014"/>
<path d="M1977.91 3958.79C1969.33 3958.79 1956.92 3958.79 1947.61 3932.27C1962.05 3923.19 1972.23 3907.13 1976.89 3890.41C1982.85 3869.01 1981.33 3846.29 1979.72 3824.09C1975.65 3766.29 1971.57 3708.56 1967.49 3650.76C1966.55 3637.21 1965.68 3623.01 1971.51 3610.79C1976.12 3601.09 1986.44 3593.45 1996.69 3593.45C1999.37 3593.45 2002.05 3593.99 2004.63 3595.13C2013.44 3598.99 2018.03 3608.53 2021.44 3617.48C2025.91 3629.29 2029.4 3641.44 2031.93 3653.79C2031.67 3653.8 2031.39 3653.83 2031.12 3653.85C2030.41 3653.93 2029.71 3654.03 2028.99 3654.16C2012.24 3657.12 2001.01 3673.04 2003.83 3689.81C2021.29 3793.76 2025.28 3914.76 1994.83 3950.73C1989.99 3956.45 1985.08 3958.79 1977.91 3958.79Z" fill="#DFB03D"/>
<path d="M1977.91 3958.79C1985.08 3958.79 1989.99 3956.45 1994.83 3950.73C2025.28 3914.76 2021.29 3793.76 2003.83 3689.81C2001.01 3673.04 2012.24 3657.12 2028.99 3654.16C2029.71 3654.03 2030.41 3653.93 2031.12 3653.85C2030.41 3653.93 2029.71 3654.03 2029 3654.16C2012.24 3657.12 2001.01 3673.04 2003.83 3689.81C2021.29 3793.75 2025.29 3914.75 1994.84 3950.73C1990 3956.45 1985.09 3958.79 1977.91 3958.79" fill="#650000"/>
<path d="M1977.91 3989.79C1945.51 3989.79 1927.39 3970.72 1917.19 3939.04C1919.32 3939.37 1921.48 3939.53 1923.64 3939.53C1927.32 3939.53 1930.99 3939.07 1934.52 3938.09C1939.2 3936.79 1943.57 3934.8 1947.61 3932.27C1956.92 3958.79 1969.33 3958.79 1977.91 3958.79C1985.09 3958.79 1990 3956.45 1994.84 3950.73C2025.29 3914.75 2021.29 3793.75 2003.83 3689.81C2001.01 3673.04 2012.24 3657.12 2029 3654.16C2029.71 3654.03 2030.41 3653.93 2031.12 3653.85C2031.39 3653.83 2031.67 3653.8 2031.93 3653.79C2034.81 3667.83 2036.43 3682.13 2036.73 3696.47C2036.8 3697.56 2036.88 3698.73 2036.8 3699.89C2036.88 3703.24 2036.8 3706.52 2036.73 3709.87C2034.99 3765.05 2041.91 3819.72 2047.15 3874.04C2042.77 3936.72 2025.08 3989.79 1977.91 3989.79" fill="#650000"/>
</svg>
