<svg width="3658" height="3898" viewBox="0 0 3658 3898" fill="none" xmlns="http://www.w3.org/2000/svg">
<path d="M2070.67 3898C1194.37 3898 484 3808.55 484 3698.19C484 3649.92 619.952 3605.64 846.24 3571.11C884.2 3625.29 936.293 3666.63 999.533 3691.12C1065.83 3716.8 1142.09 3729.67 1222.59 3729.67C1298.65 3729.65 1378.47 3718.17 1457.11 3695.16C1509.25 3679.89 1558.04 3660.51 1602.33 3637.76C1611.83 3642.97 1621.48 3648.05 1631.28 3652.95C1776.37 3725.57 1953.4 3761.97 2138 3761.97C2315.28 3761.96 2499.53 3728.39 2669.01 3661.05C2737.17 3633.97 2795.08 3599.36 2842.49 3557.45C2892.36 3567.13 2937.29 3571.36 2977.73 3571.36C3035.65 3571.36 3084.35 3562.69 3125.2 3548.89C3451.67 3585.49 3657.33 3638.81 3657.33 3698.19C3657.33 3808.55 2946.96 3898 2070.67 3898Z" fill="#C5AEA4"/>
<path d="M2780.67 3514.53L2825.32 3237.71C2825.32 3237.71 2941.72 3270.97 3032.36 3269.51C3043.19 3269.37 3053.61 3268.75 3063.47 3267.43C3150.77 3256.17 3192.79 3146.16 3270.29 3185.05C3274.67 3187.21 3279.12 3189.92 3283.71 3193.04C3370.03 3252.56 3291.55 3653.09 2780.67 3514.53" fill="#FCC06A"/>
<path d="M2976.64 3515.63C2950.09 3515.63 2921.25 3513.61 2889.96 3509.12C2892.47 3506.11 2894.92 3503.07 2897.29 3500.01C2926.03 3464.07 2948.81 3424.12 2965.55 3380.24C2976.07 3352.67 2983.83 3324.43 2989.24 3295.83C3000.64 3296.69 3012 3297.24 3023.12 3297.33C3021.99 3301.76 3021.05 3306.23 3020.35 3310.76C3015.69 3340.49 3023.96 3375.08 3049.72 3390.56C3059.25 3396.28 3069.75 3398.68 3080.55 3398.68C3102.29 3398.68 3125.25 3388.93 3144.11 3376.81C3200.49 3340.56 3243.28 3283.61 3262.45 3219.37C3263.04 3217.39 3263.6 3215.4 3264.15 3213.41C3265.39 3214.19 3266.65 3215.03 3267.93 3215.92C3287.96 3229.72 3297.03 3292.96 3265.63 3360.64C3246.08 3402.8 3174.97 3515.64 2976.64 3515.63" fill="#CA9A6C"/>
<path d="M2812.15 3493.92C3138.15 3573.43 3241.43 3412.84 3265.63 3360.64C3297.03 3292.96 3287.96 3229.72 3267.93 3215.92C3236.55 3194.27 3219.56 3203.88 3175.15 3239.23C3145.76 3262.63 3112.45 3289.15 3067.01 3295C2995.49 3304.23 2897.01 3284.11 2847.91 3272.24L2812.15 3493.92ZM2977.73 3571.36C2919.41 3571.36 2851.76 3562.56 2773.41 3541.31C2759.69 3537.6 2751 3524.11 2753.27 3510.08L2797.91 3233.27C2799.17 3225.44 2803.73 3218.51 2810.43 3214.25C2817.12 3210 2825.32 3208.8 2832.96 3210.99C2834.36 3211.37 2974.44 3250.92 3059.89 3239.91C3089.97 3236.01 3114.53 3216.47 3140.55 3195.76C3181.08 3163.49 3231.55 3123.32 3299.48 3170.17C3348.65 3204.08 3355.92 3298.01 3316.04 3384.03C3292.56 3434.63 3207.59 3571.36 2977.73 3571.36" fill="#181818"/>
<path d="M1785.61 3445.71C1660.95 3645.37 1272.09 3766.92 1009.57 3665.24C816.213 3590.31 776.56 3367.44 819.2 3218.19C834.48 3164.77 860.253 3120.81 893.373 3096.37C992.066 3023.52 1098.05 3081.51 1098.05 3081.51C1107.71 3043.31 1120.76 3010.88 1136.04 2983.44C1226.12 2821 1392.65 2831.76 1392.65 2831.76L1785.61 3445.71Z" fill="#FCC06A"/>
<path d="M839.253 3253.08C851.173 3193.61 876.16 3143.61 909.853 3118.75C942.48 3094.65 976.013 3087.27 1004.89 3087.27C1049.2 3087.27 1082.53 3104.68 1084.73 3105.85C1085.87 3106.48 1087.05 3107.03 1088.25 3107.48C1088.33 3107.52 1088.43 3107.56 1088.51 3107.6C1089.84 3108.24 1091.24 3109.05 1092.65 3109.85C1095.47 3111.43 1098.32 3113.27 1101.13 3115.15C1106.75 3119 1112.37 3123.13 1117.63 3127.8C1120.65 3130.4 1123.61 3133.11 1126.51 3135.91C1108.68 3132.43 1090.52 3130.69 1072.35 3130.69C1030.33 3130.69 988.293 3139.92 950.36 3158.01C905.853 3179.23 867.267 3212.52 839.253 3253.08" fill="#FEE6C3"/>
<path d="M1222.59 3729.67C1142.09 3729.67 1065.83 3716.8 999.534 3691.12C878.974 3644.43 798.96 3536.52 780.014 3395.05C762.387 3263.48 803.12 3128.47 876.854 3074.05C955.2 3016.21 1036.59 3029.83 1079.91 3044.07C1161.25 2792.07 1392.04 2803.93 1394.44 2804.05C1409.76 2805.05 1421.36 2818.27 1420.37 2833.57C1419.39 2848.85 1406.28 2860.55 1390.95 2859.51C1382.51 2859.05 1185.23 2850.53 1124.99 3088.31C1122.88 3096.63 1117.04 3103.51 1109.16 3106.95C1101.29 3110.37 1092.28 3109.99 1084.73 3105.85C1081.11 3103.91 992.56 3057.68 909.854 3118.75C852.374 3161.17 820.227 3276.79 835.08 3387.68C844.587 3458.64 881.2 3585.71 1019.6 3639.32C1137.36 3684.93 1291.13 3685.84 1441.51 3641.83C1586.28 3599.45 1706.12 3520.64 1762.07 3431.01C1770.19 3418 1787.33 3414.07 1800.35 3422.16C1813.36 3430.29 1817.32 3447.43 1809.2 3460.44C1745.28 3562.81 1616.96 3648.36 1457.11 3695.16C1378.47 3718.17 1298.65 3729.65 1222.59 3729.67" fill="#181818"/>
<path d="M1110.77 3056.79C1112.72 3057.88 1113.49 3058.47 1114.68 3059.24C1115.85 3060 1116.72 3060.68 1117.75 3061.4C1119.77 3062.81 1121.59 3064.27 1123.4 3065.71C1127.08 3068.6 1130.45 3071.57 1133.77 3074.61C1140.32 3080.73 1146.55 3087.01 1152.16 3093.72C1163.56 3106.97 1173.36 3121.2 1181.85 3135.97C1189.96 3150.95 1197.27 3166.19 1202.67 3182.01C1205.77 3189.76 1207.64 3197.92 1210.15 3205.79C1212.27 3213.79 1213.89 3221.88 1215.75 3229.87C1217.47 3237.23 1212.89 3244.59 1205.53 3246.31C1198.85 3247.87 1192.19 3244.25 1189.72 3238.08L1189.27 3236.96C1186.45 3229.92 1183.91 3222.83 1180.92 3215.95C1177.57 3209.23 1174.91 3202.23 1171.09 3195.83C1164.29 3182.61 1155.92 3170.44 1147.23 3158.83C1138.19 3147.47 1128.31 3136.99 1117.63 3127.8C1112.37 3123.13 1106.75 3119 1101.13 3115.15C1098.32 3113.27 1095.47 3111.43 1092.65 3109.85C1091.24 3109.05 1089.84 3108.24 1088.51 3107.6C1087.85 3107.28 1087.11 3106.85 1086.56 3106.64C1086.05 3106.44 1085.15 3105.99 1085.35 3106.17C1071.71 3099.15 1066.33 3082.4 1073.36 3068.76C1080.39 3055.12 1097.13 3049.76 1110.77 3056.79" fill="#181818"/>
<path d="M1067.47 3338.07C1083.71 3410.83 1057.96 3479.68 1009.97 3491.87C961.973 3504.04 909.893 3454.93 893.653 3382.17C877.413 3309.4 903.146 3240.55 951.146 3228.36C999.146 3216.19 1051.23 3265.29 1067.47 3338.07" fill="#A16044"/>
<path d="M1222.45 3674.2C1148.96 3674.2 1079.6 3662.56 1019.6 3639.32C881.2 3585.71 844.587 3458.64 835.08 3387.68C831.733 3362.72 830.773 3337.52 831.947 3312.96C846.253 3357.87 872.293 3398.4 909.4 3426.84C929.787 3467.57 962.44 3493.72 995.107 3493.72C1000.08 3493.72 1005.05 3493.11 1009.97 3491.87C1025.59 3487.91 1038.84 3477.93 1049.07 3463.8C1095.63 3458.25 1139.36 3436.21 1166.32 3397.72C1197.28 3353.57 1202.44 3299.45 1195.72 3244.91C1197.72 3246.04 1200.03 3246.67 1202.41 3246.67C1203.44 3246.67 1204.49 3246.55 1205.53 3246.31C1212.89 3244.59 1217.47 3237.23 1215.75 3229.87C1213.89 3221.88 1212.27 3213.79 1210.15 3205.79C1207.64 3197.92 1205.77 3189.76 1202.67 3182.01C1197.27 3166.19 1189.96 3150.95 1181.85 3135.97C1175.59 3125.08 1168.63 3114.49 1160.83 3104.36C1154.29 3080.35 1148.55 3055.88 1143.81 3031.17C1157.04 2999.41 1173.08 2973.52 1190.59 2952.4C1194.88 2953.12 1199.23 2953.81 1203.61 2954.48C1204.15 3026.04 1213.69 3096.28 1232.25 3164.77C1282.59 3350.59 1390.03 3500.52 1545.37 3603.36C1512.75 3618.21 1477.91 3631.17 1441.51 3641.83C1367.75 3663.41 1293.19 3674.2 1222.45 3674.2" fill="#CA9A6C"/>
<path d="M1221.96 3701.92C1147.35 3701.92 1074.6 3690.43 1009.57 3665.24C816.213 3590.31 776.56 3367.44 819.2 3218.19C817.946 3250.17 822.266 3282.57 831.946 3312.96C830.773 3337.52 831.733 3362.72 835.08 3387.68C844.586 3458.64 881.2 3585.71 1019.6 3639.32C1079.6 3662.56 1148.96 3674.2 1222.45 3674.2C1293.19 3674.2 1367.75 3663.41 1441.51 3641.83C1477.91 3631.17 1512.75 3618.21 1545.37 3603.36C1554.48 3609.39 1563.79 3615.27 1573.23 3620.97C1468.16 3671.81 1342.67 3701.92 1221.96 3701.92M1143.81 3031.17C1140.79 3015.33 1138.17 2999.41 1136.04 2983.44C1143.51 2969.97 1151.49 2957.71 1159.87 2946.52C1169.84 2948.67 1180.07 2950.63 1190.59 2952.4C1173.08 2973.52 1157.04 2999.41 1143.81 3031.17" fill="#181818"/>
<path d="M1202.41 3246.67C1200.03 3246.67 1197.72 3246.04 1195.72 3244.91C1191.53 3210.99 1182.75 3176.89 1172.71 3144.92C1168.52 3131.57 1164.55 3118.04 1160.83 3104.36C1168.63 3114.49 1175.59 3125.08 1181.85 3135.97C1189.96 3150.95 1197.27 3166.19 1202.67 3182.01C1205.77 3189.76 1207.64 3197.92 1210.15 3205.79C1212.27 3213.79 1213.89 3221.88 1215.75 3229.87C1217.47 3237.23 1212.89 3244.59 1205.53 3246.31C1204.49 3246.55 1203.44 3246.67 1202.41 3246.67" fill="#181818"/>
<path d="M995.107 3493.72C962.44 3493.72 929.787 3467.57 909.4 3426.84C912.387 3429.13 915.453 3431.35 918.587 3433.48C949.693 3454.63 987.693 3465.2 1025.39 3465.2C1033.32 3465.2 1041.23 3464.73 1049.07 3463.8C1038.84 3477.93 1025.59 3487.91 1009.97 3491.87C1005.05 3493.11 1000.08 3493.72 995.107 3493.72" fill="#814D4D"/>
<path d="M2658.75 3651.61C2169.88 3845.8 1425.16 3786.91 1259.04 3173.85C1147.49 2762.08 1394.33 2375.45 1604.21 2136.27C1738.6 1982.99 1857.84 1890.27 1857.84 1890.27L2806.05 2178.28C2799.67 2197.44 2768.91 2540.4 2841.89 2722.84C2845.37 2731.45 2849.05 2739.65 2852.93 2747.49C2940.03 2921.61 3147.61 3457.43 2658.75 3651.61" fill="#FCC06A"/>
<path d="M2116.48 3370.97C2128.8 3444.75 2096.72 3511.57 2044.83 3520.24C1992.95 3528.91 1940.89 3476.12 1928.59 3402.35C1916.27 3328.57 1948.35 3261.75 2000.23 3253.08C2052.12 3244.41 2104.16 3297.2 2116.48 3370.97Z" fill="#A16044"/>
<path d="M1883.6 3221.36C1883.55 3218.52 1883.53 3215.69 1883.57 3212.87C1900.77 3158.08 1929.76 3113.27 1965.31 3092.09C1997.24 3073.07 2029.03 3066.72 2057.23 3066.72C2111.87 3066.72 2153.03 3090.53 2155.53 3092.01C2159.92 3094.67 2164.88 3096 2169.87 3096C2173.28 3096 2176.71 3095.37 2179.96 3094.11C2187.97 3090.97 2194.09 3084.31 2196.52 3076.04C2208.36 3035.68 2226.01 3001.91 2246.96 2973.67C2269.35 2953.15 2290.95 2930.79 2309.85 2910C2319.76 2902.37 2329.85 2895.47 2339.95 2889.23C2315.44 2912.09 2293.2 2937.11 2275.01 2965.27C2238.33 3022.05 2222.12 3094.81 2240.95 3159.75C2197.65 3132.43 2146.43 3118.23 2095.25 3118.23C2069.09 3118.23 2042.93 3121.93 2017.88 3129.52C1965.15 3145.45 1917.87 3178.28 1883.6 3221.36" fill="#FEE6C3"/>
<path d="M2137.76 3706.67C1962.03 3706.65 1793.77 3672.15 1656.15 3603.27C1466.13 3508.17 1341.56 3355.75 1285.88 3150.24C1247.99 3010.37 1253.81 2873.24 1284.55 2745.61C1409.17 2795.57 1586.03 2839.28 1823.25 2839.28C1893.25 2839.28 1968.53 2835.47 2049.25 2826.89C2069.91 2824.71 2089.4 2818.53 2106.96 2809.16C2110.69 2810.08 2114.51 2810.99 2118.36 2811.87C2167.48 2828.88 2219.31 2838.63 2270.93 2840.51C2278.01 2840.77 2285.07 2840.89 2292.13 2840.89C2299.11 2840.89 2306.08 2840.77 2313.04 2840.52C2251.11 2878.12 2188.79 2937.25 2153.47 3029.88C2130.51 3020.92 2096.4 3011.15 2056.67 3011.15C2024.75 3011.15 1989.19 3017.47 1952.92 3035.57C1947.53 2985.91 1905.17 2945.8 1852.45 2945.8C1850.36 2945.8 1848.25 2945.87 1846.13 2945.99C1810.81 2948.12 1774.36 2949.03 1737.89 2949.03C1616.65 2949.03 1495.28 2939.01 1415.71 2930.75C1412.8 2930.44 1409.93 2930.29 1407.09 2930.29C1359.91 2930.29 1321.6 2970.85 1325.72 3019.07C1339.03 3174.89 1405.57 3268.84 1479.53 3325.45C1511.05 3349.59 1547.59 3360.87 1583.75 3360.87C1649.88 3360.85 1714.77 3323.13 1745.51 3257.36C1778.73 3186.25 1828.08 3139.63 1870.12 3110.47C1828.79 3172.65 1806.11 3261.16 1811.61 3352.53C1820.4 3497.96 1898.05 3613.52 2024.68 3669.57C2059.81 3685.12 2097.96 3697.51 2138.31 3706.67C2138.12 3706.67 2137.95 3706.67 2137.76 3706.67M2318 3670.49C2218.28 3670.49 2124.49 3652.99 2047.17 3618.76C1940.2 3571.41 1874.56 3473.16 1867.08 3349.19C1864.53 3307.07 1869.24 3264.76 1879.59 3226.53C1880.89 3224.8 1882.24 3223.07 1883.6 3221.36C1884.57 3266.01 1898.31 3311.65 1927.57 3346.88C1925.17 3364.28 1925.37 3383.08 1928.59 3402.35C1940.01 3470.79 1985.64 3521.17 2033.6 3521.17C2037.33 3521.17 2041.08 3520.87 2044.83 3520.24C2086.59 3513.27 2115.51 3468.63 2118.8 3413.01C2151.87 3411.64 2177.93 3405.09 2198.41 3396.16C2217.67 3387.76 2238.01 3383.69 2258.28 3383.69C2289.36 3383.69 2320.25 3393.27 2346.8 3411.48C2385.29 3437.91 2439.08 3460.23 2509.85 3460.23C2808.97 3460.23 2900.52 3281.64 2876.41 3098.59C2865.31 3014.29 2849.05 2886.07 2843.68 2776.07C2895.55 2888.97 2994.03 3149.77 2913.64 3360.44C2892.77 3415.15 2860.89 3463.09 2818.32 3503.97C2745.89 3571.41 2630.49 3625.35 2497.96 3652.17C2437.33 3664.44 2376.64 3670.49 2318 3670.49" fill="#CA9A6C"/>
<path d="M2033.6 3521.17C1985.64 3521.17 1940.01 3470.79 1928.59 3402.35C1925.37 3383.08 1925.17 3364.28 1927.57 3346.88C1952 3376.25 1987.23 3398.39 2034.87 3406.68C2061.32 3411.28 2084.87 3413.28 2105.81 3413.27C2110.27 3413.27 2114.59 3413.19 2118.8 3413.01C2115.51 3468.63 2086.59 3513.27 2044.83 3520.24C2041.08 3520.87 2037.33 3521.17 2033.6 3521.17" fill="#814D4D"/>
<path d="M1879.59 3226.53C1880.83 3221.92 1882.16 3217.36 1883.57 3212.87C1883.53 3215.69 1883.55 3218.52 1883.6 3221.36C1882.24 3223.07 1880.89 3224.8 1879.59 3226.53M2246.96 2973.67C2265.85 2948.21 2287.43 2927.24 2309.85 2910C2290.95 2930.79 2269.35 2953.15 2246.96 2973.67Z" fill="#CBB8B3"/>
<path d="M2832.63 2170.11C2832.56 2170.28 2832.51 2170.47 2832.44 2170.67C2832.49 2170.49 2832.56 2170.31 2832.63 2170.11ZM1863.83 1904.76C1820.35 1940.47 1656.61 2080.61 1511.47 2279.79C1358.01 2490.35 1194.32 2812.28 1285.88 3150.24C1341.56 3355.75 1466.13 3508.17 1656.15 3603.27C1927.07 3738.85 2316.59 3741.28 2648.49 3609.41C2781.57 3556.56 2870.77 3472.79 2913.64 3360.44C3003.17 3125.8 2870.81 2828.95 2828.12 2743.55C2749.65 2586.61 2764.29 2278.37 2775.25 2181.55L1863.83 1904.76M2138 3761.97C1953.4 3761.97 1776.37 3725.57 1631.28 3652.95C1429.39 3551.91 1291.4 3383.09 1232.25 3164.77C1189.09 3005.47 1194.69 2836.85 1248.88 2663.61C1291.87 2526.21 1365.37 2385.71 1467.36 2245.96C1640.25 2009.08 1832.67 1858.28 1840.77 1851.97C1847.91 1846.44 1857.27 1844.69 1865.91 1847.32L2814.16 2135.29C2821.33 2137.48 2827.32 2142.45 2830.76 2149.12C2834.08 2155.52 2834.76 2162.96 2832.69 2169.85C2824.37 2205.87 2798.55 2560.16 2877.81 2718.71C2923.07 2809.23 3063.16 3124.44 2965.55 3380.24C2916.91 3507.73 2817.13 3602.21 2669.01 3661.05C2499.53 3728.39 2315.28 3761.96 2138 3761.97" fill="#181818"/>
<path d="M3261.48 1889.57C3140.92 2454.35 1955.52 2436.51 1955.52 2436.51C1955.52 2436.51 770.2 2454.35 649.64 1889.57C529.068 1324.8 1202.25 374.013 1372.89 293.453C1614.03 179.627 1955.52 380.547 1955.52 380.547C1955.52 380.547 2297.08 179.627 2538.15 293.453C2708.79 374.013 3381.97 1324.8 3261.48 1889.57" fill="#FCC06A"/>
<path d="M927.84 1252.05C925.613 1252.05 923.44 1251.88 921.347 1251.53C878.333 1244.37 840.094 1210.52 808.894 1162.21C815.534 1146.93 822.24 1131.91 828.974 1117.19C852.44 1141.4 878.614 1157.59 906.827 1162.28C908.92 1162.63 911.08 1162.8 913.307 1162.8C949.027 1162.81 1001.07 1118.49 1058.2 1050.08C1173.89 911.56 1310.51 674.24 1374.95 505.894C1389.93 466.747 1401 431.374 1407.03 401.787C1410.97 404.16 1414.32 406.974 1417.01 410.267C1495.49 506.32 1074.4 1252.07 927.84 1252.05" fill="#D09A61"/>
<path d="M2971.19 1252.05C2824.61 1252.05 2403.53 506.32 2482 410.267C2487.01 404.134 2494.32 399.64 2503.6 396.654C2509.05 425.747 2519.73 460.907 2534.43 499.947C2598.15 669.294 2737.51 911.907 2854.87 1051.8C2911.44 1119.24 2962.89 1162.8 2998.31 1162.8C3000.53 1162.8 3002.71 1162.63 3004.8 1162.28C3027.88 1158.44 3049.6 1146.91 3069.6 1129.57C3075.53 1141.91 3081.39 1154.31 3087.16 1166.73C3056.52 1212.63 3019.32 1244.6 2977.67 1251.53C2975.57 1251.88 2973.4 1252.05 2971.19 1252.05Z" fill="#D09A61"/>
<path d="M3234.72 1588.01C3209.99 1474.6 3169.92 1357.33 3120.84 1242.36C3110.03 1217.03 3098.77 1191.79 3087.16 1166.73C3090.59 1161.6 3093.92 1156.31 3097.19 1150.85C3155.71 1283.72 3210.32 1437.37 3234.72 1588.01" fill="#FEE6C3"/>
<path d="M1941.71 455.693C1941.71 455.693 1734.32 333.68 1528.68 333.68C1489.16 333.68 1449.71 338.187 1411.8 348.92C1410.83 336.934 1407.8 327.48 1402.51 320.987C1400.36 318.374 1397.81 316.053 1394.87 314.027C1441.15 294.24 1491.43 286.374 1542.15 286.374C1737.39 286.374 1938.88 402.973 1941.45 404.493C1945.79 407.04 1950.65 408.32 1955.52 408.32C1960.39 408.32 1965.25 407.04 1969.6 404.493C1972.17 402.973 2173.69 286.374 2368.93 286.374C2419.77 286.374 2470.17 294.28 2516.53 314.174C2513.68 316.174 2511.2 318.44 2509.12 320.987C2502.53 329.054 2499.47 341.68 2499.47 358.08C2453.27 340.693 2404.04 333.68 2354.75 333.68C2149.11 333.68 1941.71 455.693 1941.71 455.693" fill="#FEE6C3"/>
<path d="M3087.16 1166.73C3081.39 1154.31 3075.53 1141.91 3069.6 1129.57C3073.89 1125.84 3078.12 1121.84 3082.27 1117.59C3087.25 1128.51 3092.24 1139.61 3097.19 1150.85C3093.92 1156.31 3090.59 1161.6 3087.16 1166.73" fill="#ECD7C0"/>
<path d="M3219.96 1953.59C3205.89 2196.93 2623.24 2455.51 1951.16 2455.51C1344.92 2455.51 674.4 2201.4 685.96 1953.65C755.48 1845.37 861.333 1762.25 984.813 1728.43C1086.97 1700.44 1195.8 1703.56 1298.39 1677.24C1431.93 1642.93 1546.4 1561.4 1665.57 1493.2C1721.69 1461.11 1788.64 1440.35 1843.85 1427.36C1915.6 1410.48 1990.4 1410.48 2062.13 1427.36C2117.35 1440.35 2184.37 1461.11 2240.41 1493.2C2359.6 1561.4 2474.05 1642.93 2607.6 1677.24C2710.19 1703.56 2819.01 1700.44 2921.17 1728.43C3044.67 1762.17 3150.44 1845.31 3219.96 1953.59Z" fill="#A16044"/>
<path d="M2259.85 2085.76C2266.68 2035.56 2273.84 1985.69 2281.25 1937.31C2289.31 1938.89 2297.28 1940.76 2305.41 1941.95L2332.16 1945.36C2336.63 1945.87 2341.07 1946.59 2345.56 1946.93L2359.11 1947.55L2386.23 1948.72C2403.93 1948.69 2421.6 1948.23 2439.36 1946.71C2474.81 1943.85 2510.49 1938.39 2545.48 1927.76C2550.31 1926.28 2555.15 1924.72 2559.99 1923.07C2485.99 1993.31 2382.13 2049.93 2259.85 2085.76M1528.52 2041.6C1449.16 2005.44 1381.81 1959.43 1330.99 1906.4C1342.07 1911.65 1353.39 1916.25 1364.77 1920.29C1382.51 1926.39 1400.57 1931.01 1418.67 1934.93C1436.83 1938.35 1455.04 1941.31 1473.24 1943.08C1491.45 1945.13 1509.65 1946.13 1527.83 1946.88C1536.91 1947.23 1545.96 1947.23 1555.04 1947.41C1564.2 1947.25 1573.47 1946.77 1582.68 1946.45C1603.83 1945.89 1624.83 1943.63 1645.68 1940.33C1605.92 1972.52 1566.76 2006.36 1528.52 2041.6" fill="#874D43"/>
<path d="M3215.31 1946.45C3193.97 1914.32 3169.43 1884.49 3142.15 1857.63C3188.36 1809.92 3224.41 1755.33 3246.53 1692.83C3250.48 1758.89 3247.16 1823.25 3234.24 1883.77C3229.6 1905.56 3223.24 1926.44 3215.31 1946.45M693.88 1941.67C686.813 1923.11 681.08 1903.84 676.8 1883.77C663.88 1823.25 660.573 1758.89 664.506 1692.81C686.253 1754.23 721.4 1807.97 766.453 1855.08C739.493 1881.28 715.146 1910.33 693.88 1941.67Z" fill="#D09A61"/>
<path d="M2366.33 2380.04C2354.35 2377.71 2342.43 2374.97 2330.63 2371.83C2295.91 2362.59 2262.16 2350.01 2228.01 2338.85C2234.32 2284.84 2241.13 2228.87 2248.37 2172.48C2527.95 2145.77 2936.13 2070.28 3142.15 1857.63C3169.43 1884.49 3193.97 1914.32 3215.31 1946.45C3104.83 2225.24 2690.07 2336.08 2366.33 2380.04M1276.55 2308.96C1274.56 2308.13 1272.56 2307.35 1270.56 2306.59C1239.43 2294.71 1206.36 2289.05 1173.19 2289.05C1163.13 2289.05 1153.05 2289.57 1143.03 2290.6C939 2221.85 759.28 2113.23 693.88 1941.67C715.147 1910.33 739.493 1881.28 766.453 1855.08C919.053 2014.64 1185.13 2097.59 1426.91 2140.65C1411.11 2156.92 1395.48 2173.43 1380.04 2190.13C1379.88 2190.31 1379.72 2190.49 1379.55 2190.67C1374.44 2196.23 1369.33 2201.85 1364.16 2207.52L1363.55 2208.21C1363.11 2208.67 1362.67 2209.13 1362.24 2209.64C1362.17 2209.72 1362.09 2209.8 1362.03 2209.88C1358.19 2214.12 1354.36 2218.37 1350.55 2222.65C1347.83 2225.68 1345.15 2228.72 1342.48 2231.76C1338.33 2236.44 1334.19 2241.15 1330.07 2245.87C1324.31 2252.44 1318.47 2259.19 1312.49 2266.17C1306.19 2273.53 1299.89 2280.95 1293.64 2288.4C1288.61 2294.32 1283.67 2300.24 1278.96 2306.04C1278.49 2306.6 1278.04 2307.15 1277.57 2307.71C1277.23 2308.13 1276.88 2308.55 1276.55 2308.96" fill="#874D43"/>
<path d="M1542.15 286.373C1487.71 286.373 1433.79 295.427 1384.76 318.573C1314.85 351.573 1111.4 585.92 926.427 923.293C804.2 1146.19 609.261 1567.39 676.8 1883.77C791.28 2420.04 1943.53 2409.07 1955.11 2408.72C1955.39 2408.72 1955.67 2408.72 1955.95 2408.72C1967.53 2409.01 3119.88 2419.77 3234.24 1883.77C3301.79 1567.39 3106.84 1146.19 2984.63 923.293C2799.64 585.92 2596.2 351.573 2526.28 318.573C2301.51 212.427 1972.89 402.56 1969.6 404.493C1960.92 409.587 1950.13 409.6 1941.45 404.493C1938.88 402.973 1737.39 286.373 1542.15 286.373M1965.64 2464.33C1960.12 2464.33 1956.68 2464.29 1955.52 2464.28C1942.61 2464.44 1647.53 2466.89 1342.03 2402C1158.16 2362.96 1006.12 2307.45 890.133 2237.05C741.68 2146.93 651.627 2031.97 622.467 1895.37C551.172 1561.4 751.787 1126.24 877.707 896.573C1040.89 598.933 1257.72 317.107 1361.04 268.333C1587.05 161.64 1886.59 311.093 1955.52 348.68C2024.44 311.107 2324.04 161.627 2550.01 268.333C2653.32 317.107 2870.15 598.933 3033.33 896.573C3159.27 1126.24 3359.87 1561.4 3288.59 1895.37C3259.44 2031.97 3169.39 2146.93 3020.95 2237.05C2904.96 2307.45 2752.92 2362.96 2569.05 2402C2290.99 2461.05 2021.55 2464.33 1965.64 2464.33" fill="#181818"/>
<path d="M1402.51 320.987C1328.59 230.507 757.72 497.8 717.347 665.08C676.96 832.374 766.72 1138.96 906.827 1162.28C1046.93 1185.61 1482.15 418.481 1402.51 320.987Z" fill="#A16044"/>
<path d="M719.973 656.12C733.546 616.72 774.426 572.427 829.973 528.853C774.44 572.413 733.56 616.72 719.973 656.12Z" fill="#FFFBD8"/>
<path d="M726.653 907.307C705.96 822.373 701.093 732.44 717.346 665.067C718.066 662.12 718.946 659.133 719.973 656.12C733.56 616.72 774.44 572.413 829.973 528.853C977.4 413.227 1228.09 302.773 1345.75 302.773C1372.39 302.773 1392.23 308.453 1402.48 321.013C1407.08 326.627 1409.96 334.48 1411.28 344.293C1409.96 334.493 1407.08 326.627 1402.48 321.013C1393.04 309.48 1375.6 303.787 1352.2 302.947C1341.2 330.44 1328.45 359.52 1314.33 389.547C1126.75 420.933 764.106 615.36 732.213 747.44C731.693 749.587 731.2 751.773 730.72 753.96C723.587 734.186 717.36 713.653 712.066 692.773C702.693 755.973 708.68 833.413 726.627 907.107C726.64 907.173 726.653 907.24 726.653 907.307M1408.25 395.453C1409.2 390.2 1410 385.16 1410.61 380.32C1410 385.16 1409.21 390.213 1408.25 395.453ZM1410.61 380.253C1410.63 380.2 1410.63 380.133 1410.64 380.08C1410.63 380.147 1410.63 380.2 1410.61 380.253ZM1411.35 344.747C1411.35 344.72 1411.35 344.72 1411.35 344.707C1411.35 344.72 1411.35 344.733 1411.35 344.747ZM1411.32 344.52C1411.31 344.44 1411.31 344.4 1411.29 344.32C1411.29 344.387 1411.31 344.453 1411.32 344.52Z" fill="#D9BFB4"/>
<path d="M1058.2 1050.08C1173.88 911.56 1310.48 674.24 1374.95 505.893C1310.51 674.24 1173.89 911.56 1058.2 1050.08Z" fill="#AD7B5A"/>
<path d="M913.293 1162.79C911.08 1162.79 908.907 1162.61 906.813 1162.27C823.08 1148.33 757.347 1033.21 726.627 907.107C720.173 851.921 721.08 798.44 730.72 753.96C765.827 851.44 822.32 930.601 890.907 942.041C893 942.387 895.173 942.56 897.4 942.56C991.493 942.56 1198.81 635.067 1314.33 389.547C1331.32 386.694 1346.88 385.187 1360.63 385.187C1380.8 385.187 1397.08 388.44 1408.25 395.454C1402.59 426.24 1391 463.947 1374.95 505.894C1310.48 674.24 1173.88 911.56 1058.2 1050.08C1001.05 1118.48 949.027 1162.79 913.293 1162.79M1410.61 380.32C1410.61 380.294 1410.61 380.28 1410.61 380.254C1410.61 380.267 1410.61 380.307 1410.61 380.32ZM1410.64 380.08C1412.33 366.534 1412.63 354.654 1411.35 344.747C1412.63 354.654 1412.35 366.52 1410.64 380.08ZM1411.35 344.707C1411.33 344.641 1411.32 344.574 1411.32 344.52C1411.32 344.56 1411.33 344.654 1411.35 344.707ZM1411.29 344.32C1411.29 344.307 1411.29 344.307 1411.28 344.294C1411.29 344.307 1411.29 344.32 1411.29 344.32Z" fill="#874D43"/>
<path d="M726.627 907.107C708.68 833.414 702.693 755.974 712.067 692.774C717.36 713.654 723.587 734.187 730.72 753.96C721.08 798.44 720.173 851.92 726.627 907.107M1408.25 395.454C1397.08 388.44 1380.8 385.187 1360.63 385.187C1346.88 385.187 1331.32 386.693 1314.33 389.547C1328.45 359.52 1341.2 330.44 1352.2 302.947C1375.6 303.787 1393.04 309.48 1402.48 321.013C1407.08 326.627 1409.96 334.493 1411.28 344.293C1411.29 344.307 1411.29 344.307 1411.29 344.32C1411.31 344.4 1411.31 344.44 1411.32 344.52C1411.32 344.574 1411.33 344.64 1411.35 344.707C1411.35 344.72 1411.35 344.72 1411.35 344.747C1412.63 354.653 1412.33 366.533 1410.64 380.08C1410.63 380.133 1410.63 380.2 1410.61 380.254C1410.61 380.28 1410.61 380.294 1410.61 380.32C1410 385.16 1409.2 390.2 1408.24 395.454" fill="#B4999D"/>
<path d="M1345.84 330.574C1329.8 330.574 1307.68 332.947 1278.09 339.68C1079.8 384.867 770.28 564.16 744.347 671.6C717.933 781.013 752.427 959.28 819.653 1060.89C839.56 1090.99 871.653 1128.27 911.387 1134.88C945.987 1140.69 1062.44 1032.76 1212.07 774.693C1271.6 672.013 1321.32 570.134 1352.07 487.84C1398.88 362.574 1381.17 338.787 1380.99 338.56C1377.95 334.84 1367.35 330.574 1345.84 330.574V330.574ZM913.493 1190.6C909.68 1190.6 905.933 1190.29 902.267 1189.68C855.2 1181.85 810.6 1147.92 773.307 1091.55C697.56 977.053 660.347 782.827 690.333 658.56C726.653 508.12 1085.35 326.627 1265.75 285.507C1347.24 266.96 1399.01 272.8 1424.01 303.413C1440.6 323.707 1456.56 366.92 1404.12 507.293C1372.31 592.413 1321.17 697.267 1260.13 802.56C1198.51 908.84 1132.87 1004.85 1075.29 1072.91C1007.73 1152.77 955.88 1190.6 913.493 1190.6" fill="#181818"/>
<path d="M2509.12 320.987C2583.04 230.507 3153.91 497.8 3194.28 665.08C3234.65 832.374 3144.91 1138.96 3004.8 1162.28C2864.69 1185.61 2429.47 418.481 2509.12 320.987" fill="#A16044"/>
<path d="M3193.21 661.054C3181.59 620.84 3140.35 575.16 3083.36 530.2C3140.35 575.16 3181.59 620.854 3193.21 661.054Z" fill="#FFFBD8"/>
<path d="M3184.96 907.307C3184.97 907.24 3184.99 907.173 3184.99 907.107C3202.93 833.413 3208.92 755.973 3199.55 692.773C3194.27 713.653 3188.03 734.186 3180.91 753.96C3180.43 751.773 3179.93 749.587 3179.41 747.44C3147.51 615.36 2784.87 420.933 2597.29 389.547C2583.17 359.52 2570.43 330.44 2559.41 302.947C2536.01 303.787 2518.59 309.48 2509.13 321.013C2504.36 326.867 2501.43 335.12 2500.19 345.493C2501.43 335.12 2504.35 326.853 2509.13 321.013C2519.39 308.453 2539.24 302.773 2565.87 302.773C2683.99 302.773 2936.17 414.093 3083.36 530.2C3140.35 575.16 3181.59 620.84 3193.21 661.053C3193.6 662.4 3193.95 663.733 3194.27 665.067C3210.52 732.44 3205.67 822.373 3184.96 907.307M2503.37 395.453C2502.47 390.48 2501.71 385.68 2501.11 381.067C2501.71 385.667 2502.47 390.48 2503.39 395.453C2503.37 395.453 2503.37 395.453 2503.37 395.453ZM2501.09 380.893C2501.08 380.88 2501.08 380.867 2501.08 380.853C2501.08 380.867 2501.08 380.88 2501.09 380.893ZM2500.13 345.853C2500.13 345.853 2500.13 345.853 2500.13 345.84V345.853ZM2500.16 345.64C2500.17 345.613 2500.17 345.573 2500.17 345.547C2500.17 345.573 2500.17 345.613 2500.16 345.64Z" fill="#D9BFB4"/>
<path d="M2854.87 1051.8C2737.51 911.907 2598.15 669.294 2534.43 499.947C2598.15 669.307 2737.51 911.907 2854.87 1051.8Z" fill="#AD7B5A"/>
<path d="M2998.32 1162.79C2962.89 1162.79 2911.44 1119.24 2854.87 1051.8C2737.51 911.907 2598.15 669.307 2534.43 499.947C2519.53 460.374 2508.77 424.787 2503.39 395.454C2514.55 388.44 2530.81 385.187 2551 385.187C2564.73 385.187 2580.31 386.694 2597.29 389.547C2712.8 635.067 2920.12 942.56 3014.21 942.56C3016.45 942.56 3018.61 942.387 3020.72 942.041C3089.31 930.601 3145.8 851.44 3180.91 753.96C3190.55 798.44 3191.45 851.921 3184.99 907.107C3154.28 1033.21 3088.53 1148.33 3004.81 1162.27C3002.72 1162.61 3000.55 1162.79 2998.32 1162.79M2501.11 381.067C2501.11 381 2501.09 380.96 2501.09 380.894C2501.09 380.947 2501.11 381.014 2501.11 381.067ZM2501.08 380.854C2499.36 367.48 2498.99 355.734 2500.13 345.854C2499 355.734 2499.36 367.494 2501.08 380.854ZM2500.13 345.841C2500.15 345.774 2500.16 345.707 2500.16 345.641C2500.16 345.707 2500.15 345.774 2500.13 345.841ZM2500.17 345.547C2500.17 345.534 2500.19 345.507 2500.19 345.494C2500.17 345.507 2500.17 345.534 2500.17 345.547Z" fill="#874D43"/>
<path d="M3184.99 907.107C3191.45 851.92 3190.55 798.44 3180.91 753.96C3188.03 734.187 3194.27 713.654 3199.55 692.774C3208.92 755.974 3202.93 833.414 3184.99 907.107ZM2503.39 395.454C2502.47 390.48 2501.71 385.667 2501.11 381.067C2501.11 381.013 2501.09 380.947 2501.09 380.893C2501.08 380.88 2501.08 380.867 2501.08 380.854C2499.36 367.494 2499 355.734 2500.13 345.854V345.84C2500.15 345.774 2500.16 345.707 2500.16 345.64C2500.17 345.614 2500.17 345.573 2500.17 345.547C2500.17 345.533 2500.17 345.507 2500.19 345.493C2501.43 335.12 2504.36 326.867 2509.13 321.013C2518.59 309.48 2536.01 303.787 2559.41 302.947C2570.43 330.44 2583.17 359.52 2597.29 389.547C2580.31 386.693 2564.73 385.187 2551 385.187C2530.81 385.187 2514.55 388.44 2503.37 395.454" fill="#B4999D"/>
<path d="M2530.63 338.56C2530.44 338.787 2512.75 362.574 2559.56 487.854C2590.31 570.147 2640.03 672.027 2699.57 774.707C2849.17 1032.75 2965.44 1140.68 3000.23 1134.88C3039.97 1128.27 3072.07 1090.99 3091.97 1060.89C3159.2 959.28 3193.68 781.013 3167.27 671.6C3141.35 564.16 2831.84 384.88 2633.56 339.693C2564.31 323.907 2535.95 332.053 2530.63 338.56ZM2998.12 1190.6C2955.75 1190.6 2903.89 1152.79 2836.33 1072.92C2778.76 1004.87 2713.12 908.854 2651.51 802.574C2590.45 697.28 2539.32 592.413 2507.51 507.293C2455.05 366.92 2471.03 323.707 2487.6 303.413C2512.61 272.8 2564.39 266.947 2645.91 285.52C2826.29 326.627 3184.97 508.133 3221.28 658.56C3251.28 782.827 3214.05 977.053 3138.32 1091.55C3101.03 1147.91 3056.43 1181.85 3009.36 1189.68C3005.69 1190.29 3001.95 1190.6 2998.12 1190.6" fill="#181818"/>
<path d="M2060.41 1097.93C2061.23 1076.89 2063.99 1056.44 2068.28 1035.95C2072.64 1015.52 2078.95 995.187 2087.85 975.4C2096.8 955.6 2108.61 936.534 2123.52 919.454C2138.43 902.387 2156.71 887.36 2177.87 876.4C2188.51 871.054 2199.76 866.707 2211 863.654C2222.31 860.76 2233.6 858.734 2244.77 857.774C2267.19 855.88 2288.61 856.987 2309.79 860.107C2352.01 866.467 2392.97 881.067 2426.95 905.947C2385.08 903.107 2346.05 901.32 2307.63 903.747C2269.07 906.054 2232.04 910.787 2203.19 925.84C2173.61 940.92 2147.65 966.72 2125.61 997.08C2103.07 1027.49 2084.41 1063.41 2060.41 1097.93" fill="#181818"/>
<path d="M1841.13 1097.93C1817.15 1063.41 1798.49 1027.49 1775.95 997.08C1753.89 966.72 1727.95 940.92 1698.36 925.84C1669.51 910.787 1632.49 906.054 1593.93 903.747C1555.51 901.32 1516.47 903.107 1474.61 905.947C1508.59 881.067 1549.55 866.467 1591.77 860.107C1612.95 856.987 1634.36 855.88 1656.79 857.774C1667.95 858.734 1679.25 860.76 1690.56 863.654C1701.8 866.707 1713.05 871.054 1723.69 876.414C1744.85 887.36 1763.13 902.387 1778.03 919.454C1792.95 936.534 1804.76 955.6 1813.69 975.4C1822.6 995.187 1828.91 1015.52 1833.28 1035.95C1837.57 1056.44 1840.32 1076.89 1841.13 1097.93" fill="#181818"/>
<path d="M1980.75 402.147L1952.97 1140.08L1925.19 402.147C1924.61 386.813 1936.57 373.907 1951.92 373.32C1967.27 372.747 1980.17 384.72 1980.75 400.054C1980.77 400.747 1980.77 401.48 1980.75 402.147Z" fill="#181818"/>
<path d="M2247.75 1512.67C2124.07 1374.05 2112.95 1182.15 2222.92 1084.03C2332.88 985.907 2522.28 1018.73 2645.97 1157.35C2769.65 1295.97 2780.77 1487.88 2670.8 1586C2560.84 1684.12 2371.43 1651.29 2247.75 1512.67" fill="#A16044"/>
<path d="M1665.27 1492.29C1788.96 1353.67 1800.08 1161.76 1690.11 1063.64C1580.13 965.52 1390.73 998.36 1267.05 1136.97C1143.37 1275.59 1132.25 1467.49 1242.21 1565.61C1352.17 1663.73 1541.59 1630.89 1665.27 1492.29" fill="#A16044"/>
<path d="M1932.76 511.187C1948.11 496.52 1966.05 485.147 1984.8 477.24C2003.57 469.294 2023.11 464.667 2042.51 462.613C2081.35 458.627 2119.67 464.36 2154.8 477.36C2189.63 490.347 2220.95 509.427 2249.71 530.707C2278.52 552.04 2305 575.64 2331.39 599.24C2302.15 579.28 2272.8 559.36 2242.17 542.387C2211.61 525.427 2179.63 511.48 2146.72 503.933C2114.24 496.52 2080.29 496.267 2049.33 503.72C2018.39 511.094 1990.88 526.88 1973.24 549.24C1963.71 561.334 1946.19 563.413 1934.09 553.88C1922 544.347 1919.93 526.814 1929.45 514.72C1930.24 513.72 1931.08 512.8 1931.97 511.933L1932.76 511.187" fill="#181818"/>
<path d="M1932.69 549.24C1915.07 526.88 1887.55 511.094 1856.6 503.72C1825.65 496.267 1791.69 496.52 1759.21 503.933C1726.31 511.48 1694.32 525.427 1663.76 542.387C1633.13 559.36 1603.79 579.28 1574.55 599.24C1600.95 575.64 1627.43 552.04 1656.24 530.707C1685 509.427 1716.31 490.347 1751.15 477.36C1786.27 464.36 1824.59 458.627 1863.44 462.613C1882.83 464.667 1902.37 469.294 1921.15 477.24C1939.89 485.147 1957.83 496.52 1973.17 511.187L1973.85 511.827C1984.97 522.467 1985.37 540.107 1974.75 551.24C1964.11 562.374 1946.45 562.773 1935.32 552.133C1934.41 551.253 1933.47 550.214 1932.69 549.24" fill="#181818"/>
<path d="M1932.76 660.413C1946.68 647.28 1962.89 637.147 1979.77 630.147C1996.68 623.133 2014.2 619.107 2031.55 617.4C2066.27 614.08 2100.33 619.467 2131.47 631.254C2162.31 643.04 2189.89 660.174 2215.15 679.2C2240.47 698.267 2263.65 719.293 2286.76 740.333C2260.8 722.947 2234.75 705.587 2207.63 690.88C2180.56 676.16 2152.31 664.16 2123.4 657.84C2094.91 651.614 2065.21 651.734 2038.37 658.507C2011.53 665.214 1988.01 679.173 1973.24 698.48C1963.87 710.72 1946.36 713.04 1934.11 703.68C1921.87 694.307 1919.55 676.787 1928.91 664.547C1929.8 663.387 1930.77 662.307 1931.8 661.32L1932.76 660.413" fill="#181818"/>
<path d="M1932.69 698.48C1917.93 679.173 1894.41 665.214 1867.57 658.507C1840.73 651.734 1811.04 651.614 1782.55 657.84C1753.63 664.16 1725.37 676.16 1698.31 690.88C1671.19 705.587 1645.13 722.947 1619.17 740.333C1642.29 719.293 1665.48 698.267 1690.79 679.2C1716.05 660.174 1743.63 643.04 1774.47 631.254C1805.61 619.467 1839.67 614.08 1874.4 617.4C1891.73 619.107 1909.27 623.133 1926.16 630.147C1943.04 637.147 1959.27 647.28 1973.17 660.413L1974.03 661.213C1985.24 671.8 1985.75 689.467 1975.16 700.68C1964.57 711.88 1946.91 712.387 1935.69 701.8C1934.64 700.8 1933.57 699.6 1932.69 698.48" fill="#181818"/>
<path d="M1226.29 1759.05C1230.76 1821.56 1315.59 1919.79 1556.68 1919.79C1797.77 1919.79 1962.97 1759.05 1962.97 1759.05C1962.97 1759.05 2170.59 1919.79 2387.12 1919.79C2603.65 1919.79 2680.87 1829.75 2679.56 1772.45L1226.29 1759.05Z" fill="#A16044"/>
<path d="M2294.93 1768.91L2028.95 1766.45C2010.4 1754.53 1997.19 1745.11 1990.75 1740.39V1643.41C2091.96 1651.35 2190 1711.52 2284.01 1762.96C2287.65 1764.96 2291.29 1766.93 2294.93 1768.91M1912.24 1765.37L1642.05 1762.89C1736.03 1711.48 1834.03 1651.35 1935.19 1643.41V1746.71C1932.04 1749.47 1928.72 1752.27 1925.49 1754.91C1921.16 1758.47 1916.73 1761.95 1912.24 1765.37" fill="#874D43"/>
<path d="M1555.13 1892.13C1546.65 1891.99 1538.13 1892.03 1529.65 1891.72C1512.72 1891.09 1495.8 1890.13 1479.09 1888.25C1445.61 1884.71 1412.8 1878.39 1381.32 1869.19C1349.95 1859.85 1319.93 1847.25 1293.93 1829.24C1291.21 1827.33 1288.56 1825.37 1285.96 1823.35C1314.44 1831.71 1355.59 1840.47 1402.87 1840.47C1437.64 1840.47 1475.72 1835.73 1514.56 1822.61C1556.09 1808.59 1598.6 1786.71 1641.93 1762.96C1641.97 1762.93 1642.01 1762.91 1642.05 1762.89L1912.24 1765.37C1910.08 1767.03 1907.89 1768.67 1905.69 1770.29C1892.25 1780.36 1878.25 1789.75 1864.04 1798.77C1835.47 1816.67 1805.44 1832.19 1774.6 1845.55L1751.24 1855.01C1743.43 1858.11 1735.37 1860.47 1727.47 1863.28L1715.57 1867.35C1711.6 1868.69 1707.51 1869.6 1703.48 1870.75L1679.24 1877.33C1646.59 1884.37 1613.53 1890.23 1580.16 1891.13C1571.81 1891.45 1563.53 1891.95 1555.13 1892.13M2386.33 1890.8L2362.41 1889.69L2350.45 1889.17C2346.47 1888.88 2342.48 1888.2 2338.49 1887.73C2315.04 1885 2291.64 1880.72 2268.44 1875.09C2267.6 1874.77 2266.73 1874.51 2265.85 1874.27C2239.47 1867.32 2212.28 1858.29 2185.08 1847.48C2119.95 1821.53 2064.57 1789.36 2028.95 1766.45L2294.93 1768.91C2334.49 1790.33 2373.35 1809.76 2411.39 1822.61C2450.21 1835.73 2488.31 1840.47 2523.08 1840.47C2564.28 1840.47 2600.83 1833.81 2628.39 1826.57C2623.77 1830.36 2618.93 1833.95 2613.97 1837.35C2589.47 1853.85 2560.83 1866.53 2530.25 1874.57C2499.73 1882.73 2467.68 1887.32 2435.25 1889.36C2419.05 1890.4 2402.65 1890.71 2386.33 1890.8" fill="#874D43"/>
<path d="M2692.8 1772.12C2696.76 1792.88 2691.39 1814.17 2682.08 1831.81C2672.83 1849.75 2659.64 1864.95 2644.96 1877.39C2615.36 1902.53 2580.21 1917.09 2545.48 1927.76C2510.49 1938.39 2474.81 1943.85 2439.36 1946.71C2421.6 1948.23 2403.93 1948.69 2386.23 1948.72L2359.11 1947.55L2345.56 1946.93C2341.07 1946.59 2336.63 1945.87 2332.16 1945.36L2305.41 1941.95C2296.55 1940.65 2287.87 1938.56 2279.08 1936.89C2261.43 1933.8 2244.4 1928.73 2227.25 1924.05C2193.36 1913.67 2160.08 1901.61 2128.12 1886.99C2111.92 1880.12 2096.39 1871.99 2080.6 1864.33C2065.13 1856.12 2049.61 1847.99 2034.53 1839.09C2026.89 1834.83 2019.45 1830.21 2011.99 1825.65C2004.47 1821.16 1997.12 1816.39 1989.76 1811.63C1974.92 1801.95 1960.87 1792.43 1945.95 1781.11L1982.4 1779.05C1974.72 1786.23 1968.03 1791.91 1960.73 1797.85C1953.59 1803.75 1946.31 1809.39 1938.96 1814.85C1924.27 1825.88 1909.09 1836.11 1893.67 1845.93C1862.69 1865.39 1830.16 1882.29 1796.57 1896.91C1762.96 1911.59 1727.77 1922.56 1692.11 1931.55C1656.13 1939.27 1619.63 1945.49 1582.68 1946.45C1573.47 1946.77 1564.2 1947.25 1555.04 1947.41C1545.96 1947.23 1536.91 1947.23 1527.83 1946.88C1509.65 1946.13 1491.45 1945.13 1473.24 1943.08C1455.04 1941.31 1436.83 1938.35 1418.67 1934.93C1400.57 1931.01 1382.51 1926.39 1364.77 1920.29C1329.51 1907.76 1294.91 1889.93 1265.95 1863.91C1251.51 1850.87 1238.51 1835.69 1228.81 1818.19C1219.2 1800.77 1212.64 1780.81 1213.13 1760.01C1213.31 1752.69 1219.39 1746.89 1226.71 1747.07C1232.92 1747.21 1238.03 1751.59 1239.35 1757.39L1239.52 1758.16C1242.77 1772.52 1250.13 1786.05 1259.75 1797.91C1269.35 1809.81 1281.05 1820.21 1293.93 1829.24C1319.93 1847.25 1349.95 1859.85 1381.32 1869.19C1412.8 1878.39 1445.61 1884.71 1479.09 1888.25C1495.8 1890.13 1512.72 1891.09 1529.65 1891.72C1538.13 1892.03 1546.65 1891.99 1555.13 1892.13C1563.53 1891.95 1571.81 1891.45 1580.16 1891.13C1613.53 1890.23 1646.59 1884.37 1679.24 1877.33L1703.48 1870.75C1707.51 1869.6 1711.6 1868.69 1715.57 1867.35L1727.47 1863.28C1735.37 1860.47 1743.43 1858.11 1751.24 1855.01L1774.6 1845.55C1805.44 1832.19 1835.47 1816.67 1864.04 1798.77C1878.25 1789.75 1892.25 1780.36 1905.69 1770.29C1912.44 1765.29 1919.07 1760.19 1925.49 1754.91C1931.8 1749.75 1938.44 1743.96 1943.57 1739.13L1943.67 1739.05C1953.85 1729.49 1969.25 1728.95 1980.04 1737.08C1992.28 1746.29 2006.44 1755.88 2020.19 1764.69C2027.13 1769.16 2034.08 1773.63 2041.21 1777.84C2048.29 1782.12 2055.33 1786.44 2062.59 1790.44C2076.88 1798.79 2091.57 1806.37 2106.2 1814.08C2121.09 1821.2 2135.84 1828.68 2151.07 1834.96C2211.39 1861.44 2274.68 1880.29 2338.49 1887.73C2342.48 1888.2 2346.47 1888.88 2350.45 1889.17L2362.41 1889.69L2386.33 1890.8C2402.65 1890.71 2419.05 1890.4 2435.25 1889.36C2467.68 1887.32 2499.73 1882.73 2530.25 1874.57C2560.83 1866.53 2589.47 1853.85 2613.97 1837.35C2638.15 1820.8 2659.33 1799.72 2666.37 1772.72L2666.76 1771.25C2668.61 1764.11 2675.92 1759.83 2683.05 1761.69C2688.2 1763.04 2691.87 1767.23 2692.8 1772.12" fill="#181818"/>
<path d="M1962.97 1786.84C1947.63 1786.84 1935.19 1774.4 1935.19 1759.05V1569.31C1935.19 1553.96 1947.63 1541.53 1962.97 1541.53C1978.32 1541.53 1990.75 1553.96 1990.75 1569.31V1759.05C1990.75 1774.4 1978.32 1786.84 1962.97 1786.84Z" fill="#181818"/>
<path d="M2134.87 1459.73C2134.87 1532.17 2054.16 1611.72 1954.6 1611.72C1855.04 1611.72 1774.33 1532.17 1774.33 1459.73C1774.33 1387.31 1855.04 1349.41 1954.6 1349.41C2054.16 1349.41 2134.87 1387.31 2134.87 1459.73Z" fill="#181818"/>
<path d="M2049.29 1413.6C2049.29 1428.29 2007.15 1440.2 1955.16 1440.2C1903.17 1440.2 1861.03 1428.29 1861.03 1413.6C1861.03 1398.91 1903.17 1387 1955.16 1387C2007.15 1387 2049.29 1398.91 2049.29 1413.6Z" fill="white"/>
<path d="M2318.37 3725.99C2210.72 3725.99 2108.99 3706.88 2024.68 3669.57C1898.05 3613.52 1820.4 3497.96 1811.61 3352.53C1803.6 3219.79 1855.12 3093.07 1936.88 3044.35C2023.97 2992.45 2109.35 3012.65 2153.47 3029.88C2239.41 2804.45 2485.35 2777.41 2496.21 2776.33C2511.48 2774.85 2525.09 2785.97 2526.61 2801.24C2528.12 2816.49 2516.99 2830.11 2501.73 2831.63C2491.45 2832.68 2260.16 2859.13 2196.52 3076.04C2194.09 3084.31 2187.97 3090.97 2179.96 3094.11C2171.95 3097.24 2162.92 3096.47 2155.53 3092.01C2151.72 3089.76 2059.11 3036.2 1965.31 3092.09C1902.71 3129.37 1860.48 3239.91 1867.08 3349.19C1874.56 3473.16 1940.2 3571.41 2047.17 3618.76C2169.99 3673.12 2334.28 3685.29 2497.96 3652.17C2655.36 3620.31 2788.61 3550.21 2854.39 3464.67C2863.73 3452.51 2881.19 3450.24 2893.35 3459.59C2905.51 3468.93 2907.79 3486.37 2898.44 3498.53C2823.63 3595.83 2681.68 3671.67 2508.97 3706.63C2444.95 3719.59 2380.67 3725.99 2318.37 3725.99" fill="#181818"/>
<path d="M2258.79 1901.12C2215.31 2176.28 2179.81 2513.75 2163.43 2681.12C2157.32 2743.21 2108.43 2792.67 2046.33 2799.25C1627.96 2843.71 1360.71 2757.03 1218.96 2685.64C1146.8 2649.32 1124.85 2556.95 1171.73 2491.17C1195.07 2458.6 1218.41 2427.21 1241.81 2396.93C1245.97 2391.51 1250.21 2386.16 1254.45 2380.81C1260.28 2373.32 1266.19 2365.96 1272.03 2358.59C1276.12 2353.52 1280.21 2348.45 1284.32 2343.39C1289.45 2336.99 1294.67 2330.6 1299.87 2324.35C1300.01 2324.15 1300.23 2323.93 1300.43 2323.73C1305.57 2317.33 1310.84 2311.09 1316.12 2304.84C1330.43 2287.83 1344.73 2271.15 1359.12 2254.91C1363.15 2250.32 1367.17 2245.73 1371.27 2241.15C1375.23 2236.71 1379.19 2232.33 1383.15 2227.96C1383.35 2227.68 1383.56 2227.47 1383.77 2227.25C1389.4 2221.08 1394.95 2214.97 1400.51 2208.92C1449.89 2155.45 1498.92 2106.69 1547.12 2062.24C1564.07 2046.61 1580.87 2031.55 1597.61 2017.03C1657.2 1965.08 1715.25 1919.67 1770.83 1879.93C1894.03 1832.36 1969.31 1759.03 1969.31 1759.03C1969.31 1759.03 2055.57 1825.76 2174.81 1873.27C2201.35 1883.83 2229.55 1893.41 2258.79 1901.12" fill="#FF7B22"/>
<path d="M1823 2783.75C1613 2783.75 1452.73 2748.47 1335.65 2705.71C1356.23 2689.39 1377.76 2668.4 1396.51 2642.04C1436.88 2661.8 1485.89 2667 1531.77 2670.77C1614.48 2677.51 1697.2 2684.32 1779.92 2691.12C1802.29 2692.96 1825.43 2694.79 1848.49 2694.79C1864.47 2694.79 1880.41 2693.92 1896.05 2691.56C1921.21 2722.65 1957.39 2751.56 2007.97 2775.13C1942.44 2781.07 1880.83 2783.75 1823 2783.75ZM2173.91 2323.2C2148.84 2317.21 2122.75 2313.37 2096.97 2313.37C2096.49 2313.37 2096.01 2313.37 2095.53 2313.37C2123.39 2177.57 2160.36 2032.05 2193.55 1910C2204.93 1914.04 2216.27 1917.76 2227.52 1921.16C2207.4 2051.47 2189.21 2192.83 2173.91 2323.2Z" fill="#D26228"/>
<path d="M2174.81 1873.27C2115.57 2088.43 2046.33 2367.97 2028.48 2556.25C2028.48 2556.25 2009.87 2561.8 1976.81 2567.71C1913.27 2579.03 1796.11 2591.53 1654.28 2568.12C1529.33 2547.49 1385.23 2498.88 1241.81 2396.93C1245.97 2391.51 1250.21 2386.16 1254.45 2380.81C1260.28 2373.32 1266.19 2365.96 1272.03 2358.59C1276.12 2353.52 1280.21 2348.45 1284.32 2343.39C1289.45 2336.99 1294.67 2330.6 1299.87 2324.35C1300.01 2324.15 1300.23 2323.93 1300.43 2323.73C1305.57 2317.33 1310.84 2311.09 1316.12 2304.84C1330.43 2287.83 1344.73 2271.15 1359.12 2254.91C1363.15 2250.32 1367.17 2245.73 1371.27 2241.15C1375.23 2236.71 1379.19 2232.33 1383.15 2227.96C1383.35 2227.68 1383.56 2227.47 1383.77 2227.25C1389.4 2221.08 1394.95 2214.97 1400.51 2208.92C1449.89 2155.45 1498.92 2106.69 1547.12 2062.24C1564.07 2046.61 1580.87 2031.55 1597.61 2017.03C1597.89 2016.83 1598.16 2016.55 1598.44 2016.33C1601.92 2013.28 1605.32 2010.29 1608.79 2007.37C1612.47 2004.19 1616.15 2000.99 1619.91 1997.87C1630.95 1988.41 1641.99 1979.19 1652.96 1970.23C1664 1961.19 1674.91 1952.37 1685.75 1943.89C1714.64 1921.05 1743.04 1899.8 1770.83 1879.93C1894.03 1832.36 1969.31 1759.03 1969.31 1759.03C1969.31 1759.03 2055.57 1825.76 2174.81 1873.27" fill="#FFD217"/>
<path d="M1614.09 2532.25C1552.17 2518.99 1492.09 2499.63 1434.13 2474.33C1432.73 2469.92 1431.15 2465.51 1429.4 2461.12C1446.56 2458.91 1463.19 2454.91 1479.04 2449.31C1510.97 2465.72 1544.71 2479.76 1579.69 2489.85C1590.16 2492.88 1600.55 2495.56 1610.81 2497.95C1610.95 2509.57 1612.05 2521.03 1614.09 2532.25ZM1999.43 2334.2L2101.61 1935.08L1992.29 1873.89C1988.95 1876.13 1985.57 1878.33 1982.21 1880.51C1974.32 1874 1965.75 1868.31 1956.59 1863.57C1938.71 1854.31 1918.65 1848.65 1897.39 1847.6C1930.67 1826.89 1955.65 1807.49 1971.01 1794.61C1971.15 1794.71 1971.27 1794.8 1971.4 1794.88C1971.4 1794.88 1971.4 1794.89 1971.41 1794.89C1971.53 1794.97 1971.65 1795.05 1971.77 1795.15C1971.79 1795.15 1971.79 1795.16 1971.8 1795.17C1971.92 1795.24 1972.03 1795.32 1972.13 1795.4C1972.15 1795.41 1972.17 1795.43 1972.2 1795.44C1972.24 1795.48 1972.29 1795.51 1972.33 1795.53C1972.35 1795.55 1972.36 1795.56 1972.37 1795.57C1972.43 1795.6 1972.48 1795.64 1972.52 1795.67C1972.53 1795.68 1972.56 1795.69 1972.57 1795.71C1972.63 1795.75 1972.68 1795.77 1972.72 1795.81C1972.73 1795.81 1972.75 1795.83 1972.76 1795.84C1972.8 1795.87 1972.85 1795.89 1972.89 1795.92C1972.92 1795.95 1972.93 1795.96 1972.96 1795.97C1973.09 1796.07 1973.21 1796.15 1973.33 1796.24C1973.36 1796.24 1973.37 1796.25 1973.39 1796.27C1973.51 1796.35 1973.61 1796.43 1973.73 1796.51C1973.75 1796.52 1973.77 1796.53 1973.8 1796.56C1973.84 1796.59 1973.88 1796.61 1973.92 1796.64C1973.95 1796.67 1973.97 1796.68 1974.01 1796.69C1974.04 1796.72 1974.07 1796.75 1974.09 1796.76C1974.13 1796.79 1974.17 1796.81 1974.21 1796.84C1974.24 1796.85 1974.28 1796.88 1974.31 1796.91C1974.33 1796.93 1974.36 1796.95 1974.4 1796.97C1974.44 1797 1974.48 1797.03 1974.52 1797.05C1974.55 1797.07 1974.56 1797.08 1974.57 1797.09C1974.64 1797.13 1974.69 1797.17 1974.75 1797.21C1974.76 1797.21 1974.77 1797.23 1974.77 1797.23C1974.91 1797.32 1975.04 1797.41 1975.16 1797.49C1975.17 1797.51 1975.19 1797.52 1975.2 1797.52C1975.33 1797.61 1975.47 1797.71 1975.6 1797.8C1975.67 1797.84 1975.73 1797.89 1975.79 1797.93C1975.81 1797.95 1975.84 1797.96 1975.87 1797.97C1975.91 1798.01 1975.96 1798.04 1976 1798.08C1976.01 1798.08 1976.03 1798.09 1976.04 1798.11C1976.09 1798.15 1976.15 1798.17 1976.21 1798.21C1976.23 1798.23 1976.24 1798.24 1976.27 1798.25C1976.32 1798.29 1976.37 1798.33 1976.43 1798.36C1976.44 1798.37 1976.45 1798.39 1976.47 1798.39C1976.51 1798.43 1976.56 1798.45 1976.61 1798.49C1976.64 1798.51 1976.67 1798.53 1976.69 1798.55C1976.73 1798.57 1976.77 1798.6 1976.81 1798.64C1976.84 1798.65 1976.87 1798.67 1976.89 1798.68C1976.93 1798.71 1976.97 1798.75 1977.01 1798.77C1977.05 1798.8 1977.08 1798.81 1977.11 1798.84C1977.13 1798.85 1977.15 1798.85 1977.16 1798.87C1977.55 1799.13 1977.92 1799.39 1978.31 1799.65C2000.63 1814.89 2036.15 1837.57 2080.69 1860.65C2080.75 1860.68 2080.79 1860.71 2080.84 1860.73C2080.92 1860.77 2081 1860.81 2081.08 1860.85C2081.15 1860.89 2081.21 1860.92 2081.28 1860.96C2081.33 1860.99 2081.4 1861.03 2081.45 1861.05C2081.55 1861.11 2081.64 1861.15 2081.73 1861.19C2081.77 1861.21 2081.81 1861.24 2081.85 1861.25C2081.97 1861.32 2082.09 1861.39 2082.21 1861.44C2082.23 1861.45 2082.24 1861.45 2082.25 1861.47C2100.6 1870.93 2120.45 1880.45 2141.53 1889.56C2106.17 2019.29 2066.25 2176.41 2037.25 2321.36C2030.32 2323.37 2023.49 2325.8 2016.8 2328.68C2010.85 2330.33 2005.05 2332.19 1999.43 2334.2M1650.47 2008.36C1688.36 1976.6 1726.91 1946.36 1765.8 1917.87C1765.11 1919.01 1764.43 1920.17 1763.77 1921.33C1752.97 1940.53 1746.43 1962.45 1745.4 1985.8C1711.45 1995.56 1679.4 2002.87 1650.47 2008.36Z" fill="#D2A81F"/>
<path d="M1405.41 2244.56L1405.21 2244.81L1405.41 2244.56ZM1405.21 2244.84L1405.19 2244.87L1405.21 2244.84ZM1404.12 2246.17C1403.99 2246.32 1403.87 2246.47 1403.72 2246.61C1399.81 2250.93 1395.91 2255.25 1391.99 2259.65C1388.35 2263.73 1384.77 2267.79 1381.21 2271.84L1379.96 2273.27C1366.39 2288.61 1352.48 2304.77 1337.37 2322.73C1331.93 2329.13 1326.65 2335.43 1321.43 2341.87C1316.09 2348.28 1310.99 2354.55 1305.95 2360.81L1288.76 2382.17C1284.63 2387.37 1280.48 2392.6 1276.36 2397.89L1275.44 2399.05C1271.55 2403.99 1267.65 2408.89 1263.81 2413.88C1240.77 2443.69 1217.4 2475.13 1194.31 2507.36C1176.49 2532.36 1170.48 2563.79 1177.85 2593.55C1185.09 2622.81 1204.63 2647.35 1231.44 2660.84C1378.85 2735.08 1639.37 2814.57 2043.39 2771.65C2092.11 2766.47 2130.96 2727.25 2135.76 2678.41C2152.27 2509.88 2185.76 2191.69 2227.52 1921.16C2206.71 1914.87 2185.61 1907.48 2164.53 1899.09C2074.45 1863.21 2003.29 1817.17 1971.01 1794.61C1941.37 1819.47 1875.89 1868.59 1784.13 1904.57C1709.63 1957.97 1636.23 2017.88 1565.93 2082.68C1516.53 2128.24 1467.75 2177.07 1420.91 2227.79C1415.73 2233.41 1410.53 2239.13 1405.27 2244.91L1404.31 2245.97L1404.12 2246.17M1823.25 2839.28C1531.24 2839.28 1330.72 2773.05 1206.45 2710.47C1165.15 2689.67 1135.05 2651.92 1123.91 2606.89C1112.65 2561.37 1121.83 2513.32 1149.11 2475.07C1172.61 2442.23 1196.4 2410.25 1219.81 2379.95C1223.76 2374.83 1227.81 2369.69 1231.87 2364.59L1232.65 2363.59C1236.75 2358.33 1241.01 2352.95 1245.27 2347.6L1262.69 2325.93C1267.89 2319.47 1273.21 2312.96 1278.52 2306.57C1283.76 2300.11 1289.31 2293.49 1294.95 2286.87C1310.25 2268.65 1324.45 2252.15 1338.29 2236.52L1339.49 2235.15C1343.16 2230.97 1346.81 2226.81 1350.55 2222.65C1354.36 2218.37 1358.19 2214.12 1362.03 2209.88C1362.53 2209.29 1363.04 2208.73 1363.55 2208.21L1364.17 2207.52C1369.51 2201.67 1374.77 2195.87 1380.04 2190.13C1427.92 2138.28 1477.79 2088.4 1528.27 2041.83C1601.15 1974.65 1677.31 1912.59 1754.65 1857.35C1756.56 1855.99 1758.61 1854.88 1760.8 1854.04C1876.71 1809.28 1949.21 1739.81 1949.93 1739.11C1959.87 1729.49 1975.37 1728.61 1986.29 1737.07C1987.12 1737.71 2071.19 1802.11 2185.08 1847.48C2212.28 1858.29 2239.47 1867.32 2265.85 1874.27C2279.64 1877.91 2288.44 1891.39 2286.21 1905.47C2242.89 2179.61 2208 2510.81 2191.05 2683.84C2183.68 2758.79 2124.05 2818.95 2049.25 2826.89C1968.53 2835.47 1893.25 2839.28 1823.25 2839.28" fill="#181818"/>
<path d="M1405.41 2244.56L1405.4 2244.59L1405.41 2244.56ZM1405.39 2244.6L1405.36 2244.61L1405.39 2244.6ZM1405.36 2244.63L1405.35 2244.65L1405.36 2244.63ZM1405.33 2244.67L1405.32 2244.68L1405.33 2244.67ZM1405.31 2244.69L1405.29 2244.71L1405.31 2244.69ZM1281.88 2390.85C1397.39 2468.11 1524.04 2518.49 1658.79 2540.73C1799.32 2563.92 1915.29 2550.47 1971.92 2540.37C1984.51 2538.13 1994.91 2535.93 2002.81 2534.12C2023.04 2349.11 2087.57 2087.49 2141.53 1889.56C2062.41 1855.41 2000.49 1815.23 1971.01 1794.61C1941.37 1819.47 1875.89 1868.59 1784.13 1904.57C1709.63 1957.97 1636.23 2017.88 1565.93 2082.68C1516.53 2128.24 1467.75 2177.07 1420.91 2227.79C1415.73 2233.41 1410.53 2239.13 1405.27 2244.91L1404.31 2245.97L1404.12 2246.17C1403.99 2246.32 1403.87 2246.47 1403.72 2246.61C1399.81 2250.93 1395.91 2255.25 1391.99 2259.65C1388.35 2263.73 1384.77 2267.79 1381.21 2271.84L1379.96 2273.27C1366.39 2288.61 1352.48 2304.77 1337.37 2322.73C1331.93 2329.13 1326.65 2335.43 1321.43 2341.87C1316.09 2348.28 1310.99 2354.55 1305.95 2360.81L1288.76 2382.17C1286.48 2385.05 1284.17 2387.95 1281.88 2390.85M1815.64 2609.07C1766.23 2609.07 1710.11 2605.51 1649.75 2595.55C1497.19 2570.37 1354.52 2511.17 1225.69 2419.59C1219.55 2415.21 1215.44 2408.52 1214.32 2401.05C1213.21 2393.59 1215.17 2385.99 1219.77 2380C1223.76 2374.83 1227.81 2369.69 1231.87 2364.59L1232.65 2363.59C1236.75 2358.33 1241.01 2352.95 1245.27 2347.6L1262.69 2325.93C1267.89 2319.47 1273.21 2312.96 1278.52 2306.57C1283.76 2300.11 1289.31 2293.49 1294.95 2286.87C1310.25 2268.65 1324.45 2252.15 1338.29 2236.52L1339.49 2235.15C1343.16 2230.97 1346.81 2226.81 1350.55 2222.65C1354.36 2218.37 1358.19 2214.12 1362.04 2209.88C1362.53 2209.28 1363.04 2208.73 1363.55 2208.21L1364.16 2207.52C1369.51 2201.67 1374.77 2195.87 1380.04 2190.13C1427.92 2138.28 1477.79 2088.4 1528.27 2041.83C1601.15 1974.65 1677.31 1912.59 1754.65 1857.35C1756.56 1855.99 1758.61 1854.88 1760.8 1854.04C1877.35 1809.03 1949.2 1739.83 1949.91 1739.13C1959.83 1729.48 1975.35 1728.6 1986.29 1737.07C1987.12 1737.71 2071.19 1802.11 2185.08 1847.48C2198.24 1852.72 2205.35 1867 2201.59 1880.65C2145.12 2085.75 2074.04 2369.89 2056.12 2558.89C2055.05 2570.16 2047.25 2579.65 2036.41 2582.89C2035.59 2583.13 2015.89 2588.96 1981.68 2595.08C1945.95 2601.44 1887.99 2609.07 1815.64 2609.07" fill="#181818"/>
<path d="M1992.28 2495.36C1992.28 2521.12 1986.8 2545.64 1976.8 2567.72C1913.25 2579.04 1796.08 2591.55 1654.27 2568.15C1644.13 2545.92 1638.57 2521.27 1638.57 2495.36C1638.57 2397.71 1717.75 2318.53 1815.47 2318.53C1913.11 2318.53 1992.28 2397.71 1992.28 2495.36" fill="#FF2929"/>
<path d="M1730.11 2441.39C1724.23 2430.36 1720.88 2417.87 1720.81 2404.65C1720.81 2404.39 1720.81 2404.13 1720.81 2403.87C1720.81 2395.37 1721.41 2387.01 1722.57 2378.84C1748.08 2358.49 1780.37 2346.31 1815.47 2346.31C1854.13 2346.31 1889.41 2361.12 1915.93 2385.36C1906.95 2393.91 1898.88 2402.97 1891.72 2412.33C1874.96 2407.07 1857.12 2404.23 1838.6 2404.23C1797.72 2404.23 1760.07 2418.09 1730.11 2441.39Z" fill="#FFA9A9"/>
<path d="M1815.69 2553.53C1773.24 2553.53 1725.48 2550.75 1674.19 2543.15C1672.47 2538.12 1671.04 2533.01 1669.88 2527.84C1680.79 2493.2 1702.08 2463.17 1730.11 2441.39C1742.59 2464.8 1766.49 2481.55 1794.43 2484.48C1814.91 2486.63 1834.72 2488.07 1853.76 2488.92C1846.53 2503.05 1843.53 2519.6 1844.37 2535.56C1844.63 2540.2 1845.16 2544.8 1845.93 2549.35C1845.93 2550.57 1845.95 2551.83 1845.96 2553.07C1836.21 2553.36 1826.11 2553.53 1815.69 2553.53" fill="#D2212D"/>
<path d="M1669.88 2527.84C1667.53 2517.29 1666.35 2506.44 1666.35 2495.36C1666.35 2448.25 1688.33 2406.17 1722.57 2378.84C1721.41 2387.01 1720.81 2395.37 1720.81 2403.87C1720.81 2404.13 1720.81 2404.39 1720.81 2404.65C1720.88 2417.87 1724.23 2430.36 1730.11 2441.39C1702.08 2463.17 1680.79 2493.2 1669.88 2527.84Z" fill="#D28794"/>
<path d="M1614.4 2219.01C1614.4 2338.47 1517.52 2435.35 1397.99 2435.35C1342.92 2435.35 1292.64 2414.72 1254.44 2380.83C1352.57 2255.61 1451.4 2150.47 1547.11 2062.27C1588.56 2101.64 1614.4 2157.27 1614.4 2219.01Z" fill="#FF2929"/>
<path d="M1369.88 2343.11C1356.43 2343.11 1343.28 2341.88 1330.52 2339.53C1329.04 2338.44 1327.55 2337.36 1326.04 2336.29C1395.99 2251.99 1469.56 2173.35 1545.64 2101.6C1562.71 2122.92 1574.76 2147.39 1581.19 2173.65C1577.28 2191.33 1571.2 2208.21 1563.25 2223.97C1553.23 2216.35 1540.92 2212.37 1528.51 2212.37C1514.19 2212.37 1499.73 2217.64 1488.39 2228.64C1451.77 2264.19 1414.81 2302.23 1377.69 2342.96C1375.09 2343.05 1372.49 2343.11 1369.88 2343.11" fill="#FFA9A9"/>
<path d="M1398.61 2407.57C1395.95 2404.07 1393.17 2400.61 1390.29 2397.2V2397.13C1384.53 2390.32 1378.35 2383.68 1371.77 2377.28C1367.65 2372.63 1363.36 2368.13 1358.93 2363.77C1365.19 2356.76 1371.44 2349.83 1377.69 2342.96C1458.92 2340.08 1528.75 2292.44 1563.25 2223.97C1569.75 2228.91 1575.28 2235.36 1579.29 2243.27C1580.81 2246.27 1582.28 2249.31 1583.67 2252.4C1567.88 2340.31 1490.96 2407.28 1398.61 2407.57Z" fill="#D2212D"/>
<path d="M1358.93 2363.77C1350.04 2355.05 1340.53 2346.93 1330.52 2339.53C1343.28 2341.88 1356.43 2343.11 1369.88 2343.11C1372.49 2343.11 1375.09 2343.05 1377.69 2342.96C1371.44 2349.83 1365.19 2356.76 1358.93 2363.77ZM1583.67 2252.4C1582.28 2249.31 1580.81 2246.27 1579.29 2243.27C1575.28 2235.36 1569.75 2228.91 1563.25 2223.97C1571.2 2208.21 1577.28 2191.33 1581.19 2173.65C1584.77 2188.29 1586.63 2203.49 1586.63 2219.01C1586.63 2230.4 1585.6 2241.56 1583.67 2252.4Z" fill="#D28794"/>
<path d="M2034.88 1992.23C2034.88 2072.2 1970.04 2137.03 1890.07 2137.03C1810.11 2137.03 1745.27 2072.2 1745.27 1992.23C1745.27 1912.25 1810.11 1847.41 1890.07 1847.41C1970.04 1847.41 2034.88 1912.25 2034.88 1992.23Z" fill="#FF2929"/>
<path d="M1748.87 2024.48C1746.65 2014.77 1745.43 2004.71 1745.28 1994.4C1745.43 2004.72 1746.67 2014.79 1748.87 2024.48ZM1745.28 1994.31C1745.28 1994.24 1745.28 1994.17 1745.28 1994.11C1745.28 1994.16 1745.28 1994.24 1745.28 1994.31ZM1745.27 1993.85C1745.27 1993.8 1745.27 1993.76 1745.27 1993.71C1745.27 1993.76 1745.27 1993.8 1745.27 1993.85ZM1745.27 1993.45C1745.27 1993.41 1745.27 1993.39 1745.27 1993.36C1745.27 1993.39 1745.27 1993.41 1745.27 1993.45ZM1745.27 1993.07C1745.27 1993.04 1745.27 1993.01 1745.27 1992.99C1745.27 1993.01 1745.27 1993.04 1745.27 1993.07ZM1745.27 1992.65C1745.27 1992.63 1745.27 1992.61 1745.27 1992.59C1745.27 1992.61 1745.27 1992.63 1745.27 1992.65ZM1745.27 1992.24C1745.27 1990.08 1745.31 1987.93 1745.4 1985.8C1745.41 1985.8 1745.4 1985.8 1745.41 1985.8C1745.37 1986.53 1745.35 1987.27 1745.33 1988C1745.28 1989.41 1745.27 1990.83 1745.27 1992.24Z" fill="#FFEDA2"/>
<path d="M1745.4 1985.8C1746.43 1962.45 1752.97 1940.53 1763.77 1921.33C1752.97 1940.55 1746.43 1962.45 1745.41 1985.8C1745.4 1985.8 1745.41 1985.8 1745.4 1985.8Z" fill="#EDDCA5"/>
<path d="M1997.16 1894.75C1992.52 1889.65 1987.52 1884.89 1982.2 1880.51H1982.21C1987.52 1884.89 1992.52 1889.65 1997.16 1894.75" fill="#FFEDA2"/>
<path d="M1982.2 1880.51C1974.32 1874 1965.73 1868.31 1956.59 1863.57C1965.75 1868.31 1974.32 1874 1982.21 1880.51H1982.2" fill="#EDDCA5"/>
<path d="M1766.23 1995.95C1758.93 1990.47 1752.17 1984.32 1746.03 1977.59C1745.68 1981 1745.44 1984.49 1745.33 1988C1745.35 1987.27 1745.37 1986.53 1745.41 1985.8C1746.43 1962.45 1752.97 1940.55 1763.77 1921.33C1788.6 1877.21 1835.87 1847.43 1890.07 1847.43C1914.05 1847.43 1936.67 1853.25 1956.59 1863.57C1965.73 1868.31 1974.32 1874 1982.2 1880.51C1987.52 1884.89 1992.52 1889.65 1997.16 1894.75C1995.45 1911.79 1990.8 1927.96 1983.71 1942.73C1959.51 1924.55 1929.41 1913.76 1896.8 1913.76C1839.28 1913.76 1789.57 1947.32 1766.23 1995.95ZM2034.87 1993.13C2034.87 1993.13 2034.87 1993.13 2034.87 1993.12C2034.87 1993.13 2034.87 1993.13 2034.87 1993.13ZM2034.87 1992.87C2034.87 1992.85 2034.87 1992.81 2034.87 1992.79C2034.87 1992.81 2034.87 1992.84 2034.87 1992.87ZM2034.87 1992.59C2034.87 1992.56 2034.87 1992.53 2034.87 1992.51C2034.87 1992.53 2034.87 1992.56 2034.87 1992.59ZM2034.87 1992.24C2034.87 1992.09 2034.87 1991.96 2034.87 1991.83C2034.87 1991.96 2034.87 1992.11 2034.87 1992.24ZM2034.87 1991.79C2034.87 1991.65 2034.87 1991.53 2034.87 1991.4C2034.87 1991.52 2034.87 1991.67 2034.87 1991.79ZM2034.87 1991.33C2034.87 1991.21 2034.87 1991.09 2034.87 1990.97C2034.87 1991.09 2034.87 1991.21 2034.87 1991.33ZM2034.87 1990.88C2034.87 1990.76 2034.87 1990.65 2034.87 1990.53C2034.87 1990.64 2034.87 1990.76 2034.87 1990.88ZM2034.87 1990.43C2034.87 1990.32 2034.85 1990.2 2034.85 1990.09C2034.85 1990.2 2034.87 1990.32 2034.87 1990.43ZM2034.85 1989.96C2034.85 1989.87 2034.85 1989.77 2034.85 1989.68C2034.85 1989.77 2034.85 1989.87 2034.85 1989.96ZM2034.85 1989.48C2034.84 1989.43 2034.84 1989.37 2034.84 1989.32C2034.84 1989.37 2034.84 1989.43 2034.85 1989.48ZM2034.84 1989C2034.84 1988.97 2034.84 1988.95 2034.84 1988.92C2034.84 1988.95 2034.84 1988.97 2034.84 1989Z" fill="#FFA9A9"/>
<path d="M1890.07 2137.04C1861.03 2137.04 1833.97 2128.48 1811.29 2113.75C1833.97 2128.47 1861.03 2137.03 1890.07 2137.03C1956.96 2137.03 2013.24 2091.68 2029.88 2030.07C2013.25 2091.67 1956.97 2137.04 1890.07 2137.04M1759.21 2054.31C1754.73 2044.88 1751.24 2034.89 1748.87 2024.48C1749.2 2025.92 1749.55 2027.35 1749.92 2028.77C1752.23 2037.65 1755.36 2046.19 1759.21 2054.31M1745.28 1994.4C1745.28 1994.36 1745.28 1994.33 1745.28 1994.31C1745.28 1994.33 1745.28 1994.36 1745.28 1994.4ZM1745.28 1994.11C1745.27 1994.01 1745.27 1993.93 1745.27 1993.85C1745.27 1993.93 1745.27 1994.01 1745.28 1994.11ZM1745.27 1993.71C1745.27 1993.63 1745.27 1993.53 1745.27 1993.45C1745.27 1993.53 1745.27 1993.63 1745.27 1993.71ZM1745.27 1993.36C1745.27 1993.27 1745.27 1993.16 1745.27 1993.07C1745.27 1993.16 1745.27 1993.27 1745.27 1993.36ZM1745.27 1992.99C1745.27 1992.87 1745.27 1992.76 1745.27 1992.65C1745.27 1992.76 1745.27 1992.88 1745.27 1992.99ZM1745.27 1992.59C1745.27 1992.47 1745.27 1992.36 1745.27 1992.24C1745.27 1992.36 1745.27 1992.47 1745.27 1992.59ZM2033.85 1974.96C2033.85 1974.88 2033.84 1974.79 2033.83 1974.71C2033.84 1974.79 2033.85 1974.88 2033.85 1974.96ZM2033.83 1974.68C2032.75 1965.73 2030.85 1957.05 2028.21 1948.68C2021.84 1928.41 2011.12 1910.07 1997.16 1894.75C1997.16 1894.73 1997.16 1894.73 1997.16 1894.73C2016.92 1916.41 2030.13 1944.07 2033.83 1974.68Z" fill="#D2A81F"/>
<path d="M1890.07 2137.03C1861.03 2137.03 1833.97 2128.47 1811.29 2113.75C1788.89 2099.19 1770.77 2078.61 1759.21 2054.31C1755.36 2046.19 1752.23 2037.65 1749.92 2028.77C1750.89 2032.47 1752 2036.11 1753.25 2039.67C1755.27 2024.2 1759.72 2009.49 1766.23 1995.95C1790.44 2014.13 1820.51 2024.88 1853.12 2024.88C1910.64 2024.88 1960.36 1991.35 1983.71 1942.73C2006.51 1959.88 2024.09 1983.6 2033.63 2011.05C2034.41 2005.17 2034.83 1999.21 2034.87 1993.13C2034.79 2005.91 2033.07 2018.28 2029.88 2030.07C2013.24 2091.68 1956.96 2137.03 1890.07 2137.03M2034.87 1993.12C2034.87 1993.04 2034.87 1992.96 2034.87 1992.87C2034.87 1992.96 2034.87 1993.04 2034.87 1993.12ZM2034.87 1992.79C2034.87 1992.72 2034.87 1992.65 2034.87 1992.59C2034.87 1992.65 2034.87 1992.72 2034.87 1992.79ZM2034.87 1992.51C2034.87 1992.41 2034.87 1992.33 2034.87 1992.24C2034.87 1992.33 2034.87 1992.41 2034.87 1992.51ZM2034.87 1991.83C2034.87 1991.8 2034.87 1991.8 2034.87 1991.79C2034.87 1991.8 2034.87 1991.81 2034.87 1991.83ZM2034.87 1991.4C2034.87 1991.37 2034.87 1991.36 2034.87 1991.33C2034.87 1991.36 2034.87 1991.37 2034.87 1991.4ZM2034.87 1990.97C2034.87 1990.95 2034.87 1990.91 2034.87 1990.88C2034.87 1990.91 2034.87 1990.93 2034.87 1990.97ZM2034.87 1990.53C2034.87 1990.49 2034.87 1990.47 2034.87 1990.43C2034.87 1990.45 2034.87 1990.49 2034.87 1990.53ZM2034.85 1990.09C2034.85 1990.05 2034.85 1990 2034.85 1989.96C2034.85 1990 2034.85 1990.05 2034.85 1990.09ZM2034.85 1989.68C2034.85 1989.61 2034.85 1989.55 2034.85 1989.48C2034.85 1989.55 2034.85 1989.61 2034.85 1989.68ZM2034.84 1989.32C2034.84 1989.21 2034.84 1989.11 2034.84 1989C2034.84 1989.11 2034.84 1989.21 2034.84 1989.32ZM2034.84 1988.92C2034.52 1974.93 2032.23 1961.43 2028.21 1948.68C2030.85 1957.05 2032.75 1965.73 2033.83 1974.68C2033.83 1974.69 2033.83 1974.69 2033.83 1974.71C2033.84 1974.79 2033.85 1974.88 2033.85 1974.96C2034.4 1979.56 2034.73 1984.21 2034.84 1988.92" fill="#D2212D"/>
<path d="M1749.92 2028.77C1749.55 2027.35 1749.2 2025.92 1748.87 2024.48C1746.67 2014.79 1745.43 2004.72 1745.28 1994.4C1745.28 1994.36 1745.28 1994.33 1745.28 1994.31C1745.28 1994.24 1745.28 1994.16 1745.28 1994.11C1745.27 1994.01 1745.27 1993.93 1745.27 1993.85C1745.27 1993.8 1745.27 1993.76 1745.27 1993.71C1745.27 1993.63 1745.27 1993.53 1745.27 1993.45C1745.27 1993.41 1745.27 1993.39 1745.27 1993.36C1745.27 1993.27 1745.27 1993.16 1745.27 1993.07C1745.27 1993.04 1745.27 1993.01 1745.27 1992.99C1745.27 1992.88 1745.27 1992.76 1745.27 1992.65C1745.27 1992.63 1745.27 1992.61 1745.27 1992.59C1745.27 1992.47 1745.27 1992.36 1745.27 1992.24C1745.27 1990.83 1745.28 1989.41 1745.33 1988C1745.29 1989.4 1745.27 1990.81 1745.27 1992.23C1745.27 2004.85 1746.88 2017.11 1749.92 2028.77ZM2028.21 1948.68C2021.84 1928.43 2011.12 1910.08 1997.16 1894.75C2011.12 1910.07 2021.84 1928.41 2028.21 1948.68Z" fill="#D2BE8E"/>
<path d="M1753.25 2039.67C1752 2036.11 1750.89 2032.47 1749.92 2028.77C1746.88 2017.11 1745.27 2004.85 1745.27 1992.23C1745.27 1990.81 1745.29 1989.4 1745.33 1988C1745.44 1984.49 1745.68 1981 1746.03 1977.59C1752.17 1984.32 1758.93 1990.47 1766.23 1995.95C1759.72 2009.49 1755.27 2024.2 1753.25 2039.67M2033.63 2011.05C2024.09 1983.6 2006.51 1959.88 1983.71 1942.73C1990.8 1927.96 1995.45 1911.79 1997.16 1894.75C2011.12 1910.08 2021.84 1928.43 2028.21 1948.68C2032.23 1961.43 2034.52 1974.93 2034.84 1988.92C2034.84 1988.95 2034.84 1988.97 2034.84 1989C2034.84 1989.11 2034.84 1989.21 2034.84 1989.32C2034.84 1989.37 2034.84 1989.43 2034.85 1989.48C2034.85 1989.55 2034.85 1989.61 2034.85 1989.68C2034.85 1989.77 2034.85 1989.87 2034.85 1989.96C2034.85 1990 2034.85 1990.05 2034.85 1990.09C2034.85 1990.2 2034.87 1990.32 2034.87 1990.43C2034.87 1990.47 2034.87 1990.49 2034.87 1990.53C2034.87 1990.65 2034.87 1990.76 2034.87 1990.88C2034.87 1990.91 2034.87 1990.95 2034.87 1990.97C2034.87 1991.09 2034.87 1991.21 2034.87 1991.33C2034.87 1991.36 2034.87 1991.37 2034.87 1991.4C2034.87 1991.53 2034.87 1991.65 2034.87 1991.79C2034.87 1991.8 2034.87 1991.8 2034.87 1991.83C2034.87 1991.96 2034.87 1992.09 2034.87 1992.24C2034.87 1992.33 2034.87 1992.41 2034.87 1992.51C2034.87 1992.53 2034.87 1992.56 2034.87 1992.59C2034.87 1992.65 2034.87 1992.72 2034.87 1992.79C2034.87 1992.81 2034.87 1992.85 2034.87 1992.87C2034.87 1992.96 2034.87 1993.04 2034.87 1993.12C2034.87 1993.13 2034.87 1993.13 2034.87 1993.13C2034.83 1999.21 2034.41 2005.17 2033.63 2011.05" fill="#D28794"/>
<path d="M1674.19 2543.15C1796.36 2561.25 1898.48 2552.04 1956.76 2542.92C1961.91 2527.73 1964.51 2511.8 1964.51 2495.36C1964.51 2413.17 1897.64 2346.31 1815.47 2346.31C1733.24 2346.31 1666.35 2413.17 1666.35 2495.36C1666.35 2511.88 1668.99 2527.89 1674.19 2543.15M1976.8 2567.72H1976.87H1976.8ZM1815.65 2609.07C1766.23 2609.07 1710.11 2605.51 1649.75 2595.55C1640.61 2594.05 1632.84 2588.09 1629 2579.67C1616.92 2553.2 1610.79 2524.83 1610.79 2495.36C1610.79 2382.53 1702.61 2290.75 1815.47 2290.75C1928.28 2290.75 2020.07 2382.53 2020.07 2495.36C2020.07 2524.65 2014.03 2552.85 2002.11 2579.19C1998.33 2587.52 1990.68 2593.47 1981.67 2595.08C1945.95 2601.44 1887.99 2609.07 1815.65 2609.07" fill="#181818"/>
<path d="M1293.65 2376.05C1324.41 2396.52 1360.64 2407.57 1397.99 2407.57C1502 2407.57 1586.63 2322.97 1586.63 2219.01C1586.63 2175.64 1572.23 2134.79 1545.64 2101.6C1457.73 2184.51 1373.15 2276.63 1293.65 2376.05ZM1397.99 2463.13C1338.24 2463.13 1280.71 2441.28 1236 2401.61C1225.01 2391.87 1223.51 2375.25 1232.57 2363.69C1324.95 2245.83 1424.44 2137.53 1528.28 2041.83C1539.03 2031.92 1555.63 2032.04 1566.24 2042.11C1615.21 2088.63 1642.19 2151.45 1642.19 2219.01C1642.19 2353.61 1532.64 2463.13 1397.99 2463.13" fill="#181818"/>
<path d="M1890.07 1875.2C1825.55 1875.2 1773.05 1927.69 1773.05 1992.23C1773.05 2056.75 1825.55 2109.25 1890.07 2109.25C1954.6 2109.25 2007.09 2056.75 2007.09 1992.23C2007.09 1927.69 1954.6 1875.2 1890.07 1875.2ZM1890.07 2164.81C1794.91 2164.81 1717.49 2087.39 1717.49 1992.23C1717.49 1897.07 1794.91 1819.64 1890.07 1819.64C1985.24 1819.64 2062.65 1897.07 2062.65 1992.23C2062.65 2087.39 1985.24 2164.81 1890.07 2164.81Z" fill="#181818"/>
<path d="M2286.25 1371.89C2291.84 1366.52 2296.81 1362.16 2302.45 1357.97C2307.92 1353.65 2313.75 1350 2319.56 1346.2C2325.45 1342.56 2331.57 1339.35 2337.72 1336.05C2343.99 1333.09 2350.29 1330.07 2356.79 1327.52C2382.69 1317 2410.83 1310.87 2439.41 1309.87C2467.88 1308.97 2497.07 1311.92 2524.12 1321.12C2538.04 1324.68 2550.67 1331.25 2563.56 1337.03L2568.33 1339.32L2572.83 1342.07L2581.77 1347.6C2587.68 1351.35 2593.51 1355.21 2599.23 1359.17C2611.79 1367.92 2614.89 1385.19 2606.16 1397.76C2598.64 1408.56 2584.81 1412.37 2573.09 1407.67L2569.96 1406.4C2564.45 1404.2 2559.07 1401.88 2553.79 1399.44C2551.12 1398.27 2548.52 1396.96 2545.91 1395.72L2541.99 1393.84L2537.92 1392.41L2521.85 1386.35C2516.63 1383.93 2511.12 1382.63 2505.68 1381.05C2500.2 1379.68 2494.91 1377.53 2489.41 1376.32C2483.89 1375.23 2478.36 1374.19 2472.87 1372.96C2467.4 1371.37 2461.75 1371.31 2456.17 1370.45C2450.57 1369.71 2444.96 1368.97 2439.31 1368.89C2416.68 1367.19 2393.61 1369.05 2370.53 1373.29C2364.75 1374.28 2359.11 1375.92 2353.23 1377C2347.51 1378.47 2341.75 1380.05 2336 1381.73C2324.67 1385.04 2312.84 1389.52 2302.51 1393.69L2300.81 1394.39C2293.83 1397.2 2285.87 1393.83 2283.05 1386.84C2280.91 1381.52 2282.37 1375.64 2286.25 1371.89Z" fill="#181818"/>
<path d="M1608.75 1390.59C1586.28 1381.95 1562.29 1375.08 1539.03 1371.23C1515.63 1367.37 1492.37 1365.79 1469.64 1367.83C1466.81 1368.12 1463.96 1367.87 1461.15 1368.35L1452.71 1369.52C1447.11 1370.45 1441.45 1370.63 1435.97 1372.24L1419.41 1375.76C1416.61 1376.17 1413.99 1377.4 1411.28 1378.19L1403.13 1380.63C1397.69 1382.24 1392.21 1383.67 1386.99 1386.05L1370.96 1392.27L1366.89 1393.71L1362.99 1395.61C1360.37 1396.87 1357.8 1398.2 1355.13 1399.37C1349.84 1401.81 1344.51 1404.23 1339 1406.4L1335.84 1407.65C1321.61 1413.28 1305.51 1406.32 1299.87 1392.08C1295.05 1379.92 1299.47 1366.37 1309.73 1359.17C1315.43 1355.19 1321.29 1351.41 1327.21 1347.68C1330.16 1345.77 1333.19 1344 1336.17 1342.17L1340.68 1339.47L1345.47 1337.19C1358.4 1331.52 1371.03 1324.99 1384.97 1321.55C1391.81 1319.55 1398.57 1317.23 1405.6 1315.93L1426.77 1312.41C1433.8 1311.04 1441.05 1311.37 1448.16 1310.91C1455.31 1310.6 1462.41 1310.19 1469.55 1310.93C1476.64 1311.6 1483.76 1311.79 1490.76 1312.92C1497.75 1314.13 1504.73 1315.17 1511.63 1316.61L1531.93 1322.29C1538.63 1324.29 1545.07 1327.11 1551.53 1329.57C1557.95 1332.25 1564.19 1335.31 1570.35 1338.39C1576.39 1341.77 1582.39 1345.12 1588.17 1348.83C1599.72 1356.49 1610.36 1364.53 1620.39 1374.99C1624.15 1378.91 1624.01 1385.15 1620.08 1388.89C1617.25 1391.61 1613.2 1392.31 1609.76 1390.99L1608.75 1390.59" fill="#181818"/>
<path d="M1436.13 2562.23C1391.55 2705.08 1253.41 2753.77 1253.41 2753.77C1226.67 2832.25 1231.4 2958.16 1231.4 2958.16C1061.93 2938.65 957.893 2874.12 902.547 2792.52C788.987 2625.08 880.947 2386.03 1034.36 2318.52C1178.4 2255.17 1317.72 2311.23 1390.29 2397.13V2397.2C1433.15 2447.97 1452.73 2509.16 1436.13 2562.23" fill="#FCC06A"/>
<path d="M853.853 2601.41C852.987 2587.31 856.24 2572.28 862.187 2557.15C858.787 2571.69 856.027 2586.48 853.853 2601.41Z" fill="#FEE6C3"/>
<path d="M1330.52 2339.53C1328.45 2339.16 1326.4 2338.75 1324.36 2338.31C1324.92 2337.64 1325.48 2336.96 1326.04 2336.29C1327.55 2337.36 1329.04 2338.44 1330.52 2339.53Z" fill="#FFDDDD"/>
<path d="M1371.77 2377.28C1367.37 2373 1362.8 2368.81 1358.05 2364.75C1358.35 2364.43 1358.64 2364.09 1358.93 2363.77C1363.36 2368.13 1367.65 2372.63 1371.77 2377.28" fill="#EDA6AB"/>
<path d="M1358.05 2364.75C1347.37 2355.6 1335.85 2347.04 1323.6 2339.24C1323.85 2338.93 1324.11 2338.63 1324.36 2338.31C1326.4 2338.75 1328.45 2339.16 1330.52 2339.53C1340.53 2346.93 1350.04 2355.05 1358.93 2363.77C1358.64 2364.09 1358.35 2364.43 1358.05 2364.75" fill="#EDCFD4"/>
<path d="M1273.01 2313.24C1238.6 2299.4 1200.59 2291.33 1160.53 2291.33C1155.8 2291.33 1151.03 2291.44 1146.24 2291.67C1145.19 2291.32 1144.07 2290.95 1143.03 2290.6C1153.05 2289.57 1163.13 2289.05 1173.19 2289.05C1206.36 2289.05 1239.43 2294.71 1270.56 2306.59C1272.56 2307.35 1274.56 2308.13 1276.55 2308.96C1275.36 2310.37 1274.19 2311.81 1273.01 2313.24" fill="#CFB8B4"/>
<path d="M1114.05 2294.96C1123.64 2293.04 1133.32 2291.59 1143.03 2290.6C1144.07 2290.95 1145.19 2291.32 1146.24 2291.67C1135.63 2292.19 1124.89 2293.27 1114.05 2294.96Z" fill="#9999C7"/>
<path d="M1273.03 2313.24C1273.01 2313.24 1273.01 2313.24 1273.01 2313.24C1274.19 2311.81 1275.36 2310.37 1276.55 2308.96C1275.37 2310.39 1274.19 2311.83 1273.03 2313.24Z" fill="#9999C7"/>
<path d="M1323.6 2339.24C1307.87 2329.23 1290.93 2320.45 1273.03 2313.24C1274.19 2311.83 1275.37 2310.39 1276.55 2308.96C1294 2316.16 1310.6 2325.39 1326.04 2336.29C1325.48 2336.96 1324.92 2337.64 1324.36 2338.31C1324.11 2338.63 1323.85 2338.93 1323.6 2339.24Z" fill="#9999C7"/>
<path d="M862.187 2557.15C880.267 2479.77 916.453 2409.03 980.373 2357.29C1018.92 2326.09 1065.43 2304.67 1114.05 2294.96C1124.89 2293.27 1135.63 2292.19 1146.24 2291.67C1151.03 2291.44 1155.8 2291.33 1160.53 2291.33C1200.59 2291.33 1238.6 2299.4 1273.01 2313.24C1273.01 2313.24 1273.01 2313.24 1273.03 2313.24C1290.93 2320.45 1307.87 2329.23 1323.6 2339.24C1335.85 2347.04 1347.37 2355.6 1358.05 2364.75C1362.8 2368.81 1367.37 2373 1371.77 2377.28C1379.05 2385.47 1385.81 2394.09 1392.03 2403.09C1395.95 2417.16 1398.37 2431.65 1398.97 2446.59C1399.47 2457.99 1398.79 2469.33 1397.04 2480.49C1337.71 2407.64 1244.53 2362.03 1150.51 2362.03C1138.37 2362.03 1126.2 2362.79 1114.09 2364.35C1051.95 2372.37 993.506 2401.37 947.24 2443.29C919.2 2468.71 879.4 2513.33 862.187 2557.15" fill="#FEE6C3"/>
<path d="M1231.4 2958.16C1217.35 2956.55 1203.75 2954.61 1190.59 2952.4C1180.07 2950.63 1169.84 2948.67 1159.87 2946.52C1031.97 2919.01 949.64 2861.96 902.546 2792.52C907.266 2790.29 911.853 2787.59 916.08 2784.47C948.586 2760.85 963.933 2715.99 952.693 2677.44C942.96 2643.96 916.226 2606.81 937.066 2578.96C945.386 2567.83 959.093 2563.01 973.173 2563.01C981.066 2563.01 989.066 2564.52 996.306 2567.29C1016.51 2575 1032.84 2590.15 1050.27 2602.85C1091.39 2632.67 1142.41 2649.2 1193.03 2649.2C1221.4 2649.2 1249.63 2644.01 1275.91 2633.07C1338.59 2606.96 1386.64 2546.95 1397.04 2480.49C1412.79 2499.83 1426.15 2521.08 1436.51 2543.89C1437.32 2493.57 1420.59 2444.44 1392.03 2403.09C1391.48 2401.12 1390.91 2399.16 1390.29 2397.2C1422.85 2435.77 1441.99 2480.36 1442.01 2522.83C1442.01 2527.76 1441.76 2532.67 1441.24 2537.52C1440.35 2545.91 1438.65 2554.16 1436.13 2562.23C1415.24 2629.17 1373.8 2675.44 1335.65 2705.71C1313.77 2723.07 1292.99 2735.16 1277.79 2742.88C1262.93 2750.41 1253.41 2753.77 1253.41 2753.77C1233.64 2811.79 1231.07 2895.72 1231.07 2935.56C1231.07 2949.6 1231.4 2958.16 1231.4 2958.16" fill="#D09A61"/>
<path d="M1436.51 2543.89C1426.15 2521.08 1412.79 2499.83 1397.04 2480.49C1398.79 2469.33 1399.47 2457.99 1398.97 2446.59C1398.37 2431.65 1395.95 2417.16 1392.03 2403.09C1420.59 2444.44 1437.32 2493.57 1436.51 2543.89Z" fill="#D2B8A9"/>
<path d="M1160.29 2319.08C1123.97 2319.08 1085.29 2326.44 1045.53 2343.93C936.226 2392.01 863.293 2536.99 882.946 2667.11C895.253 2748.56 953.653 2887.45 1203.31 2926.31C1203.72 2882.12 1207.45 2802.61 1227.12 2744.84C1229.87 2736.8 1236.12 2730.45 1244.11 2727.63C1245.36 2727.17 1369.88 2681.17 1409.65 2553.93C1425.35 2503.68 1399.67 2439.17 1344.21 2389.59C1300.92 2350.87 1235.72 2319.08 1160.29 2319.08ZM1231.39 2985.91C1230.33 2985.91 1229.27 2985.85 1228.21 2985.72C903.693 2948.41 840.226 2756.28 828.013 2675.41C804.453 2519.52 890.173 2351.57 1023.16 2293.08C1169.68 2228.63 1304.21 2279.28 1381.25 2348.17C1454.01 2413.23 1485.21 2498.43 1462.68 2570.51C1422.4 2699.39 1314.28 2757.56 1276.07 2774.53C1255.41 2847.67 1259.11 2955.96 1259.15 2957.11C1259.44 2965.19 1256.2 2973.01 1250.25 2978.52C1245.09 2983.29 1238.33 2985.91 1231.39 2985.91Z" fill="#181818"/>
<path d="M1262.21 2780.15C1259.85 2780.84 1258.31 2781.17 1256.64 2781.57C1254.93 2781.99 1253.32 2782.32 1251.75 2782.61C1248.55 2783.23 1245.36 2783.84 1242.25 2784.25C1235.99 2785.28 1229.77 2785.79 1223.56 2786.37C1217.36 2786.73 1211.17 2787.04 1204.99 2787.09C1198.81 2786.89 1192.64 2787.05 1186.49 2786.52C1161.95 2784.92 1137.59 2780.24 1114.63 2771.81C1091.77 2763.37 1069.68 2752.65 1050.37 2738.28C1040.2 2731.83 1031.59 2723.47 1022.45 2715.85L1019.08 2712.95L1016 2709.75L1009.87 2703.33L997.666 2690.52C991.72 2684.28 991.96 2674.41 998.2 2668.47C1004.07 2662.88 1013.16 2662.76 1019.16 2667.96L1020.41 2669.05L1032.41 2679.51L1038.37 2684.73L1041.33 2687.33L1044.56 2689.61C1053.24 2695.52 1061.33 2702.23 1070.64 2706.91C1088.33 2717.83 1107.83 2724.99 1127.4 2730.31C1147.07 2735.6 1167.45 2737.56 1187.59 2737.04C1192.61 2737.05 1197.64 2736.39 1202.64 2736.13C1207.63 2735.63 1212.6 2734.92 1217.51 2734.2C1222.39 2733.27 1227.29 2732.43 1231.97 2731.19C1234.39 2730.67 1236.64 2729.99 1238.89 2729.33C1240.05 2729.01 1241.16 2728.68 1242.13 2728.33C1243.17 2727.99 1244.32 2727.61 1244.63 2727.44C1258.28 2720.12 1275.29 2725.24 1282.61 2738.89C1289.95 2752.56 1284.81 2769.56 1271.16 2776.89C1269.48 2777.79 1267.76 2778.49 1266.01 2779.03L1262.21 2780.15" fill="#181818"/>
<path d="M1256.24 2741.25C1255.09 2736.56 1253.28 2730.44 1251.47 2724.99C1249.65 2719.37 1247.64 2713.77 1245.53 2708.21C1241.29 2697.11 1236.48 2686.2 1231.19 2675.59C1225.92 2664.95 1219.87 2654.84 1213.39 2645.07C1206.84 2635.36 1199.47 2626.45 1191.56 2618.11L1190.95 2617.45C1184.56 2610.72 1184.84 2600.08 1191.59 2593.71C1197.69 2587.91 1207.03 2587.61 1213.47 2592.65C1224.41 2601.19 1234.69 2610.53 1243.91 2620.65C1253.03 2630.8 1261.64 2641.41 1269.33 2652.52C1277.05 2663.61 1284.21 2675.05 1290.8 2686.83C1294.08 2692.72 1297.25 2698.68 1300.27 2704.77C1303.35 2710.99 1306.07 2716.71 1309.04 2723.97L1309.11 2724.13C1314.95 2738.37 1308.12 2754.65 1293.88 2760.48C1279.64 2766.32 1263.37 2759.51 1257.53 2745.27C1257.01 2743.99 1256.56 2742.55 1256.24 2741.25" fill="#181818"/>
<path d="M1399.09 2596.09C1397.45 2592.52 1394.88 2587.8 1392.53 2583.63C1390.12 2579.32 1387.55 2575.05 1384.93 2570.8C1379.65 2562.32 1373.97 2554.05 1368 2546C1362.04 2537.92 1355.65 2530.2 1348.95 2522.77C1342.29 2515.24 1335.07 2508.43 1327.61 2501.73L1327.08 2501.25C1321.16 2495.93 1320.68 2486.81 1326 2480.89C1330.63 2475.76 1338.11 2474.72 1343.88 2478.01C1353.65 2483.59 1363.35 2489.51 1372.4 2496.17C1381.53 2502.77 1390.39 2509.77 1398.8 2517.21C1407.25 2524.63 1415.41 2532.39 1423.25 2540.51C1427.16 2544.57 1431.03 2548.71 1434.81 2552.99C1438.67 2557.37 1442.15 2561.33 1446.23 2566.67L1446.8 2567.43C1456.2 2579.71 1453.87 2597.28 1441.59 2606.68C1429.31 2616.09 1411.72 2613.75 1402.32 2601.47C1401.05 2599.81 1399.93 2597.91 1399.09 2596.09" fill="#181818"/>
<path d="M2695.21 2716.49C2695.21 2716.49 2480.91 2874.05 2162.43 2820.55C1843.95 2767.04 1824.09 2576.77 1857.83 2475.71C1891.56 2374.63 2019.56 2261.67 2251.72 2350.85C2483.88 2440.03 2671.4 2377.6 2671.4 2377.6L2695.21 2716.49" fill="#FCC06A"/>
<path d="M2642.84 2385.03C2651.6 2382.85 2660.24 2380.64 2668.83 2378.39C2668.83 2378.39 2668.83 2378.4 2668.83 2378.41C2664.73 2379.64 2655.87 2382.16 2642.84 2385.03" fill="#FEE6C3"/>
<path d="M2353.79 2381.72C2321.13 2374.41 2286.93 2364.37 2251.72 2350.85C2243.56 2347.71 2235.53 2344.83 2227.63 2342.19C2227.75 2341.07 2227.88 2339.97 2228.01 2338.85C2262.16 2350.01 2295.91 2362.59 2330.63 2371.83C2342.43 2374.97 2354.35 2377.71 2366.33 2380.04C2362.15 2380.6 2357.95 2381.17 2353.79 2381.72" fill="#CFB8B4"/>
<path d="M2508.33 2398.84C2463.25 2398.84 2410.84 2394.47 2353.79 2381.72C2357.95 2381.17 2362.15 2380.6 2366.33 2380.04C2401.4 2386.87 2437.12 2390.25 2472.84 2390.25C2477.77 2390.25 2482.69 2390.19 2487.63 2390.05C2538.53 2388.72 2587.39 2368.27 2636.59 2365.91C2638.93 2365.8 2641.12 2365.75 2643.17 2365.75C2663.27 2365.75 2669.88 2370.96 2668.83 2378.39C2660.24 2380.64 2651.6 2382.85 2642.84 2385.03C2614.96 2391.15 2568.08 2398.84 2508.33 2398.84" fill="#9999C7"/>
<path d="M2173.43 2327.28C2145.21 2321.27 2118.92 2318.52 2094.48 2318.51C2094.83 2316.8 2095.17 2315.09 2095.53 2313.37C2096.01 2313.37 2096.49 2313.37 2096.97 2313.37C2122.75 2313.37 2148.84 2317.21 2173.91 2323.2C2173.75 2324.56 2173.59 2325.92 2173.43 2327.28" fill="#EDC0A9"/>
<path d="M2016.8 2328.68C2023.49 2325.8 2030.32 2323.37 2037.25 2321.36C2037.08 2322.23 2036.91 2323.09 2036.73 2323.95C2029.91 2325.29 2023.25 2326.88 2016.8 2328.68Z" fill="#EDDCA5"/>
<path d="M2227.63 2342.19C2208.84 2335.89 2190.77 2330.97 2173.43 2327.28C2173.59 2325.92 2173.75 2324.56 2173.91 2323.2C2174.45 2323.33 2175 2323.47 2175.56 2323.6C2193.27 2327.91 2210.69 2333.2 2228.01 2338.85C2227.88 2339.97 2227.75 2341.07 2227.63 2342.19" fill="#9999C7"/>
<path d="M2036.73 2323.95C2036.91 2323.09 2037.08 2322.23 2037.25 2321.36C2056.09 2315.89 2075.71 2313.48 2095.53 2313.37C2095.17 2315.09 2094.83 2316.8 2094.48 2318.51C2094.4 2318.51 2094.33 2318.51 2094.27 2318.51C2073.76 2318.51 2054.6 2320.43 2036.73 2323.95" fill="#9999C7"/>
<path d="M2449.59 2464.6C2386.29 2464.6 2322.96 2451.48 2261.71 2434.43C2196.64 2416.31 2131.85 2393.55 2064.36 2390.75C2060.44 2390.59 2056.51 2390.51 2052.56 2390.51C1988.53 2390.51 1921.73 2412.08 1883.41 2462.88C1919 2410 1957.67 2354.47 2016.09 2328.99C2016.33 2328.88 2016.57 2328.79 2016.8 2328.68C2023.25 2326.88 2029.91 2325.29 2036.73 2323.95C2054.6 2320.43 2073.76 2318.51 2094.27 2318.51C2094.33 2318.51 2094.4 2318.51 2094.48 2318.51C2118.92 2318.52 2145.21 2321.27 2173.43 2327.28C2190.77 2330.97 2208.84 2335.89 2227.63 2342.19C2235.53 2344.83 2243.56 2347.71 2251.72 2350.85C2286.93 2364.37 2321.13 2374.41 2353.79 2381.72C2410.84 2394.47 2463.25 2398.84 2508.33 2398.84C2568.08 2398.84 2614.96 2391.15 2642.84 2385.03C2655.87 2382.16 2664.73 2379.64 2668.83 2378.41C2666.91 2391.69 2640.45 2412.01 2622.72 2422.12C2584.92 2443.68 2542.29 2456.64 2499.16 2461.75C2482.67 2463.71 2466.13 2464.6 2449.59 2464.6Z" fill="#FEE6C3"/>
<path d="M2525.81 2796.83C2525.75 2796.59 2525.68 2796.35 2525.61 2796.12C2530.51 2794.57 2535.33 2793 2540.04 2791.41C2535.32 2793.25 2530.56 2795.07 2525.81 2796.83" fill="#D09A61"/>
<path d="M2292.13 2840.89C2285.07 2840.89 2278.01 2840.77 2270.93 2840.51C2219.31 2838.63 2167.48 2828.88 2118.36 2811.87C2132.36 2815.05 2147.05 2817.96 2162.43 2820.55C2208.67 2828.32 2252.68 2831.64 2294.2 2831.64C2306.31 2831.64 2318.19 2831.35 2329.87 2830.81C2324.27 2833.88 2318.65 2837.11 2313.04 2840.52C2306.08 2840.77 2299.11 2840.89 2292.13 2840.89Z" fill="#A87B63"/>
<path d="M2313.04 2840.52C2318.65 2837.11 2324.27 2833.88 2329.87 2830.81C2405.19 2827.35 2471.2 2813.27 2525.61 2796.12C2525.68 2796.35 2525.75 2796.59 2525.81 2796.83C2457.24 2822.17 2385.67 2837.96 2313.04 2840.52Z" fill="#060068"/>
<path d="M2694.93 2712.47L2694.81 2710.71L2727.27 2691.2C2716.64 2698.48 2705.85 2705.57 2694.93 2712.47ZM2694.51 2706.51L2685.77 2582.05C2703.63 2586.12 2719.84 2595.85 2728.09 2611.85C2738.64 2632.31 2733.45 2658.01 2720.97 2677.33C2713.8 2688.43 2704.56 2697.85 2694.51 2706.51Z" fill="#D09A61"/>
<path d="M1853.88 2488.92C1853.84 2488.92 1853.8 2488.92 1853.76 2488.92C1853.84 2488.76 1853.92 2488.59 1854.01 2488.43C1853.96 2488.6 1853.92 2488.75 1853.88 2488.92Z" fill="#D2212D"/>
<path d="M1845.93 2549.35C1845.16 2544.8 1844.63 2540.2 1844.37 2535.56C1843.53 2519.6 1846.53 2503.05 1853.76 2488.92C1853.8 2488.92 1853.84 2488.92 1853.88 2488.92C1849.03 2507.16 1845.99 2527.67 1845.93 2549.35" fill="#AE1A31"/>
<path d="M2294.2 2831.64C2252.68 2831.64 2208.67 2828.32 2162.43 2820.55C2147.05 2817.96 2132.36 2815.05 2118.36 2811.87C2012.67 2775.25 1919.44 2704.99 1867.29 2606.84C1857.67 2588.72 1849.39 2569.47 1845.93 2549.35C1845.99 2527.67 1849.03 2507.16 1853.88 2488.92C1853.92 2488.75 1853.96 2488.6 1854.01 2488.43C1858.12 2480.51 1863.57 2473.37 1870.43 2467.55C1872.33 2465.93 1874.51 2465.17 1876.95 2465.17C1899.57 2465.17 1946.35 2529.49 2034.88 2569.37C2125.76 2610.32 2261.48 2578.61 2357.51 2605.37C2403.53 2618.2 2435.55 2624.81 2466.83 2624.81C2500.79 2624.81 2533.92 2617.03 2583.27 2600.96C2608.52 2592.73 2633.4 2581.8 2659.89 2580.04C2661.87 2579.91 2663.85 2579.84 2665.85 2579.84C2672.51 2579.84 2679.24 2580.57 2685.77 2582.05L2694.51 2706.51C2687.07 2712.91 2679.19 2718.88 2671.39 2724.79L2694.81 2710.71L2694.93 2712.47C2645.91 2743.4 2593.96 2770.32 2540.04 2791.41C2535.33 2793 2530.51 2794.57 2525.61 2796.12C2471.2 2813.27 2405.19 2827.35 2329.87 2830.81C2318.19 2831.35 2306.31 2831.64 2294.2 2831.64" fill="#D09A61"/>
<path d="M2702.32 2726.17C2694.35 2734.52 2686.44 2741.53 2677.84 2748.25C2669.41 2755.05 2660.55 2761.19 2651.56 2767.15C2633.55 2778.96 2614.6 2789.23 2595.05 2798.16C2555.88 2815.91 2514.6 2828.48 2472.87 2838.55C2389.25 2858.41 2302.31 2864.25 2216.65 2856.72C2173.8 2852.76 2131.43 2845.93 2089.41 2835.04C2047.47 2824.12 2005.79 2809.39 1966.59 2787.51C1947.04 2776.55 1928.07 2764 1910.47 2749.24C1892.96 2734.39 1876.81 2717.43 1863.07 2698.4C1849.33 2679.4 1837.95 2658.39 1830.03 2636.08C1822.01 2613.8 1817.37 2590.41 1815.73 2566.97C1814.37 2543.52 1815.8 2519.99 1820.48 2497.01C1825 2474.15 1832.89 2451.15 1843.97 2430.27C1865.84 2388.36 1899.51 2353.23 1939.61 2328.81C1979.79 2304.33 2026.01 2291.49 2071.49 2288.61C2117.12 2285.68 2162.09 2291.81 2204.59 2303.28C2215.28 2306.03 2225.75 2309.31 2236.15 2312.76C2241.41 2314.36 2246.44 2316.44 2251.59 2318.27L2266.53 2323.76C2284.91 2330.83 2303.71 2336.73 2322.68 2341.93C2341.75 2346.83 2361 2351 2380.47 2354.01C2399.95 2356.95 2419.57 2358.96 2439.28 2359.97C2478.69 2361.88 2518.37 2359.72 2557.47 2353.69C2577.01 2350.72 2596.45 2346.89 2615.53 2341.91C2625.08 2339.47 2634.53 2336.73 2643.83 2333.75C2648.48 2332.25 2653.08 2330.68 2657.61 2329.05C2661.96 2327.47 2666.92 2325.56 2670.25 2324.15L2671.07 2323.8C2685.19 2317.79 2701.49 2324.35 2707.51 2338.45C2713.44 2352.37 2707.11 2368.45 2693.39 2374.67C2687.23 2377.44 2682.52 2379.28 2677.16 2381.37C2671.97 2383.35 2666.79 2385.24 2661.59 2387.01C2651.2 2390.57 2640.77 2393.8 2630.27 2396.69C2609.29 2402.57 2588.05 2407.23 2566.64 2410.84C2523.79 2417.89 2480.21 2420.72 2436.71 2419.05C2414.95 2418.16 2393.24 2416.16 2371.65 2413.13C2350.07 2410 2328.69 2405.61 2307.51 2400.4C2286.41 2394.85 2265.51 2388.51 2245.07 2380.89L2230.75 2375.79C2226.11 2374.2 2221.52 2372.33 2216.83 2370.99C2207.48 2368.04 2198.17 2365.05 2188.76 2362.65C2151.23 2352.51 2112.81 2347.55 2075.55 2349.96C2038.35 2352.35 2002.37 2362.61 1971.53 2381.37C1940.79 2400.08 1914.97 2427.08 1898.44 2458.84C1881.89 2489.95 1875.03 2527.09 1877.13 2562.99C1879.67 2598.88 1891.49 2633.6 1912.61 2662.88C1923.07 2677.59 1935.59 2691.01 1949.63 2703.13C1963.75 2715.16 1979.44 2725.73 1995.99 2735.19C2029.17 2754.09 2066.21 2767.69 2104.44 2777.93C2142.71 2788.08 2182.41 2795.19 2222.13 2799.35C2301.69 2807.39 2382.55 2803.05 2460.71 2785.57C2480.21 2781.12 2499.63 2776.2 2518.73 2770.19C2537.83 2764.2 2556.72 2757.57 2575.56 2750.76C2613.09 2737.15 2650.97 2722.2 2688.11 2706.83L2688.87 2706.52C2695.08 2703.95 2702.2 2706.89 2704.76 2713.11C2706.67 2717.69 2705.53 2722.79 2702.32 2726.17" fill="#181818"/>
<path d="M1895.72 2377.17C1898.21 2377.17 1899.33 2377.31 1900.93 2377.44C1902.44 2377.56 1903.85 2377.73 1905.25 2377.91C1908.09 2378.23 1910.76 2378.71 1913.47 2379.15C1918.8 2380.13 1924.03 2381.24 1929.13 2382.61C1939.36 2385.33 1949.25 2388.63 1958.77 2392.68C1968.27 2396.77 1977.51 2401.2 1986.21 2406.48C1995.01 2411.55 2003.25 2417.43 2011.21 2423.44C2017.39 2428.12 2018.61 2436.91 2013.93 2443.08C2009.99 2448.31 2003.09 2449.99 1997.32 2447.56L1996.64 2447.27C1988.51 2443.84 1980.4 2440.64 1972.05 2438.31C1963.81 2435.76 1955.36 2434.09 1947.01 2432.73C1938.65 2431.41 1930.24 2430.84 1922.03 2430.75C1917.91 2430.68 1913.84 2430.87 1909.88 2431.13C1907.93 2431.32 1905.93 2431.45 1904.11 2431.73C1903.17 2431.85 1902.25 2431.97 1901.44 2432.13C1900.69 2432.27 1899.48 2432.47 1899.65 2432.6C1884.35 2433.68 1871.05 2422.15 1869.97 2406.85C1868.89 2391.55 1880.43 2378.25 1895.72 2377.17" fill="#181818"/>
<path d="M1886.53 2621.93C1887.2 2622.47 1889.57 2623.52 1891.36 2624.27C1893.29 2625.09 1895.32 2625.87 1897.39 2626.61C1901.49 2628.12 1905.76 2629.37 1910.08 2630.56C1918.72 2632.83 1927.61 2634.28 1936.56 2634.95C1945.53 2635.71 1954.53 2635.37 1963.45 2634.12C1972.48 2633.12 1981.08 2630.32 1989.79 2627.23L1991.08 2626.77C1998.23 2624.24 2006.07 2627.97 2008.6 2635.12C2010.76 2641.2 2008.36 2647.8 2003.19 2651.17C1993.68 2657.41 1983.57 2663.4 1972.64 2667.35C1961.81 2671.56 1950.47 2674.65 1938.95 2676.39C1927.43 2678.21 1915.73 2679 1904.04 2678.72C1898.19 2678.52 1892.32 2678.17 1886.41 2677.49C1883.47 2677.15 1880.49 2676.76 1877.48 2676.25C1874.31 2675.69 1871.77 2675.29 1867.59 2674.17L1861.29 2672.48C1845.93 2668.33 1836.83 2652.52 1840.96 2637.16C1845.11 2621.79 1860.92 2612.69 1876.28 2616.83C1880.08 2617.84 1883.6 2619.68 1886.53 2621.93" fill="#181818"/>
<path d="M2183.01 3043.75C2185.11 3044.97 2185.99 3045.64 2187.28 3046.51C2188.56 3047.35 2189.53 3048.13 2190.64 3048.95C2192.85 3050.55 2194.85 3052.19 2196.84 3053.83C2200.87 3057.09 2204.52 3060.51 2208.15 3063.97C2211.67 3067.51 2215.23 3070.99 2218.41 3074.71C2221.76 3078.33 2224.92 3082.08 2227.88 3085.96C2239.96 3101.27 2249.92 3117.8 2258.19 3134.92C2261.87 3143.68 2265.99 3152.21 2268.79 3161.2C2270.27 3165.65 2271.96 3170.04 2273.23 3174.53L2276.81 3188.05C2278.11 3192.53 2279.05 3197.07 2279.83 3201.64L2282.36 3215.25C2283.72 3224.36 2284.52 3233.51 2285.59 3242.57C2286.56 3250.85 2280.63 3258.36 2272.35 3259.33C2264.69 3260.24 2257.69 3255.25 2255.91 3247.96L2255.57 3246.59C2253.56 3238.45 2251.88 3230.29 2249.68 3222.31L2245.95 3210.49C2244.79 3206.53 2243.48 3202.64 2241.85 3198.87L2237.32 3187.49C2235.75 3183.73 2233.8 3180.15 2232.08 3176.49C2228.8 3169.08 2224.35 3162.32 2220.45 3155.36C2211.79 3141.93 2201.97 3129.45 2190.96 3118.55C2188.27 3115.76 2185.44 3113.15 2182.52 3110.68C2179.69 3108.07 2176.67 3105.81 2173.71 3103.48C2170.72 3101.25 2167.68 3099.03 2164.65 3097.16C2163.13 3096.2 2161.63 3095.23 2160.19 3094.45C2159.47 3094.07 2158.67 3093.56 2158.07 3093.31C2157.51 3093.03 2156.53 3092.52 2156.72 3092.69C2143.2 3085.43 2138.13 3068.59 2145.4 3055.07C2152.65 3041.56 2169.49 3036.49 2183.01 3043.75" fill="#181818"/>
<path d="M510.068 422.933C538.984 375.627 553.242 318.84 547.142 259.426C532.334 115.213 403.43 10.3196 259.224 25.1196C115.018 39.933 10.1178 168.827 24.9245 313.04C39.7298 457.24 168.636 562.147 312.842 547.333C352.952 543.213 390.007 530.253 422.306 510.6L543.774 537.84L510.068 422.933" fill="white"/>
<path d="M56.0322 219.813C82.4122 128.88 161.75 58.3466 261.579 48.0799C269.85 47.2399 278.067 46.8263 286.208 46.8263C376.331 46.8263 457.104 97.7197 497.743 174.466C449.246 112.733 374.027 73.9466 291.503 73.9466C282.54 73.9466 273.49 74.4133 264.38 75.3466C171.4 84.8933 94.7709 141.88 56.0322 219.813Z" fill="white"/>
<path d="M286.208 46.8267C278.067 46.8267 269.849 47.2403 261.579 48.0803C130.268 61.5737 34.408 179.373 47.8907 310.68C54.42 374.293 85.332 431.547 134.931 471.907C184.528 512.28 246.861 530.88 310.485 524.374C346.22 520.707 379.804 509.44 410.305 490.88C415.413 487.773 421.531 486.773 427.357 488.08L510.589 506.747L487.913 429.427C486.08 423.187 486.972 416.453 490.368 410.893C517.877 365.893 529.568 314.32 524.176 261.774C511.539 138.747 407.317 46.8267 286.208 46.8267M285.495 571.827C220.097 571.84 157.204 549.573 105.785 507.72C46.62 459.587 9.74935 391.28 1.96002 315.4C-14.124 158.76 100.225 18.24 256.865 2.16003C413.48 -13.92 554.024 100.427 570.108 257.067C576.188 316.293 564.072 374.48 535.029 426.013L565.928 531.347C568.229 539.2 566.208 547.667 560.619 553.64C555.027 559.6 546.696 562.16 538.721 560.374L426.125 535.12C391.921 554.427 354.652 566.254 315.199 570.307C305.268 571.32 295.348 571.827 285.495 571.827" fill="#181818"/>
<path d="M285.623 525.64C230.784 525.64 178.04 507 134.931 471.907C93.2429 437.987 64.7575 392.133 52.8535 340.6C92.5508 409.427 159.048 462.667 242.247 483.373C266.819 489.493 291.432 492.413 315.655 492.413C379.091 492.413 439.846 472.347 490.122 436.96L510.589 506.747L427.357 488.08C425.689 487.707 423.997 487.52 422.312 487.52C418.111 487.52 413.951 488.667 410.306 490.88C379.804 509.44 346.22 520.707 310.486 524.373C302.163 525.227 293.875 525.64 285.623 525.64" fill="#B2B2D4"/>
<path d="M285.713 548.733C152.809 548.733 38.7935 448.134 24.9241 313.04C23.5148 299.307 23.2055 285.72 23.8948 272.36C30.7535 296.28 40.5068 319.187 52.8534 340.6C64.7574 392.133 93.2428 437.987 134.931 471.907C178.04 507 230.784 525.64 285.623 525.64C293.875 525.64 302.163 525.227 310.485 524.374C346.22 520.707 379.804 509.44 410.305 490.88C413.951 488.667 418.111 487.52 422.312 487.52C423.997 487.52 425.689 487.707 427.357 488.08L510.589 506.747L490.122 436.96C497.495 431.773 504.644 426.253 511.541 420.413C511.044 421.253 510.576 422.107 510.069 422.933L543.773 537.84L422.305 510.6C390.007 530.253 352.952 543.213 312.841 547.333C303.723 548.28 294.685 548.733 285.713 548.733" fill="#181818"/>
<path d="M369.964 212.52C347.249 189.813 310.419 193.88 287.704 216.6L284.168 220.133L280.633 216.6C257.917 193.88 221.088 189.813 198.373 212.52H198.372C175.657 235.24 175.657 272.067 198.372 294.787L201.908 298.32L273.325 369.733C279.313 375.72 289.023 375.72 295.012 369.733L366.429 298.32L369.964 294.787C392.68 272.067 392.68 235.24 369.964 212.52Z" fill="#FF0068"/>
</svg>
