<svg width="3801" height="3898" viewBox="0 0 3801 3898" fill="none" xmlns="http://www.w3.org/2000/svg">
<g clip-path="url(#clip0_11_369)">
<path d="M2151.69 3898C1241.1 3898 502.924 3808.55 502.924 3698.19C502.924 3649.92 644.197 3605.64 879.341 3571.11C918.787 3625.29 972.919 3666.63 1038.63 3691.12C1107.52 3716.8 1186.77 3729.67 1270.42 3729.67C1349.46 3729.65 1432.4 3718.17 1514.11 3695.16C1568.3 3679.89 1619 3660.51 1665.03 3637.76C1674.89 3642.97 1684.92 3648.05 1695.1 3652.95C1845.88 3725.57 2029.83 3761.97 2221.66 3761.97C2405.87 3761.96 2597.34 3728.39 2773.45 3661.05C2844.28 3633.97 2904.45 3599.36 2953.72 3557.45C3005.54 3567.13 3052.23 3571.36 3094.25 3571.36C3154.44 3571.36 3205.04 3562.69 3247.49 3548.89C3586.74 3585.49 3800.45 3638.81 3800.45 3698.19C3800.45 3808.55 3062.28 3898 2151.69 3898Z" fill="#C5AEA4"/>
<path d="M2889.47 3514.53L2935.87 3237.71C2935.87 3237.71 3056.83 3270.97 3151.02 3269.51C3162.27 3269.37 3173.1 3268.75 3183.34 3267.43C3274.06 3256.17 3317.72 3146.16 3398.26 3185.05C3402.81 3187.21 3407.43 3189.92 3412.2 3193.04C3501.9 3252.56 3420.35 3653.09 2889.47 3514.53" fill="#FCC06A"/>
<path d="M3093.12 3515.63C3065.53 3515.63 3035.56 3513.61 3003.04 3509.12C3005.65 3506.11 3008.2 3503.07 3010.67 3500.01C3040.52 3464.07 3064.2 3424.12 3081.59 3380.24C3092.52 3352.67 3100.59 3324.43 3106.21 3295.83C3118.06 3296.69 3129.86 3297.24 3141.42 3297.33C3140.24 3301.76 3139.27 3306.23 3138.53 3310.76C3133.7 3340.49 3142.29 3375.08 3169.06 3390.56C3178.96 3396.28 3189.87 3398.68 3201.09 3398.68C3223.69 3398.68 3247.55 3388.93 3267.14 3376.81C3325.73 3340.56 3370.19 3283.61 3390.12 3219.37C3390.73 3217.39 3391.31 3215.4 3391.88 3213.41C3393.16 3214.19 3394.48 3215.03 3395.81 3215.92C3416.62 3229.72 3426.04 3292.96 3393.41 3360.64C3373.1 3402.8 3299.21 3515.64 3093.12 3515.63" fill="#CA9A6C"/>
<path d="M2922.19 3493.92C3260.95 3573.43 3368.27 3412.84 3393.41 3360.64C3426.04 3292.96 3416.62 3229.72 3395.81 3215.92C3363.2 3194.27 3345.55 3203.88 3299.39 3239.23C3268.86 3262.63 3234.25 3289.15 3187.03 3295C3112.71 3304.23 3010.38 3284.11 2959.35 3272.24L2922.19 3493.92ZM3094.25 3571.36C3033.65 3571.36 2963.35 3562.56 2881.94 3541.31C2867.68 3537.6 2858.65 3524.11 2861 3510.08L2907.39 3233.27C2908.71 3225.44 2913.44 3218.51 2920.4 3214.25C2927.36 3210 2935.88 3208.8 2943.81 3210.99C2945.27 3211.37 3090.83 3250.92 3179.63 3239.91C3210.89 3236.01 3236.41 3216.47 3263.44 3195.76C3305.56 3163.49 3358 3123.32 3428.59 3170.17C3479.69 3204.08 3487.24 3298.01 3445.8 3384.03C3421.4 3434.63 3333.1 3571.36 3094.25 3571.36" fill="#181818"/>
<path d="M1855.48 3445.71C1725.93 3645.37 1321.86 3766.92 1049.07 3665.24C848.139 3590.31 806.934 3367.44 851.243 3218.19C867.121 3164.77 893.903 3120.81 928.319 3096.37C1030.87 3023.52 1141.01 3081.51 1141.01 3081.51C1151.04 3043.31 1164.6 3010.88 1180.48 2983.44C1274.09 2821 1447.14 2831.76 1447.14 2831.76L1855.48 3445.71Z" fill="#FCC06A"/>
<path d="M872.081 3253.08C884.468 3193.61 910.432 3143.61 945.444 3118.75C979.348 3094.65 1014.19 3087.27 1044.2 3087.27C1090.24 3087.27 1124.88 3104.68 1127.17 3105.85C1128.35 3106.48 1129.58 3107.03 1130.83 3107.48C1130.91 3107.52 1131.01 3107.56 1131.09 3107.6C1132.47 3108.24 1133.93 3109.05 1135.4 3109.85C1138.32 3111.43 1141.29 3113.27 1144.21 3115.15C1150.04 3119 1155.89 3123.13 1161.35 3127.8C1164.49 3130.4 1167.57 3133.11 1170.58 3135.91C1152.05 3132.43 1133.18 3130.69 1114.3 3130.69C1070.64 3130.69 1026.95 3139.92 987.536 3158.01C941.288 3179.23 901.191 3212.52 872.081 3253.08" fill="#FEE6C3"/>
<path d="M1270.42 3729.67C1186.77 3729.67 1107.52 3716.8 1038.63 3691.12C913.356 3644.43 830.211 3536.52 810.523 3395.05C792.206 3263.48 834.534 3128.47 911.153 3074.05C992.566 3016.21 1077.14 3029.83 1122.15 3044.07C1206.68 2792.07 1446.5 2803.93 1449 2804.05C1464.92 2805.05 1476.97 2818.27 1475.94 2833.57C1474.92 2848.85 1461.3 2860.55 1445.37 2859.51C1436.6 2859.05 1231.6 2850.53 1169 3088.31C1166.81 3096.63 1160.74 3103.51 1152.55 3106.95C1144.38 3110.37 1135.01 3109.99 1127.17 3105.85C1123.4 3103.91 1031.39 3057.68 945.445 3118.75C885.715 3161.17 852.31 3276.79 867.745 3387.68C877.624 3458.64 915.67 3585.71 1059.49 3639.32C1181.86 3684.93 1341.65 3685.84 1497.9 3641.83C1648.34 3599.45 1772.87 3520.64 1831.01 3431.01C1839.45 3418 1857.27 3414.07 1870.79 3422.16C1884.31 3430.29 1888.43 3447.43 1879.99 3460.44C1813.57 3562.81 1680.22 3648.36 1514.12 3695.16C1432.4 3718.17 1349.46 3729.65 1270.42 3729.67" fill="#181818"/>
<path d="M1154.23 3056.79C1156.25 3057.88 1157.05 3058.47 1158.29 3059.24C1159.51 3060 1160.41 3060.68 1161.47 3061.4C1163.58 3062.81 1165.46 3064.27 1167.35 3065.71C1171.17 3068.6 1174.68 3071.57 1178.13 3074.61C1184.93 3080.73 1191.4 3087.01 1197.23 3093.72C1209.08 3106.97 1219.26 3121.2 1228.09 3135.97C1236.51 3150.95 1244.11 3166.19 1249.72 3182.01C1252.95 3189.76 1254.89 3197.92 1257.49 3205.79C1259.69 3213.79 1261.38 3221.88 1263.31 3229.87C1265.1 3237.23 1260.34 3244.59 1252.7 3246.31C1245.75 3247.87 1238.83 3244.25 1236.26 3238.08L1235.79 3236.96C1232.87 3229.92 1230.22 3222.83 1227.12 3215.95C1223.64 3209.23 1220.87 3202.23 1216.91 3195.83C1209.84 3182.61 1201.14 3170.44 1192.11 3158.83C1182.71 3147.47 1172.45 3136.99 1161.35 3127.8C1155.89 3123.13 1150.04 3119 1144.21 3115.15C1141.29 3113.27 1138.32 3111.43 1135.4 3109.85C1133.93 3109.05 1132.48 3108.24 1131.09 3107.6C1130.41 3107.28 1129.63 3106.85 1129.07 3106.64C1128.54 3106.44 1127.6 3105.99 1127.81 3106.17C1113.63 3099.15 1108.05 3082.4 1115.35 3068.76C1122.65 3055.12 1140.05 3049.76 1154.23 3056.79" fill="#181818"/>
<path d="M1109.23 3338.07C1126.1 3410.83 1099.35 3479.68 1049.48 3491.87C999.604 3504.04 945.486 3454.93 928.61 3382.17C911.735 3309.4 938.475 3240.55 988.353 3228.36C1038.23 3216.19 1092.35 3265.29 1109.23 3338.07" fill="#A16044"/>
<path d="M1270.28 3674.2C1193.91 3674.2 1121.83 3662.56 1059.49 3639.32C915.669 3585.71 877.623 3458.64 867.744 3387.68C864.267 3362.72 863.269 3337.52 864.488 3312.96C879.355 3357.87 906.414 3398.4 944.973 3426.84C966.158 3467.57 1000.09 3493.72 1034.03 3493.72C1039.2 3493.72 1044.37 3493.11 1049.48 3491.87C1065.71 3487.91 1079.48 3477.93 1090.11 3463.8C1138.49 3458.25 1183.93 3436.21 1211.95 3397.72C1244.12 3353.57 1249.48 3299.45 1242.5 3244.91C1244.58 3246.04 1246.97 3246.67 1249.45 3246.67C1250.52 3246.67 1251.62 3246.55 1252.7 3246.31C1260.34 3244.59 1265.1 3237.23 1263.31 3229.87C1261.38 3221.88 1259.69 3213.79 1257.49 3205.79C1254.89 3197.92 1252.95 3189.76 1249.72 3182.01C1244.11 3166.19 1236.51 3150.95 1228.09 3135.97C1221.58 3125.08 1214.34 3114.49 1206.24 3104.36C1199.45 3080.35 1193.48 3055.88 1188.56 3031.17C1202.3 2999.41 1218.97 2973.52 1237.16 2952.4C1241.63 2953.12 1246.14 2953.81 1250.7 2954.48C1251.25 3026.04 1261.18 3096.28 1280.46 3164.77C1332.76 3350.59 1444.41 3500.52 1605.84 3603.36C1571.93 3618.21 1535.73 3631.17 1497.9 3641.83C1421.26 3663.41 1343.78 3674.2 1270.28 3674.2" fill="#CA9A6C"/>
<path d="M1269.77 3701.92C1192.23 3701.92 1116.64 3690.43 1049.07 3665.24C848.139 3590.31 806.934 3367.44 851.243 3218.19C849.94 3250.17 854.429 3282.57 864.488 3312.96C863.269 3337.52 864.267 3362.72 867.744 3387.68C877.623 3458.64 915.669 3585.71 1059.49 3639.32C1121.83 3662.56 1193.91 3674.2 1270.28 3674.2C1343.78 3674.2 1421.26 3663.41 1497.9 3641.83C1535.73 3631.17 1571.93 3618.21 1605.84 3603.36C1615.3 3609.39 1624.97 3615.27 1634.78 3620.97C1525.6 3671.81 1395.2 3701.92 1269.77 3701.92M1188.56 3031.17C1185.42 3015.33 1182.7 2999.41 1180.48 2983.44C1188.24 2969.97 1196.54 2957.71 1205.24 2946.52C1215.61 2948.67 1226.23 2950.63 1237.16 2952.4C1218.97 2973.52 1202.3 2999.41 1188.56 3031.17" fill="#181818"/>
<path d="M1249.45 3246.67C1246.97 3246.67 1244.58 3246.04 1242.5 3244.91C1238.15 3210.99 1229.02 3176.89 1218.58 3144.92C1214.23 3131.57 1210.11 3118.04 1206.24 3104.36C1214.35 3114.49 1221.58 3125.08 1228.09 3135.97C1236.51 3150.95 1244.11 3166.19 1249.72 3182.01C1252.95 3189.76 1254.89 3197.92 1257.49 3205.79C1259.69 3213.79 1261.38 3221.88 1263.31 3229.87C1265.1 3237.23 1260.34 3244.59 1252.7 3246.31C1251.62 3246.55 1250.52 3246.67 1249.45 3246.67" fill="#181818"/>
<path d="M1034.03 3493.72C1000.09 3493.72 966.158 3467.57 944.973 3426.84C948.077 3429.13 951.263 3431.35 954.519 3433.48C986.843 3454.63 1026.33 3465.2 1065.5 3465.2C1073.74 3465.2 1081.96 3464.73 1090.11 3463.8C1079.48 3477.93 1065.71 3487.91 1049.48 3491.87C1044.37 3493.11 1039.2 3493.72 1034.03 3493.72" fill="#814D4D"/>
<path d="M2762.78 3651.61C2254.78 3845.8 1480.92 3786.91 1308.3 3173.85C1192.38 2762.08 1448.88 2375.45 1666.98 2136.27C1806.62 1982.99 1930.53 1890.27 1930.53 1890.27L2915.85 2178.28C2909.22 2197.44 2877.25 2540.4 2953.1 2722.84C2956.71 2731.45 2960.54 2739.65 2964.57 2747.49C3055.07 2921.61 3270.78 3457.43 2762.78 3651.61" fill="#FCC06A"/>
<path d="M2199.29 3370.97C2212.1 3444.75 2178.76 3511.57 2124.84 3520.24C2070.93 3528.91 2016.84 3476.12 2004.05 3402.35C1991.25 3328.57 2024.58 3261.75 2078.49 3253.08C2132.42 3244.41 2186.49 3297.2 2199.29 3370.97Z" fill="#A16044"/>
<path d="M1957.3 3221.36C1957.24 3218.52 1957.23 3215.69 1957.27 3212.87C1975.15 3158.08 2005.27 3113.27 2042.2 3092.09C2075.39 3073.07 2108.42 3066.72 2137.72 3066.72C2194.5 3066.72 2237.27 3090.53 2239.88 3092.01C2244.43 3094.67 2249.59 3096 2254.77 3096C2258.32 3096 2261.88 3095.37 2265.26 3094.11C2273.59 3090.97 2279.94 3084.31 2282.47 3076.04C2294.77 3035.68 2313.11 3001.91 2334.88 2973.67C2358.14 2953.15 2380.59 2930.79 2400.24 2910C2410.53 2902.37 2421.02 2895.47 2431.51 2889.23C2406.04 2912.09 2382.93 2937.11 2364.03 2965.27C2325.92 3022.05 2309.07 3094.81 2328.63 3159.75C2283.64 3132.43 2230.41 3118.23 2177.24 3118.23C2150.05 3118.23 2122.87 3121.93 2096.84 3129.52C2042.04 3145.45 1992.91 3178.28 1957.3 3221.36" fill="#FEE6C3"/>
<path d="M2221.41 3706.67C2038.8 3706.65 1863.96 3672.15 1720.94 3603.27C1523.49 3508.17 1394.05 3355.75 1336.19 3150.24C1296.81 3010.37 1302.87 2873.24 1334.8 2745.61C1464.31 2795.57 1648.08 2839.28 1894.59 2839.28C1967.33 2839.28 2045.56 2835.47 2129.44 2826.89C2150.9 2824.71 2171.15 2818.53 2189.4 2809.16C2193.28 2810.08 2197.24 2810.99 2201.25 2811.87C2252.29 2828.88 2306.14 2838.63 2359.79 2840.51C2367.15 2840.77 2374.48 2840.89 2381.82 2840.89C2389.07 2840.89 2396.31 2840.77 2403.55 2840.52C2339.19 2878.12 2274.43 2937.25 2237.73 3029.88C2213.87 3020.92 2178.43 3011.15 2137.14 3011.15C2103.97 3011.15 2067.02 3017.47 2029.33 3035.57C2023.74 2985.91 1979.72 2945.8 1924.93 2945.8C1922.76 2945.8 1920.57 2945.87 1918.37 2945.99C1881.66 2948.12 1843.78 2949.03 1805.89 2949.03C1679.91 2949.03 1553.78 2939.01 1471.09 2930.75C1468.07 2930.44 1465.1 2930.29 1462.14 2930.29C1413.11 2930.29 1373.31 2970.85 1377.59 3019.07C1391.41 3174.89 1460.56 3268.84 1537.42 3325.45C1570.17 3349.59 1608.14 3360.87 1645.71 3360.87C1714.43 3360.85 1781.87 3323.13 1813.8 3257.36C1848.33 3186.25 1899.61 3139.63 1943.29 3110.47C1900.34 3172.65 1876.77 3261.16 1882.5 3352.53C1891.63 3497.96 1972.32 3613.52 2103.9 3669.57C2140.41 3685.12 2180.05 3697.51 2221.97 3706.67C2221.78 3706.67 2221.6 3706.67 2221.41 3706.67M2408.7 3670.49C2305.08 3670.49 2207.62 3652.99 2127.27 3618.76C2016.12 3571.41 1947.91 3473.16 1940.13 3349.19C1937.49 3307.07 1942.38 3264.76 1953.13 3226.53C1954.49 3224.8 1955.89 3223.07 1957.3 3221.36C1958.31 3266.01 1972.58 3311.65 2002.99 3346.88C2000.5 3364.28 2000.71 3383.08 2004.05 3402.35C2015.92 3470.79 2063.33 3521.17 2113.17 3521.17C2117.05 3521.17 2120.94 3520.87 2124.84 3520.24C2168.23 3513.27 2198.28 3468.63 2201.7 3413.01C2236.07 3411.64 2263.15 3405.09 2284.43 3396.16C2304.44 3387.76 2325.58 3383.69 2346.64 3383.69C2378.94 3383.69 2411.04 3393.27 2438.63 3411.48C2478.63 3437.91 2534.52 3460.23 2608.06 3460.23C2918.89 3460.23 3014.02 3281.64 2988.97 3098.59C2977.43 3014.29 2960.54 2886.07 2954.95 2776.07C3008.85 2888.97 3111.18 3149.77 3027.65 3360.44C3005.97 3415.15 2972.84 3463.09 2928.6 3503.97C2853.34 3571.41 2733.42 3625.35 2595.7 3652.17C2532.7 3664.44 2469.64 3670.49 2408.7 3670.49" fill="#CA9A6C"/>
<path d="M2113.17 3521.17C2063.33 3521.17 2015.92 3470.79 2004.05 3402.35C2000.71 3383.08 2000.5 3364.28 2002.99 3346.88C2028.38 3376.25 2064.98 3398.39 2114.49 3406.68C2141.98 3411.28 2166.44 3413.28 2188.21 3413.27C2192.84 3413.27 2197.33 3413.19 2201.7 3413.01C2198.28 3468.63 2168.23 3513.27 2124.84 3520.24C2120.94 3520.87 2117.05 3521.17 2113.17 3521.17" fill="#814D4D"/>
<path d="M1953.13 3226.53C1954.42 3221.92 1955.8 3217.36 1957.27 3212.87C1957.23 3215.69 1957.24 3218.52 1957.3 3221.36C1955.89 3223.07 1954.49 3224.8 1953.13 3226.53M2334.88 2973.67C2354.51 2948.21 2376.93 2927.24 2400.24 2910C2380.59 2930.79 2358.14 2953.15 2334.88 2973.67Z" fill="#CBB8B3"/>
<path d="M2943.47 2170.11C2943.4 2170.28 2943.34 2170.47 2943.27 2170.67C2943.33 2170.49 2943.4 2170.31 2943.47 2170.11ZM1936.75 1904.76C1891.57 1940.47 1721.43 2080.61 1570.6 2279.79C1411.14 2490.35 1241.04 2812.28 1336.19 3150.24C1394.05 3355.75 1523.49 3508.17 1720.94 3603.27C2002.47 3738.85 2407.23 3741.28 2752.13 3609.41C2890.42 3556.56 2983.11 3472.79 3027.65 3360.44C3120.69 3125.8 2983.15 2828.95 2938.79 2743.55C2857.25 2586.61 2872.46 2278.37 2883.85 2181.55L1936.75 1904.76M2221.66 3761.97C2029.83 3761.97 1845.88 3725.57 1695.1 3652.95C1485.31 3551.91 1341.92 3383.09 1280.46 3164.77C1235.61 3005.47 1241.43 2836.85 1297.74 2663.61C1342.41 2526.21 1418.79 2385.71 1524.77 2245.96C1704.43 2009.08 1904.37 1858.28 1912.8 1851.97C1920.21 1846.44 1929.94 1844.69 1938.91 1847.32L2924.28 2135.29C2931.73 2137.48 2937.95 2142.45 2941.53 2149.12C2944.98 2155.52 2945.68 2162.96 2943.54 2169.85C2934.89 2205.87 2908.05 2560.16 2990.42 2718.71C3037.45 2809.23 3183.02 3124.44 3081.59 3380.24C3031.05 3507.73 2927.37 3602.21 2773.45 3661.05C2597.34 3728.39 2405.87 3761.96 2221.66 3761.97" fill="#181818"/>
<path d="M3389.11 1889.57C3263.83 2454.35 2032.03 2436.51 2032.03 2436.51C2032.03 2436.51 800.325 2454.35 675.047 1889.57C549.756 1324.8 1249.29 374.013 1426.61 293.453C1677.18 179.627 2032.03 380.547 2032.03 380.547C2032.03 380.547 2386.96 179.627 2637.46 293.453C2814.78 374.013 3514.32 1324.8 3389.11 1889.57" fill="#FCC06A"/>
<path d="M964.135 1252.05C961.821 1252.05 959.563 1251.88 957.387 1251.53C912.691 1244.37 872.954 1210.52 840.533 1162.21C847.433 1146.93 854.402 1131.91 861.399 1117.19C885.784 1141.4 912.982 1157.59 942.299 1162.28C944.475 1162.63 946.719 1162.8 949.033 1162.8C986.151 1162.81 1040.23 1118.49 1099.6 1050.08C1219.82 911.56 1361.78 674.24 1428.74 505.894C1444.31 466.747 1455.81 431.374 1462.08 401.787C1466.18 404.16 1469.65 406.974 1472.45 410.267C1554 506.32 1116.43 1252.07 964.135 1252.05" fill="#D09A61"/>
<path d="M3087.45 1252.05C2935.14 1252.05 2497.58 506.32 2579.12 410.267C2584.33 404.134 2591.92 399.64 2601.56 396.654C2607.23 425.747 2618.33 460.907 2633.6 499.947C2699.81 669.294 2844.63 911.907 2966.58 1051.8C3025.37 1119.24 3078.83 1162.8 3115.63 1162.8C3117.95 1162.8 3120.2 1162.63 3122.38 1162.28C3146.36 1158.44 3168.93 1146.91 3189.72 1129.57C3195.88 1141.91 3201.96 1154.31 3207.96 1166.73C3176.12 1212.63 3137.47 1244.6 3094.18 1251.53C3092.01 1251.88 3089.75 1252.05 3087.45 1252.05Z" fill="#D09A61"/>
<path d="M3361.3 1588.01C3335.6 1474.6 3293.96 1357.33 3242.96 1242.36C3231.72 1217.03 3220.03 1191.79 3207.96 1166.73C3211.52 1161.6 3214.99 1156.31 3218.38 1150.85C3279.19 1283.72 3335.94 1437.37 3361.3 1588.01" fill="#FEE6C3"/>
<path d="M2017.68 455.693C2017.68 455.693 1802.18 333.68 1588.49 333.68C1547.42 333.68 1506.43 338.187 1467.04 348.92C1466.02 336.934 1462.88 327.48 1457.38 320.987C1455.15 318.374 1452.5 316.053 1449.44 314.027C1497.53 294.24 1549.78 286.374 1602.48 286.374C1805.36 286.374 2014.74 402.973 2017.42 404.493C2021.92 407.04 2026.98 408.32 2032.03 408.32C2037.09 408.32 2042.15 407.04 2046.67 404.493C2049.34 402.973 2258.75 286.374 2461.63 286.374C2514.46 286.374 2566.83 294.28 2615 314.174C2612.04 316.174 2609.46 318.44 2607.3 320.987C2600.46 329.054 2597.27 341.68 2597.27 358.08C2549.26 340.693 2498.11 333.68 2446.89 333.68C2233.2 333.68 2017.68 455.693 2017.68 455.693" fill="#FEE6C3"/>
<path d="M3207.96 1166.73C3201.96 1154.31 3195.88 1141.91 3189.72 1129.57C3194.18 1125.84 3198.57 1121.84 3202.88 1117.59C3208.06 1128.51 3213.24 1139.61 3218.38 1150.85C3214.99 1156.31 3211.52 1161.6 3207.96 1166.73" fill="#ECD7C0"/>
<path d="M3345.96 1953.59C3331.34 2196.93 2725.89 2455.51 2027.5 2455.51C1397.54 2455.51 700.776 2201.4 712.788 1953.65C785.029 1845.37 895.025 1762.25 1023.34 1728.43C1129.5 1700.44 1242.58 1703.56 1349.18 1677.24C1487.96 1642.93 1606.9 1561.4 1730.74 1493.2C1789.06 1461.11 1858.62 1440.35 1916 1427.36C1990.55 1410.48 2068.28 1410.48 2142.82 1427.36C2200.19 1440.35 2269.84 1461.11 2328.08 1493.2C2451.93 1561.4 2570.86 1642.93 2709.63 1677.24C2816.24 1703.56 2929.32 1700.44 3035.48 1728.43C3163.81 1762.17 3273.72 1845.31 3345.96 1953.59Z" fill="#A16044"/>
<path d="M2348.28 2085.76C2355.37 2035.56 2362.81 1985.69 2370.52 1937.31C2378.88 1938.89 2387.17 1940.76 2395.62 1941.95L2423.41 1945.36C2428.06 1945.87 2432.67 1946.59 2437.34 1946.93L2451.42 1947.55L2479.6 1948.72C2498 1948.69 2516.35 1948.23 2534.81 1946.71C2571.65 1943.85 2608.73 1938.39 2645.08 1927.76C2650.1 1926.28 2655.13 1924.72 2660.16 1923.07C2583.26 1993.31 2475.34 2049.93 2348.28 2085.76M1588.32 2041.6C1505.86 2005.44 1435.87 1959.43 1383.06 1906.4C1394.57 1911.65 1406.34 1916.25 1418.17 1920.29C1436.59 1926.39 1455.37 1931.01 1474.17 1934.93C1493.04 1938.35 1511.97 1941.31 1530.88 1943.08C1549.81 1945.13 1568.72 1946.13 1587.6 1946.88C1597.04 1947.23 1606.45 1947.23 1615.88 1947.41C1625.4 1947.25 1635.03 1946.77 1644.6 1946.45C1666.58 1945.89 1688.4 1943.63 1710.07 1940.33C1668.75 1972.52 1628.06 2006.36 1588.32 2041.6" fill="#874D43"/>
<path d="M3341.12 1946.45C3318.96 1914.32 3293.45 1884.49 3265.1 1857.63C3313.12 1809.92 3350.59 1755.33 3373.57 1692.83C3377.67 1758.89 3374.22 1823.25 3360.8 1883.77C3355.98 1905.56 3349.37 1926.44 3341.12 1946.45M721.018 1941.67C713.675 1923.11 707.717 1903.84 703.269 1883.77C689.844 1823.25 686.408 1758.89 690.495 1692.81C713.093 1754.23 749.615 1807.97 796.432 1855.08C768.416 1881.28 743.117 1910.33 721.018 1941.67Z" fill="#D09A61"/>
<path d="M2458.93 2380.04C2446.47 2377.71 2434.08 2374.97 2421.82 2371.83C2385.74 2362.59 2350.68 2350.01 2315.19 2338.85C2321.75 2284.84 2328.83 2228.87 2336.35 2172.48C2626.86 2145.77 3051.03 2070.28 3265.1 1857.63C3293.45 1884.49 3318.96 1914.32 3341.12 1946.45C3226.32 2225.24 2795.33 2336.08 2458.93 2380.04M1326.49 2308.96C1324.42 2308.13 1322.35 2307.35 1320.27 2306.59C1287.92 2294.71 1253.56 2289.05 1219.08 2289.05C1208.64 2289.05 1198.16 2289.57 1187.74 2290.6C975.732 2221.85 788.978 2113.23 721.019 1941.67C743.118 1910.33 768.417 1881.28 796.432 1855.08C955.004 2014.64 1231.5 2097.59 1482.73 2140.65C1466.31 2156.92 1450.08 2173.43 1434.03 2190.13C1433.87 2190.31 1433.7 2190.49 1433.52 2190.67C1428.21 2196.23 1422.91 2201.85 1417.53 2207.52L1416.89 2208.21C1416.44 2208.67 1415.98 2209.13 1415.54 2209.64C1415.47 2209.72 1415.38 2209.8 1415.31 2209.88C1411.32 2214.12 1407.35 2218.37 1403.38 2222.65C1400.56 2225.68 1397.77 2228.72 1395 2231.76C1390.69 2236.44 1386.38 2241.15 1382.1 2245.87C1376.12 2252.44 1370.05 2259.19 1363.84 2266.17C1357.29 2273.53 1350.75 2280.95 1344.25 2288.4C1339.03 2294.32 1333.89 2300.24 1329 2306.04C1328.51 2306.6 1328.04 2307.15 1327.56 2307.71C1327.2 2308.13 1326.84 2308.55 1326.49 2308.96" fill="#874D43"/>
<path d="M1602.48 286.373C1545.91 286.373 1489.88 295.427 1438.94 318.573C1366.29 351.573 1154.88 585.92 962.666 923.293C835.656 1146.19 633.088 1567.39 703.27 1883.77C822.231 2420.04 2019.58 2409.07 2031.61 2408.72C2031.9 2408.72 2032.19 2408.72 2032.48 2408.72C2044.52 2409.01 3241.96 2419.77 3360.8 1883.77C3430.99 1567.39 3228.41 1146.19 3101.42 923.293C2909.19 585.92 2697.79 351.573 2625.13 318.573C2391.56 212.427 2050.09 402.56 2046.67 404.493C2037.65 409.587 2026.44 409.6 2017.42 404.493C2014.74 402.973 1805.36 286.373 1602.48 286.373M2042.55 2464.33C2036.82 2464.33 2033.24 2464.29 2032.04 2464.28C2018.62 2464.44 1711.99 2466.89 1394.53 2402C1203.47 2362.96 1045.48 2307.45 924.953 2237.05C770.689 2146.93 677.112 2031.97 646.81 1895.37C572.726 1561.4 781.192 1126.24 912.04 896.573C1081.61 598.933 1306.93 317.107 1414.29 268.333C1649.15 161.64 1960.4 311.093 2032.04 348.68C2103.65 311.107 2414.98 161.627 2649.79 268.333C2757.14 317.107 2982.46 598.933 3152.03 896.573C3282.89 1126.24 3491.34 1561.4 3417.27 1895.37C3386.99 2031.97 3293.41 2146.93 3139.16 2237.05C3018.63 2307.45 2860.64 2362.96 2669.58 2402C2380.63 2461.05 2100.65 2464.33 2042.55 2464.33" fill="#181818"/>
<path d="M1457.38 320.987C1380.57 230.507 787.357 497.8 745.403 665.08C703.436 832.374 796.709 1138.96 942.299 1162.28C1087.89 1185.61 1540.14 418.481 1457.38 320.987Z" fill="#A16044"/>
<path d="M748.133 656.12C762.237 616.72 804.717 572.427 862.438 528.853C804.731 572.413 762.251 616.72 748.133 656.12Z" fill="#FFFBD8"/>
<path d="M755.074 907.307C733.571 822.373 728.514 732.44 745.403 665.067C746.151 662.12 747.066 659.133 748.133 656.12C762.251 616.72 804.731 572.413 862.438 528.853C1015.63 413.227 1276.14 302.773 1398.4 302.773C1426.08 302.773 1446.7 308.453 1457.35 321.013C1462.13 326.627 1465.12 334.48 1466.49 344.293C1465.12 334.493 1462.13 326.627 1457.35 321.013C1447.54 309.48 1429.42 303.787 1405.1 302.947C1393.67 330.44 1380.43 359.52 1365.75 389.547C1170.83 420.933 793.993 615.36 760.852 747.44C760.311 749.587 759.799 751.773 759.3 753.96C751.887 734.186 745.417 713.653 739.916 692.773C730.176 755.973 736.397 833.413 755.046 907.107C755.06 907.173 755.074 907.24 755.074 907.307M1463.35 395.453C1464.33 390.2 1465.16 385.16 1465.8 380.32C1465.16 385.16 1464.35 390.213 1463.35 395.453ZM1465.8 380.253C1465.82 380.2 1465.82 380.133 1465.83 380.08C1465.82 380.147 1465.82 380.2 1465.8 380.253ZM1466.56 344.747C1466.56 344.72 1466.56 344.72 1466.56 344.707C1466.56 344.72 1466.56 344.733 1466.56 344.747ZM1466.54 344.52C1466.52 344.44 1466.52 344.4 1466.51 344.32C1466.51 344.387 1466.52 344.453 1466.54 344.52Z" fill="#D9BFB4"/>
<path d="M1099.6 1050.08C1219.8 911.56 1361.75 674.24 1428.74 505.893C1361.78 674.24 1219.82 911.56 1099.6 1050.08Z" fill="#AD7B5A"/>
<path d="M949.019 1162.79C946.719 1162.79 944.461 1162.61 942.285 1162.27C855.275 1148.33 786.969 1033.21 755.047 907.107C748.341 851.921 749.283 798.44 759.3 753.96C795.781 851.44 854.485 930.601 925.756 942.041C927.931 942.387 930.19 942.56 932.504 942.56C1030.28 942.56 1245.71 635.067 1365.75 389.547C1383.41 386.694 1399.57 385.187 1413.86 385.187C1434.82 385.187 1451.74 388.44 1463.35 395.454C1457.46 426.24 1445.42 463.947 1428.74 505.894C1361.75 674.24 1219.8 911.56 1099.6 1050.08C1040.21 1118.48 986.151 1162.79 949.019 1162.79M1465.8 380.32C1465.8 380.294 1465.8 380.28 1465.8 380.254C1465.8 380.267 1465.8 380.307 1465.8 380.32ZM1465.83 380.08C1467.59 366.534 1467.89 354.654 1466.56 344.747C1467.89 354.654 1467.6 366.52 1465.83 380.08ZM1466.56 344.707C1466.55 344.641 1466.54 344.574 1466.54 344.52C1466.54 344.56 1466.55 344.654 1466.56 344.707ZM1466.51 344.32C1466.51 344.307 1466.51 344.307 1466.5 344.294C1466.51 344.307 1466.51 344.32 1466.51 344.32Z" fill="#874D43"/>
<path d="M755.047 907.107C736.398 833.414 730.177 755.974 739.917 692.774C745.417 713.654 751.888 734.187 759.3 753.96C749.283 798.44 748.341 851.92 755.047 907.107M1463.35 395.454C1451.74 388.44 1434.82 385.187 1413.86 385.187C1399.57 385.187 1383.41 386.693 1365.75 389.547C1380.43 359.52 1393.67 330.44 1405.1 302.947C1429.42 303.787 1447.54 309.48 1457.35 321.013C1462.13 326.627 1465.12 334.493 1466.49 344.293C1466.51 344.307 1466.51 344.307 1466.51 344.32C1466.52 344.4 1466.52 344.44 1466.54 344.52C1466.54 344.574 1466.55 344.64 1466.56 344.707C1466.56 344.72 1466.56 344.72 1466.56 344.747C1467.89 354.653 1467.59 366.533 1465.83 380.08C1465.82 380.133 1465.82 380.2 1465.8 380.254C1465.8 380.28 1465.8 380.294 1465.8 380.32C1465.16 385.16 1464.33 390.2 1463.34 395.454" fill="#B4999D"/>
<path d="M1398.49 330.574C1381.83 330.574 1358.84 332.947 1328.1 339.68C1122.04 384.867 800.408 564.16 773.46 671.6C746.013 781.013 781.856 959.28 851.714 1060.89C872.4 1090.99 905.749 1128.27 947.038 1134.88C982.992 1140.69 1104 1032.76 1259.49 774.693C1321.35 672.013 1373.01 570.134 1404.96 487.84C1453.61 362.574 1435.21 338.787 1435.02 338.56C1431.86 334.84 1420.84 330.574 1398.49 330.574V330.574ZM949.227 1190.6C945.264 1190.6 941.371 1190.29 937.561 1189.68C888.652 1181.85 842.306 1147.92 803.553 1091.55C724.842 977.053 686.173 782.827 717.333 658.56C755.074 508.12 1127.81 326.627 1315.27 285.507C1399.95 266.96 1453.75 272.8 1479.73 303.413C1496.96 323.707 1513.55 366.92 1459.05 507.293C1426 592.413 1372.86 697.267 1309.43 802.56C1245.39 908.84 1177.19 1004.85 1117.36 1072.91C1047.15 1152.77 993.272 1190.6 949.227 1190.6" fill="#181818"/>
<path d="M2607.3 320.987C2684.11 230.507 3277.32 497.8 3319.27 665.08C3361.23 832.374 3267.97 1138.96 3122.38 1162.28C2976.79 1185.61 2524.53 418.481 2607.3 320.987" fill="#A16044"/>
<path d="M3318.17 661.054C3306.08 620.84 3263.23 575.16 3204.01 530.2C3263.23 575.16 3306.08 620.854 3318.17 661.054Z" fill="#FFFBD8"/>
<path d="M3309.59 907.307C3309.6 907.24 3309.62 907.173 3309.62 907.107C3328.27 833.413 3334.49 755.973 3324.75 692.773C3319.26 713.653 3312.78 734.186 3305.38 753.96C3304.88 751.773 3304.37 749.587 3303.83 747.44C3270.67 615.36 2893.84 420.933 2698.92 389.547C2684.25 359.52 2671.01 330.44 2659.56 302.947C2635.25 303.787 2617.14 309.48 2607.31 321.013C2602.35 326.867 2599.31 335.12 2598.02 345.493C2599.31 335.12 2602.34 326.853 2607.31 321.013C2617.97 308.453 2638.6 302.773 2666.27 302.773C2789.01 302.773 3051.07 414.093 3204.01 530.2C3263.23 575.16 3306.09 620.84 3318.17 661.053C3318.57 662.4 3318.93 663.733 3319.26 665.067C3336.15 732.44 3331.11 822.373 3309.59 907.307M2601.33 395.453C2600.39 390.48 2599.6 385.68 2598.97 381.067C2599.6 385.667 2600.39 390.48 2601.34 395.453C2601.33 395.453 2601.33 395.453 2601.33 395.453ZM2598.96 380.893C2598.95 380.88 2598.95 380.867 2598.95 380.853C2598.95 380.867 2598.95 380.88 2598.96 380.893ZM2597.96 345.853C2597.96 345.853 2597.96 345.853 2597.96 345.84V345.853ZM2597.99 345.64C2598 345.613 2598 345.573 2598 345.547C2598 345.573 2598 345.613 2597.99 345.64Z" fill="#D9BFB4"/>
<path d="M2966.58 1051.8C2844.63 911.907 2699.81 669.294 2633.6 499.947C2699.81 669.307 2844.63 911.907 2966.58 1051.8Z" fill="#AD7B5A"/>
<path d="M3115.65 1162.79C3078.83 1162.79 3025.37 1119.24 2966.58 1051.8C2844.62 911.907 2699.81 669.307 2633.6 499.947C2618.12 460.374 2606.94 424.787 2601.34 395.454C2612.94 388.44 2629.84 385.187 2650.82 385.187C2665.09 385.187 2681.27 386.694 2698.92 389.547C2818.95 635.067 3034.39 942.56 3132.16 942.56C3134.49 942.56 3136.73 942.387 3138.92 942.041C3210.19 930.601 3268.9 851.44 3305.38 753.96C3315.4 798.44 3316.34 851.921 3309.62 907.107C3277.71 1033.21 3209.39 1148.33 3122.39 1162.27C3120.22 1162.61 3117.96 1162.79 3115.65 1162.79M2598.97 381.067C2598.97 381 2598.96 380.96 2598.96 380.894C2598.96 380.947 2598.97 381.014 2598.97 381.067ZM2598.95 380.854C2597.16 367.48 2596.77 355.734 2597.96 345.854C2596.78 355.734 2597.16 367.494 2598.95 380.854ZM2597.96 345.841C2597.98 345.774 2597.99 345.707 2597.99 345.641C2597.99 345.707 2597.98 345.774 2597.96 345.841ZM2598 345.547C2598 345.534 2598.02 345.507 2598.02 345.494C2598 345.507 2598 345.534 2598 345.547Z" fill="#874D43"/>
<path d="M3309.62 907.107C3316.34 851.92 3315.4 798.44 3305.38 753.96C3312.78 734.187 3319.26 713.654 3324.75 692.774C3334.49 755.974 3328.27 833.414 3309.62 907.107ZM2601.34 395.454C2600.39 390.48 2599.6 385.667 2598.97 381.067C2598.97 381.013 2598.96 380.947 2598.96 380.893C2598.94 380.88 2598.94 380.867 2598.94 380.854C2597.16 367.494 2596.78 355.734 2597.96 345.854V345.84C2597.98 345.774 2597.99 345.707 2597.99 345.64C2598 345.614 2598 345.573 2598 345.547C2598 345.533 2598 345.507 2598.02 345.493C2599.31 335.12 2602.35 326.867 2607.31 321.013C2617.14 309.48 2635.25 303.787 2659.56 302.947C2671.01 330.44 2684.25 359.52 2698.92 389.547C2681.27 386.693 2665.09 385.187 2650.82 385.187C2629.84 385.187 2612.94 388.44 2601.33 395.454" fill="#B4999D"/>
<path d="M2629.65 338.56C2629.46 338.787 2611.07 362.574 2659.72 487.854C2691.67 570.147 2743.33 672.027 2805.21 774.707C2960.66 1032.75 3081.48 1140.68 3117.63 1134.88C3158.93 1128.27 3192.28 1090.99 3212.97 1060.89C3282.82 959.28 3318.65 781.013 3291.21 671.6C3264.27 564.16 2942.65 384.88 2736.61 339.693C2664.65 323.907 2635.18 332.053 2629.65 338.56ZM3115.44 1190.6C3071.41 1190.6 3017.52 1152.79 2947.32 1072.92C2887.49 1004.87 2819.29 908.854 2755.26 802.574C2691.82 697.28 2638.68 592.413 2605.62 507.293C2551.12 366.92 2567.72 323.707 2584.94 303.413C2610.93 272.8 2664.73 266.947 2749.44 285.52C2936.89 326.627 3309.6 508.133 3347.33 658.56C3378.51 782.827 3339.82 977.053 3261.13 1091.55C3222.37 1147.91 3176.03 1181.85 3127.12 1189.68C3123.31 1190.29 3119.42 1190.6 3115.44 1190.6" fill="#181818"/>
<path d="M2141.03 1097.93C2141.88 1076.89 2144.75 1056.44 2149.21 1035.95C2153.74 1015.52 2160.29 995.187 2169.55 975.4C2178.84 955.6 2191.12 936.534 2206.61 919.454C2222.1 902.387 2241.09 887.36 2263.08 876.4C2274.14 871.054 2285.83 866.707 2297.51 863.654C2309.26 860.76 2321 858.734 2332.61 857.774C2355.9 855.88 2378.16 856.987 2400.17 860.107C2444.04 866.467 2486.61 881.067 2521.91 905.947C2478.41 903.107 2437.85 901.32 2397.92 903.747C2357.85 906.054 2319.38 910.787 2289.39 925.84C2258.66 940.92 2231.69 966.72 2208.78 997.08C2185.36 1027.49 2165.97 1063.41 2141.03 1097.93" fill="#181818"/>
<path d="M1913.17 1097.93C1888.25 1063.41 1868.86 1027.49 1845.43 997.08C1822.52 966.72 1795.55 940.92 1764.81 925.84C1734.83 910.787 1696.37 906.054 1656.3 903.747C1616.37 901.32 1575.8 903.107 1532.31 905.947C1567.61 881.067 1610.17 866.467 1654.05 860.107C1676.05 856.987 1698.31 855.88 1721.61 857.774C1733.21 858.734 1744.96 860.76 1756.7 863.654C1768.38 866.707 1780.08 871.054 1791.13 876.414C1813.12 887.36 1832.12 902.387 1847.59 919.454C1863.1 936.534 1875.37 955.6 1884.66 975.4C1893.91 995.187 1900.47 1015.52 1905.01 1035.95C1909.47 1056.44 1912.33 1076.89 1913.17 1097.93" fill="#181818"/>
<path d="M2058.25 402.147L2029.39 1140.08L2000.51 402.147C1999.92 386.813 2012.35 373.907 2028.29 373.32C2044.24 372.747 2057.65 384.72 2058.25 400.054C2058.28 400.747 2058.28 401.48 2058.25 402.147Z" fill="#181818"/>
<path d="M2335.7 1512.67C2207.18 1374.05 2195.62 1182.15 2309.9 1084.03C2424.16 985.907 2620.98 1018.73 2749.51 1157.35C2878.03 1295.97 2889.59 1487.88 2775.31 1586C2661.05 1684.12 2464.22 1651.29 2335.7 1512.67" fill="#A16044"/>
<path d="M1730.42 1492.29C1858.96 1353.67 1870.51 1161.76 1756.23 1063.64C1641.96 965.52 1445.14 998.36 1316.62 1136.97C1188.1 1275.59 1176.55 1467.49 1290.81 1565.61C1405.08 1663.73 1601.9 1630.89 1730.42 1492.29" fill="#A16044"/>
<path d="M2008.38 511.187C2024.33 496.52 2042.98 485.147 2062.46 477.24C2081.97 469.294 2102.27 464.667 2122.43 462.613C2162.79 458.627 2202.61 464.36 2239.11 477.36C2275.3 490.347 2307.85 509.427 2337.73 530.707C2367.68 552.04 2395.19 575.64 2422.61 599.24C2392.23 579.28 2361.73 559.36 2329.91 542.387C2298.15 525.427 2264.91 511.48 2230.72 503.933C2196.97 496.52 2161.69 496.267 2129.52 503.72C2097.36 511.094 2068.78 526.88 2050.45 549.24C2040.54 561.334 2022.34 563.413 2009.77 553.88C1997.2 544.347 1995.06 526.814 2004.95 514.72C2005.77 513.72 2006.64 512.8 2007.57 511.933L2008.38 511.187" fill="#181818"/>
<path d="M2008.31 549.24C1990 526.88 1961.4 511.094 1929.24 503.72C1897.09 496.267 1861.8 496.52 1828.04 503.933C1793.85 511.48 1760.61 525.427 1728.86 542.387C1697.03 559.36 1666.54 579.28 1636.15 599.24C1663.58 575.64 1691.1 552.04 1721.04 530.707C1750.93 509.427 1783.46 490.347 1819.66 477.36C1856.16 464.36 1895.98 458.627 1936.35 462.613C1956.5 464.667 1976.81 469.294 1996.32 477.24C2015.8 485.147 2034.43 496.52 2050.38 511.187L2051.09 511.827C2062.64 522.467 2063.06 540.107 2052.01 551.24C2040.96 562.374 2022.61 562.773 2011.04 552.133C2010.1 551.253 2009.12 550.214 2008.31 549.24" fill="#181818"/>
<path d="M2008.38 660.413C2022.85 647.28 2039.7 637.147 2057.24 630.147C2074.8 623.133 2093.01 619.107 2111.04 617.4C2147.11 614.08 2182.51 619.467 2214.87 631.254C2246.91 643.04 2275.58 660.174 2301.82 679.2C2328.13 698.267 2352.23 719.293 2376.24 740.333C2349.26 722.947 2322.19 705.587 2294.01 690.88C2265.88 676.16 2236.52 664.16 2206.48 657.84C2176.88 651.614 2146.02 651.734 2118.13 658.507C2090.24 665.214 2065.8 679.173 2050.45 698.48C2040.71 710.72 2022.52 713.04 2009.78 703.68C1997.06 694.307 1994.65 676.787 2004.38 664.547C2005.31 663.387 2006.32 662.307 2007.39 661.32L2008.38 660.413" fill="#181818"/>
<path d="M2008.31 698.48C1992.98 679.173 1968.54 665.214 1940.65 658.507C1912.76 651.734 1881.9 651.614 1852.29 657.84C1822.24 664.16 1792.88 676.16 1764.75 690.88C1736.57 705.587 1709.5 722.947 1682.52 740.333C1706.55 719.293 1730.64 698.267 1756.94 679.2C1783.2 660.174 1811.85 643.04 1843.9 631.254C1876.26 619.467 1911.65 614.08 1947.74 617.4C1965.75 619.107 1983.97 623.133 2001.53 630.147C2019.07 637.147 2035.93 647.28 2050.38 660.413L2051.27 661.213C2062.92 671.8 2063.44 689.467 2052.44 700.68C2041.44 711.88 2023.08 712.387 2011.43 701.8C2010.34 700.8 2009.23 699.6 2008.31 698.48" fill="#181818"/>
<path d="M1274.27 1759.05C1278.91 1821.56 1367.06 1919.79 1617.58 1919.79C1868.11 1919.79 2039.78 1759.05 2039.78 1759.05C2039.78 1759.05 2255.52 1919.79 2480.53 1919.79C2705.53 1919.79 2785.77 1829.75 2784.41 1772.45L1274.27 1759.05Z" fill="#A16044"/>
<path d="M2384.73 1768.91L2108.33 1766.45C2089.06 1754.53 2075.33 1745.11 2068.64 1740.39V1643.41C2173.81 1651.35 2275.69 1711.52 2373.38 1762.96C2377.17 1764.96 2380.95 1766.93 2384.73 1768.91M1987.06 1765.37L1706.3 1762.89C1803.95 1711.48 1905.79 1651.35 2010.91 1643.41V1746.71C2007.64 1749.47 2004.19 1752.27 2000.83 1754.91C1996.33 1758.47 1991.73 1761.95 1987.06 1765.37" fill="#874D43"/>
<path d="M1615.98 1892.13C1607.17 1891.99 1598.31 1892.03 1589.5 1891.72C1571.91 1891.09 1554.32 1890.13 1536.96 1888.25C1502.17 1884.71 1468.07 1878.39 1435.36 1869.19C1402.76 1859.85 1371.57 1847.25 1344.56 1829.24C1341.73 1827.33 1338.97 1825.37 1336.27 1823.35C1365.87 1831.71 1408.62 1840.47 1457.75 1840.47C1493.89 1840.47 1533.46 1835.73 1573.82 1822.61C1616.98 1808.59 1661.15 1786.71 1706.18 1762.96C1706.22 1762.93 1706.26 1762.91 1706.3 1762.89L1987.06 1765.37C1984.82 1767.03 1982.54 1768.67 1980.26 1770.29C1966.29 1780.36 1951.74 1789.75 1936.97 1798.77C1907.28 1816.67 1876.08 1832.19 1844.03 1845.55L1819.76 1855.01C1811.64 1858.11 1803.27 1860.47 1795.06 1863.28L1782.7 1867.35C1778.57 1868.69 1774.32 1869.6 1770.13 1870.75L1744.94 1877.33C1711.01 1884.37 1676.66 1890.23 1641.98 1891.13C1633.31 1891.45 1624.71 1891.95 1615.98 1892.13M2479.71 1890.8L2454.85 1889.69L2442.42 1889.17C2438.28 1888.88 2434.14 1888.2 2430 1887.73C2405.63 1885 2381.31 1880.72 2357.2 1875.09C2356.33 1874.77 2355.43 1874.51 2354.51 1874.27C2327.09 1867.32 2298.84 1858.29 2270.58 1847.48C2202.9 1821.53 2145.36 1789.36 2108.34 1766.45L2384.73 1768.91C2425.84 1790.33 2466.21 1809.76 2505.74 1822.61C2546.09 1835.73 2585.67 1840.47 2621.81 1840.47C2664.62 1840.47 2702.6 1833.81 2731.24 1826.57C2726.44 1830.36 2721.41 1833.95 2716.26 1837.35C2690.79 1853.85 2661.03 1866.53 2629.26 1874.57C2597.55 1882.73 2564.24 1887.32 2530.54 1889.36C2513.71 1890.4 2496.67 1890.71 2479.71 1890.8" fill="#874D43"/>
<path d="M2798.17 1772.12C2802.28 1792.88 2796.7 1814.17 2787.03 1831.81C2777.41 1849.75 2763.71 1864.95 2748.46 1877.39C2717.7 1902.53 2681.18 1917.09 2645.08 1927.76C2608.73 1938.39 2571.65 1943.85 2534.81 1946.71C2516.36 1948.23 2498 1948.69 2479.6 1948.72L2451.42 1947.55L2437.34 1946.93C2432.67 1946.59 2428.06 1945.87 2423.42 1945.36L2395.62 1941.95C2386.41 1940.65 2377.39 1938.56 2368.26 1936.89C2349.91 1933.8 2332.22 1928.73 2314.4 1924.05C2279.18 1913.67 2244.6 1901.61 2211.39 1886.99C2194.56 1880.12 2178.41 1871.99 2162.01 1864.33C2145.94 1856.12 2129.81 1847.99 2114.14 1839.09C2106.2 1834.83 2098.47 1830.21 2090.71 1825.65C2082.9 1821.16 2075.26 1816.39 2067.62 1811.63C2052.19 1801.95 2037.59 1792.43 2022.09 1781.11L2059.97 1779.05C2051.99 1786.23 2045.03 1791.91 2037.45 1797.85C2030.03 1803.75 2022.46 1809.39 2014.83 1814.85C1999.56 1825.88 1983.79 1836.11 1967.76 1845.93C1935.58 1865.39 1901.77 1882.29 1866.87 1896.91C1831.94 1911.59 1795.38 1922.56 1758.31 1931.55C1720.93 1939.27 1683 1945.49 1644.6 1946.45C1635.03 1946.77 1625.4 1947.25 1615.88 1947.41C1606.45 1947.23 1597.04 1947.23 1587.6 1946.88C1568.72 1946.13 1549.81 1945.13 1530.88 1943.08C1511.97 1941.31 1493.04 1938.35 1474.17 1934.93C1455.37 1931.01 1436.6 1926.39 1418.17 1920.29C1381.52 1907.76 1345.57 1889.93 1315.47 1863.91C1300.47 1850.87 1286.96 1835.69 1276.89 1818.19C1266.9 1800.77 1260.08 1780.81 1260.59 1760.01C1260.77 1752.69 1267.09 1746.89 1274.7 1747.07C1281.15 1747.21 1286.46 1751.59 1287.83 1757.39L1288.01 1758.16C1291.39 1772.52 1299.04 1786.05 1309.03 1797.91C1319.01 1809.81 1331.17 1820.21 1344.56 1829.24C1371.57 1847.25 1402.76 1859.85 1435.36 1869.19C1468.07 1878.39 1502.17 1884.71 1536.96 1888.25C1554.32 1890.13 1571.91 1891.09 1589.5 1891.72C1598.31 1892.03 1607.17 1891.99 1615.98 1892.13C1624.71 1891.95 1633.31 1891.45 1641.98 1891.13C1676.66 1890.23 1711.01 1884.37 1744.94 1877.33L1770.13 1870.75C1774.32 1869.6 1778.57 1868.69 1782.7 1867.35L1795.06 1863.28C1803.27 1860.47 1811.64 1858.11 1819.76 1855.01L1844.03 1845.55C1876.08 1832.19 1907.28 1816.67 1936.98 1798.77C1951.74 1789.75 1966.29 1780.36 1980.26 1770.29C1987.27 1765.29 1994.16 1760.19 2000.83 1754.91C2007.39 1749.75 2014.29 1743.96 2019.62 1739.13L2019.72 1739.05C2030.3 1729.49 2046.31 1728.95 2057.51 1737.08C2070.23 1746.29 2084.95 1755.88 2099.23 1764.69C2106.45 1769.16 2113.67 1773.63 2121.08 1777.84C2128.44 1782.12 2135.75 1786.44 2143.29 1790.44C2158.14 1798.79 2173.41 1806.37 2188.61 1814.08C2204.09 1821.2 2219.41 1828.68 2235.23 1834.96C2297.92 1861.44 2363.69 1880.29 2430 1887.73C2434.14 1888.2 2438.28 1888.88 2442.42 1889.17L2454.85 1889.69L2479.71 1890.8C2496.67 1890.71 2513.71 1890.4 2530.54 1889.36C2564.24 1887.32 2597.55 1882.73 2629.26 1874.57C2661.03 1866.53 2690.79 1853.85 2716.26 1837.35C2741.38 1820.8 2763.39 1799.72 2770.71 1772.72L2771.11 1771.25C2773.04 1764.11 2780.63 1759.83 2788.04 1761.69C2793.39 1763.04 2797.2 1767.23 2798.17 1772.12" fill="#181818"/>
<path d="M2039.78 1786.84C2023.83 1786.84 2010.91 1774.4 2010.91 1759.05V1569.31C2010.91 1553.96 2023.83 1541.53 2039.78 1541.53C2055.73 1541.53 2068.64 1553.96 2068.64 1569.31V1759.05C2068.64 1774.4 2055.73 1786.84 2039.78 1786.84Z" fill="#181818"/>
<path d="M2218.4 1459.73C2218.4 1532.17 2134.53 1611.72 2031.08 1611.72C1927.62 1611.72 1843.76 1532.17 1843.76 1459.73C1843.76 1387.31 1927.62 1349.41 2031.08 1349.41C2134.53 1349.41 2218.4 1387.31 2218.4 1459.73Z" fill="#181818"/>
<path d="M2129.48 1413.6C2129.48 1428.29 2085.68 1440.2 2031.66 1440.2C1977.64 1440.2 1933.84 1428.29 1933.84 1413.6C1933.84 1398.91 1977.64 1387 2031.66 1387C2085.68 1387 2129.48 1398.91 2129.48 1413.6Z" fill="white"/>
<path d="M2409.09 3725.99C2297.22 3725.99 2191.51 3706.88 2103.9 3669.57C1972.32 3613.52 1891.63 3497.96 1882.5 3352.53C1874.17 3219.79 1927.71 3093.07 2012.66 3044.35C2103.17 2992.45 2191.88 3012.65 2237.73 3029.88C2327.04 2804.45 2582.6 2777.41 2593.89 2776.33C2609.75 2774.85 2623.9 2785.97 2625.48 2801.24C2627.04 2816.49 2615.47 2830.11 2599.62 2831.63C2588.94 2832.68 2348.6 2859.13 2282.47 3076.04C2279.94 3084.31 2273.59 3090.97 2265.26 3094.11C2256.93 3097.24 2247.55 3096.47 2239.88 3092.01C2235.91 3089.76 2139.68 3036.2 2042.2 3092.09C1977.15 3129.37 1933.27 3239.91 1940.13 3349.19C1947.91 3473.16 2016.11 3571.41 2127.27 3618.76C2254.89 3673.12 2425.62 3685.29 2595.7 3652.17C2759.26 3620.31 2897.73 3550.21 2966.08 3464.67C2975.79 3452.51 2993.93 3450.24 3006.56 3459.59C3019.2 3468.93 3021.57 3486.37 3011.86 3498.53C2934.12 3595.83 2786.61 3671.67 2607.15 3706.63C2540.62 3719.59 2473.82 3725.99 2409.09 3725.99" fill="#181818"/>
<path d="M2347.17 1901.12C2301.99 2176.28 2265.11 2513.75 2248.08 2681.12C2241.73 2743.21 2190.93 2792.67 2126.4 2799.25C1691.65 2843.71 1413.94 2757.03 1266.65 2685.64C1191.66 2649.32 1168.86 2556.95 1217.57 2491.17C1241.82 2458.6 1266.08 2427.21 1290.4 2396.93C1294.72 2391.51 1299.12 2386.16 1303.53 2380.81C1309.58 2373.32 1315.72 2365.96 1321.79 2358.59C1326.04 2353.52 1330.3 2348.45 1334.57 2343.39C1339.9 2336.99 1345.32 2330.6 1350.72 2324.35C1350.87 2324.15 1351.09 2323.93 1351.3 2323.73C1356.65 2317.33 1362.12 2311.09 1367.61 2304.84C1382.48 2287.83 1397.34 2271.15 1412.29 2254.91C1416.48 2250.32 1420.66 2245.73 1424.92 2241.15C1429.03 2236.71 1433.15 2232.33 1437.26 2227.96C1437.47 2227.68 1437.69 2227.47 1437.91 2227.25C1443.76 2221.08 1449.52 2214.97 1455.3 2208.92C1506.62 2155.45 1557.56 2106.69 1607.65 2062.24C1625.26 2046.61 1642.72 2031.55 1660.12 2017.03C1722.04 1965.08 1782.36 1919.67 1840.11 1879.93C1968.13 1832.36 2046.36 1759.03 2046.36 1759.03C2046.36 1759.03 2136 1825.76 2259.91 1873.27C2287.48 1883.83 2316.79 1893.41 2347.17 1901.12" fill="#FF7B22"/>
<path d="M1894.33 2783.75C1676.11 2783.75 1509.57 2748.47 1387.91 2705.71C1409.29 2689.39 1431.66 2668.4 1451.14 2642.04C1493.1 2661.8 1544.03 2667 1591.7 2670.77C1677.65 2677.51 1763.6 2684.32 1849.56 2691.12C1872.81 2692.96 1896.85 2694.79 1920.82 2694.79C1937.42 2694.79 1953.99 2693.92 1970.24 2691.56C1996.39 2722.65 2033.97 2751.56 2086.54 2775.13C2018.44 2781.07 1954.42 2783.75 1894.33 2783.75ZM2258.97 2323.2C2232.92 2317.21 2205.81 2313.37 2179.02 2313.37C2178.53 2313.37 2178.03 2313.37 2177.53 2313.37C2206.47 2177.57 2244.89 2032.05 2279.38 1910C2291.21 1914.04 2302.99 1917.76 2314.68 1921.16C2293.77 2051.47 2274.87 2192.83 2258.97 2323.2Z" fill="#D26228"/>
<path d="M2259.91 1873.27C2198.35 2088.43 2126.4 2367.97 2107.85 2556.25C2107.85 2556.25 2088.51 2561.8 2054.16 2567.71C1988.13 2579.03 1866.38 2591.53 1719.01 2568.12C1589.17 2547.49 1439.42 2498.88 1290.4 2396.93C1294.72 2391.51 1299.13 2386.16 1303.53 2380.81C1309.59 2373.32 1315.72 2365.96 1321.79 2358.59C1326.05 2353.52 1330.3 2348.45 1334.57 2343.39C1339.9 2336.99 1345.32 2330.6 1350.72 2324.35C1350.87 2324.15 1351.1 2323.93 1351.3 2323.73C1356.65 2317.33 1362.12 2311.09 1367.61 2304.84C1382.48 2287.83 1397.34 2271.15 1412.29 2254.91C1416.48 2250.32 1420.66 2245.73 1424.92 2241.15C1429.03 2236.71 1433.15 2232.33 1437.26 2227.96C1437.47 2227.68 1437.69 2227.47 1437.91 2227.25C1443.76 2221.08 1449.52 2214.97 1455.3 2208.92C1506.62 2155.45 1557.57 2106.69 1607.65 2062.24C1625.26 2046.61 1642.72 2031.55 1660.12 2017.03C1660.41 2016.83 1660.69 2016.55 1660.98 2016.33C1664.6 2013.28 1668.13 2010.29 1671.73 2007.37C1675.56 2004.19 1679.38 2000.99 1683.29 1997.87C1694.76 1988.41 1706.23 1979.19 1717.63 1970.23C1729.11 1961.19 1740.44 1952.37 1751.7 1943.89C1781.73 1921.05 1811.24 1899.8 1840.11 1879.93C1968.14 1832.36 2046.36 1759.03 2046.36 1759.03C2046.36 1759.03 2136 1825.76 2259.91 1873.27" fill="#FFD217"/>
<path d="M1677.25 2532.25C1612.9 2518.99 1550.47 2499.63 1490.24 2474.33C1488.79 2469.92 1487.14 2465.51 1485.32 2461.12C1503.16 2458.91 1520.43 2454.91 1536.91 2449.31C1570.09 2465.72 1605.14 2479.76 1641.5 2489.85C1652.38 2492.88 1663.17 2495.56 1673.84 2497.95C1673.98 2509.57 1675.13 2521.03 1677.25 2532.25ZM2077.66 2334.2L2183.85 1935.08L2070.25 1873.89C2066.77 1876.13 2063.26 1878.33 2059.77 1880.51C2051.57 1874 2042.66 1868.31 2033.14 1863.57C2014.56 1854.31 1993.72 1848.65 1971.63 1847.6C2006.21 1826.89 2032.17 1807.49 2048.13 1794.61C2048.27 1794.71 2048.4 1794.8 2048.54 1794.88C2048.54 1794.88 2048.54 1794.89 2048.55 1794.89C2048.67 1794.97 2048.8 1795.05 2048.92 1795.15C2048.94 1795.15 2048.94 1795.16 2048.95 1795.17C2049.08 1795.24 2049.19 1795.32 2049.3 1795.4C2049.31 1795.41 2049.34 1795.43 2049.37 1795.44C2049.41 1795.48 2049.46 1795.51 2049.51 1795.53C2049.52 1795.55 2049.53 1795.56 2049.55 1795.57C2049.6 1795.6 2049.66 1795.64 2049.7 1795.67C2049.71 1795.68 2049.74 1795.69 2049.76 1795.71C2049.81 1795.75 2049.87 1795.77 2049.91 1795.81C2049.92 1795.81 2049.94 1795.83 2049.95 1795.84C2049.99 1795.87 2050.05 1795.89 2050.09 1795.92C2050.12 1795.95 2050.13 1795.96 2050.16 1795.97C2050.3 1796.07 2050.42 1796.15 2050.54 1796.24C2050.57 1796.24 2050.59 1796.25 2050.6 1796.27C2050.72 1796.35 2050.84 1796.43 2050.96 1796.51C2050.97 1796.52 2051 1796.53 2051.03 1796.56C2051.07 1796.59 2051.11 1796.61 2051.15 1796.64C2051.18 1796.67 2051.21 1796.68 2051.25 1796.69C2051.28 1796.72 2051.31 1796.75 2051.33 1796.76C2051.38 1796.79 2051.42 1796.81 2051.46 1796.84C2051.49 1796.85 2051.53 1796.88 2051.56 1796.91C2051.58 1796.93 2051.61 1796.95 2051.65 1796.97C2051.69 1797 2051.74 1797.03 2051.78 1797.05C2051.81 1797.07 2051.82 1797.08 2051.83 1797.09C2051.9 1797.13 2051.96 1797.17 2052.01 1797.21C2052.03 1797.21 2052.04 1797.23 2052.04 1797.23C2052.18 1797.32 2052.32 1797.41 2052.44 1797.49C2052.46 1797.51 2052.47 1797.52 2052.48 1797.52C2052.62 1797.61 2052.76 1797.71 2052.9 1797.8C2052.97 1797.84 2053.04 1797.89 2053.09 1797.93C2053.12 1797.95 2053.15 1797.96 2053.18 1797.97C2053.22 1798.01 2053.27 1798.04 2053.32 1798.08C2053.33 1798.08 2053.34 1798.09 2053.36 1798.11C2053.41 1798.15 2053.47 1798.17 2053.54 1798.21C2053.55 1798.23 2053.57 1798.24 2053.59 1798.25C2053.65 1798.29 2053.7 1798.33 2053.76 1798.36C2053.77 1798.37 2053.79 1798.39 2053.8 1798.39C2053.84 1798.43 2053.9 1798.45 2053.95 1798.49C2053.98 1798.51 2054.01 1798.53 2054.04 1798.55C2054.08 1798.57 2054.12 1798.6 2054.16 1798.64C2054.19 1798.65 2054.22 1798.67 2054.24 1798.68C2054.29 1798.71 2054.33 1798.75 2054.37 1798.77C2054.41 1798.8 2054.44 1798.81 2054.47 1798.84C2054.49 1798.85 2054.51 1798.85 2054.52 1798.87C2054.92 1799.13 2055.31 1799.39 2055.71 1799.65C2078.91 1814.89 2115.82 1837.57 2162.11 1860.65C2162.16 1860.68 2162.2 1860.71 2162.26 1860.73C2162.34 1860.77 2162.43 1860.81 2162.51 1860.85C2162.58 1860.89 2162.65 1860.92 2162.72 1860.96C2162.77 1860.99 2162.84 1861.03 2162.9 1861.05C2162.99 1861.11 2163.09 1861.15 2163.19 1861.19C2163.23 1861.21 2163.27 1861.24 2163.31 1861.25C2163.44 1861.32 2163.56 1861.39 2163.69 1861.44C2163.7 1861.45 2163.71 1861.45 2163.73 1861.47C2182.79 1870.93 2203.42 1880.45 2225.33 1889.56C2188.58 2019.29 2147.1 2176.41 2116.97 2321.36C2109.76 2323.37 2102.67 2325.8 2095.71 2328.68C2089.53 2330.33 2083.51 2332.19 2077.66 2334.2M1715.04 2008.36C1754.42 1976.6 1794.47 1946.36 1834.89 1917.87C1834.17 1919.01 1833.46 1920.17 1832.78 1921.33C1821.56 1940.53 1814.76 1962.45 1813.69 1985.8C1778.42 1995.56 1745.11 2002.87 1715.04 2008.36Z" fill="#D2A81F"/>
<path d="M1460.4 2244.56L1460.19 2244.81L1460.4 2244.56ZM1460.19 2244.84L1460.16 2244.87L1460.19 2244.84ZM1459.05 2246.17C1458.92 2246.32 1458.79 2246.47 1458.64 2246.61C1454.58 2250.93 1450.52 2255.25 1446.45 2259.65C1442.66 2263.73 1438.95 2267.79 1435.25 2271.84L1433.95 2273.27C1419.84 2288.61 1405.39 2304.77 1389.7 2322.73C1384.04 2329.13 1378.56 2335.43 1373.12 2341.87C1367.58 2348.28 1362.28 2354.55 1357.04 2360.81L1339.18 2382.17C1334.88 2387.37 1330.58 2392.6 1326.29 2397.89L1325.34 2399.05C1321.29 2403.99 1317.25 2408.89 1313.26 2413.88C1289.31 2443.69 1265.03 2475.13 1241.03 2507.36C1222.52 2532.36 1216.27 2563.79 1223.93 2593.55C1231.46 2622.81 1251.75 2647.35 1279.62 2660.84C1432.8 2735.08 1703.51 2814.57 2123.34 2771.65C2173.97 2766.47 2214.34 2727.25 2219.33 2678.41C2236.48 2509.88 2271.28 2191.69 2314.68 1921.16C2293.05 1914.87 2271.13 1907.48 2249.23 1899.09C2155.62 1863.21 2081.68 1817.17 2048.13 1794.61C2017.33 1819.47 1949.29 1868.59 1853.94 1904.57C1776.52 1957.97 1700.24 2017.88 1627.2 2082.68C1575.87 2128.24 1525.17 2177.07 1476.5 2227.79C1471.12 2233.41 1465.72 2239.13 1460.25 2244.91L1459.25 2245.97L1459.05 2246.17M1894.59 2839.28C1591.15 2839.28 1382.78 2773.05 1253.65 2710.47C1210.73 2689.67 1179.46 2651.92 1167.87 2606.89C1156.18 2561.37 1165.71 2513.32 1194.06 2475.07C1218.49 2442.23 1243.2 2410.25 1267.53 2379.95C1271.64 2374.83 1275.85 2369.69 1280.06 2364.59L1280.88 2363.59C1285.13 2358.33 1289.56 2352.95 1293.98 2347.6L1312.09 2325.93C1317.5 2319.47 1323.02 2312.96 1328.54 2306.57C1333.98 2300.11 1339.75 2293.49 1345.61 2286.87C1361.51 2268.65 1376.27 2252.15 1390.65 2236.52L1391.9 2235.15C1395.71 2230.97 1399.5 2226.81 1403.38 2222.65C1407.35 2218.37 1411.32 2214.12 1415.31 2209.88C1415.84 2209.29 1416.37 2208.73 1416.89 2208.21L1417.54 2207.52C1423.09 2201.67 1428.56 2195.87 1434.03 2190.13C1483.79 2138.28 1535.6 2088.4 1588.06 2041.83C1663.79 1974.65 1742.93 1912.59 1823.31 1857.35C1825.29 1855.99 1827.42 1854.88 1829.69 1854.04C1950.14 1809.28 2025.48 1739.81 2026.23 1739.11C2036.55 1729.49 2052.66 1728.61 2064.01 1737.07C2064.87 1737.71 2152.23 1802.11 2270.58 1847.48C2298.84 1858.29 2327.09 1867.32 2354.51 1874.27C2368.84 1877.91 2377.98 1891.39 2375.67 1905.47C2330.65 2179.61 2294.4 2510.81 2276.79 2683.84C2269.12 2758.79 2207.16 2818.95 2129.44 2826.89C2045.56 2835.47 1967.33 2839.28 1894.59 2839.28" fill="#181818"/>
<path d="M1460.4 2244.56L1460.38 2244.59L1460.4 2244.56ZM1460.37 2244.6L1460.34 2244.61L1460.37 2244.6ZM1460.34 2244.63L1460.33 2244.65L1460.34 2244.63ZM1460.32 2244.67L1460.3 2244.68L1460.32 2244.67ZM1460.29 2244.69L1460.27 2244.71L1460.29 2244.69ZM1332.03 2390.85C1452.06 2468.11 1583.67 2518.49 1723.69 2540.73C1869.72 2563.92 1990.23 2550.47 2049.08 2540.37C2062.16 2538.13 2072.96 2535.93 2081.18 2534.12C2102.2 2349.11 2169.26 2087.49 2225.33 1889.56C2143.11 1855.41 2078.77 1815.23 2048.13 1794.61C2017.33 1819.47 1949.29 1868.59 1853.94 1904.57C1776.52 1957.97 1700.25 2017.88 1627.2 2082.68C1575.87 2128.24 1525.17 2177.07 1476.5 2227.79C1471.12 2233.41 1465.72 2239.13 1460.25 2244.91L1459.25 2245.97L1459.05 2246.17C1458.92 2246.32 1458.79 2246.47 1458.64 2246.61C1454.58 2250.93 1450.52 2255.25 1446.45 2259.65C1442.66 2263.73 1438.95 2267.79 1435.25 2271.84L1433.95 2273.27C1419.84 2288.61 1405.39 2304.77 1389.7 2322.73C1384.04 2329.13 1378.56 2335.43 1373.13 2341.87C1367.58 2348.28 1362.28 2354.55 1357.04 2360.81L1339.18 2382.17C1336.81 2385.05 1334.41 2387.95 1332.03 2390.85M1886.68 2609.07C1835.33 2609.07 1777.02 2605.51 1714.29 2595.55C1555.76 2570.37 1407.51 2511.17 1273.65 2419.59C1267.26 2415.21 1262.99 2408.52 1261.83 2401.05C1260.68 2393.59 1262.71 2385.99 1267.49 2380C1271.64 2374.83 1275.85 2369.69 1280.06 2364.59L1280.88 2363.59C1285.13 2358.33 1289.56 2352.95 1293.98 2347.6L1312.09 2325.93C1317.5 2319.47 1323.02 2312.96 1328.54 2306.57C1333.98 2300.11 1339.75 2293.49 1345.61 2286.87C1361.51 2268.65 1376.27 2252.15 1390.65 2236.52L1391.9 2235.15C1395.71 2230.97 1399.51 2226.81 1403.38 2222.65C1407.35 2218.37 1411.32 2214.12 1415.33 2209.88C1415.84 2209.28 1416.37 2208.73 1416.89 2208.21L1417.53 2207.52C1423.09 2201.67 1428.56 2195.87 1434.03 2190.13C1483.79 2138.28 1535.6 2088.4 1588.06 2041.83C1663.79 1974.65 1742.93 1912.59 1823.31 1857.35C1825.29 1855.99 1827.42 1854.88 1829.69 1854.04C1950.8 1809.03 2025.47 1739.83 2026.2 1739.13C2036.51 1729.48 2052.64 1728.6 2064.01 1737.07C2064.87 1737.71 2152.23 1802.11 2270.58 1847.48C2284.25 1852.72 2291.64 1867 2287.73 1880.65C2229.05 2085.75 2155.19 2369.89 2136.57 2558.89C2135.46 2570.16 2127.36 2579.65 2116.09 2582.89C2115.23 2583.13 2094.77 2588.96 2059.22 2595.08C2022.09 2601.44 1961.86 2609.07 1886.68 2609.07" fill="#181818"/>
<path d="M2070.23 2495.36C2070.23 2521.12 2064.54 2545.64 2054.15 2567.72C1988.11 2579.04 1866.35 2591.55 1718.99 2568.15C1708.46 2545.92 1702.68 2521.27 1702.68 2495.36C1702.68 2397.71 1784.96 2318.53 1886.5 2318.53C1987.96 2318.53 2070.23 2397.71 2070.23 2495.36" fill="#FF2929"/>
<path d="M1797.8 2441.39C1791.69 2430.36 1788.21 2417.87 1788.14 2404.65C1788.14 2404.39 1788.14 2404.13 1788.14 2403.87C1788.14 2395.37 1788.77 2387.01 1789.97 2378.84C1816.48 2358.49 1850.03 2346.31 1886.5 2346.31C1926.68 2346.31 1963.34 2361.12 1990.9 2385.36C1981.56 2393.91 1973.18 2402.97 1965.74 2412.33C1948.32 2407.07 1929.78 2404.23 1910.54 2404.23C1868.06 2404.23 1828.93 2418.09 1797.8 2441.39Z" fill="#FFA9A9"/>
<path d="M1886.74 2553.53C1842.62 2553.53 1792.99 2550.75 1739.69 2543.15C1737.9 2538.12 1736.42 2533.01 1735.22 2527.84C1746.55 2493.2 1768.68 2463.17 1797.8 2441.39C1810.77 2464.8 1835.61 2481.55 1864.64 2484.48C1885.92 2486.63 1906.51 2488.07 1926.29 2488.92C1918.78 2503.05 1915.67 2519.6 1916.54 2535.56C1916.8 2540.2 1917.36 2544.8 1918.16 2549.35C1918.16 2550.57 1918.17 2551.83 1918.19 2553.07C1908.06 2553.36 1897.56 2553.53 1886.74 2553.53" fill="#D2212D"/>
<path d="M1735.22 2527.84C1732.78 2517.29 1731.54 2506.44 1731.54 2495.36C1731.54 2448.25 1754.39 2406.17 1789.97 2378.84C1788.77 2387.01 1788.14 2395.37 1788.14 2403.87C1788.14 2404.13 1788.14 2404.39 1788.14 2404.65C1788.21 2417.87 1791.69 2430.36 1797.8 2441.39C1768.68 2463.17 1746.55 2493.2 1735.22 2527.84Z" fill="#D28794"/>
<path d="M1677.56 2219.01C1677.56 2338.47 1576.89 2435.35 1452.68 2435.35C1395.46 2435.35 1343.21 2414.72 1303.52 2380.83C1405.49 2255.61 1508.19 2150.47 1607.64 2062.27C1650.71 2101.64 1677.56 2157.27 1677.56 2219.01Z" fill="#FF2929"/>
<path d="M1423.48 2343.11C1409.5 2343.11 1395.83 2341.88 1382.57 2339.53C1381.04 2338.44 1379.49 2337.36 1377.92 2336.29C1450.6 2251.99 1527.06 2173.35 1606.11 2101.6C1623.85 2122.92 1636.37 2147.39 1643.05 2173.65C1638.99 2191.33 1632.67 2208.21 1624.42 2223.97C1614 2216.35 1601.21 2212.37 1588.31 2212.37C1573.43 2212.37 1558.41 2217.64 1546.62 2228.64C1508.57 2264.19 1470.17 2302.23 1431.59 2342.96C1428.89 2343.05 1426.19 2343.11 1423.48 2343.11" fill="#FFA9A9"/>
<path d="M1453.33 2407.57C1450.56 2404.07 1447.68 2400.61 1444.69 2397.2V2397.13C1438.7 2390.32 1432.27 2383.68 1425.44 2377.28C1421.16 2372.63 1416.7 2368.13 1412.1 2363.77C1418.6 2356.76 1425.1 2349.83 1431.59 2342.96C1516 2340.08 1588.56 2292.44 1624.42 2223.97C1631.16 2228.91 1636.91 2235.36 1641.08 2243.27C1642.66 2246.27 1644.19 2249.31 1645.63 2252.4C1629.22 2340.31 1549.29 2407.28 1453.33 2407.57Z" fill="#D2212D"/>
<path d="M1412.1 2363.77C1402.86 2355.05 1392.98 2346.93 1382.57 2339.53C1395.83 2341.88 1409.49 2343.11 1423.47 2343.11C1426.19 2343.11 1428.89 2343.05 1431.59 2342.96C1425.1 2349.83 1418.6 2356.76 1412.1 2363.77ZM1645.63 2252.4C1644.19 2249.31 1642.66 2246.27 1641.08 2243.27C1636.91 2235.36 1631.16 2228.91 1624.42 2223.97C1632.67 2208.21 1638.99 2191.33 1643.05 2173.65C1646.78 2188.29 1648.7 2203.49 1648.7 2219.01C1648.7 2230.4 1647.64 2241.56 1645.63 2252.4Z" fill="#D28794"/>
<path d="M2114.5 1992.23C2114.5 2072.2 2047.12 2137.03 1964.02 2137.03C1880.93 2137.03 1813.55 2072.2 1813.55 1992.23C1813.55 1912.25 1880.93 1847.41 1964.02 1847.41C2047.12 1847.41 2114.5 1912.25 2114.5 1992.23Z" fill="#FF2929"/>
<path d="M1817.29 2024.48C1814.99 2014.77 1813.72 2004.71 1813.57 1994.4C1813.72 2004.72 1815.01 2014.79 1817.29 2024.48ZM1813.57 1994.31C1813.57 1994.24 1813.57 1994.17 1813.57 1994.11C1813.57 1994.16 1813.57 1994.24 1813.57 1994.31ZM1813.55 1993.85C1813.55 1993.8 1813.55 1993.76 1813.55 1993.71C1813.55 1993.76 1813.55 1993.8 1813.55 1993.85ZM1813.55 1993.45C1813.55 1993.41 1813.55 1993.39 1813.55 1993.36C1813.55 1993.39 1813.55 1993.41 1813.55 1993.45ZM1813.55 1993.07C1813.55 1993.04 1813.55 1993.01 1813.55 1992.99C1813.55 1993.01 1813.55 1993.04 1813.55 1993.07ZM1813.55 1992.65C1813.55 1992.63 1813.55 1992.61 1813.55 1992.59C1813.55 1992.61 1813.55 1992.63 1813.55 1992.65ZM1813.55 1992.24C1813.55 1990.08 1813.59 1987.93 1813.69 1985.8C1813.7 1985.8 1813.69 1985.8 1813.7 1985.8C1813.66 1986.53 1813.64 1987.27 1813.62 1988C1813.57 1989.41 1813.55 1990.83 1813.55 1992.24Z" fill="#FFEDA2"/>
<path d="M1813.69 1985.8C1814.76 1962.45 1821.56 1940.53 1832.78 1921.33C1821.56 1940.55 1814.76 1962.45 1813.71 1985.8C1813.69 1985.8 1813.71 1985.8 1813.69 1985.8Z" fill="#EDDCA5"/>
<path d="M2075.3 1894.75C2070.48 1889.65 2065.29 1884.89 2059.76 1880.51H2059.77C2065.29 1884.89 2070.48 1889.65 2075.3 1894.75" fill="#FFEDA2"/>
<path d="M2059.76 1880.51C2051.57 1874 2042.65 1868.31 2033.14 1863.57C2042.66 1868.31 2051.57 1874 2059.77 1880.51H2059.76" fill="#EDDCA5"/>
<path d="M1835.33 1995.95C1827.75 1990.47 1820.73 1984.32 1814.34 1977.59C1813.98 1981 1813.73 1984.49 1813.62 1988C1813.64 1987.27 1813.66 1986.53 1813.71 1985.8C1814.76 1962.45 1821.56 1940.55 1832.78 1921.33C1858.58 1877.21 1907.7 1847.43 1964.02 1847.43C1988.95 1847.43 2012.44 1853.25 2033.14 1863.57C2042.65 1868.31 2051.57 1874 2059.76 1880.51C2065.29 1884.89 2070.48 1889.65 2075.3 1894.75C2073.53 1911.79 2068.7 1927.96 2061.32 1942.73C2036.18 1924.55 2004.91 1913.76 1971.02 1913.76C1911.25 1913.76 1859.59 1947.32 1835.33 1995.95ZM2114.49 1993.13C2114.49 1993.13 2114.49 1993.13 2114.49 1993.12C2114.49 1993.13 2114.49 1993.13 2114.49 1993.13ZM2114.49 1992.87C2114.49 1992.85 2114.49 1992.81 2114.49 1992.79C2114.49 1992.81 2114.49 1992.84 2114.49 1992.87ZM2114.49 1992.59C2114.49 1992.56 2114.49 1992.53 2114.49 1992.51C2114.49 1992.53 2114.49 1992.56 2114.49 1992.59ZM2114.49 1992.24C2114.49 1992.09 2114.49 1991.96 2114.49 1991.83C2114.49 1991.96 2114.49 1992.11 2114.49 1992.24ZM2114.49 1991.79C2114.49 1991.65 2114.49 1991.53 2114.49 1991.4C2114.49 1991.52 2114.49 1991.67 2114.49 1991.79ZM2114.49 1991.33C2114.49 1991.21 2114.49 1991.09 2114.49 1990.97C2114.49 1991.09 2114.49 1991.21 2114.49 1991.33ZM2114.49 1990.88C2114.49 1990.76 2114.49 1990.65 2114.49 1990.53C2114.49 1990.64 2114.49 1990.76 2114.49 1990.88ZM2114.49 1990.43C2114.49 1990.32 2114.47 1990.2 2114.47 1990.09C2114.47 1990.2 2114.49 1990.32 2114.49 1990.43ZM2114.47 1989.96C2114.47 1989.87 2114.47 1989.77 2114.47 1989.68C2114.47 1989.77 2114.47 1989.87 2114.47 1989.96ZM2114.47 1989.48C2114.46 1989.43 2114.46 1989.37 2114.46 1989.32C2114.46 1989.37 2114.46 1989.43 2114.47 1989.48ZM2114.46 1989C2114.46 1988.97 2114.46 1988.95 2114.46 1988.92C2114.46 1988.95 2114.46 1988.97 2114.46 1989Z" fill="#FFA9A9"/>
<path d="M1964.02 2137.04C1933.84 2137.04 1905.73 2128.48 1882.16 2113.75C1905.73 2128.47 1933.84 2137.03 1964.02 2137.03C2033.53 2137.03 2092.01 2091.68 2109.3 2030.07C2092.03 2091.67 2033.54 2137.04 1964.02 2137.04M1828.05 2054.31C1823.39 2044.88 1819.76 2034.89 1817.29 2024.48C1817.64 2025.92 1818 2027.35 1818.39 2028.77C1820.79 2037.65 1824.04 2046.19 1828.05 2054.31M1813.57 1994.4C1813.57 1994.36 1813.57 1994.33 1813.57 1994.31C1813.57 1994.33 1813.57 1994.36 1813.57 1994.4ZM1813.57 1994.11C1813.55 1994.01 1813.55 1993.93 1813.55 1993.85C1813.55 1993.93 1813.55 1994.01 1813.57 1994.11ZM1813.55 1993.71C1813.55 1993.63 1813.55 1993.53 1813.55 1993.45C1813.55 1993.53 1813.55 1993.63 1813.55 1993.71ZM1813.55 1993.36C1813.55 1993.27 1813.55 1993.16 1813.55 1993.07C1813.55 1993.16 1813.55 1993.27 1813.55 1993.36ZM1813.55 1992.99C1813.55 1992.87 1813.55 1992.76 1813.55 1992.65C1813.55 1992.76 1813.55 1992.88 1813.55 1992.99ZM1813.55 1992.59C1813.55 1992.47 1813.55 1992.36 1813.55 1992.24C1813.55 1992.36 1813.55 1992.47 1813.55 1992.59ZM2113.43 1974.96C2113.43 1974.88 2113.42 1974.79 2113.41 1974.71C2113.42 1974.79 2113.43 1974.88 2113.43 1974.96ZM2113.41 1974.68C2112.28 1965.73 2110.32 1957.05 2107.57 1948.68C2100.95 1928.41 2089.81 1910.07 2075.3 1894.75C2075.3 1894.73 2075.3 1894.73 2075.3 1894.73C2095.84 1916.41 2109.57 1944.07 2113.41 1974.68Z" fill="#D2A81F"/>
<path d="M1964.02 2137.03C1933.84 2137.03 1905.73 2128.47 1882.16 2113.75C1858.89 2099.19 1840.06 2078.61 1828.04 2054.31C1824.04 2046.19 1820.78 2037.65 1818.39 2028.77C1819.4 2032.47 1820.55 2036.11 1821.85 2039.67C1823.94 2024.2 1828.57 2009.49 1835.33 1995.95C1860.49 2014.13 1891.74 2024.88 1925.63 2024.88C1985.4 2024.88 2037.06 1991.35 2061.32 1942.73C2085.02 1959.88 2103.29 1983.6 2113.2 2011.05C2114.01 2005.17 2114.44 1999.21 2114.49 1993.13C2114.4 2005.91 2112.62 2018.28 2109.3 2030.07C2092.01 2091.68 2033.53 2137.03 1964.02 2137.03M2114.49 1993.12C2114.49 1993.04 2114.49 1992.96 2114.49 1992.87C2114.49 1992.96 2114.49 1993.04 2114.49 1993.12ZM2114.49 1992.79C2114.49 1992.72 2114.49 1992.65 2114.49 1992.59C2114.49 1992.65 2114.49 1992.72 2114.49 1992.79ZM2114.49 1992.51C2114.49 1992.41 2114.49 1992.33 2114.49 1992.24C2114.49 1992.33 2114.49 1992.41 2114.49 1992.51ZM2114.49 1991.83C2114.49 1991.8 2114.49 1991.8 2114.49 1991.79C2114.49 1991.8 2114.49 1991.81 2114.49 1991.83ZM2114.49 1991.4C2114.49 1991.37 2114.49 1991.36 2114.49 1991.33C2114.49 1991.36 2114.49 1991.37 2114.49 1991.4ZM2114.49 1990.97C2114.49 1990.95 2114.49 1990.91 2114.49 1990.88C2114.49 1990.91 2114.49 1990.93 2114.49 1990.97ZM2114.49 1990.53C2114.49 1990.49 2114.49 1990.47 2114.49 1990.43C2114.49 1990.45 2114.49 1990.49 2114.49 1990.53ZM2114.47 1990.09C2114.47 1990.05 2114.47 1990 2114.47 1989.96C2114.47 1990 2114.47 1990.05 2114.47 1990.09ZM2114.47 1989.68C2114.47 1989.61 2114.47 1989.55 2114.47 1989.48C2114.47 1989.55 2114.47 1989.61 2114.47 1989.68ZM2114.46 1989.32C2114.46 1989.21 2114.46 1989.11 2114.46 1989C2114.46 1989.11 2114.46 1989.21 2114.46 1989.32ZM2114.46 1988.92C2114.13 1974.93 2111.74 1961.43 2107.57 1948.68C2110.32 1957.05 2112.28 1965.73 2113.41 1974.68C2113.41 1974.69 2113.41 1974.69 2113.41 1974.71C2113.42 1974.79 2113.43 1974.88 2113.43 1974.96C2114 1979.56 2114.35 1984.21 2114.46 1988.92" fill="#D2212D"/>
<path d="M1818.39 2028.77C1818 2027.35 1817.64 2025.92 1817.29 2024.48C1815.01 2014.79 1813.72 2004.72 1813.57 1994.4C1813.57 1994.36 1813.57 1994.33 1813.57 1994.31C1813.57 1994.24 1813.57 1994.16 1813.57 1994.11C1813.55 1994.01 1813.55 1993.93 1813.55 1993.85C1813.55 1993.8 1813.55 1993.76 1813.55 1993.71C1813.55 1993.63 1813.55 1993.53 1813.55 1993.45C1813.55 1993.41 1813.55 1993.39 1813.55 1993.36C1813.55 1993.27 1813.55 1993.16 1813.55 1993.07C1813.55 1993.04 1813.55 1993.01 1813.55 1992.99C1813.55 1992.88 1813.55 1992.76 1813.55 1992.65C1813.55 1992.63 1813.55 1992.61 1813.55 1992.59C1813.55 1992.47 1813.55 1992.36 1813.55 1992.24C1813.55 1990.83 1813.57 1989.41 1813.62 1988C1813.58 1989.4 1813.55 1990.81 1813.55 1992.23C1813.55 2004.85 1815.23 2017.11 1818.39 2028.77ZM2107.57 1948.68C2100.95 1928.43 2089.81 1910.08 2075.3 1894.75C2089.81 1910.07 2100.95 1928.41 2107.57 1948.68Z" fill="#D2BE8E"/>
<path d="M1821.85 2039.67C1820.55 2036.11 1819.4 2032.47 1818.39 2028.77C1815.23 2017.11 1813.55 2004.85 1813.55 1992.23C1813.55 1990.81 1813.58 1989.4 1813.62 1988C1813.73 1984.49 1813.98 1981 1814.34 1977.59C1820.73 1984.32 1827.75 1990.47 1835.33 1995.95C1828.57 2009.49 1823.94 2024.2 1821.85 2039.67M2113.2 2011.05C2103.29 1983.6 2085.02 1959.88 2061.32 1942.73C2068.7 1927.96 2073.53 1911.79 2075.3 1894.75C2089.81 1910.08 2100.95 1928.43 2107.57 1948.68C2111.74 1961.43 2114.13 1974.93 2114.46 1988.92C2114.46 1988.95 2114.46 1988.97 2114.46 1989C2114.46 1989.11 2114.46 1989.21 2114.46 1989.32C2114.46 1989.37 2114.46 1989.43 2114.47 1989.48C2114.47 1989.55 2114.47 1989.61 2114.47 1989.68C2114.47 1989.77 2114.47 1989.87 2114.47 1989.96C2114.47 1990 2114.47 1990.05 2114.47 1990.09C2114.47 1990.2 2114.49 1990.32 2114.49 1990.43C2114.49 1990.47 2114.49 1990.49 2114.49 1990.53C2114.49 1990.65 2114.49 1990.76 2114.49 1990.88C2114.49 1990.91 2114.49 1990.95 2114.49 1990.97C2114.49 1991.09 2114.49 1991.21 2114.49 1991.33C2114.49 1991.36 2114.49 1991.37 2114.49 1991.4C2114.49 1991.53 2114.49 1991.65 2114.49 1991.79C2114.49 1991.8 2114.49 1991.8 2114.49 1991.83C2114.49 1991.96 2114.49 1992.09 2114.49 1992.24C2114.49 1992.33 2114.49 1992.41 2114.49 1992.51C2114.49 1992.53 2114.49 1992.56 2114.49 1992.59C2114.49 1992.65 2114.49 1992.72 2114.49 1992.79C2114.49 1992.81 2114.49 1992.85 2114.49 1992.87C2114.49 1992.96 2114.49 1993.04 2114.49 1993.12C2114.49 1993.13 2114.49 1993.13 2114.49 1993.13C2114.45 1999.21 2114.02 2005.17 2113.2 2011.05" fill="#D28794"/>
<path d="M1739.69 2543.15C1866.65 2561.25 1972.76 2552.04 2033.32 2542.92C2038.67 2527.73 2041.37 2511.8 2041.37 2495.36C2041.37 2413.17 1971.89 2346.31 1886.5 2346.31C1801.06 2346.31 1731.54 2413.17 1731.54 2495.36C1731.54 2511.88 1734.29 2527.89 1739.69 2543.15M2054.15 2567.72H2054.22H2054.15ZM1886.69 2609.07C1835.33 2609.07 1777.02 2605.51 1714.29 2595.55C1704.8 2594.05 1696.73 2588.09 1692.74 2579.67C1680.18 2553.2 1673.81 2524.83 1673.81 2495.36C1673.81 2382.53 1769.23 2290.75 1886.5 2290.75C2003.73 2290.75 2099.11 2382.53 2099.11 2495.36C2099.11 2524.65 2092.83 2552.85 2080.44 2579.19C2076.52 2587.52 2068.57 2593.47 2059.2 2595.08C2022.09 2601.44 1961.86 2609.07 1886.69 2609.07" fill="#181818"/>
<path d="M1344.27 2376.05C1376.23 2396.52 1413.87 2407.57 1452.68 2407.57C1560.77 2407.57 1648.7 2322.97 1648.7 2219.01C1648.7 2175.64 1633.74 2134.79 1606.11 2101.6C1514.77 2184.51 1426.87 2276.63 1344.27 2376.05ZM1452.68 2463.13C1390.6 2463.13 1330.81 2441.28 1284.36 2401.61C1272.94 2391.87 1271.37 2375.25 1280.79 2363.69C1376.78 2245.83 1480.17 2137.53 1588.07 2041.83C1599.24 2031.92 1616.49 2032.04 1627.52 2042.11C1678.41 2088.63 1706.44 2151.45 1706.44 2219.01C1706.44 2353.61 1592.61 2463.13 1452.68 2463.13" fill="#181818"/>
<path d="M1964.02 1875.2C1896.97 1875.2 1842.43 1927.69 1842.43 1992.23C1842.43 2056.75 1896.97 2109.25 1964.02 2109.25C2031.08 2109.25 2085.63 2056.75 2085.63 1992.23C2085.63 1927.69 2031.08 1875.2 1964.02 1875.2ZM1964.02 2164.81C1865.14 2164.81 1784.69 2087.39 1784.69 1992.23C1784.69 1897.07 1865.14 1819.64 1964.02 1819.64C2062.92 1819.64 2143.36 1897.07 2143.36 1992.23C2143.36 2087.39 2062.92 2164.81 1964.02 2164.81Z" fill="#181818"/>
<path d="M2375.71 1371.89C2381.52 1366.52 2386.69 1362.16 2392.55 1357.97C2398.23 1353.65 2404.28 1350 2410.32 1346.2C2416.45 1342.56 2422.81 1339.35 2429.19 1336.05C2435.7 1333.09 2442.26 1330.07 2449.01 1327.52C2475.93 1317 2505.16 1310.87 2534.87 1309.87C2564.45 1308.97 2594.78 1311.92 2622.89 1321.12C2637.35 1324.68 2650.47 1331.25 2663.87 1337.03L2668.83 1339.32L2673.5 1342.07L2682.8 1347.6C2688.94 1351.35 2694.99 1355.21 2700.93 1359.17C2713.99 1367.92 2717.21 1385.19 2708.14 1397.76C2700.32 1408.56 2685.96 1412.37 2673.78 1407.67L2670.52 1406.4C2664.8 1404.2 2659.2 1401.88 2653.72 1399.44C2650.94 1398.27 2648.24 1396.96 2645.53 1395.72L2641.45 1393.84L2637.23 1392.41L2620.53 1386.35C2615.1 1383.93 2609.38 1382.63 2603.73 1381.05C2598.03 1379.68 2592.53 1377.53 2586.82 1376.32C2581.09 1375.23 2575.34 1374.19 2569.63 1372.96C2563.95 1371.37 2558.07 1371.31 2552.28 1370.45C2546.46 1369.71 2540.63 1368.97 2534.76 1368.89C2511.24 1367.19 2487.27 1369.05 2463.29 1373.29C2457.28 1374.28 2451.42 1375.92 2445.31 1377C2439.36 1378.47 2433.38 1380.05 2427.41 1381.73C2415.63 1385.04 2403.34 1389.52 2392.6 1393.69L2390.84 1394.39C2383.58 1397.2 2375.31 1393.83 2372.39 1386.84C2370.16 1381.52 2371.68 1375.64 2375.71 1371.89Z" fill="#181818"/>
<path d="M1671.69 1390.59C1648.34 1381.95 1623.42 1375.08 1599.24 1371.23C1574.93 1367.37 1550.76 1365.79 1527.14 1367.83C1524.2 1368.12 1521.24 1367.87 1518.31 1368.35L1509.54 1369.52C1503.72 1370.45 1497.85 1370.63 1492.16 1372.24L1474.95 1375.76C1472.04 1376.17 1469.31 1377.4 1466.5 1378.19L1458.03 1380.63C1452.38 1382.24 1446.68 1383.67 1441.25 1386.05L1424.6 1392.27L1420.37 1393.71L1416.31 1395.61C1413.6 1396.87 1410.92 1398.2 1408.15 1399.37C1402.65 1401.81 1397.11 1404.23 1391.39 1406.4L1388.1 1407.65C1373.32 1413.28 1356.58 1406.32 1350.72 1392.08C1345.72 1379.92 1350.31 1366.37 1360.97 1359.17C1366.89 1355.19 1372.99 1351.41 1379.14 1347.68C1382.2 1345.77 1385.35 1344 1388.45 1342.17L1393.13 1339.47L1398.11 1337.19C1411.55 1331.52 1424.67 1324.99 1439.16 1321.55C1446.27 1319.55 1453.29 1317.23 1460.59 1315.93L1482.6 1312.41C1489.9 1311.04 1497.43 1311.37 1504.82 1310.91C1512.25 1310.6 1519.63 1310.19 1527.04 1310.93C1534.41 1311.6 1541.81 1311.79 1549.09 1312.92C1556.35 1314.13 1563.61 1315.17 1570.77 1316.61L1591.87 1322.29C1598.83 1324.29 1605.52 1327.11 1612.24 1329.57C1618.9 1332.25 1625.39 1335.31 1631.79 1338.39C1638.06 1341.77 1644.3 1345.12 1650.31 1348.83C1662.31 1356.49 1673.37 1364.53 1683.79 1374.99C1687.69 1378.91 1687.55 1385.15 1683.47 1388.89C1680.53 1391.61 1676.32 1392.31 1672.74 1390.99L1671.69 1390.59" fill="#181818"/>
<path d="M1492.32 2562.23C1445.99 2705.08 1302.45 2753.77 1302.45 2753.77C1274.66 2832.25 1279.58 2958.16 1279.58 2958.16C1103.48 2938.65 995.365 2874.12 937.852 2792.52C819.847 2625.08 915.407 2386.03 1074.82 2318.52C1224.5 2255.17 1369.27 2311.23 1444.69 2397.13V2397.2C1489.22 2447.97 1509.57 2509.16 1492.32 2562.23" fill="#FCC06A"/>
<path d="M887.253 2601.41C886.352 2587.31 889.733 2572.28 895.912 2557.15C892.379 2571.69 889.511 2586.48 887.253 2601.41Z" fill="#FEE6C3"/>
<path d="M1382.57 2339.53C1380.43 2339.16 1378.29 2338.75 1376.17 2338.31C1376.76 2337.64 1377.34 2336.96 1377.92 2336.29C1379.49 2337.36 1381.04 2338.44 1382.57 2339.53Z" fill="#FFDDDD"/>
<path d="M1425.44 2377.28C1420.87 2373 1416.12 2368.81 1411.18 2364.75C1411.49 2364.43 1411.79 2364.09 1412.1 2363.77C1416.7 2368.13 1421.16 2372.63 1425.44 2377.28" fill="#EDA6AB"/>
<path d="M1411.18 2364.75C1400.09 2355.6 1388.12 2347.04 1375.38 2339.24C1375.65 2338.93 1375.91 2338.63 1376.17 2338.31C1378.29 2338.75 1380.43 2339.16 1382.57 2339.53C1392.98 2346.93 1402.86 2355.05 1412.1 2363.77C1411.79 2364.09 1411.49 2364.43 1411.18 2364.75" fill="#EDCFD4"/>
<path d="M1322.82 2313.24C1287.06 2299.4 1247.56 2291.33 1205.93 2291.33C1201.02 2291.33 1196.06 2291.44 1191.08 2291.67C1189.99 2291.32 1188.82 2290.95 1187.74 2290.6C1198.16 2289.57 1208.64 2289.05 1219.08 2289.05C1253.56 2289.05 1287.92 2294.71 1320.27 2306.59C1322.35 2307.35 1324.42 2308.13 1326.49 2308.96C1325.26 2310.37 1324.04 2311.81 1322.82 2313.24" fill="#CFB8B4"/>
<path d="M1157.64 2294.96C1167.6 2293.04 1177.66 2291.59 1187.74 2290.6C1188.82 2290.95 1189.99 2291.32 1191.08 2291.67C1180.05 2292.19 1168.9 2293.27 1157.64 2294.96Z" fill="#9999C7"/>
<path d="M1322.83 2313.24C1322.82 2313.24 1322.82 2313.24 1322.82 2313.24C1324.03 2311.81 1325.25 2310.37 1326.48 2308.96C1325.27 2310.39 1324.03 2311.83 1322.83 2313.24Z" fill="#9999C7"/>
<path d="M1375.38 2339.24C1359.03 2329.23 1341.44 2320.45 1322.83 2313.24C1324.04 2311.83 1325.27 2310.39 1326.49 2308.96C1344.63 2316.16 1361.87 2325.39 1377.92 2336.29C1377.34 2336.96 1376.76 2337.64 1376.17 2338.31C1375.91 2338.63 1375.65 2338.93 1375.38 2339.24Z" fill="#9999C7"/>
<path d="M895.912 2557.15C914.7 2479.77 952.303 2409.03 1018.72 2357.29C1058.78 2326.09 1107.11 2304.67 1157.64 2294.96C1168.9 2293.27 1180.05 2292.19 1191.08 2291.67C1196.06 2291.44 1201.02 2291.33 1205.94 2291.33C1247.56 2291.33 1287.06 2299.4 1322.82 2313.24C1322.82 2313.24 1322.82 2313.24 1322.83 2313.24C1341.44 2320.45 1359.03 2329.23 1375.38 2339.24C1388.12 2347.04 1400.09 2355.6 1411.19 2364.75C1416.12 2368.81 1420.87 2373 1425.44 2377.28C1433.01 2385.47 1440.03 2394.09 1446.49 2403.09C1450.56 2417.16 1453.08 2431.65 1453.71 2446.59C1454.22 2457.99 1453.51 2469.33 1451.7 2480.49C1390.04 2407.64 1293.22 2362.03 1195.52 2362.03C1182.91 2362.03 1170.26 2362.79 1157.68 2364.35C1093.1 2372.37 1032.37 2401.37 984.294 2443.29C955.157 2468.71 913.799 2513.33 895.912 2557.15" fill="#FEE6C3"/>
<path d="M1279.58 2958.16C1264.97 2956.55 1250.84 2954.61 1237.16 2952.4C1226.23 2950.63 1215.61 2948.67 1205.24 2946.52C1072.34 2919.01 986.788 2861.96 937.852 2792.52C942.756 2790.29 947.522 2787.59 951.915 2784.47C985.693 2760.85 1001.64 2715.99 989.961 2677.44C979.847 2643.96 952.067 2606.81 973.723 2578.96C982.368 2567.83 996.611 2563.01 1011.24 2563.01C1019.44 2563.01 1027.76 2564.52 1035.28 2567.29C1056.27 2575 1073.24 2590.15 1091.35 2602.85C1134.08 2632.67 1187.11 2649.2 1239.7 2649.2C1269.18 2649.2 1298.52 2644.01 1325.82 2633.07C1390.96 2606.96 1440.89 2546.95 1451.7 2480.49C1468.06 2499.83 1481.94 2521.08 1492.71 2543.89C1493.55 2493.57 1476.17 2444.44 1446.49 2403.09C1445.92 2401.12 1445.32 2399.16 1444.69 2397.2C1478.52 2435.77 1498.4 2480.36 1498.43 2522.83C1498.43 2527.76 1498.17 2532.67 1497.63 2537.52C1496.7 2545.91 1494.94 2554.16 1492.32 2562.23C1470.61 2629.17 1427.55 2675.44 1387.91 2705.71C1365.17 2723.07 1343.57 2735.16 1327.78 2742.88C1312.34 2750.41 1302.45 2753.77 1302.45 2753.77C1281.9 2811.79 1279.23 2895.72 1279.23 2935.56C1279.23 2949.6 1279.58 2958.16 1279.58 2958.16" fill="#D09A61"/>
<path d="M1492.71 2543.89C1481.94 2521.08 1468.06 2499.83 1451.7 2480.49C1453.51 2469.33 1454.22 2457.99 1453.71 2446.59C1453.08 2431.65 1450.56 2417.16 1446.49 2403.09C1476.17 2444.44 1493.55 2493.57 1492.71 2543.89Z" fill="#D2B8A9"/>
<path d="M1205.69 2319.08C1167.94 2319.08 1127.75 2326.44 1086.43 2343.93C972.85 2392.01 897.062 2536.99 917.484 2667.11C930.273 2748.56 990.958 2887.45 1250.38 2926.31C1250.81 2882.12 1254.69 2802.61 1275.13 2744.84C1277.98 2736.8 1284.48 2730.45 1292.78 2727.63C1294.08 2727.17 1423.47 2681.17 1464.8 2553.93C1481.11 2503.68 1454.43 2439.17 1396.8 2389.59C1351.82 2350.87 1284.06 2319.08 1205.69 2319.08ZM1279.56 2985.91C1278.47 2985.91 1277.36 2985.85 1276.26 2985.72C939.043 2948.41 873.093 2756.28 860.401 2675.41C835.919 2519.52 924.994 2351.57 1063.19 2293.08C1215.44 2228.63 1355.24 2279.28 1435.29 2348.17C1510.9 2413.23 1543.32 2498.43 1519.91 2570.51C1478.05 2699.39 1365.7 2757.56 1325.99 2774.53C1304.53 2847.67 1308.37 2955.96 1308.41 2957.11C1308.71 2965.19 1305.35 2973.01 1299.17 2978.52C1293.8 2983.29 1286.78 2985.91 1279.56 2985.91Z" fill="#181818"/>
<path d="M1311.59 2780.15C1309.14 2780.84 1307.53 2781.17 1305.8 2781.57C1304.03 2781.99 1302.35 2782.32 1300.72 2782.61C1297.39 2783.23 1294.08 2783.84 1290.85 2784.25C1284.34 2785.28 1277.88 2785.79 1271.43 2786.37C1264.99 2786.73 1258.56 2787.04 1252.13 2787.09C1245.71 2786.89 1239.3 2787.05 1232.91 2786.52C1207.4 2784.92 1182.09 2780.24 1158.23 2771.81C1134.48 2763.37 1111.53 2752.65 1091.46 2738.28C1080.89 2731.83 1071.94 2723.47 1062.45 2715.85L1058.95 2712.95L1055.75 2709.75L1049.37 2703.33L1036.69 2690.52C1030.51 2684.28 1030.76 2674.41 1037.25 2668.47C1043.34 2662.88 1052.79 2662.76 1059.03 2667.96L1060.33 2669.05L1072.8 2679.51L1078.99 2684.73L1082.07 2687.33L1085.42 2689.61C1094.44 2695.52 1102.85 2702.23 1112.52 2706.91C1130.91 2717.83 1151.17 2724.99 1171.5 2730.31C1191.94 2735.6 1213.13 2737.56 1234.05 2737.04C1239.27 2737.05 1244.49 2736.39 1249.69 2736.13C1254.87 2735.63 1260.04 2734.92 1265.14 2734.2C1270.21 2733.27 1275.31 2732.43 1280.17 2731.19C1282.68 2730.67 1285.02 2729.99 1287.36 2729.33C1288.57 2729.01 1289.72 2728.68 1290.73 2728.33C1291.81 2727.99 1293 2727.61 1293.32 2727.44C1307.51 2720.12 1325.19 2725.24 1332.79 2738.89C1340.41 2752.56 1335.08 2769.56 1320.89 2776.89C1319.15 2777.79 1317.36 2778.49 1315.54 2779.03L1311.59 2780.15" fill="#181818"/>
<path d="M1305.39 2741.25C1304.2 2736.56 1302.31 2730.44 1300.43 2724.99C1298.54 2719.37 1296.45 2713.77 1294.26 2708.21C1289.86 2697.11 1284.85 2686.2 1279.35 2675.59C1273.88 2664.95 1267.59 2654.84 1260.86 2645.07C1254.05 2635.36 1246.39 2626.45 1238.18 2618.11L1237.54 2617.45C1230.9 2610.72 1231.19 2600.08 1238.2 2593.71C1244.55 2587.91 1254.25 2587.61 1260.94 2592.65C1272.32 2601.19 1283 2610.53 1292.57 2620.65C1302.05 2630.8 1311 2641.41 1318.99 2652.52C1327.02 2663.61 1334.46 2675.05 1341.3 2686.83C1344.71 2692.72 1348.01 2698.68 1351.14 2704.77C1354.34 2710.99 1357.16 2716.71 1360.25 2723.97L1360.32 2724.13C1366.39 2738.37 1359.3 2754.65 1344.5 2760.48C1329.7 2766.32 1312.8 2759.51 1306.73 2745.27C1306.19 2743.99 1305.72 2742.55 1305.39 2741.25" fill="#181818"/>
<path d="M1453.83 2596.09C1452.13 2592.52 1449.45 2587.8 1447.01 2583.63C1444.51 2579.32 1441.83 2575.05 1439.12 2570.8C1433.63 2562.32 1427.73 2554.05 1421.52 2546C1415.33 2537.92 1408.69 2530.2 1401.72 2522.77C1394.81 2515.24 1387.3 2508.43 1379.55 2501.73L1379 2501.25C1372.85 2495.93 1372.35 2486.81 1377.88 2480.89C1382.68 2475.76 1390.46 2474.72 1396.46 2478.01C1406.61 2483.59 1416.69 2489.51 1426.09 2496.17C1435.58 2502.77 1444.78 2509.77 1453.53 2517.21C1462.31 2524.63 1470.79 2532.39 1478.94 2540.51C1483 2544.57 1487.01 2548.71 1490.95 2552.99C1494.95 2557.37 1498.57 2561.33 1502.81 2566.67L1503.4 2567.43C1513.17 2579.71 1510.75 2597.28 1497.99 2606.68C1485.23 2616.09 1466.95 2613.75 1457.18 2601.47C1455.87 2599.81 1454.7 2597.91 1453.83 2596.09" fill="#181818"/>
<path d="M2800.68 2716.49C2800.68 2716.49 2577.98 2874.05 2247.04 2820.55C1916.09 2767.04 1895.46 2576.77 1930.52 2475.71C1965.57 2374.63 2098.58 2261.67 2339.83 2350.85C2581.07 2440.03 2775.93 2377.6 2775.93 2377.6L2800.68 2716.49" fill="#FCC06A"/>
<path d="M2746.25 2385.03C2755.36 2382.85 2764.33 2380.64 2773.26 2378.39C2773.26 2378.39 2773.26 2378.4 2773.26 2378.41C2769 2379.64 2759.79 2382.16 2746.25 2385.03" fill="#FEE6C3"/>
<path d="M2445.89 2381.72C2411.96 2374.41 2376.42 2364.37 2339.83 2350.85C2331.35 2347.71 2323.01 2344.83 2314.79 2342.19C2314.92 2341.07 2315.05 2339.97 2315.19 2338.85C2350.68 2350.01 2385.74 2362.59 2421.82 2371.83C2434.08 2374.97 2446.47 2377.71 2458.93 2380.04C2454.58 2380.6 2450.21 2381.17 2445.89 2381.72" fill="#CFB8B4"/>
<path d="M2606.48 2398.84C2559.64 2398.84 2505.18 2394.47 2445.89 2381.72C2450.21 2381.17 2454.58 2380.6 2458.93 2380.04C2495.37 2386.87 2532.48 2390.25 2569.6 2390.25C2574.73 2390.25 2579.84 2390.19 2584.97 2390.05C2637.87 2388.72 2688.63 2368.27 2739.76 2365.91C2742.2 2365.8 2744.47 2365.75 2746.6 2365.75C2767.48 2365.75 2774.35 2370.96 2773.26 2378.39C2764.34 2380.64 2755.36 2382.85 2746.26 2385.03C2717.28 2391.15 2668.57 2398.84 2606.48 2398.84" fill="#9999C7"/>
<path d="M2258.47 2327.28C2229.15 2321.27 2201.83 2318.52 2176.43 2318.51C2176.79 2316.8 2177.15 2315.09 2177.53 2313.37C2178.03 2313.37 2178.52 2313.37 2179.02 2313.37C2205.81 2313.37 2232.92 2317.21 2258.97 2323.2C2258.8 2324.56 2258.63 2325.92 2258.47 2327.28" fill="#EDC0A9"/>
<path d="M2095.71 2328.68C2102.67 2325.8 2109.76 2323.37 2116.97 2321.36C2116.79 2322.23 2116.61 2323.09 2116.43 2323.95C2109.33 2325.29 2102.42 2326.88 2095.71 2328.68Z" fill="#EDDCA5"/>
<path d="M2314.79 2342.19C2295.27 2335.89 2276.5 2330.97 2258.47 2327.28C2258.64 2325.92 2258.8 2324.56 2258.97 2323.2C2259.54 2323.33 2260.1 2323.47 2260.69 2323.6C2279.09 2327.91 2297.19 2333.2 2315.19 2338.85C2315.05 2339.97 2314.92 2341.07 2314.79 2342.19" fill="#9999C7"/>
<path d="M2116.43 2323.95C2116.61 2323.09 2116.79 2322.23 2116.97 2321.36C2136.54 2315.89 2156.93 2313.48 2177.53 2313.37C2177.15 2315.09 2176.79 2316.8 2176.43 2318.51C2176.35 2318.51 2176.28 2318.51 2176.21 2318.51C2154.9 2318.51 2134.99 2320.43 2116.43 2323.95" fill="#9999C7"/>
<path d="M2545.44 2464.6C2479.67 2464.6 2413.86 2451.48 2350.2 2434.43C2282.59 2416.31 2215.27 2393.55 2145.13 2390.75C2141.06 2390.59 2136.97 2390.51 2132.87 2390.51C2066.34 2390.51 1996.93 2412.08 1957.11 2462.88C1994.09 2410 2034.27 2354.47 2094.98 2328.99C2095.23 2328.88 2095.48 2328.79 2095.71 2328.68C2102.42 2326.88 2109.33 2325.29 2116.43 2323.95C2134.99 2320.43 2154.9 2318.51 2176.21 2318.51C2176.28 2318.51 2176.35 2318.51 2176.43 2318.51C2201.83 2318.52 2229.15 2321.27 2258.47 2327.28C2276.49 2330.97 2295.27 2335.89 2314.79 2342.19C2323.01 2344.83 2331.35 2347.71 2339.83 2350.85C2376.42 2364.37 2411.96 2374.41 2445.89 2381.72C2505.17 2394.47 2559.64 2398.84 2606.48 2398.84C2668.57 2398.84 2717.28 2391.15 2746.25 2385.03C2759.79 2382.16 2769 2379.64 2773.26 2378.41C2771.26 2391.69 2743.77 2412.01 2725.35 2422.12C2686.07 2443.68 2641.77 2456.64 2596.95 2461.75C2579.81 2463.71 2562.63 2464.6 2545.44 2464.6Z" fill="#FEE6C3"/>
<path d="M2624.65 2796.83C2624.58 2796.59 2624.51 2796.35 2624.44 2796.12C2629.52 2794.57 2634.54 2793 2639.43 2791.41C2634.53 2793.25 2629.58 2795.07 2624.65 2796.83" fill="#D09A61"/>
<path d="M2381.82 2840.89C2374.48 2840.89 2367.15 2840.77 2359.79 2840.51C2306.14 2838.63 2252.29 2828.88 2201.25 2811.87C2215.79 2815.05 2231.06 2817.96 2247.04 2820.55C2295.09 2828.32 2340.82 2831.64 2383.97 2831.64C2396.55 2831.64 2408.89 2831.35 2421.03 2830.81C2415.21 2833.88 2409.38 2837.11 2403.55 2840.52C2396.31 2840.77 2389.07 2840.89 2381.82 2840.89Z" fill="#A87B63"/>
<path d="M2403.55 2840.52C2409.38 2837.11 2415.21 2833.88 2421.03 2830.81C2499.3 2827.35 2567.9 2813.27 2624.44 2796.12C2624.51 2796.35 2624.58 2796.59 2624.65 2796.83C2553.39 2822.17 2479.02 2837.96 2403.55 2840.52Z" fill="#060068"/>
<path d="M2800.39 2712.47L2800.26 2710.71L2833.99 2691.2C2822.94 2698.48 2811.73 2705.57 2800.39 2712.47ZM2799.94 2706.51L2790.87 2582.05C2809.42 2586.12 2826.27 2595.85 2834.84 2611.85C2845.8 2632.31 2840.41 2658.01 2827.45 2677.33C2819.99 2688.43 2810.39 2697.85 2799.94 2706.51Z" fill="#D09A61"/>
<path d="M1926.42 2488.92C1926.37 2488.92 1926.33 2488.92 1926.29 2488.92C1926.37 2488.76 1926.46 2488.59 1926.55 2488.43C1926.5 2488.6 1926.46 2488.75 1926.42 2488.92Z" fill="#D2212D"/>
<path d="M1918.16 2549.35C1917.36 2544.8 1916.8 2540.2 1916.54 2535.56C1915.67 2519.6 1918.78 2503.05 1926.29 2488.92C1926.33 2488.92 1926.37 2488.92 1926.42 2488.92C1921.37 2507.16 1918.21 2527.67 1918.16 2549.35" fill="#AE1A31"/>
<path d="M2383.97 2831.64C2340.82 2831.64 2295.09 2828.32 2247.04 2820.55C2231.06 2817.96 2215.8 2815.05 2201.25 2811.87C2091.42 2775.25 1994.54 2704.99 1940.36 2606.84C1930.35 2588.72 1921.75 2569.47 1918.16 2549.35C1918.21 2527.67 1921.37 2507.16 1926.42 2488.92C1926.46 2488.75 1926.5 2488.6 1926.56 2488.43C1930.82 2480.51 1936.49 2473.37 1943.61 2467.55C1945.59 2465.93 1947.85 2465.17 1950.39 2465.17C1973.9 2465.17 2022.5 2529.49 2114.5 2569.37C2208.94 2610.32 2349.97 2578.61 2449.75 2605.37C2497.58 2618.2 2530.85 2624.81 2563.35 2624.81C2598.64 2624.81 2633.07 2617.03 2684.35 2600.96C2710.59 2592.73 2736.44 2581.8 2763.97 2580.04C2766.03 2579.91 2768.09 2579.84 2770.17 2579.84C2777.08 2579.84 2784.08 2580.57 2790.87 2582.05L2799.94 2706.51C2792.21 2712.91 2784.02 2718.88 2775.92 2724.79L2800.26 2710.71L2800.39 2712.47C2749.44 2743.4 2695.46 2770.32 2639.43 2791.41C2634.54 2793 2629.52 2794.57 2624.44 2796.12C2567.9 2813.27 2499.3 2827.35 2421.03 2830.81C2408.89 2831.35 2396.55 2831.64 2383.97 2831.64" fill="#D09A61"/>
<path d="M2808.06 2726.17C2799.78 2734.52 2791.56 2741.53 2782.62 2748.25C2773.87 2755.05 2764.65 2761.19 2755.32 2767.15C2736.6 2778.96 2716.91 2789.23 2696.6 2798.16C2655.89 2815.91 2613 2828.48 2569.63 2838.55C2482.74 2858.41 2392.39 2864.25 2303.39 2856.72C2258.86 2852.76 2214.83 2845.93 2171.17 2835.04C2127.58 2824.12 2084.27 2809.39 2043.53 2787.51C2023.22 2776.55 2003.51 2764 1985.22 2749.24C1967.03 2734.39 1950.25 2717.43 1935.96 2698.4C1921.69 2679.4 1909.86 2658.39 1901.63 2636.08C1893.3 2613.8 1888.48 2590.41 1886.78 2566.97C1885.36 2543.52 1886.85 2519.99 1891.71 2497.01C1896.41 2474.15 1904.61 2451.15 1916.12 2430.27C1938.85 2388.36 1973.83 2353.23 2015.51 2328.81C2057.25 2304.33 2105.29 2291.49 2152.55 2288.61C2199.96 2285.68 2246.69 2291.81 2290.85 2303.28C2301.96 2306.03 2312.84 2309.31 2323.64 2312.76C2329.12 2314.36 2334.34 2316.44 2339.69 2318.27L2355.22 2323.76C2374.31 2330.83 2393.85 2336.73 2413.56 2341.93C2433.38 2346.83 2453.38 2351 2473.61 2354.01C2493.85 2356.95 2514.25 2358.96 2534.73 2359.97C2575.68 2361.88 2616.92 2359.72 2657.54 2353.69C2677.85 2350.72 2698.05 2346.89 2717.88 2341.91C2727.8 2339.47 2737.62 2336.73 2747.28 2333.75C2752.11 2332.25 2756.9 2330.68 2761.61 2329.05C2766.12 2327.47 2771.28 2325.56 2774.74 2324.15L2775.59 2323.8C2790.26 2317.79 2807.2 2324.35 2813.45 2338.45C2819.62 2352.37 2813.04 2368.45 2798.78 2374.67C2792.38 2377.44 2787.49 2379.28 2781.92 2381.37C2776.53 2383.35 2771.14 2385.24 2765.73 2387.01C2754.94 2390.57 2744.11 2393.8 2733.19 2396.69C2711.39 2402.57 2689.32 2407.23 2667.07 2410.84C2622.54 2417.89 2577.26 2420.72 2532.05 2419.05C2509.44 2418.16 2486.89 2416.16 2464.45 2413.13C2442.02 2410 2419.81 2405.61 2397.8 2400.4C2375.88 2394.85 2354.15 2388.51 2332.91 2380.89L2318.03 2375.79C2313.21 2374.2 2308.45 2372.33 2303.57 2370.99C2293.86 2368.04 2284.18 2365.05 2274.4 2362.65C2235.4 2352.51 2195.48 2347.55 2156.76 2349.96C2118.1 2352.35 2080.72 2362.61 2048.68 2381.37C2016.73 2400.08 1989.9 2427.08 1972.72 2458.84C1955.53 2489.95 1948.39 2527.09 1950.58 2562.99C1953.21 2598.88 1965.5 2633.6 1987.45 2662.88C1998.31 2677.59 2011.32 2691.01 2025.91 2703.13C2040.58 2715.16 2056.89 2725.73 2074.09 2735.19C2108.57 2754.09 2147.06 2767.69 2186.78 2777.93C2226.55 2788.08 2267.81 2795.19 2309.08 2799.35C2391.76 2807.39 2475.77 2803.05 2556.99 2785.57C2577.26 2781.12 2597.44 2776.2 2617.29 2770.19C2637.13 2764.2 2656.76 2757.57 2676.34 2750.76C2715.34 2737.15 2754.71 2722.2 2793.29 2706.83L2794.08 2706.52C2800.54 2703.95 2807.94 2706.89 2810.6 2713.11C2812.58 2717.69 2811.4 2722.79 2808.06 2726.17" fill="#181818"/>
<path d="M1969.89 2377.17C1972.49 2377.17 1973.65 2377.31 1975.31 2377.44C1976.88 2377.56 1978.35 2377.73 1979.8 2377.91C1982.75 2378.23 1985.52 2378.71 1988.34 2379.15C1993.88 2380.13 1999.31 2381.24 2004.62 2382.61C2015.24 2385.33 2025.52 2388.63 2035.42 2392.68C2045.28 2396.77 2054.88 2401.2 2063.93 2406.48C2073.07 2411.55 2081.64 2417.43 2089.91 2423.44C2096.32 2428.12 2097.6 2436.91 2092.73 2443.08C2088.63 2448.31 2081.47 2449.99 2075.47 2447.56L2074.76 2447.27C2066.31 2443.84 2057.89 2440.64 2049.22 2438.31C2040.65 2435.76 2031.87 2434.09 2023.2 2432.73C2014.51 2431.41 2005.77 2430.84 1997.23 2430.75C1992.95 2430.68 1988.72 2430.87 1984.61 2431.13C1982.59 2431.32 1980.51 2431.45 1978.61 2431.73C1977.64 2431.85 1976.68 2431.97 1975.84 2432.13C1975.06 2432.27 1973.8 2432.47 1973.98 2432.6C1958.08 2433.68 1944.26 2422.15 1943.14 2406.85C1942.02 2391.55 1954 2378.25 1969.89 2377.17" fill="#181818"/>
<path d="M1960.35 2621.93C1961.04 2622.47 1963.51 2623.52 1965.36 2624.27C1967.37 2625.09 1969.48 2625.87 1971.63 2626.61C1975.89 2628.12 1980.33 2629.37 1984.82 2630.56C1993.79 2632.83 2003.04 2634.28 2012.33 2634.95C2021.66 2635.71 2031.01 2635.37 2040.28 2634.12C2049.66 2633.12 2058.6 2630.32 2067.64 2627.23L2068.99 2626.77C2076.41 2624.24 2084.56 2627.97 2087.19 2635.12C2089.44 2641.2 2086.94 2647.8 2081.57 2651.17C2071.69 2657.41 2061.19 2663.4 2049.82 2667.35C2038.57 2671.56 2026.78 2674.65 2014.81 2676.39C2002.84 2678.21 1990.69 2679 1978.54 2678.72C1972.46 2678.52 1966.36 2678.17 1960.22 2677.49C1957.16 2677.15 1954.07 2676.76 1950.94 2676.25C1947.64 2675.69 1945.01 2675.29 1940.66 2674.17L1934.12 2672.48C1918.16 2668.33 1908.7 2652.52 1912.99 2637.16C1917.3 2621.79 1933.73 2612.69 1949.69 2616.83C1953.64 2617.84 1957.3 2619.68 1960.35 2621.93" fill="#181818"/>
<path d="M2268.43 3043.75C2270.61 3044.97 2271.52 3045.64 2272.87 3046.51C2274.2 3047.35 2275.21 3048.13 2276.36 3048.95C2278.66 3050.55 2280.74 3052.19 2282.8 3053.83C2286.98 3057.09 2290.78 3060.51 2294.55 3063.97C2298.21 3067.51 2301.91 3070.99 2305.22 3074.71C2308.69 3078.33 2311.98 3082.08 2315.05 3085.96C2327.61 3101.27 2337.96 3117.8 2346.55 3134.92C2350.37 3143.68 2354.65 3152.21 2357.56 3161.2C2359.1 3165.65 2360.86 3170.04 2362.18 3174.53L2365.9 3188.05C2367.25 3192.53 2368.23 3197.07 2369.03 3201.64L2371.67 3215.25C2373.08 3224.36 2373.91 3233.51 2375.02 3242.57C2376.03 3250.85 2369.87 3258.36 2361.26 3259.33C2353.31 3260.24 2346.03 3255.25 2344.18 3247.96L2343.83 3246.59C2341.74 3238.45 2339.99 3230.29 2337.71 3222.31L2333.83 3210.49C2332.62 3206.53 2331.26 3202.64 2329.57 3198.87L2324.86 3187.49C2323.23 3183.73 2321.21 3180.15 2319.42 3176.49C2316.01 3169.08 2311.38 3162.32 2307.34 3155.36C2298.33 3141.93 2288.13 3129.45 2276.69 3118.55C2273.89 3115.76 2270.95 3113.15 2267.92 3110.68C2264.98 3108.07 2261.84 3105.81 2258.76 3103.48C2255.66 3101.25 2252.5 3099.03 2249.35 3097.16C2247.77 3096.2 2246.21 3095.23 2244.71 3094.45C2243.96 3094.07 2243.13 3093.56 2242.51 3093.31C2241.93 3093.03 2240.92 3092.52 2241.11 3092.69C2227.06 3085.43 2221.8 3068.59 2229.35 3055.07C2236.88 3041.56 2254.38 3036.49 2268.43 3043.75" fill="#181818"/>
<path d="M530.013 422.933C560.061 375.627 574.876 318.84 568.537 259.426C553.15 115.213 419.201 10.3196 269.352 25.1196C119.502 39.933 10.4962 168.827 25.8823 313.04C41.2671 457.24 175.219 562.147 325.068 547.333C366.748 543.213 405.253 530.253 438.816 510.6L565.038 537.84L530.013 422.933" fill="white"/>
<path d="M58.2075 219.813C85.6199 128.88 168.062 58.3466 271.799 48.0799C280.393 47.2399 288.932 46.8263 297.392 46.8263C391.042 46.8263 474.976 97.7197 517.205 174.466C466.81 112.733 388.647 73.9466 302.894 73.9466C293.58 73.9466 284.175 74.4133 274.71 75.3466C178.091 84.8933 98.4623 141.88 58.2075 219.813Z" fill="white"/>
<path d="M297.391 46.8267C288.932 46.8267 280.393 47.2403 271.798 48.0803C135.349 61.5737 35.737 179.373 49.7473 310.68C56.5322 374.293 88.6539 431.547 140.194 471.907C191.732 512.28 256.505 530.88 322.619 524.374C359.752 520.707 394.65 509.44 426.346 490.88C431.653 487.773 438.01 486.773 444.065 488.08L530.554 506.747L506.991 429.427C505.086 423.187 506.013 416.453 509.541 410.893C538.127 365.893 550.276 314.32 544.673 261.774C531.541 138.747 423.241 46.8267 297.391 46.8267M296.65 571.827C228.693 571.84 163.339 549.573 109.908 507.72C48.4269 459.587 10.1132 391.28 2.01907 315.4C-14.6944 158.76 104.13 18.24 266.9 2.16003C429.644 -13.92 575.689 100.427 592.402 257.067C598.72 316.293 586.13 374.48 555.951 426.013L588.059 531.347C590.45 539.2 588.35 547.667 582.541 553.64C576.731 559.6 568.074 562.16 559.787 560.374L442.785 535.12C407.242 554.427 368.514 566.254 327.517 570.307C317.197 571.32 306.889 571.827 296.65 571.827" fill="#181818"/>
<path d="M296.783 525.64C239.799 525.64 184.99 507 140.194 471.907C96.8743 437.987 67.2742 392.133 54.9043 340.6C96.1553 409.427 165.255 462.667 251.71 483.373C277.244 489.493 302.82 492.413 327.991 492.413C393.909 492.413 457.042 472.347 509.286 436.96L530.555 506.747L444.065 488.08C442.332 487.707 440.574 487.52 438.822 487.52C434.457 487.52 430.134 488.667 426.346 490.88C394.651 509.44 359.752 520.707 322.619 524.373C313.971 525.227 305.358 525.64 296.783 525.64" fill="#B2B2D4"/>
<path d="M296.877 548.733C158.772 548.733 40.2937 448.134 25.8816 313.04C24.4171 299.307 24.0956 285.72 24.8119 272.36C31.939 296.28 42.074 319.187 54.9039 340.6C67.2738 392.133 96.874 437.987 140.194 471.907C184.99 507 239.798 525.64 296.783 525.64C305.358 525.64 313.97 525.227 322.619 524.374C359.752 520.707 394.65 509.44 426.345 490.88C430.133 488.667 434.456 487.52 438.822 487.52C440.573 487.52 442.332 487.707 444.065 488.08L530.554 506.747L509.285 436.96C516.947 431.773 524.376 426.253 531.543 420.413C531.027 421.253 530.54 422.107 530.014 422.933L565.037 537.84L438.815 510.6C405.252 530.253 366.748 543.213 325.067 547.333C315.592 548.28 306.2 548.733 296.877 548.733" fill="#181818"/>
<path d="M384.425 212.52C360.822 189.813 322.55 193.88 298.946 216.6L295.272 220.133L291.599 216.6C267.994 193.88 229.723 189.813 206.119 212.52H206.118C182.514 235.24 182.514 272.067 206.118 294.787L209.792 298.32L284.005 369.733C290.227 375.72 300.316 375.72 306.54 369.733L380.752 298.32L384.425 294.787C408.03 272.067 408.03 235.24 384.425 212.52Z" fill="#FF0068"/>
</g>
<defs>
<clipPath id="clip0_11_369">
<rect width="3800" height="3897.35" fill="white" transform="translate(0.451172 0.651855)"/>
</clipPath>
</defs>
</svg>
