<svg width="3847" height="3342" viewBox="0 0 3847 3342" fill="none" xmlns="http://www.w3.org/2000/svg">
<path d="M2030.86 3341.79C1246.14 3341.79 610 3303.33 610 3255.89C610 3208.45 1246.14 3170 2030.86 3170C2815.58 3170 3451.72 3208.45 3451.72 3255.89C3451.72 3303.33 2815.58 3341.79 2030.86 3341.79Z" fill="#C5AEA4"/>
<path d="M3219.49 2999.55C3197.63 3061.35 3153.85 3108.61 3078.91 3125.32C2834 3179.93 2792.87 2860.21 2792.87 2860.21C2146.03 2985.72 2136.6 2435.52 2154.87 2287.31L2842.03 1901.84C2962.87 2119.93 2927.4 2411.27 2927.4 2411.27C2927.4 2411.27 3044.16 2433.59 3114.81 2511.97C3190.97 2596.56 3274.64 2844.11 3219.49 2999.55" fill="#FCC06A"/>
<path d="M3024.59 3105.49C3011.13 3105.49 2997.88 3104.09 2985.09 3101.09C2961.27 3095.2 2939.25 3083.63 2920.01 3067.6C2901.04 3051.19 2884.48 3031.01 2871.13 3008.21C2857.53 2985.59 2846.72 2960.77 2837.93 2935.16C2833.53 2922.35 2829.77 2909.25 2826.45 2896.07C2824.97 2890.2 2823.64 2884.29 2822.39 2878.39C2830.68 2875.67 2838.8 2872.64 2846.68 2869.17C2862.4 2862.43 2877.57 2854.87 2891.99 2846.27C2906.45 2837.75 2920.35 2828.53 2933.65 2818.61C2947.04 2808.59 2959.55 2798.33 2972.05 2786.45C2974.16 2784.45 2975.47 2781.87 2975.91 2779.13C3039.12 2776.35 3110.63 2762.87 3191.37 2735.88C3195.93 2753.69 3199.79 2771.67 3202.87 2789.73C3207.49 2816.85 3210.45 2844.17 3211.21 2871.32C3211.99 2898.45 3210.45 2925.48 3205.53 2951.39C3200.68 2977.25 3192.51 3002.08 3180.05 3023.73C3167.64 3045.41 3150.85 3063.69 3130.25 3076.88C3109.69 3090.24 3085.53 3098.07 3059.99 3102.44C3048.13 3104.44 3036.28 3105.49 3024.59 3105.49M2626.57 2850.61C2617.64 2850.61 2608.76 2850.08 2599.84 2850C2669.95 2833.76 2736.52 2811.92 2797.83 2784.4C2810.55 2778.69 2823.4 2772.53 2836.39 2765.92C2866.93 2773.73 2900.2 2778.45 2936.4 2779.47C2929.73 2783.67 2922.87 2787.71 2916.05 2791.49C2902.52 2798.99 2888.61 2805.69 2874.52 2811.6C2860.47 2817.61 2846.07 2822.47 2831.67 2826.45C2817.95 2830.41 2804.05 2832.71 2790.36 2834.49C2790.11 2834.53 2789.85 2834.56 2789.6 2834.6L2789.49 2834.61C2789.11 2834.67 2788.73 2834.71 2788.35 2834.76L2787.32 2834.89C2786.79 2834.96 2786.25 2835.05 2785.73 2835.15C2765.45 2838.09 2745.23 2841.37 2724.99 2844.03L2693.48 2847.15L2677.73 2848.73C2672.48 2849.05 2667.24 2849.15 2662 2849.37L2630.53 2850.59C2629.21 2850.61 2627.89 2850.61 2626.57 2850.61" fill="#BD906C"/>
<path d="M2167.73 2288.88C2167.01 2310.07 2167.25 2331.4 2168.16 2352.63C2169.2 2373.87 2170.49 2395.05 2173.08 2416.08C2177.69 2458.15 2185.21 2499.72 2196.64 2539.85C2207.97 2579.97 2223.03 2618.79 2242.95 2654.52C2262.87 2690.24 2288 2722.53 2317.63 2749.71C2347.27 2776.93 2381.83 2798.37 2419.09 2814.04C2456.36 2829.83 2496.35 2839.52 2537.15 2845.49L2568.09 2848.41C2573.27 2848.8 2578.37 2849.63 2583.6 2849.65L2599.23 2849.99C2609.67 2850.07 2620.07 2850.79 2630.53 2850.59L2662 2849.37C2667.24 2849.15 2672.48 2849.05 2677.73 2848.73L2693.48 2847.15L2724.99 2844.03C2745.96 2841.27 2766.93 2837.85 2787.95 2834.84L2789.6 2834.6C2803.53 2832.6 2816.44 2842.28 2818.44 2856.2C2818.47 2856.41 2818.51 2856.73 2818.53 2856.93V2856.95C2819.35 2862.68 2820.64 2869.76 2821.93 2876.23C2823.32 2882.85 2824.79 2889.48 2826.45 2896.07C2829.77 2909.25 2833.53 2922.35 2837.93 2935.16C2846.72 2960.77 2857.53 2985.59 2871.13 3008.21C2884.48 3031.01 2901.04 3051.19 2920.01 3067.6C2939.25 3083.63 2961.27 3095.2 2985.09 3101.09C3009.01 3106.69 3034.51 3106.73 3059.99 3102.44C3085.53 3098.07 3109.69 3090.24 3130.25 3076.88C3150.85 3063.69 3167.64 3045.41 3180.05 3023.73C3192.51 3002.08 3200.68 2977.25 3205.53 2951.39C3210.45 2925.48 3211.99 2898.45 3211.21 2871.32C3210.45 2844.17 3207.49 2816.85 3202.87 2789.73C3193.61 2735.48 3177.41 2681.96 3155.84 2631.4C3144.95 2606.2 3132.51 2581.67 3118.04 2559.36C3110.92 2548.03 3103 2537.89 3094.73 2528.45C3090.16 2523.97 3085.97 2519.17 3081.16 2514.89C3076.17 2510.76 3071.69 2506.13 3066.33 2502.33C3045.83 2486.28 3022.63 2472.91 2998.17 2461.85C2985.87 2456.49 2973.33 2451.51 2960.55 2447.23C2954.13 2445.15 2947.72 2443.12 2941.27 2441.32C2935 2439.59 2927.96 2437.76 2922.53 2436.67C2909.2 2434 2900.29 2421.63 2901.68 2408.36L2901.71 2408.13C2902.76 2398.37 2903.64 2387.48 2904.29 2377C2904.97 2366.41 2905.47 2355.79 2905.76 2345.12C2906.47 2323.83 2906.41 2302.48 2905.93 2281.15C2904.81 2238.49 2901.19 2195.95 2895.13 2153.89C2889.37 2111.73 2879.53 2070.47 2867.61 2030.08L2857.71 2000.12C2854.4 1990.15 2849.96 1980.67 2846.15 1970.91L2840.23 1956.36C2838.23 1951.53 2835.64 1947 2833.39 1942.31L2819.4 1914.36L2818.44 1912.44C2812.05 1899.67 2817.23 1884.15 2830 1877.75C2842.77 1871.37 2858.28 1876.52 2864.67 1889.28L2880.01 1919.87C2882.48 1925 2885.28 1930 2887.47 1935.24L2893.92 1951C2898.05 1961.56 2902.84 1971.92 2906.41 1982.64L2917.07 2014.84C2929.87 2058.08 2940.24 2101.99 2946.33 2146.36C2952.71 2190.68 2956.49 2235.24 2957.65 2279.83C2958.16 2302.13 2958.21 2324.44 2957.48 2346.76C2957.17 2357.92 2956.65 2369.09 2955.93 2380.28C2955.23 2391.57 2954.37 2402.44 2953.08 2414.37L2932.25 2385.84C2940.85 2387.57 2947.65 2389.43 2955.19 2391.48C2962.52 2393.52 2969.75 2395.8 2976.93 2398.15C2991.29 2402.95 3005.37 2408.53 3019.29 2414.61C3046.96 2427.11 3073.75 2442.43 3098.32 2461.65C3104.63 2466.19 3110.27 2471.8 3116.24 2476.85C3122.08 2482.09 3127.41 2488.03 3133 2493.61C3143.63 2505.65 3153.27 2518.23 3161.4 2531.11C3178.07 2556.84 3191.53 2583.57 3203.35 2610.88C3226.65 2665.56 3243.83 2722.37 3253.87 2780.95C3258.85 2810.24 3262.11 2839.95 3262.93 2870C3263.79 2900.04 3262.13 2930.51 3256.4 2960.88C3250.71 2991.17 3240.97 3021.56 3224.88 3049.59C3208.95 3077.56 3186 3102.71 3158.28 3120.39C3130.65 3138.32 3099.19 3148.28 3068.48 3153.48C3037.63 3158.69 3004.83 3158.93 2972.93 3151.4C2941.11 3143.64 2911.25 3127.81 2886.65 3107.15C2862.28 3086.17 2842.29 3061.31 2826.71 3034.76C2810.84 3008.28 2798.72 2980.31 2788.95 2951.83C2784.07 2937.57 2779.91 2923.15 2776.24 2908.57C2774.4 2901.29 2772.77 2893.95 2771.24 2886.56C2769.73 2879.01 2768.4 2872.01 2767.21 2863.57V2863.53L2797.8 2885.64C2775.91 2889.51 2754.13 2894.13 2732.07 2897.31L2698.77 2901.28L2682.12 2903.27C2676.53 2903.72 2670.92 2903.96 2665.32 2904.32L2631.67 2906.25C2620.43 2906.67 2609.08 2906.25 2597.8 2906.17L2580.84 2905.91C2575.2 2905.89 2569.52 2905.08 2563.87 2904.69L2529.88 2901.69C2484.64 2895.57 2439.61 2884.29 2396.83 2866.2C2354.05 2848.12 2314.07 2822.37 2279.96 2790.47C2245.69 2758.64 2217.89 2720.57 2196.27 2680.04C2174.55 2639.45 2159 2596.23 2148.51 2552.27C2137.93 2508.29 2132.79 2463.48 2131.6 2418.85C2131.05 2396.53 2131.49 2374.23 2133.23 2352.01C2134.77 2329.8 2137.59 2307.69 2142.05 2285.72C2143.49 2278.69 2150.35 2274.16 2157.36 2275.59C2163.67 2276.88 2167.96 2282.52 2167.75 2288.75L2167.73 2288.88Z" fill="#181818"/>
<path d="M2963.55 2776.71C2963.55 2776.71 2886.89 2843.56 2792.87 2860.24L2963.55 2776.71Z" fill="#E8C797"/>
<path d="M2972.05 2786.45C2959.55 2798.33 2947.04 2808.59 2933.65 2818.61C2920.35 2828.53 2906.45 2837.75 2891.99 2846.27C2877.57 2854.87 2862.4 2862.43 2846.68 2869.17C2831.01 2876.07 2814.39 2881.21 2797.39 2885.71C2783.53 2889.37 2769.32 2881.11 2765.67 2867.25C2762 2853.39 2770.27 2839.19 2784.12 2835.52C2785.19 2835.24 2786.25 2835.03 2787.32 2834.89L2788.35 2834.76C2802.69 2832.92 2817.28 2830.61 2831.67 2826.45C2846.07 2822.47 2860.47 2817.61 2874.52 2811.6C2888.61 2805.69 2902.52 2798.99 2916.05 2791.49C2929.47 2784.04 2943.01 2775.61 2955.04 2766.95L2955.57 2766.57C2961.36 2762.4 2969.45 2763.71 2973.63 2769.51C2977.47 2774.83 2976.67 2782.07 2972.05 2786.45" fill="#181818"/>
<path d="M2970.64 802.907L2614.11 791.293C2599.8 790.827 2588.59 778.853 2589.04 764.56C2589.51 750.253 2601.48 739.04 2615.79 739.507C2616.73 739.534 2617.68 739.614 2618.6 739.747L2971.76 790.014C2975.29 790.52 2977.76 793.8 2977.25 797.347C2976.79 800.64 2973.88 803 2970.64 802.907Z" fill="#181818"/>
<path d="M2773.64 533.053L2417.11 521.453C2402.8 520.987 2391.59 509.014 2392.05 494.707C2392.52 480.414 2404.49 469.187 2418.8 469.653C2419.73 469.68 2420.69 469.774 2421.6 469.907L2774.76 520.174C2778.31 520.68 2780.77 523.947 2780.27 527.493C2779.8 530.787 2776.89 533.147 2773.64 533.053" fill="#181818"/>
<path d="M2773.64 983.427L2417.11 971.827C2402.8 971.36 2391.59 959.387 2392.05 945.08C2392.52 930.773 2404.49 919.56 2418.8 920.027C2419.73 920.053 2420.69 920.147 2421.6 920.267L2774.76 970.533C2778.31 971.04 2780.77 974.32 2780.27 977.867C2779.8 981.16 2776.89 983.52 2773.64 983.427" fill="#181818"/>
<path d="M2731.95 1347.25L2375.43 1335.65C2361.12 1335.19 2349.91 1323.21 2350.36 1308.91C2350.83 1294.6 2362.8 1283.39 2377.11 1283.85C2378.05 1283.88 2379 1283.97 2379.92 1284.09L2733.08 1334.37C2736.61 1334.87 2739.08 1338.15 2738.57 1341.69C2738.11 1344.99 2735.2 1347.35 2731.95 1347.25" fill="#181818"/>
<path d="M3474.95 1492.92L3118.41 1481.32C3104.11 1480.85 3092.89 1468.88 3093.36 1454.57C3093.83 1440.27 3105.8 1429.05 3120.09 1429.52C3121.04 1429.55 3122 1429.64 3122.91 1429.76L3476.07 1480.03C3479.61 1480.53 3482.07 1483.81 3481.57 1487.36C3481.09 1490.65 3478.2 1493.01 3474.95 1492.92" fill="#181818"/>
<path d="M3627.93 1637.2L3271.4 1625.59C3257.09 1625.12 3245.88 1613.15 3246.35 1598.85C3246.81 1584.55 3258.79 1573.33 3273.09 1573.8C3274.03 1573.83 3274.99 1573.91 3275.89 1574.04L3629.05 1624.31C3632.6 1624.81 3635.07 1628.09 3634.56 1631.64C3634.09 1634.93 3631.19 1637.29 3627.93 1637.2" fill="#181818"/>
<path d="M3474.95 1762.24L3118.41 1750.64C3104.11 1750.17 3092.89 1738.2 3093.36 1723.89C3093.83 1709.6 3105.8 1698.37 3120.09 1698.84C3121.04 1698.88 3122 1698.96 3122.91 1699.09L3476.07 1749.36C3479.61 1749.87 3482.07 1753.15 3481.57 1756.68C3481.09 1759.99 3478.2 1762.35 3474.95 1762.24" fill="#181818"/>
<path d="M3554.52 2081.12L3197.99 2069.52C3183.69 2069.05 3172.47 2057.08 3172.93 2042.77C3173.4 2028.47 3185.37 2017.25 3199.68 2017.72C3200.61 2017.75 3201.57 2017.84 3202.48 2017.96L3555.64 2068.24C3559.19 2068.73 3561.65 2072.01 3561.15 2075.56C3560.68 2078.85 3557.77 2081.21 3554.52 2081.12" fill="#181818"/>
<path d="M3662.51 2278.83L3245.43 2261.95C3231.13 2261.37 3220.01 2249.31 3220.59 2235.01C3221.17 2220.72 3233.23 2209.61 3247.52 2210.19C3248.31 2210.21 3249.15 2210.29 3249.92 2210.4L3663.63 2265.95C3667.17 2266.41 3669.67 2269.68 3669.19 2273.23C3668.73 2276.56 3665.8 2278.96 3662.51 2278.83Z" fill="#181818"/>
<path d="M3839.93 2417.28L3483.4 2405.67C3469.09 2405.2 3457.88 2393.23 3458.35 2378.93C3458.81 2364.63 3470.79 2353.41 3485.08 2353.88C3486.03 2353.91 3486.99 2353.99 3487.89 2354.12L3841.05 2404.39C3844.6 2404.89 3847.05 2408.17 3846.56 2411.72C3846.08 2415.01 3843.19 2417.37 3839.93 2417.28Z" fill="#181818"/>
<path d="M745.133 769.667C725.013 791.573 703.053 810.573 680.026 826.787C580.949 896.587 461.837 915.654 383.984 895.374C288.453 870.534 44.017 677.52 33.5503 636.174C23.1063 594.774 20.5557 528.347 81.4477 486.56C173.865 423.213 310.102 382.827 499.592 226.427C630.746 118.08 708.533 292.307 787.52 455.533L855.293 429.88C862.84 582.213 815.293 693.493 745.133 769.667" fill="#A16044"/>
<path d="M242.212 427.093C317.677 387.28 408.14 335.44 516.045 246.347C538.487 227.813 558.799 218.693 577.701 218.693C581.868 218.693 585.967 219.133 590.004 220.013C603.08 222.88 615.893 230.333 628.427 241.253C623.867 244.573 619.747 248.973 616.04 254.227C609.587 252.667 602.947 251.853 596.079 251.853C573.263 251.853 548.063 260.84 519.88 281.147C423.736 350.48 340.379 393.227 242.212 427.093" fill="#E3CFC7"/>
<path d="M580.853 342.227C592.79 305.84 603.466 276.293 610.386 263.44C612.16 260.147 614.04 257.067 616.04 254.227C630.173 257.667 643.333 264.707 655.693 274.707C628.933 294.96 603.76 317.44 580.853 342.227Z" fill="#794850"/>
<path d="M655.693 274.707C643.333 264.707 630.173 257.667 616.04 254.227C619.747 248.973 623.867 244.574 628.427 241.254C638.347 249.907 648.093 260.747 657.68 273.214C657.013 273.707 656.347 274.214 655.693 274.707" fill="#AA9BB2"/>
<path d="M58.6426 629.787L58.6547 629.814L58.6426 629.787ZM447.719 928.627C421.643 928.627 397.809 925.734 377.429 920.427C281.787 895.507 23.1773 700.694 8.48265 642.494C-10.2933 568.134 10.9799 503.52 66.8399 465.214C99.5933 442.76 136.615 423.6 179.483 401.427C260.003 359.76 360.215 307.907 483.096 206.454C522.985 173.507 562.667 161.054 601.068 169.467C687.293 188.347 743.48 304.76 802.96 428L810.827 444.294C817.053 457.16 811.68 472.627 798.813 478.854C785.947 485.08 770.467 479.694 764.253 466.827L756.36 450.494C707.267 348.787 651.64 233.507 590.004 220.014C567.649 215.12 543.433 223.734 516.045 246.347C388.903 351.334 285.969 404.587 203.261 447.387C161.92 468.774 126.215 487.254 96.096 507.894C48.2973 540.667 49.1933 591.827 58.4987 629.2C74.352 665.147 300.172 846.827 390.472 870.347C462.175 889.027 585.377 871.694 686.44 789.507C756.933 732.174 838.96 623.467 829.427 431.174C828.72 416.907 839.72 404.76 853.987 404.054C868.227 403.48 880.413 414.347 881.12 428.614C891.72 642.547 798.853 764.774 719.08 829.654C631.987 900.48 529.015 928.614 447.719 928.627" fill="#181818"/>
<path d="M3220.99 1414.89C3315.75 1498.65 3334.35 1709.31 3163.89 1831.27C3053.95 1909.93 2953.15 1906.53 2868.92 1821.28C2732.47 1683.17 2803.81 1573.69 2909.49 1489.45C3015.17 1405.21 3131.37 1335.68 3220.99 1414.89" fill="#FCC06A"/>
<path d="M2919.25 1550.43C2911.07 1545.47 2902.87 1540.75 2894.64 1536.25C2904.07 1527.49 2914.39 1518.64 2925.61 1509.68C3013.19 1439.88 3079.05 1406.08 3131.23 1406.08C3158.88 1406.08 3182.69 1415.59 3203.85 1434.28C3214.39 1443.59 3223.79 1454.68 3231.89 1467.16C3205.47 1445.52 3176.81 1436.37 3146.88 1436.37C3076.08 1436.37 2998.07 1487.53 2925.11 1545.71C2923.15 1547.27 2921.19 1548.84 2919.25 1550.43Z" fill="#FDD69E"/>
<path d="M3168.01 1795.4C3158.99 1781.95 3149.43 1768.57 3139.33 1755.29C3110.2 1716.99 3080.63 1683.33 3050.71 1653.81C3064.45 1650.21 3078.61 1645.57 3093.16 1639.92C3169.05 1610.39 3220.57 1560.81 3251.05 1505.12C3262.53 1535.25 3268.01 1569.57 3266.21 1604.64C3262.41 1678.48 3227.77 1745.4 3168.01 1795.4" fill="#BD906C"/>
<path d="M3131.23 1406.08C3079.05 1406.08 3013.19 1439.88 2925.61 1509.68C2857.43 1564.04 2822.83 1614.72 2819.88 1664.59C2817.27 1708.56 2839.96 1755.16 2887.32 1803.09C2962.97 1879.67 3048.52 1882.01 3148.83 1810.24C3220.33 1759.07 3262.03 1686.05 3266.21 1604.64C3269.71 1536.65 3245.81 1471.37 3203.85 1434.28C3182.69 1415.59 3158.88 1406.08 3131.23 1406.08M3012.45 1914.13C2954.24 1914.13 2899.68 1889.23 2850.51 1839.47C2792.4 1780.64 2764.71 1720.77 2768.21 1661.52C2772.09 1596.16 2813.03 1533.25 2893.36 1469.21C2960.73 1415.52 3118.51 1289.77 3238.12 1395.51C3291.61 1442.79 3322.17 1523.95 3317.89 1607.29C3312.88 1704.77 3263.53 1791.79 3178.95 1852.32C3121.32 1893.55 3065.37 1914.13 3012.45 1914.13" fill="#181818"/>
<path d="M1328.91 1917.88C1088.43 2080.99 838.24 2198.28 838.24 2198.28C838.24 2198.28 561.061 2048.77 486.952 2241.57C419.269 2417.67 650.76 2745.73 1066.43 2665.09C1224.51 2634.43 1382.85 2557.28 1567.39 2401.81L1328.91 1917.88" fill="#FCC06A"/>
<path d="M501.125 2306.31C501.305 2286.57 504.569 2267.87 511.104 2250.87C525.219 2214.13 547.975 2190.39 580.673 2178.27C598.816 2171.52 618.707 2168.79 639.08 2168.79C727.48 2168.79 824.773 2220.41 825.96 2221.07C829.787 2223.12 834.013 2224.16 838.24 2224.16C842 2224.16 845.747 2223.35 849.227 2221.71C850.453 2221.15 910.267 2192.96 998.813 2145.61C1001.93 2146.21 1005.04 2146.8 1008.16 2147.37C1012.4 2148.17 1016.64 2148.96 1020.88 2149.73C968.107 2185.72 924.493 2215.49 894.733 2235.81C879.093 2246.51 860.84 2251.93 842.44 2251.93C830.48 2251.93 818.453 2249.64 807.04 2245C768.16 2229.24 709.133 2210.07 652.027 2210.07C590.137 2210.07 530.489 2232.57 501.125 2306.31" fill="#FEECD2"/>
<path d="M930.053 2651.29C838.627 2649.4 753.827 2625.99 682.787 2583.19C728.16 2595.88 777.933 2603.05 831.72 2603.05C867.013 2603.05 904.027 2599.96 942.707 2593.32C936.133 2611.35 932.16 2630.05 930.307 2648.69C930.213 2649.56 930.133 2650.43 930.053 2651.29ZM1088.07 2441.79C1092.68 2373.07 1073.39 2290.13 1054.24 2212.33C1049.57 2193.37 1049.65 2173.88 1054.09 2155.45C1062.68 2156.85 1071.28 2158.17 1079.88 2159.43C1104.57 2253.16 1145.55 2340.15 1201.92 2419.27C1196.72 2419.36 1191.51 2419.56 1186.31 2419.88C1153.16 2421.87 1119.6 2428.72 1088.07 2441.79" fill="#BD906C"/>
<path d="M941.947 2703.19C779.307 2703.2 633.893 2641.11 538.144 2526.91C459.596 2433.21 430.023 2317.57 462.803 2232.29C482.304 2181.56 515.944 2147.04 562.793 2129.71C664.6 2091.99 798.027 2149.76 838.56 2169.45C889.853 2144.65 1107.07 2037.08 1314.39 1896.47C1326.21 1888.45 1342.31 1891.53 1350.32 1903.35C1358.35 1915.19 1355.25 1931.27 1343.44 1939.29C1104.03 2101.67 851.747 2220.53 849.227 2221.71C841.813 2225.2 833.173 2224.96 825.96 2221.07C824.507 2220.27 677.56 2142.29 580.673 2178.27C547.975 2190.39 525.219 2214.13 511.104 2250.87C484.968 2318.85 511.147 2414.16 577.799 2493.65C686.107 2622.85 866.933 2677.43 1061.49 2639.69C1224.03 2608.16 1379.48 2526.29 1550.72 2382.03C1561.65 2372.83 1577.96 2374.21 1587.17 2385.15C1596.39 2396.08 1594.99 2412.4 1584.05 2421.6C1405.8 2571.77 1242.89 2657.21 1071.36 2690.49C1027.44 2699.01 984.107 2703.19 941.947 2703.19" fill="#181818"/>
<path d="M2787.23 2760.77C2278.49 2989.16 1366.91 2827.52 1133.67 2240.07C1113.73 2190 1098.8 2136.83 1089.41 2080.56L1872.93 1480.43C2080.88 1530.17 2288.39 1486.19 2489.36 1480.11C2709.73 1473.51 2922.23 1512.51 3118.73 1770.99C3443.05 2197.51 3129.99 2606.88 2787.23 2760.77" fill="#FCC06A"/>
<path d="M3086.6 1796.48C2911.96 1589.29 2725.21 1545.09 2532 1545.09C2518.13 1545.09 2504.24 1545.32 2490.32 1545.73C2490.73 1532.59 2490.77 1519.32 2490.44 1506C2504.07 1505.6 2517.64 1505.37 2531.16 1505.37C2730.92 1505.37 2921.05 1553.72 3098.13 1786.61C3098.25 1786.76 3098.36 1786.91 3098.47 1787.05L3086.6 1796.48" fill="#FEECD2"/>
<path d="M2273.07 2834.33C2135.31 2834.33 1994.12 2816.08 1860.25 2780.19C1872.97 2768.27 1885.56 2756.21 1897.88 2743.95C1911.39 2730.72 1924.4 2716.97 1936.24 2702.15C1941.52 2695.57 1946.71 2688.92 1951.69 2682.07C2064.25 2718.6 2193.83 2737.75 2326.93 2738.52C2327.32 2738.52 2327.72 2738.52 2328.09 2738.52C2443.25 2738.52 2530.56 2632.97 2508.25 2519.83C2482.31 2388.07 2501.52 2275.25 2501.52 2275.25L2502.33 2275.97C2509.81 2386.77 2560.33 2643.79 2767.44 2741.25C2623.92 2803.75 2451.35 2834.33 2273.07 2834.33M1292.32 2428.17C1291.96 2428.09 1291.6 2428.01 1291.24 2427.93C1286.27 2426.84 1281.32 2425.89 1276.36 2425.03C1274.44 2424.69 1272.52 2424.37 1270.6 2424.07C1213.31 2352.6 1165.17 2267.45 1135.55 2166.51C1163.01 2169.47 1190.53 2171.63 1218.12 2172.87C1218.31 2172.87 1218.49 2172.88 1218.69 2172.88C1224.87 2172.88 1230.35 2168.45 1231.47 2162.17C1231.56 2161.61 1231.63 2161.05 1231.65 2160.51L1326.93 2164.52C1326.92 2164.92 1326.92 2165.32 1326.95 2165.72C1327.39 2172.6 1333.09 2177.88 1339.88 2177.88C1340.16 2177.88 1340.44 2177.87 1340.72 2177.85C1410.67 2173.44 1480.31 2166.31 1549.81 2157.48C1584.6 2153.33 1619.24 2148.01 1653.95 2142.88C1688.6 2137.33 1723.21 2131.39 1757.81 2124.81C1792.39 2118.03 1826.93 2110.77 1861.47 2102.2C1878.73 2097.89 1895.99 2093.29 1913.27 2088.08C1921.88 2085.47 1930.59 2082.67 1939.16 2079.71L1964.36 2070.61C1997.8 2058.04 2030.81 2044.17 2063.04 2028.51C2095.2 2012.69 2126.64 1995.31 2157.07 1976.19C2217.92 1937.93 2274.41 1892.03 2323.64 1838.77C2372.88 1785.61 2413.95 1724.13 2443.09 1657.08C2458.64 1621.43 2470.63 1584.17 2478.88 1546.11C2482.69 1545.97 2486.51 1545.84 2490.32 1545.73C2481.67 1821.6 2310.28 2054.49 1954.63 2140.59C1854.53 2164.81 1741.01 2169.52 1632.4 2174.72C1632.07 2172.8 1631.29 2170.93 1630.05 2169.27C1627.49 2165.81 1623.56 2163.99 1619.57 2163.99C1616.88 2163.99 1614.17 2164.81 1611.84 2166.53L1611.79 2166.57C1583.09 2187.79 1555.25 2209.79 1527.51 2231.89C1499.75 2254 1472.27 2276.37 1444.88 2298.89C1417.52 2321.43 1390.2 2344 1363.19 2366.93C1339.36 2387.09 1315.56 2407.43 1292.32 2428.17" fill="#BD906C"/>
<path d="M2478.88 1546.11C2481.75 1532.87 2484.17 1519.53 2486.13 1506.13C2487.59 1506.08 2489 1506.04 2490.44 1506C2490.77 1519.32 2490.73 1532.59 2490.32 1545.73C2486.51 1545.84 2482.69 1545.97 2478.88 1546.11Z" fill="#BEB1BA"/>
<path d="M2273.4 2885.64C2021.81 2885.65 1759.59 2827.05 1547.33 2713.28C1275.17 2567.41 1108.01 2350.09 1063.91 2084.81C1061.57 2070.72 1071.09 2057.4 1085.2 2055.05C1099.31 2052.71 1112.61 2062.24 1114.96 2076.33C1167.23 2390.73 1392.23 2571.44 1571.79 2667.68C1930.89 2860.16 2437.61 2889.4 2776.64 2737.19C2949.08 2659.76 3154.39 2494.36 3213.48 2262.35C3254.49 2101.28 3215.68 1941.21 3098.13 1786.61C2859.11 1472.25 2596.35 1494.13 2318.15 1517.29C2171.36 1529.51 2019.57 1542.15 1866.88 1505.59C1852.97 1502.27 1844.41 1488.29 1847.73 1474.4C1851.07 1460.51 1865.03 1451.95 1878.92 1455.27C2023.56 1489.88 2171.13 1477.6 2313.85 1465.72C2593.73 1442.43 2883.12 1418.33 3139.33 1755.29C3265.11 1920.73 3308.09 2100.48 3263.63 2275.11C3199.99 2524.99 2981.29 2702.03 2797.83 2784.4C2646.4 2852.39 2462.91 2885.64 2273.4 2885.64" fill="#181818"/>
<path d="M1929.27 2055.52C1826.29 2091.11 1628.75 2125 1338.96 2165.04L1219.56 2159.99C960.507 2131.47 728.613 2050.73 607.333 1987.09C379.905 1867.75 178.609 1702.29 202.545 1437.03C214.056 1309.79 259.271 1193.61 323.825 1050.6C469.685 727.44 418.845 404.347 790.253 227.12C1054.68 100.987 1447.05 100.734 1713.87 186.107C1765.04 202.48 1811.48 221.747 1853.97 244.387C2069.24 358.947 2184.05 560.494 2305.15 919.107C2327.77 986.12 2386.96 1090.39 2426.55 1205.79C2443.76 1255.91 2457.21 1308.17 2462.39 1360.44C2493.44 1675.32 2277.07 1935.28 1929.27 2055.52" fill="#FCC06A"/>
<path d="M552.141 477.267C570.628 445.147 591.964 415.013 616.68 387.747C660.746 338.427 715.093 298.72 774.427 267.4C833.853 236.053 897.867 212.987 963.693 195.933C1072.55 168.08 1185.71 156.107 1298.8 156.107C1322.79 156.107 1346.8 156.64 1370.73 157.68C1439.17 160.893 1507.44 168.427 1574.56 181.133C1641.63 193.96 1707.52 212.04 1770.15 237.36C1795.61 247.627 1820.47 259.187 1844.48 272.147C1841.28 285.2 1840.05 298.08 1840.95 311.853C1805.53 294.973 1767.6 280.12 1726.75 267.027C1602.44 227.267 1451.72 205.48 1298.65 205.48C1112.09 205.48 922.04 237.827 771.893 309.467C673.627 356.373 603.96 413.147 552.141 477.267" fill="#FDD397"/>
<path d="M3665.76 2794.79C3653.99 2859.28 3618.28 2912.91 3546.93 2941.29C3313.81 3034.12 3222.41 2725 3222.41 2725C2603.72 2951.65 2507.01 2409.92 2501.52 2260.71L3118.73 1770.99C3272.68 1967.11 3283.93 2260.37 3283.93 2260.37C3283.93 2260.37 3402.76 2263.87 3484.96 2330.04C3573.59 2401.45 3695.51 2632.56 3665.76 2794.79" fill="#FCC06A"/>
<path d="M3462.77 2958.68C3360.19 2958.68 3294.28 2874.88 3257.89 2807.64C3233.53 2762.6 3222.41 2725 3222.41 2725C3211.92 2728.84 3201.57 2732.47 3191.37 2735.88C3099.95 2766.44 3020.4 2779.68 2951.27 2779.68C2909.24 2779.68 2871.08 2774.79 2836.39 2765.92C2811.68 2759.61 2788.72 2751.27 2767.44 2741.25C2550.13 2638.99 2505.21 2361.07 2501.52 2260.71C2501.52 2260.71 2601.27 2622.6 2857.92 2670.21C2916.96 2681.17 2973.19 2685.55 3025.33 2685.55C3233.99 2685.55 3377.65 2615.43 3377.65 2615.43C3377.65 2615.43 3301.2 2770.92 3377.65 2841.43C3409.24 2870.57 3442.25 2882.16 3475.57 2882.16C3540.49 2882.16 3606.59 2838.23 3665.76 2794.79C3653.99 2859.28 3618.28 2912.91 3546.93 2941.29C3516.51 2953.41 3488.48 2958.68 3462.77 2958.68" fill="#BD906C"/>
<path d="M2514.48 2260.21C2517.12 2281.24 2520.75 2302.27 2525.01 2323.08C2529.41 2343.88 2534.07 2364.6 2539.96 2384.95C2551.19 2425.73 2565.21 2465.6 2582.87 2503.4C2600.43 2541.21 2621.45 2577.15 2646.81 2609.25C2672.15 2641.36 2702.08 2669.25 2735.65 2691.37C2769.24 2713.55 2806.76 2729.23 2846.04 2738.77C2885.36 2748.44 2926.37 2751.65 2967.61 2751.07L2998.61 2749.04C3003.79 2748.6 3008.96 2748.6 3014.12 2747.81L3029.61 2745.65C3039.93 2744.08 3050.31 2743.13 3060.61 2741.27L3091.48 2735.08C3096.63 2734.03 3101.79 2733.09 3106.92 2731.95L3122.21 2727.88L3152.83 2719.79C3173.09 2713.75 3193.25 2707.03 3213.52 2700.72L3215.12 2700.23C3228.56 2696.04 3242.84 2703.53 3247.03 2716.97C3247.08 2717.17 3247.17 2717.48 3247.23 2717.68L3247.24 2717.69C3248.95 2723.23 3251.35 2730 3253.67 2736.19C3256.08 2742.51 3258.59 2748.81 3261.28 2755.05C3266.64 2767.55 3272.44 2779.87 3278.81 2791.83C3291.56 2815.72 3306.17 2838.51 3323.19 2858.68C3339.99 2879.08 3359.55 2896.36 3380.89 2909.55C3402.43 2922.32 3426 2930.25 3450.45 2932.29C3474.96 2934.01 3500.15 2930 3524.63 2921.71C3549.15 2913.35 3571.76 2901.77 3589.93 2885.32C3608.17 2869.04 3621.85 2848.32 3630.65 2824.95C3639.52 2801.57 3643.64 2775.77 3644.32 2749.45C3645.07 2723.11 3642.29 2696.19 3637.21 2669.51C3632.15 2642.83 3624.89 2616.33 3616.01 2590.28C3598.25 2538.2 3573.76 2487.92 3544.44 2441.43C3529.68 2418.28 3513.51 2396.04 3495.68 2376.31C3486.84 2366.25 3477.41 2357.51 3467.76 2349.51C3462.53 2345.8 3457.63 2341.73 3452.2 2338.27C3446.61 2334.97 3441.47 2331.12 3435.57 2328.23C3412.77 2315.63 3387.73 2306.11 3361.84 2299.08C3348.84 2295.75 3335.67 2292.81 3322.36 2290.61C3315.71 2289.57 3309.05 2288.6 3302.39 2287.84C3295.93 2287.13 3288.69 2286.44 3283.16 2286.23C3269.57 2285.71 3258.81 2274.91 3258.08 2261.6L3258.07 2261.36C3257.56 2251.56 3256.69 2240.67 3255.67 2230.21C3254.67 2219.65 3253.45 2209.08 3252.05 2198.52C3249.37 2177.37 3245.93 2156.31 3242.07 2135.32C3234.19 2093.39 3223.85 2051.96 3211.2 2011.39C3198.81 1970.69 3182.53 1931.51 3164.36 1893.52L3149.83 1865.52C3144.97 1856.2 3139.08 1847.55 3133.77 1838.51L3125.61 1825.09C3122.87 1820.64 3119.6 1816.59 3116.63 1812.31L3098.39 1786.93L3097.12 1785.19C3088.79 1773.6 3091.44 1757.44 3103.03 1749.11C3114.61 1740.77 3130.76 1743.39 3139.09 1754.99L3159.09 1782.75C3162.35 1787.41 3165.91 1791.91 3168.89 1796.73L3177.76 1811.27C3183.53 1821.04 3189.89 1830.51 3195.13 1840.53L3210.76 1870.63C3230.27 1911.29 3247.48 1952.99 3260.55 1995.83C3273.88 2038.56 3284.69 2081.96 3292.93 2125.8C3296.97 2147.75 3300.57 2169.76 3303.39 2191.92C3304.85 2202.99 3306.12 2214.09 3307.19 2225.25C3308.27 2236.52 3309.16 2247.39 3309.77 2259.37L3284.68 2234.51C3293.44 2234.85 3300.45 2235.6 3308.23 2236.43C3315.79 2237.28 3323.28 2238.37 3330.76 2239.56C3345.69 2242.01 3360.48 2245.29 3375.19 2249.09C3404.49 2257.03 3433.37 2267.89 3460.69 2282.99C3467.64 2286.45 3474.09 2291.09 3480.79 2295.13C3487.4 2299.37 3493.6 2304.4 3500 2309.03C3512.4 2319.21 3523.92 2330.11 3534 2341.53C3554.53 2364.29 3572.08 2388.55 3588.08 2413.63C3619.77 2463.91 3645.75 2517.27 3664.97 2573.52C3674.55 2601.64 3682.48 2630.45 3688.07 2660C3693.68 2689.52 3696.89 2719.87 3696.05 2750.76C3695.24 2781.56 3690.47 2813.12 3679.03 2843.33C3667.73 2873.49 3649.08 2901.97 3624.51 2923.83C3600.09 2945.92 3570.6 2960.76 3541.12 2970.76C3511.48 2980.8 3479.12 2986.25 3446.44 2983.88C3413.8 2981.28 3381.81 2970.4 3354.23 2953.89C3326.84 2937.05 3303.16 2915.68 3283.55 2891.95C3263.67 2868.33 3247.28 2842.64 3233.09 2816.07C3226.01 2802.77 3219.61 2789.19 3213.68 2775.37C3210.71 2768.48 3207.93 2761.49 3205.24 2754.44C3202.56 2747.23 3200.13 2740.53 3197.61 2732.39V2732.35L3231.32 2749.31C3210.32 2756.61 3189.56 2764.64 3168.28 2771.27L3136.04 2780.49L3119.92 2785.09C3114.48 2786.43 3108.96 2787.56 3103.49 2788.79L3070.57 2796.05C3059.53 2798.25 3048.28 2799.64 3037.12 2801.35L3020.35 2803.79C3014.76 2804.67 3009.03 2804.76 3003.39 2805.28L2969.36 2807.72C2923.72 2808.87 2877.48 2804.88 2832.35 2793.8C2787.25 2782.76 2743.68 2763.69 2704.95 2737.6C2666.05 2711.63 2632.56 2678.45 2604.77 2641.87C2576.88 2605.24 2554.67 2565.04 2537.32 2523.31C2519.89 2481.56 2507.69 2438.15 2499.44 2394.27C2495.35 2372.32 2492.25 2350.23 2490.43 2328.01C2488.43 2305.84 2487.69 2283.56 2488.61 2261.16C2488.92 2254 2494.96 2248.44 2502.12 2248.73C2508.55 2249 2513.69 2253.89 2514.45 2260.08L2514.48 2260.21" fill="#181818"/>
<path d="M1608.95 1894.4C1532.84 1910.52 920.626 1991.33 458.412 1675.17C458.242 1675.07 458.13 1674.97 457.956 1674.87C294.76 1569.01 190.176 1260.36 340.364 1139.17C420.166 1074.79 494.376 1095.8 561.426 1116.8C595.638 1127.52 627.986 1138.23 658.266 1137.61C765.426 1135.28 778.92 1087.48 929.813 1097.65C1204.11 1116.09 1214.8 1236.44 1414.03 1226.57C1502.27 1222.19 1605.72 1177.65 1654.11 1166.31C1879.77 1113.25 2171.19 1362.55 1985.13 1661.64C1903.23 1793.32 1784.41 1857.27 1608.95 1894.4" fill="#A16044"/>
<path d="M1697.48 1129C1675.2 1288.64 1543.51 1402.19 1403.33 1382.61C1263.17 1363.04 1167.61 1217.77 1189.91 1058.15C1212.19 898.507 1343.88 784.96 1484.04 804.533C1624.21 824.093 1719.76 969.373 1697.48 1129" fill="#A16044"/>
<path d="M1572.8 1195.96C1565.47 1151.72 1556.87 1107.52 1540.8 1070.72C1532.89 1052.33 1522.77 1036.31 1510.92 1024.35C1504.88 1018.45 1498.57 1013.37 1491.52 1009.48C1488.01 1007.51 1484.39 1005.75 1480.59 1004.23C1478.71 1003.41 1476.72 1002.79 1474.77 1002.11L1468.12 1000.23C1450.33 995.48 1432.75 994.133 1415.88 997.427C1399.01 1000.6 1382.61 1008.31 1367.63 1019.91C1337.61 1043.36 1314.37 1080.51 1301.44 1122.28L1301.36 1122.53C1299.49 1128.59 1293.08 1131.96 1287.04 1130.09C1282.43 1128.67 1279.36 1124.57 1279 1120.04C1277.09 1095.33 1280.88 1070.05 1289.19 1045.93C1297.61 1021.88 1310.75 998.627 1329.49 978.92C1338.79 969 1349.61 960.213 1361.53 952.68C1373.55 945.333 1386.73 939.36 1400.6 935.48C1428.44 927.547 1458.12 928.454 1484.75 935.04L1494.71 937.734C1498.2 938.854 1501.69 939.96 1505.13 941.334C1512.03 943.987 1518.84 947.094 1525.24 950.934C1538.13 958.467 1549.89 967.96 1559.52 978.867C1579.16 1000.56 1590.69 1026.21 1597.68 1051.17C1604.59 1076.32 1606.85 1101.44 1606.36 1125.97C1605.68 1150.63 1602.57 1174.4 1595.24 1198.21C1593.37 1204.28 1586.95 1207.68 1580.88 1205.81C1576.57 1204.48 1573.61 1200.87 1572.92 1196.72L1572.8 1195.96" fill="#181818"/>
<path d="M435.197 1027.92C425.157 1178.63 509.402 1305.87 623.36 1312.12C737.32 1318.36 837.853 1201.27 847.893 1050.57C857.933 899.867 773.68 772.627 659.72 766.374C545.76 760.12 445.236 877.227 435.197 1027.92Z" fill="#A16044"/>
<path d="M506.715 1099.29C503.803 1087.84 503.167 1078.17 502.645 1067.77C502.288 1057.55 502.676 1047.36 503.72 1037.16C505.841 1016.79 510.377 996.32 518.429 976.267C526.444 956.307 538.024 936.267 555.585 919.2C564.285 910.654 574.567 903.014 586.125 897.174C591.943 894.32 597.905 891.694 604.16 889.854C607.227 888.747 610.413 888.094 613.56 887.347L618.307 886.267L622.587 885.574C645.2 881.854 670.533 882.64 694.347 891.56C706.227 895.88 717.36 902.4 727.173 910.134C736.907 918 745.267 927.16 751.907 937.04C765.32 956.814 772.173 978.76 774.867 999.974C777.427 1021.28 776.013 1042.21 771.08 1061.91C769.533 1068.09 763.253 1071.85 757.067 1070.29C752.693 1069.2 749.533 1065.75 748.613 1061.63L748.533 1061.29C744.493 1043.19 739.72 1026.08 732.947 1010.71C726.32 995.334 717.68 981.84 707.653 971.827C687.4 951.774 663.227 946.467 633.787 951.974L631.08 952.44L628.92 953.027C627.48 953.414 626 953.64 624.64 954.24C621.84 955.147 619.133 956.334 616.387 957.507C611 960.107 605.827 963.707 600.653 967.987C590.472 976.707 580.653 988.694 572.121 1002.67C563.555 1016.6 555.66 1032.09 548.584 1048.4C545.035 1056.55 541.6 1064.91 538.337 1073.36C536.628 1077.59 535.039 1081.84 533.563 1086.12L529.248 1098.31L528.544 1100.29C526.44 1106.24 519.915 1109.35 513.971 1107.24C510.264 1105.93 507.641 1102.83 506.715 1099.29Z" fill="#181818"/>
<path d="M1218.12 2172.87C1147.68 2169.71 1077.53 2160.51 1008.16 2147.37C973.426 2140.93 938.973 2133.09 904.733 2124.31C887.586 2120.04 870.586 2115.16 853.506 2110.55C836.626 2105.27 819.6 2100.48 802.826 2094.79C735.44 2072.99 669.28 2047.32 605.053 2015.04C541.782 1982.57 480.392 1946.71 422.437 1904.25C364.688 1861.91 310.333 1812.83 266.59 1753.71C222.792 1695.03 190.881 1625.19 179.509 1551.53C173.645 1514.81 172.429 1477.49 175.244 1440.76C178.024 1404.4 183.669 1368.64 191.642 1333.41C207.534 1262.93 232.094 1195.6 259.112 1130.35C272.59 1097.76 286.98 1065.35 301.121 1033.65C314.94 1002.56 327.144 970.667 338.306 938.28C360.629 873.454 378.22 806.56 396.368 738.947C414.596 671.414 433.434 602.814 460.753 535.96C487.91 469.28 524.728 404.4 574.169 349.614C623.186 294.467 683.426 250.44 747.413 216.48C811.56 182.454 879.813 157.774 949.093 139.64C1088.03 103.88 1231.36 92.5471 1373.47 98.7737C1444.55 102.28 1515.45 110.267 1585.59 123.72C1655.64 137.307 1725.09 156.454 1791.97 183.694C1858.81 210.8 1923.07 246.987 1979.61 293.227C2036.29 339.294 2084.76 394.68 2125.09 454.294C2165.51 513.96 2199.09 577.294 2228.29 641.92C2257.75 706.52 2283.07 772.454 2306.77 838.707C2312.61 855.307 2318.52 871.88 2324.12 888.52L2332.57 913.2C2335.16 920.787 2338.25 928.56 2341.35 936.307C2354.11 967.427 2369.12 998.934 2383.72 1030.75C2413.05 1094.43 2441.87 1159.71 2462.73 1228.73C2473.15 1263.21 2481.68 1298.61 2486.72 1334.96C2491.65 1371.41 2493.53 1407.75 2491.92 1444.36C2488.93 1517.43 2472.32 1590.08 2443.09 1657.08C2413.95 1724.13 2372.88 1785.61 2323.64 1838.77C2274.41 1892.03 2217.92 1937.93 2157.07 1976.19C2126.64 1995.31 2095.2 2012.69 2063.04 2028.51C2030.81 2044.17 1997.8 2058.04 1964.36 2070.61L1939.16 2079.71C1930.59 2082.67 1921.88 2085.47 1913.27 2088.08C1895.99 2093.29 1878.73 2097.89 1861.47 2102.2C1826.93 2110.77 1792.39 2118.03 1757.81 2124.81C1723.21 2131.39 1688.6 2137.33 1653.95 2142.88C1619.24 2148.01 1584.6 2153.33 1549.81 2157.48C1480.31 2166.31 1410.67 2173.44 1340.72 2177.85C1333.56 2178.31 1327.4 2172.88 1326.95 2165.72C1326.55 2159.23 1331 2153.55 1337.17 2152.23C1405.6 2137.48 1474.25 2124.84 1542.83 2112.32L1645.53 2093.44C1679.75 2087.25 1713.91 2080.92 1747.84 2074.03C1781.8 2067.27 1815.61 2060.08 1848.85 2051.73C1865.47 2047.55 1881.95 2043.11 1898.11 2038.19C1906.19 2035.71 1914.11 2033.15 1922.04 2030.39L1946.09 2021.63C1977.99 2009.56 2009.4 1996.27 2039.97 1981.31C2070.45 1966.23 2100.17 1949.69 2128.84 1931.57C2186.15 1895.36 2238.84 1852.2 2284.35 1802.75C2329.89 1753.35 2367.29 1696.83 2393.71 1635.69C2420.16 1574.57 2435.04 1508.75 2437.63 1442.2C2439.05 1409.03 2437.17 1375.31 2432.67 1342.59C2428.04 1309.73 2420.11 1277.01 2410.25 1244.68C2390.52 1179.91 2362.72 1117.01 2333.45 1053.97C2318.87 1022.33 2303.69 990.814 2289.85 957.334C2286.44 948.88 2283.05 940.427 2279.99 931.493L2271.39 906.627C2265.81 890.187 2259.96 873.88 2254.16 857.534C2230.65 792.347 2205.65 727.8 2176.99 665.334C2148.55 602.76 2116.19 542.334 2078.11 486.4C2040.04 430.48 1995.31 379.787 1943.39 337.787C1891.59 295.654 1832.72 262.574 1770.15 237.36C1707.52 212.04 1641.63 193.96 1574.56 181.134C1507.44 168.427 1439.17 160.894 1370.73 157.68C1233.93 151.734 1095.63 162.174 963.693 195.934C897.866 212.987 833.853 236.054 774.426 267.4C715.093 298.72 660.746 338.427 616.68 387.747C572.25 436.76 538.74 495.04 513.089 557.467C487.329 619.974 468.77 686.387 450.481 753.587C432.241 820.827 414.145 889.134 390.8 956.387C379.124 990.014 366.266 1023.39 351.629 1056.09C337.228 1088.15 323.178 1119.53 309.864 1151.47C283.273 1215.12 259.709 1279.52 244.665 1345.4C237.112 1378.27 231.769 1411.69 229.137 1444.96C226.528 1477.84 227.546 1510.8 232.594 1543.08C237.504 1575.39 246.836 1606.89 259.929 1636.89C272.944 1666.93 289.588 1695.55 309.366 1722.16C348.673 1775.67 398.921 1821.64 453.566 1861.92C508.225 1902.23 567.726 1937.31 628.626 1968.73C689.12 1999.49 753.773 2024.03 818.866 2046.32C949.533 2090.43 1084.19 2122.8 1220.95 2147.15C1228 2148.39 1232.71 2155.12 1231.47 2162.17C1230.32 2168.65 1224.52 2173.15 1218.12 2172.87" fill="#181818"/>
<path d="M1541.99 634.08C1522.65 629.667 1503.44 624.894 1484.25 620.067C1464.64 615.014 1447.07 610.294 1428.43 609.12C1391.53 606.094 1354.47 612.454 1321.29 627.32C1288.17 641.654 1260.24 667.107 1222.83 689.174C1185.43 710.547 1141.99 721.76 1098.52 721.547C1055.01 720.987 1011.92 708.507 974.8 686.56C955.84 674.773 941.013 663.4 924.613 651.947C916.293 646.027 909.093 640.88 901.373 636.213C897.546 633.8 893.666 631.467 889.653 629.4C885.72 627.147 881.64 625.214 877.533 623.307C844.72 608.027 807.933 601.187 771.24 603.64C752.706 604.574 735.2 608.973 715.453 613.693C696.186 618.2 676.906 622.64 657.506 626.707C652.64 627.734 647.866 624.613 646.84 619.747C645.92 615.36 648.36 611.04 652.426 609.48C670.92 602.373 689.533 595.64 708.16 588.96C726.2 582.307 746.733 575.24 767.613 572.08C809.413 565.76 853.48 570.467 893.16 586.774C898.133 588.76 903.093 590.814 907.893 593.2C912.773 595.4 917.52 597.907 922.2 600.507C926.973 602.974 931.413 605.974 935.973 608.8C940.666 611.707 944.36 614.32 948.6 617.093C964.906 627.8 982 639.787 996.92 648.347C1028.28 665.8 1063.49 675.747 1099.08 676.28C1134.63 676.64 1170.25 668.027 1202.09 651.227C1217.36 643.147 1234.39 631.654 1251.03 621.2C1259.09 616.107 1268.25 610.08 1277.76 605.2C1282.47 602.68 1287.25 600.307 1292.17 598.213C1297 595.92 1301.99 594 1306.99 592.12C1346.88 576.72 1390.84 572.987 1432.28 580.174C1452.97 583.72 1473.24 591.2 1491.16 598.293C1509.63 605.413 1528.08 612.587 1546.41 620.12C1550.16 621.654 1551.96 625.947 1550.41 629.707C1549.03 633.08 1545.41 634.867 1541.99 634.08" fill="#181818"/>
<path d="M1408.13 492.107C1394.69 489.56 1381.36 486.653 1368.05 483.693C1354.31 480.547 1342.65 477.733 1330.15 477.293C1305.51 475.867 1281.09 480.64 1259.33 490.774C1237.79 500.574 1219.28 517.653 1192.64 533.733C1166.05 549.147 1134.97 557.253 1103.85 557.133C1072.71 556.747 1041.84 547.774 1015.43 531.987C989.4 515.454 970.72 498.24 949.573 488.227C928.08 477.893 903.933 472.853 879.506 473.933C867.133 474.227 855.56 476.84 841.72 479.774C828.373 482.534 815.013 485.227 801.546 487.56C796.613 488.413 791.933 485.107 791.093 480.187C790.36 475.974 792.68 471.934 796.453 470.32C809.04 464.974 821.72 459.974 834.426 455.04C846.56 450.174 861.16 444.894 875.866 442.374C905.413 437.427 936.84 440.333 965.2 451.693C972.32 454.427 979.28 457.627 985.973 461.28C992.72 464.893 999.213 469.293 1004.63 472.8C1015.81 480.053 1027.92 488.387 1037.55 493.774C1058.21 505.067 1081.19 511.507 1104.41 511.88C1127.63 512.147 1150.89 506.627 1171.91 495.787C1181.8 490.72 1193.77 482.813 1205.25 475.733C1210.73 472.347 1217.33 468.054 1224.13 464.654C1230.88 461.147 1237.89 458.16 1245.03 455.587C1273.51 444.907 1304.81 442.76 1334.01 448.347C1348.55 451.147 1362.91 456.72 1374.96 461.92C1387.55 467.174 1400.11 472.48 1412.56 478.147C1416.27 479.84 1417.91 484.214 1416.21 487.92C1414.79 491.08 1411.4 492.72 1408.13 492.107" fill="#181818"/>
<path d="M1298.95 1427.37C1298.95 1427.37 1230.76 1562.28 1116.32 1639.91C1074.16 1668.61 1025.59 1689.53 971.933 1693.01C887.493 1698.56 818.533 1644.49 769.427 1585.97C714.493 1520.68 684.133 1449.72 684.133 1449.72L954.333 1377.93L1298.95 1427.37" fill="#181818"/>
<path d="M1116.32 1639.91C1074.16 1668.61 1025.59 1689.53 971.933 1693.01C887.493 1698.56 818.533 1644.49 769.413 1585.97C813.106 1553.05 860.053 1528.2 905.106 1523.79C993.906 1515.01 1065.95 1575.73 1116.32 1639.91" fill="#FF6687"/>
<path d="M952.907 1513.92C952.907 1513.92 909.987 1513.92 905.387 1576.93C905.387 1576.93 952.693 1506.64 1033.15 1559.72L996.92 1515.61L952.907 1513.92Z" fill="#181818"/>
<path d="M1278.65 1443.47L1269.4 1442.73C1214.25 1438.35 1160.57 1434.37 1107.89 1429.11C1055.19 1423.91 1003.08 1417.15 949.88 1409.19L962.467 1408.45L691.88 1478.91L711.867 1437.89C714.72 1444.49 718.533 1452.43 722.187 1459.68C725.92 1467.07 729.827 1474.43 733.893 1481.69C742.013 1496.24 750.693 1510.48 759.933 1524.27C778.427 1551.81 799.133 1577.69 822.36 1600.08C845.6 1622.33 871.48 1641.2 899.506 1652.64C913.453 1658.49 927.92 1662.24 942.546 1664.13C957.186 1665.89 971.827 1665.39 987.453 1663.24C1018.17 1659.01 1048.19 1648.04 1076.25 1632.48C1104.36 1616.89 1130.56 1596.83 1154.71 1574.2C1178.87 1551.55 1201.05 1526.32 1221.37 1499.56C1231.53 1486.17 1241.23 1472.39 1250.43 1458.29C1255.01 1451.25 1259.47 1444.12 1263.77 1436.95L1270.08 1426.15L1273.11 1420.76L1274.55 1418.09L1275.24 1416.8L1275.57 1416.17L1275.73 1415.88C1275.73 1415.88 1275.83 1415.68 1275.75 1415.85C1272.08 1421.84 1272.2 1433.39 1275.99 1439.29L1278.65 1443.47M1318.57 1410.03L1321.88 1415.39C1325.6 1421.43 1325.65 1433.09 1321.93 1439.21L1321.76 1439.53L1321.53 1439.97L1321.11 1440.79L1320.28 1442.39L1318.64 1445.49L1315.32 1451.56L1308.55 1463.43C1303.95 1471.27 1299.24 1478.99 1294.37 1486.61C1284.65 1501.85 1274.41 1516.73 1263.61 1531.27C1242.03 1560.29 1218.28 1587.95 1191.77 1613.32C1165.27 1638.65 1135.95 1661.77 1103.16 1680.4C1070.45 1699 1034 1712.99 995.52 1718.68C985.8 1720.03 976.493 1721.16 966.267 1721.45C956.2 1721.76 946.093 1721.4 936.067 1720.32C916.04 1718 896.4 1713.01 878.08 1705.57C841.2 1690.87 809.64 1667.85 782.28 1642.25C754.973 1616.44 731.613 1587.67 710.893 1557.52C700.56 1542.41 690.893 1526.93 681.84 1511.09C677.32 1503.17 672.947 1495.16 668.733 1487.03C664.467 1478.73 660.586 1471 656.413 1461.61L642.28 1429.85L676.387 1420.61L946.253 1347.45L952.306 1345.81L958.84 1346.72C1020.51 1355.23 1083.25 1364.93 1145.4 1376.19C1204.15 1386.77 1261.99 1398.57 1318.57 1410.03" fill="#181818"/>
<path d="M1533.25 1408.44C1533.25 1408.44 1573.13 1626.47 1364.67 1646.23C1190.39 1662.75 1000.43 1508.37 938.76 1387.53C906.64 1425.97 779.333 1586.76 609.28 1522.52C413.398 1448.51 513.124 1262.24 513.124 1262.24C513.124 1262.24 647.826 1176.25 942.413 1223.76C1237 1271.27 1533.25 1408.44 1533.25 1408.44" fill="#A16044"/>
<path d="M1338.56 1647.45C1313.64 1647.45 1288.55 1644.21 1263.69 1638.32C1288.53 1644.21 1313.61 1647.45 1338.52 1647.45C1347.27 1647.45 1355.99 1647.05 1364.67 1646.23C1373.81 1645.36 1382.47 1644.11 1390.68 1642.52C1382.47 1644.12 1373.79 1645.37 1364.64 1646.24C1355.99 1647.05 1347.27 1647.45 1338.56 1647.45M1529.67 1510.09C1537.15 1478.05 1536.93 1447.77 1535.56 1428.73C1535.59 1428.68 1535.6 1428.63 1535.61 1428.59C1536.96 1447.63 1537.19 1477.97 1529.67 1510.09" fill="#794850"/>
<path d="M1001.72 1475.73C982.72 1454.88 966.36 1433.63 953.267 1412.91C953.267 1412.91 953.267 1412.91 953.28 1412.91C966.36 1433.63 982.733 1454.88 1001.72 1475.73Z" fill="#181818"/>
<path d="M515.867 1456.77C476.977 1403.51 486.02 1340.11 498.033 1300.52C486.048 1340.12 477.028 1403.51 515.867 1456.77Z" fill="#794850"/>
<path d="M886.88 1444.52C894.8 1436.91 902.027 1429.47 908.467 1422.51H908.48C902.027 1429.47 894.813 1436.91 886.88 1444.52Z" fill="#181818"/>
<path d="M908.466 1422.51C914.706 1415.79 920.24 1409.49 925.013 1403.92C920.24 1409.51 914.72 1415.77 908.48 1422.51H908.466Z" fill="#181818"/>
<path d="M1338.52 1647.45C1313.61 1647.45 1288.53 1644.21 1263.69 1638.32C1163.43 1614.53 1067.08 1547.52 1001.72 1475.73C982.733 1454.88 966.36 1433.63 953.28 1412.91C953.693 1412.77 954.12 1412.63 954.533 1412.48C968.026 1407.55 974.96 1392.63 970.026 1379.13C969.186 1376.84 968.093 1373.21 967.24 1370.03C966.306 1366.75 965.506 1363.33 964.666 1359.96C963.093 1353.15 961.68 1346.23 960.493 1339.24C959.866 1335.61 959.293 1331.97 958.773 1328.31C969.826 1327.84 980.773 1326.83 991.533 1325.35C1081.61 1437.21 1228.67 1554.71 1349.16 1554.71C1357.53 1554.71 1365.76 1554.13 1373.84 1552.96C1468.77 1539.19 1516.52 1481 1535.56 1428.73C1536.93 1447.77 1537.15 1478.05 1529.67 1510.09C1529.67 1510.09 1529.67 1510.11 1529.67 1510.12C1516.83 1564.92 1481.45 1624.85 1390.68 1642.52C1382.47 1644.11 1373.81 1645.36 1364.67 1646.23C1355.99 1647.05 1347.27 1647.45 1338.52 1647.45M689 1537.48C663.72 1537.48 637.093 1532.99 609.306 1522.48C563.96 1505.36 534.444 1482.21 515.866 1456.77C477.028 1403.51 486.048 1340.12 498.033 1300.52C499.552 1295.52 501.118 1290.89 502.641 1286.71C509.99 1335.19 522.76 1406.03 606.853 1431.17C628.827 1437.75 649.72 1440.69 669.48 1440.69C760.693 1440.69 828.306 1377.92 872.333 1319.13C886.093 1323.16 900.72 1326.01 916.04 1327.41C915.906 1332.63 915.88 1337.85 915.96 1343.09C916.053 1351.05 916.4 1359.03 916.96 1367.05C917.306 1371.07 917.613 1375.08 918.093 1379.16C918.56 1383.35 919.013 1387.05 919.92 1392.05L920.053 1392.81C920.32 1394.21 920.693 1395.6 921.2 1396.99C922.133 1399.55 923.426 1401.87 925.013 1403.92C920.24 1409.49 914.706 1415.79 908.466 1422.51C902.026 1429.47 894.8 1436.91 886.88 1444.52C841.546 1488.07 772.786 1537.47 689 1537.48Z" fill="#794850"/>
<path d="M1543.44 1406.57C1547.68 1425.4 1549.27 1443.52 1549.68 1462.33C1549.85 1481.04 1548.25 1499.92 1544.41 1518.71C1540.59 1537.48 1534.17 1556.11 1524.75 1573.6C1515.37 1591.09 1502.88 1607.37 1487.76 1620.96C1457.24 1648.24 1418.01 1662.91 1379.91 1669.23C1360.81 1672.57 1341.15 1673.57 1321.83 1672.97C1302.47 1672.36 1283.2 1670.27 1264.41 1666.45C1245.61 1662.72 1227.09 1657.83 1209.11 1651.69C1191.16 1645.43 1173.68 1638.07 1156.64 1629.96C1122.69 1613.47 1090.59 1593.75 1060.48 1571.39C1030.45 1548.91 1002.47 1523.76 976.92 1495.92C951.533 1467.92 928.28 1437.53 909.96 1402.23L963.573 1408.27C954.386 1419.33 944.226 1431.36 933.8 1442.61C923.293 1453.96 912.333 1465.01 900.746 1475.53C877.52 1496.44 852.213 1515.85 823.813 1531.19C795.613 1546.67 764.373 1558.23 731.573 1563.57C715.173 1566.21 698.426 1567.13 681.813 1566.33C665.16 1565.63 648.786 1562.57 632.826 1558.68C624.96 1556.36 617.013 1554.31 609.453 1551.29C601.724 1548.55 594.35 1545.57 587.098 1542.21C572.536 1535.55 558.234 1527.76 544.888 1518.05C518.16 1499.09 494.449 1472.68 481.656 1441.16C468.79 1409.69 466.588 1375.67 471.54 1344.47C473.974 1328.8 477.965 1313.63 483.148 1299.04C488.592 1284.37 494.569 1270.68 502.94 1256.79C506.232 1251.32 513.329 1249.56 518.793 1252.85C523.67 1255.79 525.598 1261.76 523.612 1266.89L523.305 1267.69C503.668 1318.6 497.512 1378.97 521.22 1423.04C532.604 1445.13 550.774 1462.92 572.8 1476.15C594.676 1489.27 620.573 1499.29 645.533 1504.55C670.8 1509.55 696.333 1509.48 721.266 1504.77C746.173 1499.83 770.413 1490.11 793.106 1476.64C815.853 1463.35 837.373 1446.87 857.28 1428.2C867.28 1418.91 876.973 1409.16 886.306 1398.96C895.746 1388.68 904.453 1378.29 913.946 1366.79L945.253 1328.88L967.573 1372.83C981.906 1401.05 1002.08 1428.07 1024.36 1453C1046.59 1478.17 1071.72 1501.07 1098.2 1522.09C1151.2 1564.05 1212 1596.87 1276.05 1613C1308.11 1620.95 1340.88 1623.67 1373.2 1620.41C1405.45 1617.24 1436.35 1607.52 1460.77 1588.67C1485.52 1570.21 1502.89 1542.2 1512.68 1510.6C1517.64 1494.8 1520.8 1478.15 1522.43 1461.21C1524.2 1444.41 1524.39 1426.71 1523.08 1410.29L1523.03 1409.67C1522.57 1403.97 1526.81 1398.99 1532.52 1398.53C1537.72 1398.12 1542.33 1401.63 1543.44 1406.57" fill="#181818"/>
<path d="M961.973 1210.93C959.307 1225.19 956.96 1239.4 956.147 1253.8C955.04 1268.12 955.027 1282.51 955.787 1296.79C956.48 1311.05 958.08 1325.27 960.493 1339.24C961.68 1346.23 963.093 1353.15 964.667 1359.96C965.507 1363.33 966.307 1366.75 967.24 1370.03C968.093 1373.21 969.187 1376.84 970.027 1379.13C974.96 1392.63 968.027 1407.55 954.533 1412.48C941.053 1417.4 926.133 1410.47 921.2 1396.99C920.693 1395.6 920.32 1394.21 920.053 1392.81L919.92 1392.05C919.013 1387.05 918.56 1383.35 918.093 1379.16C917.613 1375.08 917.307 1371.07 916.96 1367.05C916.4 1359.03 916.053 1351.05 915.96 1343.09C915.733 1327.2 916.453 1311.37 918.147 1295.68C919.773 1280 922.267 1264.44 925.893 1249.16C929.213 1233.83 934.147 1218.88 939.387 1204.24C941.573 1198.11 948.333 1194.91 954.467 1197.11C960 1199.08 963.147 1204.77 962.08 1210.37L961.973 1210.93" fill="#181818"/>
<path d="M1155.97 1227.77C1151.45 1282.79 1032.05 1336.81 918.253 1327.6C809.866 1318.81 736.933 1236.79 745.72 1182.29C753.013 1137.09 817.973 1124.48 931.76 1133.84C1045.53 1143.2 1160.51 1172.76 1155.97 1227.77Z" fill="#181818"/>
<path d="M910.88 1210.91C904.6 1210.91 898.106 1210.65 891.466 1210.11C841.16 1205.97 801.68 1186.69 802.813 1172.99C803.586 1163.55 823.36 1159.91 852.026 1159.91C864.986 1159.91 879.773 1160.65 895.426 1161.93C945.746 1166.08 986.133 1174.25 985.013 1187.97C984.026 1199.87 952.173 1210.91 910.88 1210.91Z" fill="#B2B2D4"/>
<path d="M279.378 1071.72C187.789 1047.85 55.4984 707.453 35.513 642.933C34.6504 640.16 33.9917 637.867 33.5503 636.173C23.1063 594.773 20.5557 528.347 81.4477 486.56C81.4477 486.56 114.898 555.013 245.816 549.8C376.765 544.667 550.694 322.027 550.694 322.027C476.168 507.893 442.482 662.853 421.716 782.867C385.096 993.987 388.328 1097.32 279.378 1071.72" fill="#A16044"/>
<path d="M308.882 1075.55C300.067 1075.55 290.291 1074.28 279.379 1071.72C187.79 1047.85 55.499 707.454 35.5137 642.934C109.559 716.774 144.631 848.067 244.507 866.96C256.623 869.253 268.079 870.307 278.872 870.307C364.822 870.307 409.442 804.387 421.716 782.867C388.764 972.84 388.07 1075.55 308.882 1075.55" fill="#794850"/>
<path d="M562.691 326.827C527.776 448.573 491.461 568.2 466.376 691.24C453.703 752.694 444.055 814.68 434.604 877.4C429.732 908.773 425.059 940.333 418.505 972.6C415.192 988.733 411.308 1005.11 405.764 1021.92C399.98 1038.63 392.913 1056.44 378.496 1073.48C371.295 1081.88 361.809 1089.72 350.949 1095.04C340.12 1100.45 328.42 1103.13 317.671 1103.92C306.857 1104.73 296.823 1103.91 287.379 1102.48C282.677 1101.81 277.976 1100.79 273.284 1099.76C270.741 1099.13 267.036 1097.99 264.248 1096.96C261.568 1095.83 258.619 1094.75 256.228 1093.43C236.204 1083.09 223.227 1069.96 211.105 1057C199.26 1043.87 189.04 1030.32 179.508 1016.57C160.541 989.054 144.248 960.773 128.952 932.147C113.681 903.533 99.5986 874.534 86.1506 845.307C72.6999 816.08 60.0079 786.6 48.1066 756.787C36.1586 726.933 24.7253 697.107 14.1986 666.2C11.5946 658.28 8.99056 650.92 6.56789 641.013C4.46923 632.24 2.9319 623.333 1.9119 614.28C-0.0560959 596.2 0.17061 577.44 3.88528 558.707C7.45728 540 14.9893 521.44 26.0253 505.293C37.0146 489.093 51.3599 475.627 66.8386 465.227C78.6959 457.24 94.7733 460.387 102.749 472.24C110.623 483.947 107.657 499.774 96.1732 507.854L96.0986 507.893C74.6693 522.947 61.0773 543.84 56.7613 568.84C54.4546 581.267 54.3666 594.6 56.0106 608C56.8613 614.693 58.104 621.427 59.788 628.053C61.164 633.547 63.8119 641.173 66.2893 648.267C87.1413 706.52 112.105 764.68 137.935 821.467C151.047 849.84 164.735 877.907 179.368 905.227C193.996 932.507 209.513 959.227 226.604 983.92C235.151 996.213 244.136 1007.99 253.569 1018.4C262.86 1028.64 273.283 1037.8 281.649 1041.89C282.719 1042.55 283.568 1042.68 284.504 1043.17C285.448 1043.45 285.524 1043.55 286.816 1043.89C289.88 1044.52 292.921 1045.21 296.079 1045.64C302.293 1046.57 308.172 1046.95 313.185 1046.55C323.375 1045.52 328.812 1042.89 335.257 1035.87C341.603 1028.76 347.34 1016.81 351.821 1003.67C356.32 990.387 359.964 975.88 363.121 960.987C369.432 931.133 374.332 899.947 379.415 868.707C389.469 806.08 400.427 742.827 414.201 680.2C427.944 617.56 443.899 555.253 464.199 494.36C484.615 433.533 508.815 373.96 538.675 317.2C542.013 310.84 549.875 308.387 556.233 311.72C561.787 314.64 564.352 321.027 562.691 326.827" fill="#181818"/>
<path d="M1326.93 2164.52L1231.65 2160.51C1231.95 2154.08 1227.44 2148.29 1220.95 2147.15C1084.19 2122.8 949.533 2090.43 818.867 2046.32C753.773 2024.03 689.12 1999.49 628.627 1968.73C567.727 1937.31 508.225 1902.23 453.567 1861.92C398.921 1821.64 348.673 1775.67 309.367 1722.16C302.319 1712.68 295.667 1702.93 289.436 1692.97C358.243 1756.43 442.716 1809.77 531.135 1856.17C652.413 1919.88 909.8 2020.72 1143.36 2029.13C1178.43 2030.4 1212.51 2031.01 1245.49 2031.01C1951.79 2031.01 2189.13 1752.03 2278.21 1628.12C2343.67 1537.07 2297.84 1406.96 2188.68 1381.25C2176.77 1378.45 2164.08 1374.43 2150.48 1369.04C1935.93 1284.04 1962.71 1007.2 1976.03 783.267C1982.83 669.294 1967.88 600.667 1928.11 524.347C1871.23 415.453 1843.96 358.507 1840.95 311.854C1851.39 316.827 1861.61 321.987 1871.64 327.32C1885.19 334.534 1898.37 342.094 1911.19 349.987C1966 424.827 2056.52 544.613 2056.49 777.96C2056.49 824.813 2052.83 876.253 2044.51 932.827C2039.36 967.733 2037.04 999.667 2037.04 1028.87C2037.01 1284.35 2214.88 1329.93 2241.97 1330.45C2242.41 1330.47 2242.85 1330.47 2243.29 1330.47C2291.17 1330.47 2347.77 1277.77 2399.81 1212.64C2403.49 1223.28 2406.99 1233.95 2410.25 1244.68C2420.11 1277.01 2428.04 1309.73 2432.67 1342.59C2437.17 1375.31 2439.05 1409.03 2437.63 1442.2C2435.04 1508.75 2420.16 1574.57 2393.71 1635.69C2367.29 1696.83 2329.89 1753.35 2284.35 1802.75C2238.84 1852.2 2186.15 1895.36 2128.84 1931.57C2100.17 1949.69 2070.45 1966.23 2039.97 1981.31C2009.4 1996.27 1977.99 2009.56 1946.09 2021.63L1922.04 2030.39C1914.11 2033.15 1906.19 2035.71 1898.11 2038.19C1881.95 2043.11 1865.47 2047.55 1848.85 2051.73C1815.61 2060.08 1781.8 2067.27 1747.84 2074.03C1713.91 2080.92 1679.75 2087.25 1645.53 2093.44L1542.83 2112.32C1474.25 2124.84 1405.6 2137.48 1337.17 2152.23C1331.37 2153.47 1327.11 2158.55 1326.93 2164.52" fill="#BD906C"/>
<path d="M1911.19 349.987C1898.37 342.093 1885.19 334.533 1871.64 327.32C1861.61 321.987 1851.39 316.827 1840.95 311.853C1840.05 298.08 1841.28 285.2 1844.48 272.147C1854.21 277.387 1863.81 282.867 1873.27 288.574C1879.13 305.84 1893.25 325.507 1911.19 349.987" fill="#BE9E8E"/>
<path d="M1338.96 2165.04L1326.93 2164.52C1327.11 2158.55 1331.37 2153.47 1337.17 2152.23C1405.6 2137.48 1474.25 2124.84 1542.83 2112.32L1645.53 2093.44C1679.75 2087.25 1713.91 2080.92 1747.84 2074.03C1781.8 2067.27 1815.61 2060.08 1848.85 2051.73C1865.47 2047.55 1881.95 2043.11 1898.11 2038.19C1906.19 2035.71 1914.11 2033.15 1922.04 2030.39L1946.09 2021.63C1977.99 2009.56 2009.4 1996.27 2039.97 1981.31C2070.45 1966.23 2100.17 1949.69 2128.84 1931.57C2186.15 1895.36 2238.84 1852.2 2284.35 1802.75C2329.89 1753.35 2367.29 1696.83 2393.71 1635.69C2420.16 1574.57 2435.04 1508.75 2437.63 1442.2C2439.05 1409.03 2437.17 1375.31 2432.67 1342.59C2428.04 1309.73 2420.11 1277.01 2410.25 1244.68C2406.99 1233.95 2403.49 1223.28 2399.81 1212.64C2406.56 1204.2 2413.24 1195.55 2419.8 1186.77C2420.59 1188.95 2421.37 1191.12 2422.16 1193.29C2423.12 1195.88 2424.03 1198.47 2424.87 1201.05C2425.45 1202.61 2425.97 1204.16 2426.55 1205.79C2443.76 1255.91 2457.21 1308.17 2462.39 1360.44C2493.44 1675.32 2277.07 1935.28 1929.27 2055.52C1826.29 2091.11 1628.75 2125 1338.96 2165.04M1231.65 2160.51L1219.56 2159.99C960.506 2131.47 728.613 2050.73 607.333 1987.09C439.737 1899.12 286.373 1786.19 226.864 1626.73C245.737 1650 266.732 1672.03 289.436 1692.97C295.666 1702.93 302.318 1712.68 309.366 1722.16C348.673 1775.67 398.921 1821.64 453.566 1861.92C508.225 1902.23 567.726 1937.31 628.626 1968.73C689.12 1999.49 753.773 2024.03 818.866 2046.32C949.533 2090.43 1084.19 2122.8 1220.95 2147.15C1227.44 2148.29 1231.95 2154.08 1231.65 2160.51M1873.27 288.574C1863.81 282.867 1854.21 277.387 1844.48 272.147C1846.69 263.093 1849.87 253.973 1853.93 244.4L1853.97 244.387C1860.81 248.027 1867.55 251.76 1874.17 255.574C1873.97 255.987 1873.79 256.413 1873.59 256.827C1873.21 257.653 1872.87 258.493 1872.55 259.347C1871.85 261.213 1871.32 263.094 1871 265.04C1870.52 267.414 1870.29 269.827 1870.29 272.267C1870.29 277.507 1871.33 282.907 1873.27 288.574" fill="#181818"/>
<path d="M2505.96 1058.31C2439.88 1165.79 2326.91 1332.19 2241.97 1330.45C2211.79 1329.88 1994.4 1273.35 2044.51 932.827C2114.41 458 1855.09 344.88 1871 265.04C1871.47 262.214 1872.39 259.507 1873.59 256.827C1902.35 193.773 2043.41 177.093 2165.04 241.227C2366.92 347.693 2353.32 301.893 2450.63 369.267C2605.96 476.88 2642 702.227 2574.31 910.147C2557.77 961.253 2534.85 1011.28 2505.96 1058.31" fill="#A16044"/>
<path d="M2450.96 369.507C2450.85 369.427 2450.73 369.347 2450.63 369.267C2450.73 369.347 2450.85 369.427 2450.96 369.507Z" fill="#FFF0EB"/>
<path d="M1872.55 259.347C1872.87 258.493 1873.21 257.653 1873.59 256.827C1873.21 257.667 1872.87 258.507 1872.55 259.347Z" fill="#B2B2D4"/>
<path d="M2606.03 742.32C2593.39 614.08 2538.91 500.08 2439.03 430.907C2333.28 357.707 2348.04 407.48 2128.56 291.72C2070.69 261.187 2008.75 247.507 1954.76 247.507C1923.88 247.507 1895.6 251.987 1872.2 260.36C1872.31 260.014 1872.43 259.68 1872.55 259.347C1872.87 258.507 1873.21 257.667 1873.59 256.827C1889.76 221.374 1941.47 200.574 2005.24 200.574C2054.87 200.574 2111.81 213.16 2165.04 241.227C2366.92 347.694 2353.32 301.894 2450.63 369.267C2450.73 369.347 2450.85 369.427 2450.96 369.507C2564.55 448.44 2614.21 590.374 2606.03 742.32Z" fill="#E3CFC7"/>
<path d="M2243.29 1330.47C2242.85 1330.47 2242.41 1330.47 2241.97 1330.45C2214.88 1329.93 2037.01 1284.35 2037.04 1028.87C2037.04 999.667 2039.36 967.733 2044.51 932.827C2052.83 876.253 2056.49 824.813 2056.49 777.96C2056.53 443.24 1870.25 342.16 1870.29 272.267C1870.29 269.827 1870.52 267.414 1871 265.04C2123.95 400.707 2150.33 791.28 2146.45 949.293C2143.8 1058.87 2216.49 1146.96 2311.87 1146.96C2393.75 1146.96 2492.32 1082.07 2574.31 910.147C2571.03 920.307 2567.48 930.427 2563.68 940.493C2559.17 952.453 2554.32 964.347 2549.12 976.12C2536.68 1004.24 2522.27 1031.76 2505.96 1058.31C2482.15 1097.03 2452.27 1143.39 2419.8 1186.77C2413.24 1195.55 2406.56 1204.2 2399.81 1212.64C2347.77 1277.77 2291.17 1330.47 2243.29 1330.47" fill="#794850"/>
<path d="M1897.12 267.56C1891.63 279.627 1911.53 306.787 1934.6 338.24C2004.23 433.227 2120.77 592.2 2070.11 936.56C2050.81 1067.69 2069.87 1168.24 2126.72 1235.41C2174.29 1291.61 2232.91 1304.4 2242.48 1304.6C2242.73 1304.6 2243 1304.6 2243.27 1304.6C2273.88 1304.6 2345.32 1270.25 2483.93 1044.8C2552.73 932.893 2587.75 798.587 2580 676.32C2572.05 550.88 2520.87 449.387 2435.88 390.533C2392.8 360.707 2374.48 355.187 2344.13 346.054C2308.91 335.44 2260.68 320.92 2152.95 264.12C2072.83 221.88 1988.2 219.614 1939.88 236.12C1918.17 243.52 1902.99 254.693 1897.12 267.56V267.56ZM2243.28 1356.35C2242.67 1356.35 2242.07 1356.35 2241.44 1356.33C2220.29 1355.92 2146.56 1338.93 2087.23 1268.84C2020.35 1189.83 1997.36 1075.51 2018.91 929.027C2066.48 605.667 1957.8 457.413 1892.87 368.827C1858.84 322.413 1831.96 285.76 1850.04 246.107C1862.04 219.76 1887.33 199.373 1923.16 187.147C1994.96 162.64 2094.63 174.88 2177.08 218.347C2280.39 272.813 2325.85 286.507 2359.05 296.507C2391.85 306.374 2415.55 313.52 2465.33 347.987C2661.72 483.96 2689.84 808.707 2528.01 1071.91C2408.77 1265.85 2318.2 1356.35 2243.28 1356.35" fill="#181818"/>
<path d="M3377.67 2615.43C3377.67 2615.43 3312.6 2693.63 3222.43 2725.01Z" fill="#E8C797"/>
<path d="M3387.6 2623.71C3377.15 2637.43 3366.43 2649.53 3354.81 2661.56C3343.25 2673.47 3330.99 2684.77 3318.07 2695.48C3305.2 2706.27 3291.41 2716.13 3276.96 2725.29C3262.59 2734.59 3247 2742.31 3230.92 2749.45C3217.83 2755.27 3202.49 2749.36 3196.67 2736.25C3190.85 2723.16 3196.76 2707.83 3209.87 2702C3210.87 2701.56 3211.89 2701.19 3212.91 2700.87L3213.92 2700.57C3227.79 2696.49 3241.81 2691.89 3255.36 2685.49C3268.95 2679.27 3282.39 2672.2 3295.31 2664.03C3308.28 2655.96 3320.95 2647.12 3333.12 2637.57C3345.19 2628.09 3357.23 2617.63 3367.72 2607.16L3368.17 2606.69C3373.24 2601.65 3381.43 2601.67 3386.48 2606.72C3391.11 2611.36 3391.48 2618.64 3387.6 2623.71" fill="#181818"/>
<path d="M1620.64 2176C1477.63 2310.39 1299.37 2456.59 1299.37 2456.59C1299.37 2456.59 1071.09 2387.89 974.04 2585.4C899.48 2737.13 1051.32 3000.17 1280 3026.99C1472.28 3049.53 1658.51 2954.44 1959.95 2646.21L1620.64 2176" fill="#FCC06A"/>
<path d="M1629.51 2185.43C1606.25 2212.77 1581.72 2238.88 1556.55 2264.24C1531.33 2289.57 1505.6 2314.35 1479.27 2338.43C1452.97 2362.53 1426.36 2386.29 1399.15 2409.35C1371.93 2432.45 1344.47 2455.05 1315.77 2476.59L1313.43 2478.36C1307.07 2483.13 1298.85 2483.96 1291.92 2481.36H1291.91C1288.84 2480.49 1284.23 2479.35 1280.19 2478.48C1276.01 2477.57 1271.75 2476.75 1267.48 2476C1258.92 2474.52 1250.25 2473.37 1241.57 2472.49C1224.2 2470.87 1206.75 2470.48 1189.51 2471.52C1155.05 2473.57 1121.4 2481.73 1091.79 2497.05C1062.23 2512.43 1036.87 2534.88 1017.56 2562.57C1014.96 2565.88 1012.87 2569.6 1010.59 2573.17C1008.39 2576.8 1005.93 2580.25 1004.05 2584.12L998 2595.43C996.106 2599.17 994.773 2602.79 993.093 2606.44C987.133 2621.28 983.453 2637.24 981.813 2653.68C980.066 2670.11 980.693 2687.05 982.96 2703.91C985.226 2720.76 988.866 2737.64 994.36 2754.11C1004.99 2787.08 1020.96 2818.76 1040.96 2847.63C1080.83 2905.39 1136.65 2952.87 1200.89 2979.11C1208.79 2982.72 1217.12 2985.11 1225.23 2988.12L1237.68 2991.68C1241.81 2992.91 1245.97 2994.04 1250.21 2994.83L1262.85 2997.56L1275.63 2999.47C1284.01 3001.01 1293.07 3001.13 1301.8 3001.92C1337 3004.33 1372.33 3002.93 1406.85 2995.81L1419.84 2993.49L1432.65 2990.09C1441.16 2987.69 1449.81 2985.93 1458.2 2983.04C1474.93 2977.08 1491.88 2971.81 1508.15 2964.19C1541.21 2950.64 1572.68 2932.48 1603.8 2913.89C1665.37 2875.12 1723.6 2829.67 1779.55 2781.24C1807.37 2756.8 1835.21 2732.31 1862.07 2706.59C1889.67 2681.69 1917.32 2656.75 1950.71 2637.17L1950.87 2637.08C1957.23 2633.35 1965.41 2635.48 1969.15 2641.85C1971.65 2646.13 1971.49 2651.24 1969.2 2655.27C1959.52 2672.11 1948.13 2687.36 1936.24 2702.15C1924.4 2716.97 1911.39 2730.72 1897.88 2743.95C1871.09 2770.6 1843.13 2796.21 1815.12 2821.79L1772.03 2859.13L1727.47 2895.01C1712.29 2906.65 1696.75 2917.89 1681.29 2929.19C1665.37 2939.97 1649.29 2950.56 1633.12 2961.03C1599.92 2980.81 1566.19 3000.17 1529.81 3015.07C1520.71 3018.73 1511.99 3023.16 1502.51 3026.08L1474.49 3035.59C1465.13 3038.69 1455.35 3040.67 1445.8 3043.24L1431.37 3046.87C1426.51 3047.8 1421.57 3048.55 1416.68 3049.4C1406.84 3050.88 1397.11 3053.03 1387.19 3053.91L1357.41 3056.32C1350.91 3056.76 1344.37 3056.69 1337.85 3056.64C1334.43 3056.6 1331 3056.57 1327.59 3056.61C1325.85 3056.57 1324.12 3056.59 1322.39 3056.59C1319.15 3056.6 1315.91 3056.61 1312.69 3056.37L1297.87 3055.16C1287.96 3054.19 1278.2 3053.92 1268.12 3052.05L1253.12 3049.67L1238.28 3046.41C1233.32 3045.43 1228.44 3044.09 1223.6 3042.64L1209.04 3038.39C1199.57 3034.88 1189.88 3031.95 1180.71 3027.75C1106 2996.75 1043.56 2942.28 998.346 2876.99C975.693 2844.25 957.466 2808.28 945.093 2769.92C938.733 2750.8 934.373 2730.88 931.653 2710.61C928.946 2690.35 928.133 2669.56 930.306 2648.69C932.373 2627.85 937.106 2606.93 945.133 2586.99C947.306 2582.11 949.36 2576.96 951.693 2572.35L958.893 2558.85C961.16 2554.31 964.08 2550.04 966.746 2545.67C969.52 2541.35 972.066 2536.91 975.24 2532.8C998.746 2498.97 1031 2470.2 1068.05 2451.08C1105.15 2431.89 1146.04 2422.28 1186.31 2419.88C1206.48 2418.65 1226.61 2419.12 1246.56 2420.99C1256.52 2421.99 1266.45 2423.31 1276.36 2425.03C1281.32 2425.89 1286.27 2426.84 1291.24 2427.93C1296.36 2429.05 1300.87 2430.11 1306.8 2431.8L1306.83 2431.81L1282.96 2436.57C1309.15 2412.91 1336.15 2389.8 1363.19 2366.93C1390.2 2344 1417.52 2321.43 1444.88 2298.89C1472.27 2276.37 1499.75 2254 1527.51 2231.89C1555.25 2209.79 1583.09 2187.79 1611.79 2166.57L1611.84 2166.53C1617.63 2162.25 1625.77 2163.48 1630.05 2169.27C1633.72 2174.23 1633.33 2180.93 1629.51 2185.43" fill="#181818"/>
<path d="M1305.16 2788.93C1324.09 2852.45 1297.96 2916.31 1246.8 2931.55C1195.64 2946.79 1138.83 2907.65 1119.91 2844.13C1100.97 2780.6 1127.11 2716.75 1178.27 2701.51C1229.43 2686.27 1286.24 2725.41 1305.16 2788.93Z" fill="white"/>
<path d="M1332.92 3003.01C1322.55 3003.01 1312.17 3002.63 1301.8 3001.92C1293.07 3001.13 1284.01 3001.01 1275.63 2999.47L1262.85 2997.56L1250.21 2994.83C1245.97 2994.04 1241.81 2992.91 1237.68 2991.68L1225.23 2988.12C1217.12 2985.11 1208.79 2982.72 1200.89 2979.11C1136.65 2952.87 1080.83 2905.39 1040.96 2847.63C1023.85 2822.95 1009.71 2796.21 999.32 2768.37C1040.55 2824.61 1094.15 2879.15 1156.21 2905.03C1175.73 2923.88 1199.87 2934.84 1224.17 2934.84C1231.75 2934.84 1239.33 2933.77 1246.8 2931.55C1257.08 2928.49 1266.33 2923.47 1274.43 2916.88C1400.27 2895.97 1471.56 2795.79 1471.56 2795.79C1471.56 2795.79 1517.68 2801.81 1569.63 2801.81C1608.49 2801.81 1650.61 2798.44 1679.15 2786.65C1714.16 2772.2 1776.45 2734.04 1803.57 2712.45C1839.01 2684.25 1897.56 2652.43 1936.4 2646.09C1909.24 2664.04 1885.64 2685.33 1862.07 2706.59C1835.21 2732.31 1807.37 2756.8 1779.55 2781.24C1723.6 2829.67 1665.37 2875.12 1603.8 2913.89C1572.68 2932.48 1541.21 2950.64 1508.15 2964.19C1491.88 2971.81 1474.93 2977.08 1458.2 2983.04C1449.81 2985.93 1441.16 2987.69 1432.65 2990.09L1419.84 2993.49L1406.85 2995.81C1382.51 3000.84 1357.75 3003.01 1332.92 3003.01" fill="#BD906C"/>
<path d="M1333.13 3030.16C1315.4 3030.16 1297.72 3029.08 1279.97 3027C1103.59 3006.24 972.853 2844.99 956.56 2702.68C968.72 2723.75 983.067 2746.19 999.32 2768.37C1009.71 2796.21 1023.85 2822.95 1040.96 2847.63C1080.83 2905.39 1136.65 2952.87 1200.89 2979.11C1208.79 2982.72 1217.12 2985.11 1225.23 2988.12L1237.68 2991.68C1241.81 2992.91 1245.97 2994.04 1250.21 2994.83L1262.85 2997.56L1275.63 2999.47C1284.01 3001.01 1293.07 3001.13 1301.8 3001.92C1312.17 3002.63 1322.55 3003.01 1332.92 3003.01C1357.75 3003.01 1382.51 3000.84 1406.85 2995.81L1419.84 2993.49L1432.65 2990.09C1441.16 2987.69 1449.81 2985.93 1458.2 2983.04C1474.93 2977.08 1491.88 2971.81 1508.15 2964.19C1541.21 2950.64 1572.68 2932.48 1603.8 2913.89C1665.37 2875.12 1723.6 2829.67 1779.55 2781.24C1807.37 2756.8 1835.21 2732.31 1862.07 2706.59C1885.64 2685.33 1909.24 2664.04 1936.4 2646.09C1940.93 2645.35 1945.19 2644.96 1949.11 2644.96C1953.08 2644.96 1956.71 2645.36 1959.92 2646.21C1686.32 2925.99 1507.61 3030.15 1333.13 3030.16" fill="#181818"/>
<path d="M1224.17 2934.84C1199.87 2934.84 1175.73 2923.88 1156.21 2905.03C1179.97 2914.93 1204.97 2920.64 1230.99 2920.64C1232.49 2920.64 1233.99 2920.63 1235.49 2920.59C1249 2920.24 1261.99 2918.95 1274.43 2916.88C1266.33 2923.47 1257.08 2928.49 1246.8 2931.55C1239.33 2933.77 1231.75 2934.84 1224.17 2934.84" fill="#BFBFDC"/>
<path d="M1308.44 2639.67C1316.07 2665.27 1305.53 2691 1284.91 2697.15C1264.29 2703.29 1241.4 2687.51 1233.77 2661.91C1226.13 2636.31 1236.67 2610.57 1257.29 2604.43C1277.91 2598.28 1300.8 2614.07 1308.44 2639.67Z" fill="white"/>
<path d="M1193.44 2616.01C1201.07 2641.61 1190.53 2667.36 1169.92 2673.49C1149.31 2679.64 1126.4 2663.87 1118.77 2638.27C1111.15 2612.67 1121.68 2586.92 1142.29 2580.79C1162.92 2574.64 1185.81 2590.41 1193.44 2616.01Z" fill="white"/>
<path d="M1116.88 2683.85C1124.51 2709.45 1113.97 2735.19 1093.36 2741.33C1072.75 2747.48 1049.84 2731.71 1042.21 2706.11C1034.59 2680.49 1045.12 2654.76 1065.73 2648.63C1086.36 2642.48 1109.25 2658.25 1116.88 2683.85Z" fill="white"/>
<path d="M1305.67 2431.49C1312.49 2432.92 1317.47 2434.28 1323.05 2436.04C1328.44 2437.79 1333.76 2439.64 1338.93 2441.81C1349.36 2445.96 1359.35 2451.04 1369.12 2456.49C1388.56 2467.61 1406.47 2481.59 1422.35 2497.55C1426.21 2501.68 1430.45 2505.35 1433.92 2509.85L1444.56 2523C1447.93 2527.51 1450.97 2532.31 1454.05 2536.99L1458.6 2544.07L1462.52 2551.55C1473.63 2571.09 1479.69 2592.93 1483.95 2614.21C1485.36 2621.24 1480.8 2628.07 1473.79 2629.47C1468.01 2630.63 1462.37 2627.76 1459.77 2622.8L1459.16 2621.64C1450.05 2604.29 1441.16 2587.56 1428.91 2573.23L1424.68 2567.69L1419.89 2562.56C1416.61 2559.23 1413.71 2555.65 1410.39 2552.41C1403.51 2546.12 1396.85 2539.79 1389.43 2534.2C1374.83 2522.81 1359.09 2512.95 1342.69 2504.2L1330.27 2497.88C1326.01 2496.04 1321.93 2493.75 1317.65 2491.99C1313.4 2490.13 1309.2 2488.19 1304.95 2486.51L1293.08 2481.68L1290.65 2480.69C1277.44 2475.32 1271.09 2460.24 1276.47 2447.04C1281.25 2435.29 1293.68 2428.99 1305.67 2431.49" fill="#181818"/>
<path d="M2971.03 498.4C2929.95 455.934 2901.92 400.2 2894.43 337.013C2876.27 183.627 2985.88 44.5469 3139.27 26.3869C3292.65 8.22692 3431.73 117.84 3449.89 271.227C3468.05 424.613 3358.44 563.694 3205.05 581.854C3162.39 586.907 3120.84 582.04 3082.68 569.133L2962.72 625.72L2971.03 498.4" fill="white"/>
<path d="M2923.57 242.467C2932.2 207.613 2948.23 174.694 2971.12 145.654C3013.44 91.9469 3074.15 57.9469 3142.05 49.9069C3152.29 48.6936 3162.51 48.0934 3172.67 48.0934C3229.85 48.0934 3285.03 67.1334 3330.63 103.08C3359.67 125.973 3382.95 154.227 3399.48 186.107C3347.76 119.547 3267.08 77.8402 3178.83 77.8402C3167.85 77.8402 3156.77 78.4801 3145.6 79.8001C3044.63 91.7601 2962.63 156.12 2923.57 242.467" fill="white"/>
<path d="M3172.67 48.0936C3162.51 48.0936 3152.29 48.6938 3142.05 49.9071C3074.15 57.9471 3013.44 91.947 2971.12 145.654C2928.79 199.36 2909.91 266.32 2917.95 334.227C2924.59 390.307 2948.83 441.387 2988.05 481.934C2992.69 486.734 2995.09 493.28 2994.67 499.934L2988.97 587.16L3072.59 547.707C3078.12 545.107 3084.47 544.747 3090.28 546.694C3126.44 558.934 3164.12 562.84 3202.27 558.334C3342.44 541.734 3442.97 414.187 3426.37 274.014C3418.33 206.12 3384.33 145.414 3330.63 103.08C3285.03 67.1336 3229.85 48.0936 3172.67 48.0936M2962.73 649.414C2958.05 649.414 2953.4 648.027 2949.4 645.307C2942.47 640.587 2938.55 632.547 2939.09 624.187L2946.73 507.08C2904.52 460.334 2878.36 402.734 2870.91 339.8C2861.39 259.334 2883.76 179.974 2933.92 116.334C2984.08 52.6937 3056.01 12.4003 3136.48 2.867C3216.95 -6.66633 3296.32 15.7203 3359.95 65.8803C3423.59 116.04 3463.88 187.987 3473.41 268.454C3493.08 434.547 3373.95 585.694 3207.84 605.374C3165.88 610.347 3124.39 606.694 3084.35 594.534L2972.83 647.147C2969.61 648.667 2966.16 649.414 2962.73 649.414" fill="#181818"/>
<path d="M2988.97 587.16L2994.13 507.96C3033.57 524.453 3076.15 533.134 3119.29 533.134C3167.87 533.134 3217.17 522.147 3263.57 498.92C3346.24 457.534 3403.37 385.48 3428.16 303.467C3428.59 431.627 3332.55 542.907 3202.27 558.334C3192.04 559.547 3181.84 560.147 3171.69 560.147C3144.01 560.147 3116.75 555.653 3090.28 546.693C3087.81 545.867 3085.25 545.454 3082.69 545.454C3079.23 545.454 3075.77 546.214 3072.59 547.707L2988.97 587.16" fill="#BFBFDC"/>
<path d="M2962.72 625.72L2971.03 498.4C2970.31 497.654 2969.63 496.88 2968.91 496.12C2977.15 500.427 2985.57 504.387 2994.13 507.96L2988.97 587.16L3072.59 547.707C3075.77 546.214 3079.23 545.454 3082.69 545.454C3085.25 545.454 3087.81 545.867 3090.28 546.693C3116.75 555.653 3144.01 560.147 3171.69 560.147C3181.84 560.147 3192.04 559.547 3202.27 558.334C3332.55 542.907 3428.59 431.627 3428.16 303.467C3435.49 279.227 3439.99 254.12 3441.49 228.693C3445.32 242.427 3448.16 256.627 3449.89 271.227C3468.05 424.613 3358.44 563.694 3205.05 581.854C3193.91 583.174 3182.84 583.813 3171.88 583.813C3140.91 583.813 3110.88 578.667 3082.68 569.133L2962.72 625.72" fill="#181818"/>
<path d="M3083.72 225.573C3107.92 201.373 3147.16 205.707 3171.36 229.92L3175.13 233.68L3178.89 229.92C3203.09 205.707 3242.35 201.373 3266.55 225.573C3290.75 249.787 3290.75 289.026 3266.55 313.226L3262.77 317L3186.68 393.093C3180.31 399.466 3169.96 399.466 3163.57 393.093L3087.48 317L3083.72 313.226C3059.51 289.026 3059.51 249.787 3083.72 225.573Z" fill="#FF0068"/>
</svg>
